STARTFONT 2.1
FONT -bited-ANAKRON-Regular-R-Normal--12-110-75-75-C-80-ISO10646-1
SIZE 11 75 75
FONTBOUNDINGBOX 8 12 0 -2
STARTPROPERTIES 25
FOUNDRY "bited"
FAMILY_NAME "ANAKRON"
WEIGHT_NAME "Regular"
SLANT "R"
SETWIDTH_NAME "Normal"
ADD_STYLE_NAME ""
PIXEL_SIZE 12
POINT_SIZE 110
RESOLUTION_X 75
RESOLUTION_Y 75
SPACING "C"
AVERAGE_WIDTH 80
CHARSET_REGISTRY "ISO10646"
CHARSET_ENCODING "1"
FONT_ASCENT 10
FONT_DESCENT 2
CAP_HEIGHT 7
X_HEIGHT 5
COPYRIGHT "Copyright 2024 The ANAKRON Project Authors (https://github.com/molarmanful/ANAKRON)"
BITED_DWIDTH 8
BITED_WIDTHS "2000 H4sIAAAAAAAAA2NgGKkAAMMEmgv6AAAA"
BITED_TABLE_WIDTH -16
BITED_TABLE_CELL_SCALE 2
BITED_EDITOR_GRID_SIZE 32
BITED_EDITOR_CELL_SIZE 12
ENDPROPERTIES
CHARS 2000
STARTCHAR U+0020
ENCODING 32
SWIDTH 960 0
DWIDTH 8 0
BBX 0 0 0 0
BITMAP
ENDCHAR
STARTCHAR U+0021
ENCODING 33
SWIDTH 960 0
DWIDTH 8 0
BBX 4 8 2 0
BITMAP
60
F0
F0
60
60
00
60
60
ENDCHAR
STARTCHAR U+0022
ENCODING 34
SWIDTH 960 0
DWIDTH 8 0
BBX 5 3 2 6
BITMAP
D8
D8
D8
ENDCHAR
STARTCHAR U+0023
ENCODING 35
SWIDTH 960 0
DWIDTH 8 0
BBX 7 7 1 0
BITMAP
6C
6C
FE
6C
FE
6C
6C
ENDCHAR
STARTCHAR U+0024
ENCODING 36
SWIDTH 960 0
DWIDTH 8 0
BBX 6 9 1 -1
BITMAP
10
10
78
C0
78
0C
78
20
20
ENDCHAR
STARTCHAR U+0025
ENCODING 37
SWIDTH 960 0
DWIDTH 8 0
BBX 6 7 1 0
BITMAP
C4
CC
18
30
60
CC
8C
ENDCHAR
STARTCHAR U+0026
ENCODING 38
SWIDTH 960 0
DWIDTH 8 0
BBX 6 7 1 0
BITMAP
38
68
60
6C
D8
D8
6C
ENDCHAR
STARTCHAR U+0027
ENCODING 39
SWIDTH 960 0
DWIDTH 8 0
BBX 2 3 3 6
BITMAP
C0
C0
C0
ENDCHAR
STARTCHAR U+0028
ENCODING 40
SWIDTH 960 0
DWIDTH 8 0
BBX 4 9 2 -1
BITMAP
30
60
60
C0
C0
C0
60
60
30
ENDCHAR
STARTCHAR U+0029
ENCODING 41
SWIDTH 960 0
DWIDTH 8 0
BBX 4 9 2 -1
BITMAP
C0
60
60
30
30
30
60
60
C0
ENDCHAR
STARTCHAR U+002A
ENCODING 42
SWIDTH 960 0
DWIDTH 8 0
BBX 6 5 1 1
BITMAP
48
30
FC
30
48
ENDCHAR
STARTCHAR U+002B
ENCODING 43
SWIDTH 960 0
DWIDTH 8 0
BBX 6 5 1 1
BITMAP
30
30
FC
30
30
ENDCHAR
STARTCHAR U+002C
ENCODING 44
SWIDTH 960 0
DWIDTH 8 0
BBX 2 4 3 -2
BITMAP
C0
C0
40
80
ENDCHAR
STARTCHAR U+002D
ENCODING 45
SWIDTH 960 0
DWIDTH 8 0
BBX 4 1 2 3
BITMAP
F0
ENDCHAR
STARTCHAR U+002E
ENCODING 46
SWIDTH 960 0
DWIDTH 8 0
BBX 2 2 3 0
BITMAP
C0
C0
ENDCHAR
STARTCHAR U+002F
ENCODING 47
SWIDTH 960 0
DWIDTH 8 0
BBX 6 7 1 0
BITMAP
04
0C
18
30
60
C0
80
ENDCHAR
STARTCHAR U+0030
ENCODING 48
SWIDTH 960 0
DWIDTH 8 0
BBX 6 7 1 0
BITMAP
78
CC
DC
FC
EC
CC
78
ENDCHAR
STARTCHAR U+0031
ENCODING 49
SWIDTH 960 0
DWIDTH 8 0
BBX 6 7 1 0
BITMAP
10
F0
30
30
30
30
FC
ENDCHAR
STARTCHAR U+0032
ENCODING 50
SWIDTH 960 0
DWIDTH 8 0
BBX 6 7 1 0
BITMAP
78
CC
0C
18
30
64
FC
ENDCHAR
STARTCHAR U+0033
ENCODING 51
SWIDTH 960 0
DWIDTH 8 0
BBX 6 7 1 0
BITMAP
78
CC
0C
38
0C
CC
78
ENDCHAR
STARTCHAR U+0034
ENCODING 52
SWIDTH 960 0
DWIDTH 8 0
BBX 6 7 1 0
BITMAP
08
18
38
58
FC
18
18
ENDCHAR
STARTCHAR U+0035
ENCODING 53
SWIDTH 960 0
DWIDTH 8 0
BBX 6 7 1 0
BITMAP
FC
C0
F8
0C
0C
CC
78
ENDCHAR
STARTCHAR U+0036
ENCODING 54
SWIDTH 960 0
DWIDTH 8 0
BBX 6 7 1 0
BITMAP
38
60
C0
D8
CC
CC
78
ENDCHAR
STARTCHAR U+0037
ENCODING 55
SWIDTH 960 0
DWIDTH 8 0
BBX 6 7 1 0
BITMAP
FC
8C
18
18
30
30
30
ENDCHAR
STARTCHAR U+0038
ENCODING 56
SWIDTH 960 0
DWIDTH 8 0
BBX 6 7 1 0
BITMAP
78
CC
CC
78
CC
CC
78
ENDCHAR
STARTCHAR U+0039
ENCODING 57
SWIDTH 960 0
DWIDTH 8 0
BBX 6 7 1 0
BITMAP
78
CC
CC
6C
0C
18
70
ENDCHAR
STARTCHAR U+003A
ENCODING 58
SWIDTH 960 0
DWIDTH 8 0
BBX 2 6 3 0
BITMAP
C0
C0
00
00
C0
C0
ENDCHAR
STARTCHAR U+003B
ENCODING 59
SWIDTH 960 0
DWIDTH 8 0
BBX 2 8 3 -2
BITMAP
C0
C0
00
00
C0
C0
40
80
ENDCHAR
STARTCHAR U+003C
ENCODING 60
SWIDTH 960 0
DWIDTH 8 0
BBX 5 7 1 0
BITMAP
18
30
60
C0
60
30
18
ENDCHAR
STARTCHAR U+003D
ENCODING 61
SWIDTH 960 0
DWIDTH 8 0
BBX 6 4 1 1
BITMAP
FC
00
00
FC
ENDCHAR
STARTCHAR U+003E
ENCODING 62
SWIDTH 960 0
DWIDTH 8 0
BBX 5 7 2 0
BITMAP
C0
60
30
18
30
60
C0
ENDCHAR
STARTCHAR U+003F
ENCODING 63
SWIDTH 960 0
DWIDTH 8 0
BBX 6 8 1 0
BITMAP
78
CC
0C
18
30
00
30
30
ENDCHAR
STARTCHAR U+0040
ENCODING 64
SWIDTH 960 0
DWIDTH 8 0
BBX 6 7 1 0
BITMAP
78
CC
DC
DC
DC
C0
78
ENDCHAR
STARTCHAR U+0041
ENCODING 65
SWIDTH 960 0
DWIDTH 8 0
BBX 6 7 1 0
BITMAP
10
28
4C
FC
CC
CC
CC
ENDCHAR
STARTCHAR U+0042
ENCODING 66
SWIDTH 960 0
DWIDTH 8 0
BBX 6 7 1 0
BITMAP
F8
CC
CC
D8
CC
CC
D8
ENDCHAR
STARTCHAR U+0043
ENCODING 67
SWIDTH 960 0
DWIDTH 8 0
BBX 6 7 1 0
BITMAP
78
CC
C0
C0
C0
CC
78
ENDCHAR
STARTCHAR U+0044
ENCODING 68
SWIDTH 960 0
DWIDTH 8 0
BBX 6 7 1 0
BITMAP
F0
C8
CC
CC
CC
C8
F0
ENDCHAR
STARTCHAR U+0045
ENCODING 69
SWIDTH 960 0
DWIDTH 8 0
BBX 6 7 1 0
BITMAP
FC
C4
C0
F0
C0
C4
FC
ENDCHAR
STARTCHAR U+0046
ENCODING 70
SWIDTH 960 0
DWIDTH 8 0
BBX 6 7 1 0
BITMAP
FC
C4
C0
F0
C0
C0
C0
ENDCHAR
STARTCHAR U+0047
ENCODING 71
SWIDTH 960 0
DWIDTH 8 0
BBX 6 7 1 0
BITMAP
78
CC
C0
DC
CC
CC
6C
ENDCHAR
STARTCHAR U+0048
ENCODING 72
SWIDTH 960 0
DWIDTH 8 0
BBX 6 7 1 0
BITMAP
CC
CC
CC
FC
CC
CC
CC
ENDCHAR
STARTCHAR U+0049
ENCODING 73
SWIDTH 960 0
DWIDTH 8 0
BBX 6 7 1 0
BITMAP
FC
30
30
30
30
30
FC
ENDCHAR
STARTCHAR U+004A
ENCODING 74
SWIDTH 960 0
DWIDTH 8 0
BBX 6 8 1 -1
BITMAP
7C
18
18
18
18
18
D8
70
ENDCHAR
STARTCHAR U+004B
ENCODING 75
SWIDTH 960 0
DWIDTH 8 0
BBX 6 7 1 0
BITMAP
CC
CC
C8
D0
E8
CC
CC
ENDCHAR
STARTCHAR U+004C
ENCODING 76
SWIDTH 960 0
DWIDTH 8 0
BBX 6 7 1 0
BITMAP
C0
C0
C0
C0
C0
C4
FC
ENDCHAR
STARTCHAR U+004D
ENCODING 77
SWIDTH 960 0
DWIDTH 8 0
BBX 7 7 1 0
BITMAP
82
C6
EE
D6
C6
C6
C6
ENDCHAR
STARTCHAR U+004E
ENCODING 78
SWIDTH 960 0
DWIDTH 8 0
BBX 6 7 1 0
BITMAP
8C
CC
EC
DC
CC
CC
CC
ENDCHAR
STARTCHAR U+004F
ENCODING 79
SWIDTH 960 0
DWIDTH 8 0
BBX 6 7 1 0
BITMAP
78
CC
CC
CC
CC
CC
78
ENDCHAR
STARTCHAR U+0050
ENCODING 80
SWIDTH 960 0
DWIDTH 8 0
BBX 6 7 1 0
BITMAP
F8
CC
CC
D8
C0
C0
C0
ENDCHAR
STARTCHAR U+0051
ENCODING 81
SWIDTH 960 0
DWIDTH 8 0
BBX 6 8 1 -1
BITMAP
78
CC
CC
CC
CC
C8
70
0C
ENDCHAR
STARTCHAR U+0052
ENCODING 82
SWIDTH 960 0
DWIDTH 8 0
BBX 6 7 1 0
BITMAP
F8
CC
CC
D8
C8
CC
CC
ENDCHAR
STARTCHAR U+0053
ENCODING 83
SWIDTH 960 0
DWIDTH 8 0
BBX 6 7 1 0
BITMAP
78
CC
C0
78
0C
CC
78
ENDCHAR
STARTCHAR U+0054
ENCODING 84
SWIDTH 960 0
DWIDTH 8 0
BBX 6 7 1 0
BITMAP
FC
30
30
30
30
30
30
ENDCHAR
STARTCHAR U+0055
ENCODING 85
SWIDTH 960 0
DWIDTH 8 0
BBX 6 7 1 0
BITMAP
CC
CC
CC
CC
CC
CC
78
ENDCHAR
STARTCHAR U+0056
ENCODING 86
SWIDTH 960 0
DWIDTH 8 0
BBX 6 7 1 0
BITMAP
CC
CC
CC
CC
C8
50
20
ENDCHAR
STARTCHAR U+0057
ENCODING 87
SWIDTH 960 0
DWIDTH 8 0
BBX 7 7 1 0
BITMAP
C6
C6
D6
D6
D6
D6
6C
ENDCHAR
STARTCHAR U+0058
ENCODING 88
SWIDTH 960 0
DWIDTH 8 0
BBX 6 7 1 0
BITMAP
CC
CC
48
30
48
CC
CC
ENDCHAR
STARTCHAR U+0059
ENCODING 89
SWIDTH 960 0
DWIDTH 8 0
BBX 6 7 1 0
BITMAP
CC
CC
48
30
30
30
30
ENDCHAR
STARTCHAR U+005A
ENCODING 90
SWIDTH 960 0
DWIDTH 8 0
BBX 6 7 1 0
BITMAP
FC
8C
18
30
60
C4
FC
ENDCHAR
STARTCHAR U+005B
ENCODING 91
SWIDTH 960 0
DWIDTH 8 0
BBX 4 9 2 -1
BITMAP
F0
C0
C0
C0
C0
C0
C0
C0
F0
ENDCHAR
STARTCHAR U+005C
ENCODING 92
SWIDTH 960 0
DWIDTH 8 0
BBX 6 7 1 0
BITMAP
80
C0
60
30
18
0C
04
ENDCHAR
STARTCHAR U+005D
ENCODING 93
SWIDTH 960 0
DWIDTH 8 0
BBX 4 9 2 -1
BITMAP
F0
30
30
30
30
30
30
30
F0
ENDCHAR
STARTCHAR U+005E
ENCODING 94
SWIDTH 960 0
DWIDTH 8 0
BBX 7 4 1 5
BITMAP
10
38
6C
C6
ENDCHAR
STARTCHAR U+005F
ENCODING 95
SWIDTH 960 0
DWIDTH 8 0
BBX 6 1 1 -1
BITMAP
FC
ENDCHAR
STARTCHAR U+0060
ENCODING 96
SWIDTH 960 0
DWIDTH 8 0
BBX 4 3 2 7
BITMAP
C0
60
30
ENDCHAR
STARTCHAR U+0061
ENCODING 97
SWIDTH 960 0
DWIDTH 8 0
BBX 6 5 1 0
BITMAP
78
0C
7C
CC
6C
ENDCHAR
STARTCHAR U+0062
ENCODING 98
SWIDTH 960 0
DWIDTH 8 0
BBX 6 7 1 0
BITMAP
C0
C0
D8
EC
CC
CC
D8
ENDCHAR
STARTCHAR U+0063
ENCODING 99
SWIDTH 960 0
DWIDTH 8 0
BBX 6 5 1 0
BITMAP
78
C8
C0
CC
78
ENDCHAR
STARTCHAR U+0064
ENCODING 100
SWIDTH 960 0
DWIDTH 8 0
BBX 6 7 1 0
BITMAP
0C
0C
6C
DC
CC
CC
6C
ENDCHAR
STARTCHAR U+0065
ENCODING 101
SWIDTH 960 0
DWIDTH 8 0
BBX 6 5 1 0
BITMAP
78
CC
FC
C0
78
ENDCHAR
STARTCHAR U+0066
ENCODING 102
SWIDTH 960 0
DWIDTH 8 0
BBX 6 7 1 0
BITMAP
1C
30
FC
30
30
30
30
ENDCHAR
STARTCHAR U+0067
ENCODING 103
SWIDTH 960 0
DWIDTH 8 0
BBX 6 8 1 -2
BITMAP
0C
78
CC
78
C0
78
0C
38
ENDCHAR
STARTCHAR U+0068
ENCODING 104
SWIDTH 960 0
DWIDTH 8 0
BBX 6 7 1 0
BITMAP
C0
C0
D8
EC
CC
CC
CC
ENDCHAR
STARTCHAR U+0069
ENCODING 105
SWIDTH 960 0
DWIDTH 8 0
BBX 6 8 1 0
BITMAP
30
30
00
F0
30
30
30
1C
ENDCHAR
STARTCHAR U+006A
ENCODING 106
SWIDTH 960 0
DWIDTH 8 0
BBX 5 10 1 -2
BITMAP
18
18
00
78
18
18
18
18
D8
70
ENDCHAR
STARTCHAR U+006B
ENCODING 107
SWIDTH 960 0
DWIDTH 8 0
BBX 6 7 1 0
BITMAP
C0
C0
CC
CC
D8
EC
CC
ENDCHAR
STARTCHAR U+006C
ENCODING 108
SWIDTH 960 0
DWIDTH 8 0
BBX 6 7 1 0
BITMAP
F0
30
30
30
30
30
1C
ENDCHAR
STARTCHAR U+006D
ENCODING 109
SWIDTH 960 0
DWIDTH 8 0
BBX 6 5 1 0
BITMAP
E8
D4
D4
D4
D4
ENDCHAR
STARTCHAR U+006E
ENCODING 110
SWIDTH 960 0
DWIDTH 8 0
BBX 6 5 1 0
BITMAP
D8
EC
CC
CC
CC
ENDCHAR
STARTCHAR U+006F
ENCODING 111
SWIDTH 960 0
DWIDTH 8 0
BBX 6 5 1 0
BITMAP
78
CC
CC
CC
78
ENDCHAR
STARTCHAR U+0070
ENCODING 112
SWIDTH 960 0
DWIDTH 8 0
BBX 6 7 1 -2
BITMAP
D8
EC
CC
CC
D8
C0
C0
ENDCHAR
STARTCHAR U+0071
ENCODING 113
SWIDTH 960 0
DWIDTH 8 0
BBX 6 7 1 -2
BITMAP
6C
DC
CC
CC
6C
0C
0C
ENDCHAR
STARTCHAR U+0072
ENCODING 114
SWIDTH 960 0
DWIDTH 8 0
BBX 6 5 1 0
BITMAP
EC
70
60
60
60
ENDCHAR
STARTCHAR U+0073
ENCODING 115
SWIDTH 960 0
DWIDTH 8 0
BBX 6 5 1 0
BITMAP
78
C0
78
0C
78
ENDCHAR
STARTCHAR U+0074
ENCODING 116
SWIDTH 960 0
DWIDTH 8 0
BBX 6 7 1 0
BITMAP
30
30
FC
30
30
30
1C
ENDCHAR
STARTCHAR U+0075
ENCODING 117
SWIDTH 960 0
DWIDTH 8 0
BBX 6 5 1 0
BITMAP
CC
CC
CC
DC
6C
ENDCHAR
STARTCHAR U+0076
ENCODING 118
SWIDTH 960 0
DWIDTH 8 0
BBX 6 5 1 0
BITMAP
CC
CC
C8
50
20
ENDCHAR
STARTCHAR U+0077
ENCODING 119
SWIDTH 960 0
DWIDTH 8 0
BBX 6 5 1 0
BITMAP
D4
D4
D4
D4
68
ENDCHAR
STARTCHAR U+0078
ENCODING 120
SWIDTH 960 0
DWIDTH 8 0
BBX 6 5 1 0
BITMAP
CC
CC
78
CC
CC
ENDCHAR
STARTCHAR U+0079
ENCODING 121
SWIDTH 960 0
DWIDTH 8 0
BBX 6 7 1 -2
BITMAP
CC
CC
CC
DC
6C
0C
78
ENDCHAR
STARTCHAR U+007A
ENCODING 122
SWIDTH 960 0
DWIDTH 8 0
BBX 6 5 1 0
BITMAP
FC
98
30
64
FC
ENDCHAR
STARTCHAR U+007B
ENCODING 123
SWIDTH 960 0
DWIDTH 8 0
BBX 6 9 1 -1
BITMAP
1C
30
30
30
E0
30
30
30
1C
ENDCHAR
STARTCHAR U+007C
ENCODING 124
SWIDTH 960 0
DWIDTH 8 0
BBX 2 9 3 -1
BITMAP
C0
C0
C0
C0
C0
C0
C0
C0
C0
ENDCHAR
STARTCHAR U+007D
ENCODING 125
SWIDTH 960 0
DWIDTH 8 0
BBX 6 9 1 -1
BITMAP
E0
30
30
30
1C
30
30
30
E0
ENDCHAR
STARTCHAR U+007E
ENCODING 126
SWIDTH 960 0
DWIDTH 8 0
BBX 7 3 1 2
BITMAP
66
D6
CC
ENDCHAR
STARTCHAR U+00A0
ENCODING 160
SWIDTH 960 0
DWIDTH 8 0
BBX 0 0 0 0
BITMAP
ENDCHAR
STARTCHAR U+00A1
ENCODING 161
SWIDTH 960 0
DWIDTH 8 0
BBX 4 8 2 -1
BITMAP
60
60
00
60
60
F0
F0
60
ENDCHAR
STARTCHAR U+00A2
ENCODING 162
SWIDTH 960 0
DWIDTH 8 0
BBX 6 9 1 -1
BITMAP
10
10
78
CC
C0
CC
78
20
20
ENDCHAR
STARTCHAR U+00A3
ENCODING 163
SWIDTH 960 0
DWIDTH 8 0
BBX 6 7 1 0
BITMAP
38
6C
60
F0
60
64
DC
ENDCHAR
STARTCHAR U+00A4
ENCODING 164
SWIDTH 960 0
DWIDTH 8 0
BBX 6 6 1 0
BITMAP
CC
78
CC
CC
78
CC
ENDCHAR
STARTCHAR U+00A5
ENCODING 165
SWIDTH 960 0
DWIDTH 8 0
BBX 6 7 1 0
BITMAP
CC
78
30
FC
30
FC
30
ENDCHAR
STARTCHAR U+00A6
ENCODING 166
SWIDTH 960 0
DWIDTH 8 0
BBX 2 9 3 -1
BITMAP
C0
C0
C0
C0
00
C0
C0
C0
C0
ENDCHAR
STARTCHAR U+00A7
ENCODING 167
SWIDTH 960 0
DWIDTH 8 0
BBX 6 7 1 0
BITMAP
78
C0
78
CC
78
0C
78
ENDCHAR
STARTCHAR U+00A8
ENCODING 168
SWIDTH 960 0
DWIDTH 8 0
BBX 6 2 1 8
BITMAP
CC
CC
ENDCHAR
STARTCHAR U+00A9
ENCODING 169
SWIDTH 960 0
DWIDTH 8 0
BBX 8 8 0 0
BITMAP
3C
42
99
A1
A5
99
42
3C
ENDCHAR
STARTCHAR U+00AA
ENCODING 170
SWIDTH 960 0
DWIDTH 8 0
BBX 5 6 1 2
BITMAP
78
D8
D8
68
00
F8
ENDCHAR
STARTCHAR U+00AB
ENCODING 171
SWIDTH 960 0
DWIDTH 8 0
BBX 6 5 1 1
BITMAP
24
6C
D8
6C
24
ENDCHAR
STARTCHAR U+00AC
ENCODING 172
SWIDTH 960 0
DWIDTH 8 0
BBX 6 3 1 1
BITMAP
FC
0C
0C
ENDCHAR
STARTCHAR U+00AD
ENCODING 173
SWIDTH 960 0
DWIDTH 8 0
BBX 4 1 2 3
BITMAP
F0
ENDCHAR
STARTCHAR U+00AE
ENCODING 174
SWIDTH 960 0
DWIDTH 8 0
BBX 8 8 0 0
BITMAP
3C
42
B9
A5
B9
A5
42
3C
ENDCHAR
STARTCHAR U+00AF
ENCODING 175
SWIDTH 960 0
DWIDTH 8 0
BBX 6 1 1 6
BITMAP
FC
ENDCHAR
STARTCHAR U+00B0
ENCODING 176
SWIDTH 960 0
DWIDTH 8 0
BBX 5 4 1 3
BITMAP
70
D8
D8
70
ENDCHAR
STARTCHAR U+00B1
ENCODING 177
SWIDTH 960 0
DWIDTH 8 0
BBX 6 7 1 0
BITMAP
30
30
FC
30
30
00
FC
ENDCHAR
STARTCHAR U+00B2
ENCODING 178
SWIDTH 960 0
DWIDTH 8 0
BBX 4 5 2 3
BITMAP
E0
B0
30
60
F0
ENDCHAR
STARTCHAR U+00B3
ENCODING 179
SWIDTH 960 0
DWIDTH 8 0
BBX 4 5 2 3
BITMAP
E0
30
60
30
E0
ENDCHAR
STARTCHAR U+00B4
ENCODING 180
SWIDTH 960 0
DWIDTH 8 0
BBX 4 3 2 7
BITMAP
30
60
C0
ENDCHAR
STARTCHAR U+00B5
ENCODING 181
SWIDTH 960 0
DWIDTH 8 0
BBX 7 6 1 -1
BITMAP
CC
CC
CC
CC
F6
C0
ENDCHAR
STARTCHAR U+00B6
ENCODING 182
SWIDTH 960 0
DWIDTH 8 0
BBX 7 9 1 -2
BITMAP
7E
EC
EC
6C
0C
0C
0C
0C
18
ENDCHAR
STARTCHAR U+00B7
ENCODING 183
SWIDTH 960 0
DWIDTH 8 0
BBX 2 2 3 2
BITMAP
C0
C0
ENDCHAR
STARTCHAR U+00B8
ENCODING 184
SWIDTH 960 0
DWIDTH 8 0
BBX 4 3 2 -1
BITMAP
60
30
E0
ENDCHAR
STARTCHAR U+00B9
ENCODING 185
SWIDTH 960 0
DWIDTH 8 0
BBX 4 5 2 3
BITMAP
20
E0
60
60
F0
ENDCHAR
STARTCHAR U+00BA
ENCODING 186
SWIDTH 960 0
DWIDTH 8 0
BBX 5 6 1 1
BITMAP
70
D8
D8
70
00
F8
ENDCHAR
STARTCHAR U+00BB
ENCODING 187
SWIDTH 960 0
DWIDTH 8 0
BBX 6 5 1 1
BITMAP
90
D8
6C
D8
90
ENDCHAR
STARTCHAR U+00BC
ENCODING 188
SWIDTH 960 0
DWIDTH 8 0
BBX 6 11 1 -2
BITMAP
20
E0
60
60
F0
00
0C
1C
3C
0C
0C
ENDCHAR
STARTCHAR U+00BD
ENCODING 189
SWIDTH 960 0
DWIDTH 8 0
BBX 6 11 1 -2
BITMAP
20
E0
60
60
F0
00
38
2C
0C
18
3C
ENDCHAR
STARTCHAR U+00BE
ENCODING 190
SWIDTH 960 0
DWIDTH 8 0
BBX 6 11 1 -2
BITMAP
E0
30
60
30
E0
00
0C
1C
3C
0C
0C
ENDCHAR
STARTCHAR U+00BF
ENCODING 191
SWIDTH 960 0
DWIDTH 8 0
BBX 6 8 1 -1
BITMAP
30
30
00
30
60
C0
CC
78
ENDCHAR
STARTCHAR U+00C0
ENCODING 192
SWIDTH 960 0
DWIDTH 8 0
BBX 6 10 1 0
BITMAP
60
30
00
10
28
4C
FC
CC
CC
CC
ENDCHAR
STARTCHAR U+00C1
ENCODING 193
SWIDTH 960 0
DWIDTH 8 0
BBX 6 10 1 0
BITMAP
18
30
00
10
28
4C
FC
CC
CC
CC
ENDCHAR
STARTCHAR U+00C2
ENCODING 194
SWIDTH 960 0
DWIDTH 8 0
BBX 6 10 1 0
BITMAP
38
6C
00
10
28
4C
FC
CC
CC
CC
ENDCHAR
STARTCHAR U+00C3
ENCODING 195
SWIDTH 960 0
DWIDTH 8 0
BBX 7 10 1 0
BITMAP
76
DC
00
10
28
4C
FC
CC
CC
CC
ENDCHAR
STARTCHAR U+00C4
ENCODING 196
SWIDTH 960 0
DWIDTH 8 0
BBX 6 10 1 0
BITMAP
CC
CC
00
10
28
4C
FC
CC
CC
CC
ENDCHAR
STARTCHAR U+00C5
ENCODING 197
SWIDTH 960 0
DWIDTH 8 0
BBX 6 10 1 0
BITMAP
38
28
38
10
28
4C
FC
CC
CC
CC
ENDCHAR
STARTCHAR U+00C6
ENCODING 198
SWIDTH 960 0
DWIDTH 8 0
BBX 7 7 1 0
BITMAP
3E
58
D8
FC
D8
D8
DE
ENDCHAR
STARTCHAR U+00C7
ENCODING 199
SWIDTH 960 0
DWIDTH 8 0
BBX 6 9 1 -2
BITMAP
78
CC
C0
C0
C0
CC
78
18
38
ENDCHAR
STARTCHAR U+00C8
ENCODING 200
SWIDTH 960 0
DWIDTH 8 0
BBX 6 10 1 0
BITMAP
60
30
00
FC
C4
C0
F0
C0
C4
FC
ENDCHAR
STARTCHAR U+00C9
ENCODING 201
SWIDTH 960 0
DWIDTH 8 0
BBX 6 10 1 0
BITMAP
18
30
00
FC
C4
C0
F0
C0
C4
FC
ENDCHAR
STARTCHAR U+00CA
ENCODING 202
SWIDTH 960 0
DWIDTH 8 0
BBX 6 10 1 0
BITMAP
38
6C
00
FC
C4
C0
F0
C0
C4
FC
ENDCHAR
STARTCHAR U+00CB
ENCODING 203
SWIDTH 960 0
DWIDTH 8 0
BBX 6 10 1 0
BITMAP
CC
CC
00
FC
C4
C0
F0
C0
C4
FC
ENDCHAR
STARTCHAR U+00CC
ENCODING 204
SWIDTH 960 0
DWIDTH 8 0
BBX 6 10 1 0
BITMAP
60
30
00
FC
30
30
30
30
30
FC
ENDCHAR
STARTCHAR U+00CD
ENCODING 205
SWIDTH 960 0
DWIDTH 8 0
BBX 6 10 1 0
BITMAP
18
30
00
FC
30
30
30
30
30
FC
ENDCHAR
STARTCHAR U+00CE
ENCODING 206
SWIDTH 960 0
DWIDTH 8 0
BBX 6 10 1 0
BITMAP
38
6C
00
FC
30
30
30
30
30
FC
ENDCHAR
STARTCHAR U+00CF
ENCODING 207
SWIDTH 960 0
DWIDTH 8 0
BBX 6 10 1 0
BITMAP
CC
CC
00
FC
30
30
30
30
30
FC
ENDCHAR
STARTCHAR U+00D0
ENCODING 208
SWIDTH 960 0
DWIDTH 8 0
BBX 7 7 0 0
BITMAP
78
64
66
F6
66
64
78
ENDCHAR
STARTCHAR U+00D1
ENCODING 209
SWIDTH 960 0
DWIDTH 8 0
BBX 7 10 1 0
BITMAP
76
DC
00
8C
CC
EC
DC
CC
CC
CC
ENDCHAR
STARTCHAR U+00D2
ENCODING 210
SWIDTH 960 0
DWIDTH 8 0
BBX 6 10 1 0
BITMAP
60
30
00
78
CC
CC
CC
CC
CC
78
ENDCHAR
STARTCHAR U+00D3
ENCODING 211
SWIDTH 960 0
DWIDTH 8 0
BBX 6 10 1 0
BITMAP
18
30
00
78
CC
CC
CC
CC
CC
78
ENDCHAR
STARTCHAR U+00D4
ENCODING 212
SWIDTH 960 0
DWIDTH 8 0
BBX 6 10 1 0
BITMAP
38
6C
00
78
CC
CC
CC
CC
CC
78
ENDCHAR
STARTCHAR U+00D5
ENCODING 213
SWIDTH 960 0
DWIDTH 8 0
BBX 7 10 1 0
BITMAP
76
DC
00
78
CC
CC
CC
CC
CC
78
ENDCHAR
STARTCHAR U+00D6
ENCODING 214
SWIDTH 960 0
DWIDTH 8 0
BBX 6 10 1 0
BITMAP
CC
CC
00
78
CC
CC
CC
CC
CC
78
ENDCHAR
STARTCHAR U+00D7
ENCODING 215
SWIDTH 960 0
DWIDTH 8 0
BBX 6 5 1 1
BITMAP
CC
78
30
78
CC
ENDCHAR
STARTCHAR U+00D8
ENCODING 216
SWIDTH 960 0
DWIDTH 8 0
BBX 6 9 1 -1
BITMAP
0C
78
CC
DC
FC
EC
CC
78
C0
ENDCHAR
STARTCHAR U+00D9
ENCODING 217
SWIDTH 960 0
DWIDTH 8 0
BBX 6 10 1 0
BITMAP
60
30
00
CC
CC
CC
CC
CC
CC
78
ENDCHAR
STARTCHAR U+00DA
ENCODING 218
SWIDTH 960 0
DWIDTH 8 0
BBX 6 10 1 0
BITMAP
18
30
00
CC
CC
CC
CC
CC
CC
78
ENDCHAR
STARTCHAR U+00DB
ENCODING 219
SWIDTH 960 0
DWIDTH 8 0
BBX 6 10 1 0
BITMAP
38
6C
00
CC
CC
CC
CC
CC
CC
78
ENDCHAR
STARTCHAR U+00DC
ENCODING 220
SWIDTH 960 0
DWIDTH 8 0
BBX 6 10 1 0
BITMAP
CC
CC
00
CC
CC
CC
CC
CC
CC
78
ENDCHAR
STARTCHAR U+00DD
ENCODING 221
SWIDTH 960 0
DWIDTH 8 0
BBX 6 10 1 0
BITMAP
18
30
00
CC
CC
48
30
30
30
30
ENDCHAR
STARTCHAR U+00DE
ENCODING 222
SWIDTH 960 0
DWIDTH 8 0
BBX 6 7 1 0
BITMAP
C0
F8
CC
CC
D8
C0
C0
ENDCHAR
STARTCHAR U+00DF
ENCODING 223
SWIDTH 960 0
DWIDTH 8 0
BBX 7 7 1 0
BITMAP
78
CC
D8
D8
CC
C6
DC
ENDCHAR
STARTCHAR U+00E0
ENCODING 224
SWIDTH 960 0
DWIDTH 8 0
BBX 6 8 1 0
BITMAP
60
30
00
78
0C
7C
CC
6C
ENDCHAR
STARTCHAR U+00E1
ENCODING 225
SWIDTH 960 0
DWIDTH 8 0
BBX 6 8 1 0
BITMAP
18
30
00
78
0C
7C
CC
6C
ENDCHAR
STARTCHAR U+00E2
ENCODING 226
SWIDTH 960 0
DWIDTH 8 0
BBX 6 8 1 0
BITMAP
38
6C
00
78
0C
7C
CC
6C
ENDCHAR
STARTCHAR U+00E3
ENCODING 227
SWIDTH 960 0
DWIDTH 8 0
BBX 7 8 1 0
BITMAP
76
DC
00
78
0C
7C
CC
6C
ENDCHAR
STARTCHAR U+00E4
ENCODING 228
SWIDTH 960 0
DWIDTH 8 0
BBX 6 8 1 0
BITMAP
CC
CC
00
78
0C
7C
CC
6C
ENDCHAR
STARTCHAR U+00E5
ENCODING 229
SWIDTH 960 0
DWIDTH 8 0
BBX 6 9 1 0
BITMAP
38
28
38
00
78
0C
7C
CC
6C
ENDCHAR
STARTCHAR U+00E6
ENCODING 230
SWIDTH 960 0
DWIDTH 8 0
BBX 8 5 0 0
BITMAP
7E
1B
7F
D8
7E
ENDCHAR
STARTCHAR U+00E7
ENCODING 231
SWIDTH 960 0
DWIDTH 8 0
BBX 6 7 1 -2
BITMAP
78
C8
C0
CC
78
18
38
ENDCHAR
STARTCHAR U+00E8
ENCODING 232
SWIDTH 960 0
DWIDTH 8 0
BBX 6 8 1 0
BITMAP
60
30
00
78
CC
FC
C0
78
ENDCHAR
STARTCHAR U+00E9
ENCODING 233
SWIDTH 960 0
DWIDTH 8 0
BBX 6 8 1 0
BITMAP
18
30
00
78
CC
FC
C0
78
ENDCHAR
STARTCHAR U+00EA
ENCODING 234
SWIDTH 960 0
DWIDTH 8 0
BBX 6 8 1 0
BITMAP
38
6C
00
78
CC
FC
C0
78
ENDCHAR
STARTCHAR U+00EB
ENCODING 235
SWIDTH 960 0
DWIDTH 8 0
BBX 6 8 1 0
BITMAP
CC
CC
00
78
CC
FC
C0
78
ENDCHAR
STARTCHAR U+00EC
ENCODING 236
SWIDTH 960 0
DWIDTH 8 0
BBX 6 8 1 0
BITMAP
60
30
00
F0
30
30
30
1C
ENDCHAR
STARTCHAR U+00ED
ENCODING 237
SWIDTH 960 0
DWIDTH 8 0
BBX 6 8 1 0
BITMAP
18
30
00
F0
30
30
30
1C
ENDCHAR
STARTCHAR U+00EE
ENCODING 238
SWIDTH 960 0
DWIDTH 8 0
BBX 6 8 1 0
BITMAP
38
6C
00
F0
30
30
30
1C
ENDCHAR
STARTCHAR U+00EF
ENCODING 239
SWIDTH 960 0
DWIDTH 8 0
BBX 6 8 1 0
BITMAP
CC
CC
00
F0
30
30
30
1C
ENDCHAR
STARTCHAR U+00F0
ENCODING 240
SWIDTH 960 0
DWIDTH 8 0
BBX 6 9 1 0
BITMAP
D8
70
D8
0C
6C
CC
CC
CC
78
ENDCHAR
STARTCHAR U+00F1
ENCODING 241
SWIDTH 960 0
DWIDTH 8 0
BBX 7 8 1 0
BITMAP
76
DC
00
D8
EC
CC
CC
CC
ENDCHAR
STARTCHAR U+00F2
ENCODING 242
SWIDTH 960 0
DWIDTH 8 0
BBX 6 8 1 0
BITMAP
60
30
00
78
CC
CC
CC
78
ENDCHAR
STARTCHAR U+00F3
ENCODING 243
SWIDTH 960 0
DWIDTH 8 0
BBX 6 8 1 0
BITMAP
18
30
00
78
CC
CC
CC
78
ENDCHAR
STARTCHAR U+00F4
ENCODING 244
SWIDTH 960 0
DWIDTH 8 0
BBX 6 8 1 0
BITMAP
38
6C
00
78
CC
CC
CC
78
ENDCHAR
STARTCHAR U+00F5
ENCODING 245
SWIDTH 960 0
DWIDTH 8 0
BBX 7 8 1 0
BITMAP
76
DC
00
78
CC
CC
CC
78
ENDCHAR
STARTCHAR U+00F6
ENCODING 246
SWIDTH 960 0
DWIDTH 8 0
BBX 6 5 1 0
BITMAP
78
CC
CC
CC
78
ENDCHAR
STARTCHAR U+00F7
ENCODING 247
SWIDTH 960 0
DWIDTH 8 0
BBX 6 7 1 0
BITMAP
30
30
00
FC
00
30
30
ENDCHAR
STARTCHAR U+00F8
ENCODING 248
SWIDTH 960 0
DWIDTH 8 0
BBX 6 7 1 -1
BITMAP
0C
78
DC
FC
EC
78
C0
ENDCHAR
STARTCHAR U+00F9
ENCODING 249
SWIDTH 960 0
DWIDTH 8 0
BBX 6 8 1 0
BITMAP
60
30
00
CC
CC
CC
DC
6C
ENDCHAR
STARTCHAR U+00FA
ENCODING 250
SWIDTH 960 0
DWIDTH 8 0
BBX 6 8 1 0
BITMAP
18
30
00
CC
CC
CC
DC
6C
ENDCHAR
STARTCHAR U+00FB
ENCODING 251
SWIDTH 960 0
DWIDTH 8 0
BBX 6 8 1 0
BITMAP
38
6C
00
CC
CC
CC
DC
6C
ENDCHAR
STARTCHAR U+00FC
ENCODING 252
SWIDTH 960 0
DWIDTH 8 0
BBX 6 8 1 0
BITMAP
CC
CC
00
CC
CC
CC
DC
6C
ENDCHAR
STARTCHAR U+00FD
ENCODING 253
SWIDTH 960 0
DWIDTH 8 0
BBX 6 10 1 -2
BITMAP
18
30
00
CC
CC
CC
DC
6C
0C
78
ENDCHAR
STARTCHAR U+00FE
ENCODING 254
SWIDTH 960 0
DWIDTH 8 0
BBX 6 9 1 -2
BITMAP
C0
C0
D8
EC
CC
CC
D8
C0
C0
ENDCHAR
STARTCHAR U+00FF
ENCODING 255
SWIDTH 960 0
DWIDTH 8 0
BBX 6 10 1 -2
BITMAP
CC
CC
00
CC
CC
CC
DC
6C
0C
78
ENDCHAR
STARTCHAR U+0100
ENCODING 256
SWIDTH 960 0
DWIDTH 8 0
BBX 6 9 1 0
BITMAP
78
00
10
28
4C
FC
CC
CC
CC
ENDCHAR
STARTCHAR U+0101
ENCODING 257
SWIDTH 960 0
DWIDTH 8 0
BBX 6 7 1 0
BITMAP
78
00
78
0C
7C
CC
6C
ENDCHAR
STARTCHAR U+0102
ENCODING 258
SWIDTH 960 0
DWIDTH 8 0
BBX 6 10 1 0
BITMAP
CC
78
00
10
28
4C
FC
CC
CC
CC
ENDCHAR
STARTCHAR U+0103
ENCODING 259
SWIDTH 960 0
DWIDTH 8 0
BBX 6 8 1 0
BITMAP
CC
78
00
78
0C
7C
CC
6C
ENDCHAR
STARTCHAR U+0104
ENCODING 260
SWIDTH 960 0
DWIDTH 8 0
BBX 6 9 1 -2
BITMAP
10
28
4C
FC
CC
CC
CC
18
1C
ENDCHAR
STARTCHAR U+0105
ENCODING 261
SWIDTH 960 0
DWIDTH 8 0
BBX 6 7 1 -2
BITMAP
78
0C
7C
CC
7C
18
1C
ENDCHAR
STARTCHAR U+0106
ENCODING 262
SWIDTH 960 0
DWIDTH 8 0
BBX 6 10 1 0
BITMAP
18
30
00
78
CC
C0
C0
C0
CC
78
ENDCHAR
STARTCHAR U+0107
ENCODING 263
SWIDTH 960 0
DWIDTH 8 0
BBX 6 8 1 0
BITMAP
18
30
00
78
C8
C0
CC
78
ENDCHAR
STARTCHAR U+0108
ENCODING 264
SWIDTH 960 0
DWIDTH 8 0
BBX 6 10 1 0
BITMAP
38
6C
00
78
CC
C0
C0
C0
CC
78
ENDCHAR
STARTCHAR U+0109
ENCODING 265
SWIDTH 960 0
DWIDTH 8 0
BBX 6 8 1 0
BITMAP
38
6C
00
78
C8
C0
CC
78
ENDCHAR
STARTCHAR U+010A
ENCODING 266
SWIDTH 960 0
DWIDTH 8 0
BBX 6 10 1 0
BITMAP
30
30
00
78
CC
C0
C0
C0
CC
78
ENDCHAR
STARTCHAR U+010B
ENCODING 267
SWIDTH 960 0
DWIDTH 8 0
BBX 6 8 1 0
BITMAP
30
30
00
78
C8
C0
CC
78
ENDCHAR
STARTCHAR U+010C
ENCODING 268
SWIDTH 960 0
DWIDTH 8 0
BBX 6 10 1 0
BITMAP
6C
38
00
78
CC
C0
C0
C0
CC
78
ENDCHAR
STARTCHAR U+010D
ENCODING 269
SWIDTH 960 0
DWIDTH 8 0
BBX 6 8 1 0
BITMAP
6C
38
00
78
C8
C0
CC
78
ENDCHAR
STARTCHAR U+010E
ENCODING 270
SWIDTH 960 0
DWIDTH 8 0
BBX 6 10 1 0
BITMAP
D8
70
00
F0
C8
CC
CC
CC
C8
F0
ENDCHAR
STARTCHAR U+010F
ENCODING 271
SWIDTH 960 0
DWIDTH 8 0
BBX 8 7 0 0
BITMAP
1B
19
7A
D8
D8
D8
78
ENDCHAR
STARTCHAR U+0110
ENCODING 272
SWIDTH 960 0
DWIDTH 8 0
BBX 7 7 0 0
BITMAP
78
64
66
F6
66
64
78
ENDCHAR
STARTCHAR U+0111
ENCODING 273
SWIDTH 960 0
DWIDTH 8 0
BBX 7 8 1 0
BITMAP
0C
3E
0C
6C
DC
CC
CC
6C
ENDCHAR
STARTCHAR U+0112
ENCODING 274
SWIDTH 960 0
DWIDTH 8 0
BBX 6 9 1 0
BITMAP
78
00
FC
C4
C0
F0
C0
C4
FC
ENDCHAR
STARTCHAR U+0113
ENCODING 275
SWIDTH 960 0
DWIDTH 8 0
BBX 6 7 1 0
BITMAP
78
00
78
CC
FC
C0
78
ENDCHAR
STARTCHAR U+0114
ENCODING 276
SWIDTH 960 0
DWIDTH 8 0
BBX 6 10 1 0
BITMAP
CC
78
00
FC
C4
C0
F0
C0
C4
FC
ENDCHAR
STARTCHAR U+0115
ENCODING 277
SWIDTH 960 0
DWIDTH 8 0
BBX 6 8 1 0
BITMAP
CC
78
00
78
CC
FC
C0
78
ENDCHAR
STARTCHAR U+0116
ENCODING 278
SWIDTH 960 0
DWIDTH 8 0
BBX 6 10 1 0
BITMAP
30
30
00
FC
C4
C0
F0
C0
C4
FC
ENDCHAR
STARTCHAR U+0117
ENCODING 279
SWIDTH 960 0
DWIDTH 8 0
BBX 6 8 1 0
BITMAP
30
30
00
78
CC
FC
C0
78
ENDCHAR
STARTCHAR U+0118
ENCODING 280
SWIDTH 960 0
DWIDTH 8 0
BBX 6 9 1 -2
BITMAP
FC
C4
C0
F0
C0
C4
FC
18
1C
ENDCHAR
STARTCHAR U+0119
ENCODING 281
SWIDTH 960 0
DWIDTH 8 0
BBX 6 7 1 -2
BITMAP
78
CC
FC
C0
78
18
1C
ENDCHAR
STARTCHAR U+011A
ENCODING 282
SWIDTH 960 0
DWIDTH 8 0
BBX 6 10 1 0
BITMAP
6C
38
00
FC
C4
C0
F0
C0
C4
FC
ENDCHAR
STARTCHAR U+011B
ENCODING 283
SWIDTH 960 0
DWIDTH 8 0
BBX 6 8 1 0
BITMAP
6C
38
00
78
CC
FC
C0
78
ENDCHAR
STARTCHAR U+011C
ENCODING 284
SWIDTH 960 0
DWIDTH 8 0
BBX 6 10 1 0
BITMAP
38
6C
00
78
CC
C0
DC
CC
CC
6C
ENDCHAR
STARTCHAR U+011D
ENCODING 285
SWIDTH 960 0
DWIDTH 8 0
BBX 6 10 1 -2
BITMAP
38
6C
00
78
CC
78
C0
78
0C
38
ENDCHAR
STARTCHAR U+011E
ENCODING 286
SWIDTH 960 0
DWIDTH 8 0
BBX 6 10 1 0
BITMAP
CC
78
00
78
CC
C0
DC
CC
CC
6C
ENDCHAR
STARTCHAR U+011F
ENCODING 287
SWIDTH 960 0
DWIDTH 8 0
BBX 6 10 1 -2
BITMAP
CC
78
00
78
CC
78
C0
78
0C
38
ENDCHAR
STARTCHAR U+0120
ENCODING 288
SWIDTH 960 0
DWIDTH 8 0
BBX 6 10 1 0
BITMAP
30
30
00
78
CC
C0
DC
CC
CC
6C
ENDCHAR
STARTCHAR U+0121
ENCODING 289
SWIDTH 960 0
DWIDTH 8 0
BBX 6 10 1 -2
BITMAP
30
30
00
78
CC
78
C0
78
0C
38
ENDCHAR
STARTCHAR U+0122
ENCODING 290
SWIDTH 960 0
DWIDTH 8 0
BBX 6 9 1 -2
BITMAP
78
CC
C0
DC
CC
CC
7C
18
38
ENDCHAR
STARTCHAR U+0123
ENCODING 291
SWIDTH 960 0
DWIDTH 8 0
BBX 6 11 1 -2
BITMAP
10
20
30
00
78
CC
78
C0
78
0C
38
ENDCHAR
STARTCHAR U+0124
ENCODING 292
SWIDTH 960 0
DWIDTH 8 0
BBX 6 10 1 0
BITMAP
38
6C
00
CC
CC
CC
FC
CC
CC
CC
ENDCHAR
STARTCHAR U+0125
ENCODING 293
SWIDTH 960 0
DWIDTH 8 0
BBX 6 10 1 0
BITMAP
70
D8
00
C0
C0
D8
EC
CC
CC
CC
ENDCHAR
STARTCHAR U+0126
ENCODING 294
SWIDTH 960 0
DWIDTH 8 0
BBX 8 7 0 0
BITMAP
66
FF
66
7E
66
66
66
ENDCHAR
STARTCHAR U+0127
ENCODING 295
SWIDTH 960 0
DWIDTH 8 0
BBX 7 8 0 0
BITMAP
60
F8
60
6C
76
66
66
66
ENDCHAR
STARTCHAR U+0128
ENCODING 296
SWIDTH 960 0
DWIDTH 8 0
BBX 7 10 1 0
BITMAP
76
DC
00
FC
30
30
30
30
30
FC
ENDCHAR
STARTCHAR U+0129
ENCODING 297
SWIDTH 960 0
DWIDTH 8 0
BBX 7 8 1 0
BITMAP
76
DC
00
F0
30
30
30
1C
ENDCHAR
STARTCHAR U+012A
ENCODING 298
SWIDTH 960 0
DWIDTH 8 0
BBX 6 9 1 0
BITMAP
78
00
FC
30
30
30
30
30
FC
ENDCHAR
STARTCHAR U+012B
ENCODING 299
SWIDTH 960 0
DWIDTH 8 0
BBX 6 7 1 0
BITMAP
78
00
F0
30
30
30
1C
ENDCHAR
STARTCHAR U+012C
ENCODING 300
SWIDTH 960 0
DWIDTH 8 0
BBX 6 10 1 0
BITMAP
CC
78
00
FC
30
30
30
30
30
FC
ENDCHAR
STARTCHAR U+012D
ENCODING 301
SWIDTH 960 0
DWIDTH 8 0
BBX 6 8 1 0
BITMAP
CC
78
00
F0
30
30
30
1C
ENDCHAR
STARTCHAR U+012E
ENCODING 302
SWIDTH 960 0
DWIDTH 8 0
BBX 6 9 1 -2
BITMAP
FC
30
30
30
30
30
FC
30
38
ENDCHAR
STARTCHAR U+012F
ENCODING 303
SWIDTH 960 0
DWIDTH 8 0
BBX 6 9 1 -2
BITMAP
30
00
F0
30
30
30
1C
30
38
ENDCHAR
STARTCHAR U+0130
ENCODING 304
SWIDTH 960 0
DWIDTH 8 0
BBX 6 10 1 0
BITMAP
30
30
00
FC
30
30
30
30
30
FC
ENDCHAR
STARTCHAR U+0131
ENCODING 305
SWIDTH 960 0
DWIDTH 8 0
BBX 6 5 1 0
BITMAP
F0
30
30
30
1C
ENDCHAR
STARTCHAR U+0132
ENCODING 306
SWIDTH 960 0
DWIDTH 8 0
BBX 8 9 0 -2
BITMAP
FF
66
66
66
66
66
F6
06
1C
ENDCHAR
STARTCHAR U+0133
ENCODING 307
SWIDTH 960 0
DWIDTH 8 0
BBX 7 9 0 -2
BITMAP
66
00
EE
66
66
66
36
06
1C
ENDCHAR
STARTCHAR U+0134
ENCODING 308
SWIDTH 960 0
DWIDTH 8 0
BBX 6 11 1 -1
BITMAP
38
6C
00
7C
18
18
18
18
18
D8
70
ENDCHAR
STARTCHAR U+0135
ENCODING 309
SWIDTH 960 0
DWIDTH 8 0
BBX 6 10 1 -2
BITMAP
38
6C
00
78
18
18
18
18
D8
70
ENDCHAR
STARTCHAR U+0136
ENCODING 310
SWIDTH 960 0
DWIDTH 8 0
BBX 6 9 1 -2
BITMAP
CC
CC
C8
D0
E8
CC
CC
60
E0
ENDCHAR
STARTCHAR U+0137
ENCODING 311
SWIDTH 960 0
DWIDTH 8 0
BBX 6 9 1 -2
BITMAP
C0
C0
CC
CC
D8
EC
CC
60
E0
ENDCHAR
STARTCHAR U+0138
ENCODING 312
SWIDTH 960 0
DWIDTH 8 0
BBX 6 5 1 0
BITMAP
CC
CC
D8
EC
CC
ENDCHAR
STARTCHAR U+0139
ENCODING 313
SWIDTH 960 0
DWIDTH 8 0
BBX 6 10 1 0
BITMAP
60
C0
00
C0
C0
C0
C0
C0
C4
FC
ENDCHAR
STARTCHAR U+013A
ENCODING 314
SWIDTH 960 0
DWIDTH 8 0
BBX 6 10 1 0
BITMAP
18
30
00
F0
30
30
30
30
30
1C
ENDCHAR
STARTCHAR U+013B
ENCODING 315
SWIDTH 960 0
DWIDTH 8 0
BBX 6 9 1 -2
BITMAP
C0
C0
C0
C0
C0
C4
FC
30
70
ENDCHAR
STARTCHAR U+013C
ENCODING 316
SWIDTH 960 0
DWIDTH 8 0
BBX 6 9 1 -2
BITMAP
F0
30
30
30
30
30
1C
18
38
ENDCHAR
STARTCHAR U+013D
ENCODING 317
SWIDTH 960 0
DWIDTH 8 0
BBX 6 7 1 0
BITMAP
D8
C8
D0
C0
C0
C4
FC
ENDCHAR
STARTCHAR U+013E
ENCODING 318
SWIDTH 960 0
DWIDTH 8 0
BBX 6 7 1 0
BITMAP
EC
64
68
60
60
60
38
ENDCHAR
STARTCHAR U+013F
ENCODING 319
SWIDTH 960 0
DWIDTH 8 0
BBX 6 7 1 0
BITMAP
C0
C0
D8
D8
C0
C4
FC
ENDCHAR
STARTCHAR U+0140
ENCODING 320
SWIDTH 960 0
DWIDTH 8 0
BBX 6 7 1 0
BITMAP
E0
60
6C
6C
60
60
38
ENDCHAR
STARTCHAR U+0141
ENCODING 321
SWIDTH 960 0
DWIDTH 8 0
BBX 7 7 0 0
BITMAP
30
30
3C
30
F0
32
3E
ENDCHAR
STARTCHAR U+0142
ENCODING 322
SWIDTH 960 0
DWIDTH 8 0
BBX 6 7 1 0
BITMAP
F0
30
3C
30
F0
30
1C
ENDCHAR
STARTCHAR U+0143
ENCODING 323
SWIDTH 960 0
DWIDTH 8 0
BBX 6 10 1 0
BITMAP
18
30
00
8C
CC
EC
DC
CC
CC
CC
ENDCHAR
STARTCHAR U+0144
ENCODING 324
SWIDTH 960 0
DWIDTH 8 0
BBX 6 8 1 0
BITMAP
18
30
00
D8
EC
CC
CC
CC
ENDCHAR
STARTCHAR U+0145
ENCODING 325
SWIDTH 960 0
DWIDTH 8 0
BBX 6 9 1 -2
BITMAP
8C
CC
EC
DC
CC
CC
CC
60
E0
ENDCHAR
STARTCHAR U+0146
ENCODING 326
SWIDTH 960 0
DWIDTH 8 0
BBX 6 7 1 -2
BITMAP
D8
EC
CC
CC
CC
60
E0
ENDCHAR
STARTCHAR U+0147
ENCODING 327
SWIDTH 960 0
DWIDTH 8 0
BBX 6 10 1 0
BITMAP
6C
38
00
8C
CC
EC
DC
CC
CC
CC
ENDCHAR
STARTCHAR U+0148
ENCODING 328
SWIDTH 960 0
DWIDTH 8 0
BBX 6 8 1 0
BITMAP
6C
38
00
D8
EC
CC
CC
CC
ENDCHAR
STARTCHAR U+0149
ENCODING 329
SWIDTH 960 0
DWIDTH 8 0
BBX 6 9 1 0
BITMAP
C0
40
80
00
D8
EC
CC
CC
CC
ENDCHAR
STARTCHAR U+014A
ENCODING 330
SWIDTH 960 0
DWIDTH 8 0
BBX 6 9 1 -2
BITMAP
D8
EC
CC
CC
CC
CC
CC
0C
38
ENDCHAR
STARTCHAR U+014B
ENCODING 331
SWIDTH 960 0
DWIDTH 8 0
BBX 6 7 1 -2
BITMAP
D8
EC
CC
CC
CC
0C
38
ENDCHAR
STARTCHAR U+014C
ENCODING 332
SWIDTH 960 0
DWIDTH 8 0
BBX 6 9 1 0
BITMAP
78
00
78
CC
CC
CC
CC
CC
78
ENDCHAR
STARTCHAR U+014D
ENCODING 333
SWIDTH 960 0
DWIDTH 8 0
BBX 6 7 1 0
BITMAP
78
00
78
CC
CC
CC
78
ENDCHAR
STARTCHAR U+014E
ENCODING 334
SWIDTH 960 0
DWIDTH 8 0
BBX 6 10 1 0
BITMAP
CC
78
00
78
CC
CC
CC
CC
CC
78
ENDCHAR
STARTCHAR U+014F
ENCODING 335
SWIDTH 960 0
DWIDTH 8 0
BBX 6 8 1 0
BITMAP
CC
78
00
78
CC
CC
CC
78
ENDCHAR
STARTCHAR U+0150
ENCODING 336
SWIDTH 960 0
DWIDTH 8 0
BBX 7 10 1 0
BITMAP
66
CC
00
78
CC
CC
CC
CC
CC
78
ENDCHAR
STARTCHAR U+0151
ENCODING 337
SWIDTH 960 0
DWIDTH 8 0
BBX 7 8 1 0
BITMAP
66
CC
00
78
CC
CC
CC
78
ENDCHAR
STARTCHAR U+0152
ENCODING 338
SWIDTH 960 0
DWIDTH 8 0
BBX 7 7 1 0
BITMAP
7E
D8
D8
DC
D8
D8
7E
ENDCHAR
STARTCHAR U+0153
ENCODING 339
SWIDTH 960 0
DWIDTH 8 0
BBX 8 5 0 0
BITMAP
7E
DB
DF
D8
7E
ENDCHAR
STARTCHAR U+0154
ENCODING 340
SWIDTH 960 0
DWIDTH 8 0
BBX 6 10 1 0
BITMAP
18
30
00
F8
CC
CC
D8
C8
CC
CC
ENDCHAR
STARTCHAR U+0155
ENCODING 341
SWIDTH 960 0
DWIDTH 8 0
BBX 6 8 1 0
BITMAP
18
30
00
EC
70
60
60
60
ENDCHAR
STARTCHAR U+0156
ENCODING 342
SWIDTH 960 0
DWIDTH 8 0
BBX 6 9 1 -2
BITMAP
F8
CC
CC
D8
C8
CC
CC
60
E0
ENDCHAR
STARTCHAR U+0157
ENCODING 343
SWIDTH 960 0
DWIDTH 8 0
BBX 6 7 1 -2
BITMAP
EC
70
60
60
60
30
70
ENDCHAR
STARTCHAR U+0158
ENCODING 344
SWIDTH 960 0
DWIDTH 8 0
BBX 6 10 1 0
BITMAP
6C
38
00
F8
CC
CC
D8
C8
CC
CC
ENDCHAR
STARTCHAR U+0159
ENCODING 345
SWIDTH 960 0
DWIDTH 8 0
BBX 6 8 1 0
BITMAP
6C
38
00
EC
70
60
60
60
ENDCHAR
STARTCHAR U+015A
ENCODING 346
SWIDTH 960 0
DWIDTH 8 0
BBX 6 10 1 0
BITMAP
18
30
00
78
CC
C0
78
0C
CC
78
ENDCHAR
STARTCHAR U+015B
ENCODING 347
SWIDTH 960 0
DWIDTH 8 0
BBX 6 8 1 0
BITMAP
18
30
00
78
C0
78
0C
78
ENDCHAR
STARTCHAR U+015C
ENCODING 348
SWIDTH 960 0
DWIDTH 8 0
BBX 6 10 1 0
BITMAP
38
6C
00
78
CC
C0
78
0C
CC
78
ENDCHAR
STARTCHAR U+015D
ENCODING 349
SWIDTH 960 0
DWIDTH 8 0
BBX 6 8 1 0
BITMAP
38
6C
00
78
C0
78
0C
78
ENDCHAR
STARTCHAR U+015E
ENCODING 350
SWIDTH 960 0
DWIDTH 8 0
BBX 6 9 1 -2
BITMAP
78
CC
C0
78
0C
CC
78
30
70
ENDCHAR
STARTCHAR U+015F
ENCODING 351
SWIDTH 960 0
DWIDTH 8 0
BBX 6 7 1 -2
BITMAP
78
C0
78
0C
78
30
70
ENDCHAR
STARTCHAR U+0160
ENCODING 352
SWIDTH 960 0
DWIDTH 8 0
BBX 6 10 1 0
BITMAP
6C
38
00
78
CC
C0
78
0C
CC
78
ENDCHAR
STARTCHAR U+0161
ENCODING 353
SWIDTH 960 0
DWIDTH 8 0
BBX 6 8 1 0
BITMAP
6C
38
00
78
C0
78
0C
78
ENDCHAR
STARTCHAR U+0162
ENCODING 354
SWIDTH 960 0
DWIDTH 8 0
BBX 6 9 1 -2
BITMAP
FC
30
30
30
30
30
30
18
38
ENDCHAR
STARTCHAR U+0163
ENCODING 355
SWIDTH 960 0
DWIDTH 8 0
BBX 6 9 1 -2
BITMAP
30
30
FC
30
30
30
1C
18
38
ENDCHAR
STARTCHAR U+0164
ENCODING 356
SWIDTH 960 0
DWIDTH 8 0
BBX 6 10 1 0
BITMAP
6C
38
00
FC
30
30
30
30
30
30
ENDCHAR
STARTCHAR U+0165
ENCODING 357
SWIDTH 960 0
DWIDTH 8 0
BBX 7 9 1 0
BITMAP
06
02
34
30
FC
30
30
30
1C
ENDCHAR
STARTCHAR U+0166
ENCODING 358
SWIDTH 960 0
DWIDTH 8 0
BBX 6 7 1 0
BITMAP
FC
30
30
78
30
30
30
ENDCHAR
STARTCHAR U+0167
ENCODING 359
SWIDTH 960 0
DWIDTH 8 0
BBX 6 7 1 0
BITMAP
30
30
FC
30
FC
30
1C
ENDCHAR
STARTCHAR U+0168
ENCODING 360
SWIDTH 960 0
DWIDTH 8 0
BBX 7 10 1 0
BITMAP
76
DC
00
CC
CC
CC
CC
CC
CC
78
ENDCHAR
STARTCHAR U+0169
ENCODING 361
SWIDTH 960 0
DWIDTH 8 0
BBX 7 8 1 0
BITMAP
76
DC
00
CC
CC
CC
DC
6C
ENDCHAR
STARTCHAR U+016A
ENCODING 362
SWIDTH 960 0
DWIDTH 8 0
BBX 6 9 1 0
BITMAP
78
00
CC
CC
CC
CC
CC
CC
78
ENDCHAR
STARTCHAR U+016B
ENCODING 363
SWIDTH 960 0
DWIDTH 8 0
BBX 6 7 1 0
BITMAP
78
00
CC
CC
CC
DC
6C
ENDCHAR
STARTCHAR U+016C
ENCODING 364
SWIDTH 960 0
DWIDTH 8 0
BBX 6 10 1 0
BITMAP
CC
78
00
CC
CC
CC
CC
CC
CC
78
ENDCHAR
STARTCHAR U+016D
ENCODING 365
SWIDTH 960 0
DWIDTH 8 0
BBX 6 8 1 0
BITMAP
CC
78
00
CC
CC
CC
DC
6C
ENDCHAR
STARTCHAR U+016E
ENCODING 366
SWIDTH 960 0
DWIDTH 8 0
BBX 6 10 1 0
BITMAP
38
28
38
00
CC
CC
CC
CC
CC
78
ENDCHAR
STARTCHAR U+016F
ENCODING 367
SWIDTH 960 0
DWIDTH 8 0
BBX 6 9 1 0
BITMAP
38
28
38
00
CC
CC
CC
DC
6C
ENDCHAR
STARTCHAR U+0170
ENCODING 368
SWIDTH 960 0
DWIDTH 8 0
BBX 7 10 1 0
BITMAP
66
CC
00
CC
CC
CC
CC
CC
CC
78
ENDCHAR
STARTCHAR U+0171
ENCODING 369
SWIDTH 960 0
DWIDTH 8 0
BBX 7 8 1 0
BITMAP
66
CC
00
CC
CC
CC
DC
6C
ENDCHAR
STARTCHAR U+0172
ENCODING 370
SWIDTH 960 0
DWIDTH 8 0
BBX 6 9 1 -2
BITMAP
CC
CC
CC
CC
CC
CC
78
30
38
ENDCHAR
STARTCHAR U+0173
ENCODING 371
SWIDTH 960 0
DWIDTH 8 0
BBX 6 7 1 -2
BITMAP
CC
CC
CC
CC
7C
18
1C
ENDCHAR
STARTCHAR U+0174
ENCODING 372
SWIDTH 960 0
DWIDTH 8 0
BBX 7 10 1 0
BITMAP
38
6C
00
C6
C6
D6
D6
D6
D6
6C
ENDCHAR
STARTCHAR U+0175
ENCODING 373
SWIDTH 960 0
DWIDTH 8 0
BBX 6 8 1 0
BITMAP
38
6C
00
D4
D4
D4
D4
68
ENDCHAR
STARTCHAR U+0176
ENCODING 374
SWIDTH 960 0
DWIDTH 8 0
BBX 6 10 1 0
BITMAP
38
6C
00
CC
CC
48
30
30
30
30
ENDCHAR
STARTCHAR U+0177
ENCODING 375
SWIDTH 960 0
DWIDTH 8 0
BBX 6 10 1 -2
BITMAP
38
6C
00
CC
CC
CC
DC
6C
0C
78
ENDCHAR
STARTCHAR U+0178
ENCODING 376
SWIDTH 960 0
DWIDTH 8 0
BBX 6 10 1 0
BITMAP
CC
CC
00
CC
CC
48
30
30
30
30
ENDCHAR
STARTCHAR U+0179
ENCODING 377
SWIDTH 960 0
DWIDTH 8 0
BBX 6 10 1 0
BITMAP
18
30
00
FC
8C
18
30
60
C4
FC
ENDCHAR
STARTCHAR U+017A
ENCODING 378
SWIDTH 960 0
DWIDTH 8 0
BBX 6 8 1 0
BITMAP
18
30
00
FC
98
30
64
FC
ENDCHAR
STARTCHAR U+017B
ENCODING 379
SWIDTH 960 0
DWIDTH 8 0
BBX 6 10 1 0
BITMAP
30
30
00
FC
8C
18
30
60
C4
FC
ENDCHAR
STARTCHAR U+017C
ENCODING 380
SWIDTH 960 0
DWIDTH 8 0
BBX 6 8 1 0
BITMAP
30
30
00
FC
98
30
64
FC
ENDCHAR
STARTCHAR U+017D
ENCODING 381
SWIDTH 960 0
DWIDTH 8 0
BBX 6 10 1 0
BITMAP
6C
38
00
FC
8C
18
30
60
C4
FC
ENDCHAR
STARTCHAR U+017E
ENCODING 382
SWIDTH 960 0
DWIDTH 8 0
BBX 6 8 1 0
BITMAP
6C
38
00
FC
98
30
64
FC
ENDCHAR
STARTCHAR U+017F
ENCODING 383
SWIDTH 960 0
DWIDTH 8 0
BBX 6 9 1 -2
BITMAP
1C
30
30
30
30
30
30
30
E0
ENDCHAR
STARTCHAR U+0180
ENCODING 384
SWIDTH 960 0
DWIDTH 8 0
BBX 7 8 0 0
BITMAP
60
F8
60
6C
76
66
66
6C
ENDCHAR
STARTCHAR U+0181
ENCODING 385
SWIDTH 960 0
DWIDTH 8 0
BBX 8 7 0 0
BITMAP
FE
B3
33
36
33
33
36
ENDCHAR
STARTCHAR U+0182
ENCODING 386
SWIDTH 960 0
DWIDTH 8 0
BBX 6 7 1 0
BITMAP
F8
C8
C0
F8
CC
CC
F8
ENDCHAR
STARTCHAR U+0183
ENCODING 387
SWIDTH 960 0
DWIDTH 8 0
BBX 6 7 1 0
BITMAP
F8
C0
D8
EC
CC
CC
D8
ENDCHAR
STARTCHAR U+0184
ENCODING 388
SWIDTH 960 0
DWIDTH 8 0
BBX 7 7 0 0
BITMAP
20
E0
60
7C
66
66
7C
ENDCHAR
STARTCHAR U+0185
ENCODING 389
SWIDTH 960 0
DWIDTH 8 0
BBX 7 5 0 0
BITMAP
20
E0
7C
66
7C
ENDCHAR
STARTCHAR U+0186
ENCODING 390
SWIDTH 960 0
DWIDTH 8 0
BBX 6 7 1 0
BITMAP
78
CC
0C
0C
0C
CC
78
ENDCHAR
STARTCHAR U+0187
ENCODING 391
SWIDTH 960 0
DWIDTH 8 0
BBX 7 9 1 0
BITMAP
06
0C
7C
CC
C0
C0
C0
CC
78
ENDCHAR
STARTCHAR U+0188
ENCODING 392
SWIDTH 960 0
DWIDTH 8 0
BBX 6 7 1 0
BITMAP
0C
18
78
C8
C0
CC
78
ENDCHAR
STARTCHAR U+0189
ENCODING 393
SWIDTH 960 0
DWIDTH 8 0
BBX 7 7 0 0
BITMAP
78
64
66
F6
66
64
78
ENDCHAR
STARTCHAR U+018A
ENCODING 394
SWIDTH 960 0
DWIDTH 8 0
BBX 8 7 0 0
BITMAP
FC
B2
33
33
33
32
3C
ENDCHAR
STARTCHAR U+018B
ENCODING 395
SWIDTH 960 0
DWIDTH 8 0
BBX 6 7 1 0
BITMAP
7C
4C
0C
7C
CC
CC
7C
ENDCHAR
STARTCHAR U+018C
ENCODING 396
SWIDTH 960 0
DWIDTH 8 0
BBX 6 7 1 0
BITMAP
7C
0C
6C
DC
CC
CC
6C
ENDCHAR
STARTCHAR U+018D
ENCODING 397
SWIDTH 960 0
DWIDTH 8 0
BBX 6 7 1 -2
BITMAP
78
CC
CC
CC
78
0C
78
ENDCHAR
STARTCHAR U+018E
ENCODING 398
SWIDTH 960 0
DWIDTH 8 0
BBX 6 7 1 0
BITMAP
FC
8C
0C
3C
0C
8C
FC
ENDCHAR
STARTCHAR U+018F
ENCODING 399
SWIDTH 960 0
DWIDTH 8 0
BBX 6 7 1 0
BITMAP
78
CC
0C
FC
CC
CC
78
ENDCHAR
STARTCHAR U+0190
ENCODING 400
SWIDTH 960 0
DWIDTH 8 0
BBX 6 7 1 0
BITMAP
78
C8
C0
70
C0
CC
78
ENDCHAR
STARTCHAR U+0191
ENCODING 401
SWIDTH 960 0
DWIDTH 8 0
BBX 7 9 0 -2
BITMAP
7E
62
60
78
60
60
60
60
C0
ENDCHAR
STARTCHAR U+0192
ENCODING 402
SWIDTH 960 0
DWIDTH 8 0
BBX 6 9 1 -2
BITMAP
1C
30
FC
30
30
30
30
30
60
ENDCHAR
STARTCHAR U+0193
ENCODING 403
SWIDTH 960 0
DWIDTH 8 0
BBX 7 9 1 0
BITMAP
06
0C
7C
CC
C0
DC
CC
CC
6C
ENDCHAR
STARTCHAR U+0194
ENCODING 404
SWIDTH 960 0
DWIDTH 8 0
BBX 6 9 1 -2
BITMAP
CC
CC
CC
CC
C8
50
20
50
70
ENDCHAR
STARTCHAR U+0195
ENCODING 405
SWIDTH 960 0
DWIDTH 8 0
BBX 7 7 1 0
BITMAP
C0
C0
F2
DA
DA
DA
CC
ENDCHAR
STARTCHAR U+0196
ENCODING 406
SWIDTH 960 0
DWIDTH 8 0
BBX 6 7 1 0
BITMAP
10
F0
30
30
30
30
1C
ENDCHAR
STARTCHAR U+0197
ENCODING 407
SWIDTH 960 0
DWIDTH 8 0
BBX 6 7 1 0
BITMAP
FC
30
30
FC
30
30
FC
ENDCHAR
STARTCHAR U+0198
ENCODING 408
SWIDTH 960 0
DWIDTH 8 0
BBX 7 8 1 0
BITMAP
06
CC
CC
C8
D0
E8
CC
CC
ENDCHAR
STARTCHAR U+0199
ENCODING 409
SWIDTH 960 0
DWIDTH 8 0
BBX 6 8 1 0
BITMAP
60
C0
C0
CC
CC
D8
EC
CC
ENDCHAR
STARTCHAR U+019A
ENCODING 410
SWIDTH 960 0
DWIDTH 8 0
BBX 6 7 1 0
BITMAP
F0
30
30
FC
30
30
1C
ENDCHAR
STARTCHAR U+019B
ENCODING 411
SWIDTH 960 0
DWIDTH 8 0
BBX 7 7 1 0
BITMAP
30
18
7C
18
78
D8
CE
ENDCHAR
STARTCHAR U+019C
ENCODING 412
SWIDTH 960 0
DWIDTH 8 0
BBX 7 7 1 0
BITMAP
D6
D6
D6
D6
D6
D6
6A
ENDCHAR
STARTCHAR U+019D
ENCODING 413
SWIDTH 960 0
DWIDTH 8 0
BBX 7 9 1 -2
BITMAP
46
66
76
6E
66
66
66
60
C0
ENDCHAR
STARTCHAR U+019E
ENCODING 414
SWIDTH 960 0
DWIDTH 8 0
BBX 6 7 1 -2
BITMAP
D8
EC
CC
CC
CC
0C
0C
ENDCHAR
STARTCHAR U+019F
ENCODING 415
SWIDTH 960 0
DWIDTH 8 0
BBX 6 7 1 0
BITMAP
78
CC
CC
FC
CC
CC
78
ENDCHAR
STARTCHAR U+01A0
ENCODING 416
SWIDTH 960 0
DWIDTH 8 0
BBX 7 9 1 0
BITMAP
06
02
7E
CC
CC
CC
CC
CC
78
ENDCHAR
STARTCHAR U+01A1
ENCODING 417
SWIDTH 960 0
DWIDTH 8 0
BBX 7 7 1 0
BITMAP
06
02
7E
CC
CC
CC
78
ENDCHAR
STARTCHAR U+01A2
ENCODING 418
SWIDTH 960 0
DWIDTH 8 0
BBX 7 9 1 -2
BITMAP
6E
D6
D6
D6
D6
D6
66
06
06
ENDCHAR
STARTCHAR U+01A3
ENCODING 419
SWIDTH 960 0
DWIDTH 8 0
BBX 7 7 1 -2
BITMAP
6E
D6
D6
D6
66
06
06
ENDCHAR
STARTCHAR U+01A4
ENCODING 420
SWIDTH 960 0
DWIDTH 8 0
BBX 8 7 0 0
BITMAP
FE
B3
33
36
30
30
30
ENDCHAR
STARTCHAR U+01A5
ENCODING 421
SWIDTH 960 0
DWIDTH 8 0
BBX 6 10 1 -2
BITMAP
60
C0
C0
D8
EC
CC
CC
D8
C0
C0
ENDCHAR
STARTCHAR U+01A6
ENCODING 422
SWIDTH 960 0
DWIDTH 8 0
BBX 6 9 1 -2
BITMAP
C0
C0
F8
CC
D8
C8
CC
0C
0C
ENDCHAR
STARTCHAR U+01A7
ENCODING 423
SWIDTH 960 0
DWIDTH 8 0
BBX 6 7 1 0
BITMAP
78
CC
0C
78
C0
CC
78
ENDCHAR
STARTCHAR U+01A8
ENCODING 424
SWIDTH 960 0
DWIDTH 8 0
BBX 6 5 1 0
BITMAP
78
0C
78
C0
78
ENDCHAR
STARTCHAR U+01A9
ENCODING 425
SWIDTH 960 0
DWIDTH 8 0
BBX 6 7 1 0
BITMAP
FC
C4
60
30
60
C4
FC
ENDCHAR
STARTCHAR U+01AA
ENCODING 426
SWIDTH 960 0
DWIDTH 8 0
BBX 6 9 1 -2
BITMAP
60
B0
70
30
30
30
30
30
1C
ENDCHAR
STARTCHAR U+01AB
ENCODING 427
SWIDTH 960 0
DWIDTH 8 0
BBX 6 9 1 -2
BITMAP
30
30
FC
30
30
30
1C
0C
18
ENDCHAR
STARTCHAR U+01AC
ENCODING 428
SWIDTH 960 0
DWIDTH 8 0
BBX 7 7 0 0
BITMAP
FE
98
18
18
18
18
18
ENDCHAR
STARTCHAR U+01AD
ENCODING 429
SWIDTH 960 0
DWIDTH 8 0
BBX 6 8 1 0
BITMAP
18
30
30
FC
30
30
30
1C
ENDCHAR
STARTCHAR U+01AE
ENCODING 430
SWIDTH 960 0
DWIDTH 8 0
BBX 6 9 1 -2
BITMAP
FC
30
30
30
30
30
30
30
18
ENDCHAR
STARTCHAR U+01AF
ENCODING 431
SWIDTH 960 0
DWIDTH 8 0
BBX 7 9 1 0
BITMAP
06
02
CE
CC
CC
CC
CC
CC
78
ENDCHAR
STARTCHAR U+01B0
ENCODING 432
SWIDTH 960 0
DWIDTH 8 0
BBX 7 7 1 0
BITMAP
06
02
CE
CC
CC
DC
6C
ENDCHAR
STARTCHAR U+01B1
ENCODING 433
SWIDTH 960 0
DWIDTH 8 0
BBX 7 7 1 0
BITMAP
EE
6C
C6
C6
C6
C6
7C
ENDCHAR
STARTCHAR U+01B2
ENCODING 434
SWIDTH 960 0
DWIDTH 8 0
BBX 7 7 1 0
BITMAP
CC
D6
C6
C6
C6
C4
78
ENDCHAR
STARTCHAR U+01B3
ENCODING 435
SWIDTH 960 0
DWIDTH 8 0
BBX 7 8 1 0
BITMAP
06
CC
CC
48
30
30
30
30
ENDCHAR
STARTCHAR U+01B4
ENCODING 436
SWIDTH 960 0
DWIDTH 8 0
BBX 7 9 1 -2
BITMAP
06
0C
CC
CC
CC
DC
6C
0C
78
ENDCHAR
STARTCHAR U+01B5
ENCODING 437
SWIDTH 960 0
DWIDTH 8 0
BBX 6 7 1 0
BITMAP
FC
0C
18
FC
60
C0
FC
ENDCHAR
STARTCHAR U+01B6
ENCODING 438
SWIDTH 960 0
DWIDTH 8 0
BBX 6 5 1 0
BITMAP
FC
18
FC
60
FC
ENDCHAR
STARTCHAR U+01B7
ENCODING 439
SWIDTH 960 0
DWIDTH 8 0
BBX 6 9 1 -2
BITMAP
FC
98
30
70
18
0C
0C
CC
78
ENDCHAR
STARTCHAR U+01B8
ENCODING 440
SWIDTH 960 0
DWIDTH 8 0
BBX 6 9 1 -2
BITMAP
FC
64
30
38
60
C0
C0
CC
78
ENDCHAR
STARTCHAR U+01B9
ENCODING 441
SWIDTH 960 0
DWIDTH 8 0
BBX 6 7 1 -2
BITMAP
FC
64
30
60
C0
CC
78
ENDCHAR
STARTCHAR U+01BA
ENCODING 442
SWIDTH 960 0
DWIDTH 8 0
BBX 6 7 1 -2
BITMAP
F8
90
38
0C
78
C0
78
ENDCHAR
STARTCHAR U+01BB
ENCODING 443
SWIDTH 960 0
DWIDTH 8 0
BBX 6 7 1 0
BITMAP
78
CC
0C
F8
30
64
FC
ENDCHAR
STARTCHAR U+01BC
ENCODING 444
SWIDTH 960 0
DWIDTH 8 0
BBX 6 7 1 0
BITMAP
FC
60
78
0C
0C
CC
78
ENDCHAR
STARTCHAR U+01BD
ENCODING 445
SWIDTH 960 0
DWIDTH 8 0
BBX 6 6 1 -1
BITMAP
FC
60
78
0C
CC
78
ENDCHAR
STARTCHAR U+01BE
ENCODING 446
SWIDTH 960 0
DWIDTH 8 0
BBX 6 8 1 -1
BITMAP
30
30
FC
30
38
0C
CC
78
ENDCHAR
STARTCHAR U+01BF
ENCODING 447
SWIDTH 960 0
DWIDTH 8 0
BBX 6 9 1 -2
BITMAP
D8
EC
CC
CC
CC
C8
D0
C0
C0
ENDCHAR
STARTCHAR U+01C0
ENCODING 448
SWIDTH 960 0
DWIDTH 8 0
BBX 2 7 3 0
BITMAP
C0
C0
C0
C0
C0
C0
C0
ENDCHAR
STARTCHAR U+01C1
ENCODING 449
SWIDTH 960 0
DWIDTH 8 0
BBX 5 7 2 0
BITMAP
D8
D8
D8
D8
D8
D8
D8
ENDCHAR
STARTCHAR U+01C2
ENCODING 450
SWIDTH 960 0
DWIDTH 8 0
BBX 6 7 1 0
BITMAP
30
30
FC
30
FC
30
30
ENDCHAR
STARTCHAR U+01C3
ENCODING 451
SWIDTH 960 0
DWIDTH 8 0
BBX 4 8 2 0
BITMAP
60
F0
F0
60
60
00
60
60
ENDCHAR
STARTCHAR U+01C4
ENCODING 452
SWIDTH 960 0
DWIDTH 8 0
BBX 8 10 0 0
BITMAP
05
02
00
E7
D3
D3
D6
D6
D6
E7
ENDCHAR
STARTCHAR U+01C5
ENCODING 453
SWIDTH 960 0
DWIDTH 8 0
BBX 8 8 0 0
BITMAP
05
E2
D0
D7
D3
D2
D6
E7
ENDCHAR
STARTCHAR U+01C6
ENCODING 454
SWIDTH 960 0
DWIDTH 8 0
BBX 8 8 0 0
BITMAP
05
32
30
77
B3
B2
B6
77
ENDCHAR
STARTCHAR U+01C7
ENCODING 455
SWIDTH 960 0
DWIDTH 8 0
BBX 8 9 0 -2
BITMAP
C7
C3
C3
C3
C3
CB
FB
03
0E
ENDCHAR
STARTCHAR U+01C8
ENCODING 456
SWIDTH 960 0
DWIDTH 8 0
BBX 8 10 0 -2
BITMAP
03
C3
C0
C7
C3
C3
CB
FB
03
0E
ENDCHAR
STARTCHAR U+01C9
ENCODING 457
SWIDTH 960 0
DWIDTH 8 0
BBX 8 10 0 -2
BITMAP
03
E3
60
67
63
63
63
33
03
0E
ENDCHAR
STARTCHAR U+01CA
ENCODING 458
SWIDTH 960 0
DWIDTH 8 0
BBX 8 9 0 -2
BITMAP
F3
DB
DB
DB
DB
DB
DB
03
0E
ENDCHAR
STARTCHAR U+01CB
ENCODING 459
SWIDTH 960 0
DWIDTH 8 0
BBX 8 10 0 -2
BITMAP
03
F3
D8
DB
DB
DB
DB
DB
03
0E
ENDCHAR
STARTCHAR U+01CC
ENCODING 460
SWIDTH 960 0
DWIDTH 8 0
BBX 8 10 0 -2
BITMAP
03
03
00
F3
DB
DB
DB
DB
03
0E
ENDCHAR
STARTCHAR U+01CD
ENCODING 461
SWIDTH 960 0
DWIDTH 8 0
BBX 6 10 1 0
BITMAP
6C
38
00
10
28
4C
FC
CC
CC
CC
ENDCHAR
STARTCHAR U+01CE
ENCODING 462
SWIDTH 960 0
DWIDTH 8 0
BBX 6 8 1 0
BITMAP
6C
38
00
78
0C
7C
CC
6C
ENDCHAR
STARTCHAR U+01CF
ENCODING 463
SWIDTH 960 0
DWIDTH 8 0
BBX 6 10 1 0
BITMAP
6C
38
00
FC
30
30
30
30
30
FC
ENDCHAR
STARTCHAR U+01D0
ENCODING 464
SWIDTH 960 0
DWIDTH 8 0
BBX 6 8 1 0
BITMAP
6C
38
00
F0
30
30
30
1C
ENDCHAR
STARTCHAR U+01D1
ENCODING 465
SWIDTH 960 0
DWIDTH 8 0
BBX 6 10 1 0
BITMAP
6C
38
00
78
CC
CC
CC
CC
CC
78
ENDCHAR
STARTCHAR U+01D2
ENCODING 466
SWIDTH 960 0
DWIDTH 8 0
BBX 6 8 1 0
BITMAP
6C
38
00
78
CC
CC
CC
78
ENDCHAR
STARTCHAR U+01D3
ENCODING 467
SWIDTH 960 0
DWIDTH 8 0
BBX 6 10 1 0
BITMAP
6C
38
00
CC
CC
CC
CC
CC
CC
78
ENDCHAR
STARTCHAR U+01D4
ENCODING 468
SWIDTH 960 0
DWIDTH 8 0
BBX 6 8 1 0
BITMAP
6C
38
00
CC
CC
CC
DC
6C
ENDCHAR
STARTCHAR U+01D5
ENCODING 469
SWIDTH 960 0
DWIDTH 8 0
BBX 6 10 1 0
BITMAP
FC
00
CC
00
CC
CC
CC
CC
CC
78
ENDCHAR
STARTCHAR U+01D6
ENCODING 470
SWIDTH 960 0
DWIDTH 8 0
BBX 6 9 1 0
BITMAP
FC
00
CC
00
CC
CC
CC
DC
6C
ENDCHAR
STARTCHAR U+01D7
ENCODING 471
SWIDTH 960 0
DWIDTH 8 0
BBX 6 10 1 0
BITMAP
18
30
CC
00
CC
CC
CC
CC
CC
78
ENDCHAR
STARTCHAR U+01D8
ENCODING 472
SWIDTH 960 0
DWIDTH 8 0
BBX 6 9 1 0
BITMAP
18
30
CC
00
CC
CC
CC
DC
6C
ENDCHAR
STARTCHAR U+01D9
ENCODING 473
SWIDTH 960 0
DWIDTH 8 0
BBX 6 10 1 0
BITMAP
6C
38
CC
00
CC
CC
CC
CC
CC
78
ENDCHAR
STARTCHAR U+01DA
ENCODING 474
SWIDTH 960 0
DWIDTH 8 0
BBX 6 9 1 0
BITMAP
6C
38
CC
00
CC
CC
CC
DC
6C
ENDCHAR
STARTCHAR U+01DB
ENCODING 475
SWIDTH 960 0
DWIDTH 8 0
BBX 6 10 1 0
BITMAP
60
30
CC
00
CC
CC
CC
CC
CC
78
ENDCHAR
STARTCHAR U+01DC
ENCODING 476
SWIDTH 960 0
DWIDTH 8 0
BBX 6 9 1 0
BITMAP
60
30
CC
00
CC
CC
CC
DC
6C
ENDCHAR
STARTCHAR U+01DD
ENCODING 477
SWIDTH 960 0
DWIDTH 8 0
BBX 6 5 1 0
BITMAP
78
0C
FC
CC
78
ENDCHAR
STARTCHAR U+01DE
ENCODING 478
SWIDTH 960 0
DWIDTH 8 0
BBX 6 10 1 0
BITMAP
FC
00
CC
00
10
28
4C
FC
CC
CC
ENDCHAR
STARTCHAR U+01DF
ENCODING 479
SWIDTH 960 0
DWIDTH 8 0
BBX 6 9 1 0
BITMAP
FC
00
CC
00
78
0C
7C
CC
6C
ENDCHAR
STARTCHAR U+01E0
ENCODING 480
SWIDTH 960 0
DWIDTH 8 0
BBX 6 10 1 0
BITMAP
FC
00
30
00
10
28
4C
FC
CC
CC
ENDCHAR
STARTCHAR U+01E1
ENCODING 481
SWIDTH 960 0
DWIDTH 8 0
BBX 6 9 1 0
BITMAP
FC
00
30
00
78
0C
7C
CC
6C
ENDCHAR
STARTCHAR U+01E2
ENCODING 482
SWIDTH 960 0
DWIDTH 8 0
BBX 7 9 1 0
BITMAP
7C
00
3E
58
D8
FC
D8
D8
DE
ENDCHAR
STARTCHAR U+01E3
ENCODING 483
SWIDTH 960 0
DWIDTH 8 0
BBX 8 7 0 0
BITMAP
3C
00
7E
1B
7F
D8
7E
ENDCHAR
STARTCHAR U+01E4
ENCODING 484
SWIDTH 960 0
DWIDTH 8 0
BBX 7 7 1 0
BITMAP
78
CC
C0
CC
DE
CC
7C
ENDCHAR
STARTCHAR U+01E5
ENCODING 485
SWIDTH 960 0
DWIDTH 8 0
BBX 7 8 1 -2
BITMAP
0C
78
CC
78
C0
78
3E
78
ENDCHAR
STARTCHAR U+01E6
ENCODING 486
SWIDTH 960 0
DWIDTH 8 0
BBX 6 10 1 0
BITMAP
6C
38
00
78
CC
C0
DC
CC
CC
6C
ENDCHAR
STARTCHAR U+01E7
ENCODING 487
SWIDTH 960 0
DWIDTH 8 0
BBX 6 10 1 -2
BITMAP
6C
38
00
78
CC
78
C0
78
0C
38
ENDCHAR
STARTCHAR U+01E8
ENCODING 488
SWIDTH 960 0
DWIDTH 8 0
BBX 6 10 1 0
BITMAP
6C
38
00
CC
CC
C8
D0
E8
CC
CC
ENDCHAR
STARTCHAR U+01E9
ENCODING 489
SWIDTH 960 0
DWIDTH 8 0
BBX 6 10 1 0
BITMAP
6C
38
00
C0
C0
CC
CC
D8
EC
CC
ENDCHAR
STARTCHAR U+01EA
ENCODING 490
SWIDTH 960 0
DWIDTH 8 0
BBX 6 9 1 -2
BITMAP
78
CC
CC
CC
CC
CC
78
30
38
ENDCHAR
STARTCHAR U+01EB
ENCODING 491
SWIDTH 960 0
DWIDTH 8 0
BBX 6 7 1 -2
BITMAP
78
CC
CC
CC
78
30
38
ENDCHAR
STARTCHAR U+01EC
ENCODING 492
SWIDTH 960 0
DWIDTH 8 0
BBX 6 11 1 -2
BITMAP
78
00
78
CC
CC
CC
CC
CC
78
30
38
ENDCHAR
STARTCHAR U+01ED
ENCODING 493
SWIDTH 960 0
DWIDTH 8 0
BBX 6 9 1 -2
BITMAP
78
00
78
CC
CC
CC
78
30
38
ENDCHAR
STARTCHAR U+01EE
ENCODING 494
SWIDTH 960 0
DWIDTH 8 0
BBX 6 12 1 -2
BITMAP
6C
38
00
FC
98
30
70
18
0C
0C
CC
78
ENDCHAR
STARTCHAR U+01EF
ENCODING 495
SWIDTH 960 0
DWIDTH 8 0
BBX 6 10 1 -2
BITMAP
6C
38
00
FC
98
30
18
0C
CC
78
ENDCHAR
STARTCHAR U+01F0
ENCODING 496
SWIDTH 960 0
DWIDTH 8 0
BBX 6 10 1 -2
BITMAP
6C
38
00
78
18
18
18
18
D8
70
ENDCHAR
STARTCHAR U+01F1
ENCODING 497
SWIDTH 960 0
DWIDTH 8 0
BBX 8 7 0 0
BITMAP
E7
D3
D3
D6
D6
D6
E7
ENDCHAR
STARTCHAR U+01F2
ENCODING 498
SWIDTH 960 0
DWIDTH 8 0
BBX 8 7 0 0
BITMAP
E0
D0
D7
D3
D2
D6
E7
ENDCHAR
STARTCHAR U+01F3
ENCODING 499
SWIDTH 960 0
DWIDTH 8 0
BBX 8 7 0 0
BITMAP
30
30
77
B3
B2
B6
77
ENDCHAR
STARTCHAR U+01F4
ENCODING 500
SWIDTH 960 0
DWIDTH 8 0
BBX 6 10 1 0
BITMAP
18
30
00
78
CC
C0
DC
CC
CC
6C
ENDCHAR
STARTCHAR U+01F5
ENCODING 501
SWIDTH 960 0
DWIDTH 8 0
BBX 6 10 1 -2
BITMAP
18
30
00
78
CC
78
C0
78
0C
38
ENDCHAR
STARTCHAR U+01F6
ENCODING 502
SWIDTH 960 0
DWIDTH 8 0
BBX 7 7 1 0
BITMAP
D8
D8
FA
DA
DA
DA
CC
ENDCHAR
STARTCHAR U+01F7
ENCODING 503
SWIDTH 960 0
DWIDTH 8 0
BBX 6 7 1 -2
BITMAP
D8
EC
CC
C8
D0
C0
C0
ENDCHAR
STARTCHAR U+01F8
ENCODING 504
SWIDTH 960 0
DWIDTH 8 0
BBX 6 10 1 0
BITMAP
60
30
00
8C
CC
EC
DC
CC
CC
CC
ENDCHAR
STARTCHAR U+01F9
ENCODING 505
SWIDTH 960 0
DWIDTH 8 0
BBX 6 8 1 0
BITMAP
60
30
00
D8
EC
CC
CC
CC
ENDCHAR
STARTCHAR U+01FA
ENCODING 506
SWIDTH 960 0
DWIDTH 8 0
BBX 6 10 1 0
BITMAP
0C
38
28
38
10
28
4C
FC
CC
CC
ENDCHAR
STARTCHAR U+01FB
ENCODING 507
SWIDTH 960 0
DWIDTH 8 0
BBX 6 10 1 0
BITMAP
0C
38
28
38
00
78
0C
7C
CC
6C
ENDCHAR
STARTCHAR U+01FC
ENCODING 508
SWIDTH 960 0
DWIDTH 8 0
BBX 7 10 1 0
BITMAP
0C
18
00
3E
58
D8
FC
D8
D8
DE
ENDCHAR
STARTCHAR U+01FD
ENCODING 509
SWIDTH 960 0
DWIDTH 8 0
BBX 8 8 0 0
BITMAP
0C
18
00
7E
1B
7F
D8
7E
ENDCHAR
STARTCHAR U+01FE
ENCODING 510
SWIDTH 960 0
DWIDTH 8 0
BBX 6 11 1 -1
BITMAP
30
60
0C
78
CC
DC
FC
EC
CC
78
C0
ENDCHAR
STARTCHAR U+01FF
ENCODING 511
SWIDTH 960 0
DWIDTH 8 0
BBX 6 9 1 -1
BITMAP
30
60
0C
78
DC
FC
EC
78
C0
ENDCHAR
STARTCHAR U+0200
ENCODING 512
SWIDTH 960 0
DWIDTH 8 0
BBX 7 10 0 0
BITMAP
CC
66
00
08
14
26
7E
66
66
66
ENDCHAR
STARTCHAR U+0201
ENCODING 513
SWIDTH 960 0
DWIDTH 8 0
BBX 7 8 0 0
BITMAP
CC
66
00
3C
06
3E
66
36
ENDCHAR
STARTCHAR U+0202
ENCODING 514
SWIDTH 960 0
DWIDTH 8 0
BBX 6 10 1 0
BITMAP
78
CC
00
10
28
4C
FC
CC
CC
CC
ENDCHAR
STARTCHAR U+0203
ENCODING 515
SWIDTH 960 0
DWIDTH 8 0
BBX 6 8 1 0
BITMAP
78
CC
00
78
0C
7C
CC
6C
ENDCHAR
STARTCHAR U+0204
ENCODING 516
SWIDTH 960 0
DWIDTH 8 0
BBX 7 10 0 0
BITMAP
CC
66
00
7E
62
60
78
60
62
7E
ENDCHAR
STARTCHAR U+0205
ENCODING 517
SWIDTH 960 0
DWIDTH 8 0
BBX 7 8 0 0
BITMAP
CC
66
00
3C
66
7E
60
3C
ENDCHAR
STARTCHAR U+0206
ENCODING 518
SWIDTH 960 0
DWIDTH 8 0
BBX 6 10 1 0
BITMAP
78
CC
00
FC
C4
C0
F0
C0
C4
FC
ENDCHAR
STARTCHAR U+0207
ENCODING 519
SWIDTH 960 0
DWIDTH 8 0
BBX 6 8 1 0
BITMAP
78
CC
00
78
CC
FC
C0
78
ENDCHAR
STARTCHAR U+0208
ENCODING 520
SWIDTH 960 0
DWIDTH 8 0
BBX 7 10 0 0
BITMAP
CC
66
00
7E
18
18
18
18
18
7E
ENDCHAR
STARTCHAR U+0209
ENCODING 521
SWIDTH 960 0
DWIDTH 8 0
BBX 7 8 0 0
BITMAP
CC
66
00
78
18
18
18
0E
ENDCHAR
STARTCHAR U+020A
ENCODING 522
SWIDTH 960 0
DWIDTH 8 0
BBX 6 10 1 0
BITMAP
78
CC
00
FC
30
30
30
30
30
FC
ENDCHAR
STARTCHAR U+020B
ENCODING 523
SWIDTH 960 0
DWIDTH 8 0
BBX 6 8 1 0
BITMAP
78
CC
00
F0
30
30
30
1C
ENDCHAR
STARTCHAR U+020C
ENCODING 524
SWIDTH 960 0
DWIDTH 8 0
BBX 7 10 0 0
BITMAP
CC
66
00
3C
66
66
66
66
66
3C
ENDCHAR
STARTCHAR U+020D
ENCODING 525
SWIDTH 960 0
DWIDTH 8 0
BBX 7 8 0 0
BITMAP
CC
66
00
3C
66
66
66
3C
ENDCHAR
STARTCHAR U+020E
ENCODING 526
SWIDTH 960 0
DWIDTH 8 0
BBX 6 10 1 0
BITMAP
78
CC
00
78
CC
CC
CC
CC
CC
78
ENDCHAR
STARTCHAR U+020F
ENCODING 527
SWIDTH 960 0
DWIDTH 8 0
BBX 6 8 1 0
BITMAP
78
CC
00
78
CC
CC
CC
78
ENDCHAR
STARTCHAR U+0210
ENCODING 528
SWIDTH 960 0
DWIDTH 8 0
BBX 7 10 0 0
BITMAP
CC
66
00
7C
66
66
6C
64
66
66
ENDCHAR
STARTCHAR U+0211
ENCODING 529
SWIDTH 960 0
DWIDTH 8 0
BBX 7 8 0 0
BITMAP
CC
66
00
76
38
30
30
30
ENDCHAR
STARTCHAR U+0212
ENCODING 530
SWIDTH 960 0
DWIDTH 8 0
BBX 6 10 1 0
BITMAP
78
CC
00
F8
CC
CC
D8
C8
CC
CC
ENDCHAR
STARTCHAR U+0213
ENCODING 531
SWIDTH 960 0
DWIDTH 8 0
BBX 6 8 1 0
BITMAP
78
CC
00
EC
70
60
60
60
ENDCHAR
STARTCHAR U+0214
ENCODING 532
SWIDTH 960 0
DWIDTH 8 0
BBX 7 10 0 0
BITMAP
CC
66
00
66
66
66
66
66
66
3C
ENDCHAR
STARTCHAR U+0215
ENCODING 533
SWIDTH 960 0
DWIDTH 8 0
BBX 7 8 0 0
BITMAP
CC
66
00
66
66
66
6E
36
ENDCHAR
STARTCHAR U+0216
ENCODING 534
SWIDTH 960 0
DWIDTH 8 0
BBX 6 10 1 0
BITMAP
78
CC
00
CC
CC
CC
CC
CC
CC
78
ENDCHAR
STARTCHAR U+0217
ENCODING 535
SWIDTH 960 0
DWIDTH 8 0
BBX 6 8 1 0
BITMAP
78
CC
00
CC
CC
CC
DC
6C
ENDCHAR
STARTCHAR U+0218
ENCODING 536
SWIDTH 960 0
DWIDTH 8 0
BBX 6 9 1 -2
BITMAP
78
CC
C0
78
0C
CC
78
10
30
ENDCHAR
STARTCHAR U+0219
ENCODING 537
SWIDTH 960 0
DWIDTH 8 0
BBX 6 7 1 -2
BITMAP
78
C0
78
0C
78
10
30
ENDCHAR
STARTCHAR U+021A
ENCODING 538
SWIDTH 960 0
DWIDTH 8 0
BBX 6 9 1 -2
BITMAP
FC
30
30
30
30
30
30
08
18
ENDCHAR
STARTCHAR U+021B
ENCODING 539
SWIDTH 960 0
DWIDTH 8 0
BBX 6 9 1 -2
BITMAP
30
30
FC
30
30
30
1C
08
18
ENDCHAR
STARTCHAR U+021C
ENCODING 540
SWIDTH 960 0
DWIDTH 8 0
BBX 6 9 1 -2
BITMAP
78
CC
18
38
6C
0C
18
30
60
ENDCHAR
STARTCHAR U+021D
ENCODING 541
SWIDTH 960 0
DWIDTH 8 0
BBX 6 7 1 -2
BITMAP
78
CC
18
6C
0C
18
70
ENDCHAR
STARTCHAR U+021E
ENCODING 542
SWIDTH 960 0
DWIDTH 8 0
BBX 6 10 1 0
BITMAP
6C
38
00
CC
CC
CC
FC
CC
CC
CC
ENDCHAR
STARTCHAR U+021F
ENCODING 543
SWIDTH 960 0
DWIDTH 8 0
BBX 6 10 1 0
BITMAP
6C
38
00
C0
C0
D8
EC
CC
CC
CC
ENDCHAR
STARTCHAR U+0220
ENCODING 544
SWIDTH 960 0
DWIDTH 8 0
BBX 6 9 1 -2
BITMAP
D8
EC
CC
CC
CC
CC
CC
0C
0C
ENDCHAR
STARTCHAR U+0221
ENCODING 545
SWIDTH 960 0
DWIDTH 8 0
BBX 8 9 0 -2
BITMAP
0C
0C
6C
DC
CC
CF
6D
07
0C
ENDCHAR
STARTCHAR U+0222
ENCODING 546
SWIDTH 960 0
DWIDTH 8 0
BBX 6 7 1 0
BITMAP
08
6C
CC
78
CC
CC
78
ENDCHAR
STARTCHAR U+0223
ENCODING 547
SWIDTH 960 0
DWIDTH 8 0
BBX 6 7 1 0
BITMAP
48
CC
CC
78
CC
CC
78
ENDCHAR
STARTCHAR U+0224
ENCODING 548
SWIDTH 960 0
DWIDTH 8 0
BBX 6 9 1 -2
BITMAP
FC
8C
18
30
60
C4
FC
0C
18
ENDCHAR
STARTCHAR U+0225
ENCODING 549
SWIDTH 960 0
DWIDTH 8 0
BBX 6 7 1 -2
BITMAP
FC
98
30
64
FC
0C
18
ENDCHAR
STARTCHAR U+0226
ENCODING 550
SWIDTH 960 0
DWIDTH 8 0
BBX 6 10 1 0
BITMAP
30
30
00
10
28
4C
FC
CC
CC
CC
ENDCHAR
STARTCHAR U+0227
ENCODING 551
SWIDTH 960 0
DWIDTH 8 0
BBX 6 8 1 0
BITMAP
30
30
00
78
0C
7C
CC
6C
ENDCHAR
STARTCHAR U+0228
ENCODING 552
SWIDTH 960 0
DWIDTH 8 0
BBX 6 9 1 -2
BITMAP
FC
C4
C0
F0
C0
C4
FC
30
70
ENDCHAR
STARTCHAR U+0229
ENCODING 553
SWIDTH 960 0
DWIDTH 8 0
BBX 6 7 1 -2
BITMAP
78
CC
FC
C0
78
30
70
ENDCHAR
STARTCHAR U+022A
ENCODING 554
SWIDTH 960 0
DWIDTH 8 0
BBX 6 10 1 0
BITMAP
FC
00
CC
00
78
CC
CC
CC
CC
78
ENDCHAR
STARTCHAR U+022B
ENCODING 555
SWIDTH 960 0
DWIDTH 8 0
BBX 6 9 1 0
BITMAP
FC
00
CC
00
78
CC
CC
CC
78
ENDCHAR
STARTCHAR U+022C
ENCODING 556
SWIDTH 960 0
DWIDTH 8 0
BBX 7 10 1 0
BITMAP
FE
00
76
DC
00
78
CC
CC
CC
78
ENDCHAR
STARTCHAR U+022D
ENCODING 557
SWIDTH 960 0
DWIDTH 8 0
BBX 7 10 1 0
BITMAP
FE
00
76
DC
00
78
CC
CC
CC
78
ENDCHAR
STARTCHAR U+022E
ENCODING 558
SWIDTH 960 0
DWIDTH 8 0
BBX 6 10 1 0
BITMAP
30
30
00
78
CC
CC
CC
CC
CC
78
ENDCHAR
STARTCHAR U+022F
ENCODING 559
SWIDTH 960 0
DWIDTH 8 0
BBX 6 8 1 0
BITMAP
30
30
00
78
CC
CC
CC
78
ENDCHAR
STARTCHAR U+0230
ENCODING 560
SWIDTH 960 0
DWIDTH 8 0
BBX 6 10 1 0
BITMAP
FC
00
30
00
78
CC
CC
CC
CC
78
ENDCHAR
STARTCHAR U+0231
ENCODING 561
SWIDTH 960 0
DWIDTH 8 0
BBX 6 9 1 0
BITMAP
FC
00
30
00
78
CC
CC
CC
78
ENDCHAR
STARTCHAR U+0232
ENCODING 562
SWIDTH 960 0
DWIDTH 8 0
BBX 6 9 1 0
BITMAP
78
00
CC
CC
48
30
30
30
30
ENDCHAR
STARTCHAR U+0233
ENCODING 563
SWIDTH 960 0
DWIDTH 8 0
BBX 6 9 1 -2
BITMAP
78
00
CC
CC
CC
DC
6C
0C
78
ENDCHAR
STARTCHAR U+0234
ENCODING 564
SWIDTH 960 0
DWIDTH 8 0
BBX 6 9 1 -2
BITMAP
F0
30
30
30
30
3C
34
1C
30
ENDCHAR
STARTCHAR U+0235
ENCODING 565
SWIDTH 960 0
DWIDTH 8 0
BBX 7 7 1 -2
BITMAP
F0
D8
D8
DE
DA
0E
18
ENDCHAR
STARTCHAR U+0236
ENCODING 566
SWIDTH 960 0
DWIDTH 8 0
BBX 6 9 1 -2
BITMAP
30
30
FC
30
30
3C
14
1C
30
ENDCHAR
STARTCHAR U+0237
ENCODING 567
SWIDTH 960 0
DWIDTH 8 0
BBX 5 7 1 -2
BITMAP
78
18
18
18
18
D8
70
ENDCHAR
STARTCHAR U+0238
ENCODING 568
SWIDTH 960 0
DWIDTH 8 0
BBX 8 7 0 0
BITMAP
18
18
7E
DB
DB
DB
66
ENDCHAR
STARTCHAR U+0239
ENCODING 569
SWIDTH 960 0
DWIDTH 8 0
BBX 8 7 0 -2
BITMAP
66
DB
DB
DB
7E
18
18
ENDCHAR
STARTCHAR U+023A
ENCODING 570
SWIDTH 960 0
DWIDTH 8 0
BBX 8 9 0 -1
BITMAP
01
0B
16
2E
7E
76
66
E6
80
ENDCHAR
STARTCHAR U+023B
ENCODING 571
SWIDTH 960 0
DWIDTH 8 0
BBX 8 9 0 -1
BITMAP
01
3F
66
6C
78
70
66
FC
80
ENDCHAR
STARTCHAR U+023C
ENCODING 572
SWIDTH 960 0
DWIDTH 8 0
BBX 6 7 1 -1
BITMAP
0C
78
C8
C0
CC
78
C0
ENDCHAR
STARTCHAR U+023D
ENCODING 573
SWIDTH 960 0
DWIDTH 8 0
BBX 7 7 0 0
BITMAP
60
60
60
F8
60
62
7E
ENDCHAR
STARTCHAR U+023E
ENCODING 574
SWIDTH 960 0
DWIDTH 8 0
BBX 8 9 0 -1
BITMAP
01
7F
1A
1C
18
38
78
D8
80
ENDCHAR
STARTCHAR U+023F
ENCODING 575
SWIDTH 960 0
DWIDTH 8 0
BBX 7 7 1 -2
BITMAP
78
C0
78
0C
78
32
1C
ENDCHAR
STARTCHAR U+0240
ENCODING 576
SWIDTH 960 0
DWIDTH 8 0
BBX 7 7 1 -2
BITMAP
FC
98
30
60
E0
36
1C
ENDCHAR
STARTCHAR U+0241
ENCODING 577
SWIDTH 960 0
DWIDTH 8 0
BBX 6 7 1 0
BITMAP
78
CC
0C
18
30
30
30
ENDCHAR
STARTCHAR U+0242
ENCODING 578
SWIDTH 960 0
DWIDTH 8 0
BBX 6 5 1 0
BITMAP
78
CC
18
30
30
ENDCHAR
STARTCHAR U+0243
ENCODING 579
SWIDTH 960 0
DWIDTH 8 0
BBX 7 7 0 0
BITMAP
7C
66
7C
66
F6
66
7C
ENDCHAR
STARTCHAR U+0244
ENCODING 580
SWIDTH 960 0
DWIDTH 8 0
BBX 8 7 0 0
BITMAP
66
66
66
FF
66
66
3C
ENDCHAR
STARTCHAR U+0245
ENCODING 581
SWIDTH 960 0
DWIDTH 8 0
BBX 6 7 1 0
BITMAP
10
28
4C
CC
CC
CC
CC
ENDCHAR
STARTCHAR U+0246
ENCODING 582
SWIDTH 960 0
DWIDTH 8 0
BBX 8 9 0 -1
BITMAP
01
7F
66
6C
78
70
62
FE
80
ENDCHAR
STARTCHAR U+0247
ENCODING 583
SWIDTH 960 0
DWIDTH 8 0
BBX 6 7 1 -1
BITMAP
0C
78
CC
FC
C0
78
C0
ENDCHAR
STARTCHAR U+0248
ENCODING 584
SWIDTH 960 0
DWIDTH 8 0
BBX 6 8 1 -1
BITMAP
7C
18
18
7C
18
18
D8
70
ENDCHAR
STARTCHAR U+0249
ENCODING 585
SWIDTH 960 0
DWIDTH 8 0
BBX 6 10 1 -2
BITMAP
18
18
00
78
18
7C
18
18
D8
70
ENDCHAR
STARTCHAR U+024A
ENCODING 586
SWIDTH 960 0
DWIDTH 8 0
BBX 7 9 1 -2
BITMAP
74
CC
CC
CC
CC
DC
6C
0C
06
ENDCHAR
STARTCHAR U+024B
ENCODING 587
SWIDTH 960 0
DWIDTH 8 0
BBX 7 7 1 -2
BITMAP
74
CC
CC
DC
6C
0C
06
ENDCHAR
STARTCHAR U+024C
ENCODING 588
SWIDTH 960 0
DWIDTH 8 0
BBX 7 7 0 0
BITMAP
7C
66
66
FC
64
66
66
ENDCHAR
STARTCHAR U+024D
ENCODING 589
SWIDTH 960 0
DWIDTH 8 0
BBX 6 5 1 0
BITMAP
EC
70
F8
60
60
ENDCHAR
STARTCHAR U+024E
ENCODING 590
SWIDTH 960 0
DWIDTH 8 0
BBX 8 7 0 0
BITMAP
66
FF
24
18
18
18
18
ENDCHAR
STARTCHAR U+024F
ENCODING 591
SWIDTH 960 0
DWIDTH 8 0
BBX 8 7 0 -2
BITMAP
66
FF
66
6E
36
06
3C
ENDCHAR
STARTCHAR U+0260
ENCODING 608
SWIDTH 960 0
DWIDTH 8 0
BBX 7 10 1 -2
BITMAP
06
0C
0C
6C
DC
CC
CC
6C
0C
78
ENDCHAR
STARTCHAR U+026B
ENCODING 619
SWIDTH 960 0
DWIDTH 8 0
BBX 8 7 0 0
BITMAP
78
18
7B
DE
18
18
0E
ENDCHAR
STARTCHAR U+027E
ENCODING 638
SWIDTH 960 0
DWIDTH 8 0
BBX 6 5 1 0
BITMAP
38
6C
60
60
F0
ENDCHAR
STARTCHAR U+0280
ENCODING 640
SWIDTH 960 0
DWIDTH 8 0
BBX 6 5 1 0
BITMAP
F8
CC
D8
C8
CC
ENDCHAR
STARTCHAR U+02C6
ENCODING 710
SWIDTH 960 0
DWIDTH 8 0
BBX 5 2 2 5
BITMAP
70
D8
ENDCHAR
STARTCHAR U+02C7
ENCODING 711
SWIDTH 960 0
DWIDTH 8 0
BBX 5 2 2 5
BITMAP
D8
70
ENDCHAR
STARTCHAR U+02C9
ENCODING 713
SWIDTH 960 0
DWIDTH 8 0
BBX 4 1 2 6
BITMAP
F0
ENDCHAR
STARTCHAR U+02D8
ENCODING 728
SWIDTH 960 0
DWIDTH 8 0
BBX 6 2 1 5
BITMAP
CC
78
ENDCHAR
STARTCHAR U+02D9
ENCODING 729
SWIDTH 960 0
DWIDTH 8 0
BBX 2 2 3 5
BITMAP
C0
C0
ENDCHAR
STARTCHAR U+02DA
ENCODING 730
SWIDTH 960 0
DWIDTH 8 0
BBX 3 3 3 4
BITMAP
E0
A0
E0
ENDCHAR
STARTCHAR U+02DB
ENCODING 731
SWIDTH 960 0
DWIDTH 8 0
BBX 4 3 2 -2
BITMAP
60
C0
70
ENDCHAR
STARTCHAR U+02DC
ENCODING 732
SWIDTH 960 0
DWIDTH 8 0
BBX 6 2 1 5
BITMAP
6C
D8
ENDCHAR
STARTCHAR U+02DD
ENCODING 733
SWIDTH 960 0
DWIDTH 8 0
BBX 7 2 1 5
BITMAP
66
CC
ENDCHAR
STARTCHAR U+0384
ENCODING 900
SWIDTH 960 0
DWIDTH 8 0
BBX 3 3 3 7
BITMAP
60
C0
80
ENDCHAR
STARTCHAR U+0385
ENCODING 901
SWIDTH 960 0
DWIDTH 8 0
BBX 6 3 1 7
BITMAP
30
20
CC
ENDCHAR
STARTCHAR U+0386
ENCODING 902
SWIDTH 960 0
DWIDTH 8 0
BBX 7 9 1 0
BITMAP
60
C0
10
10
38
28
7C
44
C6
ENDCHAR
STARTCHAR U+0387
ENCODING 903
SWIDTH 960 0
DWIDTH 8 0
BBX 2 2 3 2
BITMAP
C0
C0
ENDCHAR
STARTCHAR U+0388
ENCODING 904
SWIDTH 960 0
DWIDTH 8 0
BBX 7 9 0 0
BITMAP
60
C0
3E
62
60
78
60
62
7E
ENDCHAR
STARTCHAR U+0389
ENCODING 905
SWIDTH 960 0
DWIDTH 8 0
BBX 7 9 0 0
BITMAP
60
C0
26
66
66
7E
66
66
66
ENDCHAR
STARTCHAR U+038A
ENCODING 906
SWIDTH 960 0
DWIDTH 8 0
BBX 7 9 0 0
BITMAP
60
C0
3E
18
18
18
18
18
7E
ENDCHAR
STARTCHAR U+038C
ENCODING 908
SWIDTH 960 0
DWIDTH 8 0
BBX 7 9 0 0
BITMAP
60
C0
3C
66
66
66
66
66
3C
ENDCHAR
STARTCHAR U+038E
ENCODING 910
SWIDTH 960 0
DWIDTH 8 0
BBX 7 9 0 0
BITMAP
60
C0
26
66
24
18
18
18
18
ENDCHAR
STARTCHAR U+038F
ENCODING 911
SWIDTH 960 0
DWIDTH 8 0
BBX 8 9 0 0
BITMAP
60
C0
3E
63
63
63
63
36
77
ENDCHAR
STARTCHAR U+0390
ENCODING 912
SWIDTH 960 0
DWIDTH 8 0
BBX 6 9 1 0
BITMAP
30
20
CC
00
F0
30
30
30
1C
ENDCHAR
STARTCHAR U+0391
ENCODING 913
SWIDTH 960 0
DWIDTH 8 0
BBX 7 7 1 0
BITMAP
10
10
38
28
7C
44
C6
ENDCHAR
STARTCHAR U+0392
ENCODING 914
SWIDTH 960 0
DWIDTH 8 0
BBX 6 7 1 0
BITMAP
F8
CC
CC
D8
CC
CC
D8
ENDCHAR
STARTCHAR U+0393
ENCODING 915
SWIDTH 960 0
DWIDTH 8 0
BBX 6 7 1 0
BITMAP
FC
C4
C0
C0
C0
C0
C0
ENDCHAR
STARTCHAR U+0394
ENCODING 916
SWIDTH 960 0
DWIDTH 8 0
BBX 7 7 1 0
BITMAP
10
10
38
28
6C
44
FE
ENDCHAR
STARTCHAR U+0395
ENCODING 917
SWIDTH 960 0
DWIDTH 8 0
BBX 6 7 1 0
BITMAP
FC
C4
C0
F0
C0
C4
FC
ENDCHAR
STARTCHAR U+0396
ENCODING 918
SWIDTH 960 0
DWIDTH 8 0
BBX 6 7 1 0
BITMAP
FC
8C
18
30
60
C4
FC
ENDCHAR
STARTCHAR U+0397
ENCODING 919
SWIDTH 960 0
DWIDTH 8 0
BBX 6 7 1 0
BITMAP
CC
CC
CC
FC
CC
CC
CC
ENDCHAR
STARTCHAR U+0398
ENCODING 920
SWIDTH 960 0
DWIDTH 8 0
BBX 7 7 1 0
BITMAP
7C
C6
C6
FE
C6
C6
7C
ENDCHAR
STARTCHAR U+0399
ENCODING 921
SWIDTH 960 0
DWIDTH 8 0
BBX 6 7 1 0
BITMAP
FC
30
30
30
30
30
FC
ENDCHAR
STARTCHAR U+039A
ENCODING 922
SWIDTH 960 0
DWIDTH 8 0
BBX 6 7 1 0
BITMAP
CC
CC
C8
D0
E8
CC
CC
ENDCHAR
STARTCHAR U+039B
ENCODING 923
SWIDTH 960 0
DWIDTH 8 0
BBX 7 7 1 0
BITMAP
10
10
38
28
6C
44
C6
ENDCHAR
STARTCHAR U+039C
ENCODING 924
SWIDTH 960 0
DWIDTH 8 0
BBX 7 7 1 0
BITMAP
82
C6
EE
D6
C6
C6
C6
ENDCHAR
STARTCHAR U+039D
ENCODING 925
SWIDTH 960 0
DWIDTH 8 0
BBX 6 7 1 0
BITMAP
8C
CC
EC
DC
CC
CC
CC
ENDCHAR
STARTCHAR U+039E
ENCODING 926
SWIDTH 960 0
DWIDTH 8 0
BBX 6 7 1 0
BITMAP
FC
00
00
78
00
00
FC
ENDCHAR
STARTCHAR U+039F
ENCODING 927
SWIDTH 960 0
DWIDTH 8 0
BBX 6 7 1 0
BITMAP
78
CC
CC
CC
CC
CC
78
ENDCHAR
STARTCHAR U+03A0
ENCODING 928
SWIDTH 960 0
DWIDTH 8 0
BBX 7 7 1 0
BITMAP
FE
6C
6C
6C
6C
6C
6C
ENDCHAR
STARTCHAR U+03A1
ENCODING 929
SWIDTH 960 0
DWIDTH 8 0
BBX 6 7 1 0
BITMAP
F8
CC
CC
D8
C0
C0
C0
ENDCHAR
STARTCHAR U+03A3
ENCODING 931
SWIDTH 960 0
DWIDTH 8 0
BBX 6 7 1 0
BITMAP
FC
C4
60
30
60
C4
FC
ENDCHAR
STARTCHAR U+03A4
ENCODING 932
SWIDTH 960 0
DWIDTH 8 0
BBX 6 7 1 0
BITMAP
FC
30
30
30
30
30
30
ENDCHAR
STARTCHAR U+03A5
ENCODING 933
SWIDTH 960 0
DWIDTH 8 0
BBX 6 7 1 0
BITMAP
CC
CC
48
30
30
30
30
ENDCHAR
STARTCHAR U+03A6
ENCODING 934
SWIDTH 960 0
DWIDTH 8 0
BBX 7 7 1 0
BITMAP
10
7C
D6
D6
7C
10
10
ENDCHAR
STARTCHAR U+03A7
ENCODING 935
SWIDTH 960 0
DWIDTH 8 0
BBX 6 7 1 0
BITMAP
CC
CC
48
30
48
CC
CC
ENDCHAR
STARTCHAR U+03A8
ENCODING 936
SWIDTH 960 0
DWIDTH 8 0
BBX 7 7 1 0
BITMAP
D6
D6
D6
D6
7C
10
10
ENDCHAR
STARTCHAR U+03A9
ENCODING 937
SWIDTH 960 0
DWIDTH 8 0
BBX 7 7 1 0
BITMAP
7C
C6
C6
C6
C6
6C
EE
ENDCHAR
STARTCHAR U+03AA
ENCODING 938
SWIDTH 960 0
DWIDTH 8 0
BBX 6 10 1 0
BITMAP
CC
CC
00
FC
30
30
30
30
30
FC
ENDCHAR
STARTCHAR U+03AB
ENCODING 939
SWIDTH 960 0
DWIDTH 8 0
BBX 6 10 1 0
BITMAP
CC
CC
00
CC
CC
48
30
30
30
30
ENDCHAR
STARTCHAR U+03AC
ENCODING 940
SWIDTH 960 0
DWIDTH 8 0
BBX 6 8 1 0
BITMAP
18
30
00
6C
D8
D8
D8
6C
ENDCHAR
STARTCHAR U+03AD
ENCODING 941
SWIDTH 960 0
DWIDTH 8 0
BBX 6 8 1 0
BITMAP
18
30
00
78
C0
60
CC
78
ENDCHAR
STARTCHAR U+03AE
ENCODING 942
SWIDTH 960 0
DWIDTH 8 0
BBX 6 10 1 -2
BITMAP
18
30
00
D8
EC
CC
CC
CC
0C
0C
ENDCHAR
STARTCHAR U+03AF
ENCODING 943
SWIDTH 960 0
DWIDTH 8 0
BBX 6 8 1 0
BITMAP
18
30
00
F0
30
30
30
1C
ENDCHAR
STARTCHAR U+03B0
ENCODING 944
SWIDTH 960 0
DWIDTH 8 0
BBX 6 9 1 0
BITMAP
30
20
CC
00
D8
CC
CC
CC
78
ENDCHAR
STARTCHAR U+03B1
ENCODING 945
SWIDTH 960 0
DWIDTH 8 0
BBX 6 5 1 0
BITMAP
6C
D8
D8
D8
6C
ENDCHAR
STARTCHAR U+03B2
ENCODING 946
SWIDTH 960 0
DWIDTH 8 0
BBX 6 9 1 -2
BITMAP
78
CC
CC
D8
CC
CC
D8
C0
C0
ENDCHAR
STARTCHAR U+03B3
ENCODING 947
SWIDTH 960 0
DWIDTH 8 0
BBX 6 7 1 -2
BITMAP
CC
6C
68
30
30
30
30
ENDCHAR
STARTCHAR U+03B4
ENCODING 948
SWIDTH 960 0
DWIDTH 8 0
BBX 6 7 1 0
BITMAP
78
C0
78
CC
CC
CC
78
ENDCHAR
STARTCHAR U+03B5
ENCODING 949
SWIDTH 960 0
DWIDTH 8 0
BBX 6 5 1 0
BITMAP
78
C0
60
CC
78
ENDCHAR
STARTCHAR U+03B6
ENCODING 950
SWIDTH 960 0
DWIDTH 8 0
BBX 6 10 1 -2
BITMAP
C0
7C
18
30
60
C0
C0
78
0C
18
ENDCHAR
STARTCHAR U+03B7
ENCODING 951
SWIDTH 960 0
DWIDTH 8 0
BBX 6 7 1 -2
BITMAP
D8
EC
CC
CC
CC
0C
0C
ENDCHAR
STARTCHAR U+03B8
ENCODING 952
SWIDTH 960 0
DWIDTH 8 0
BBX 6 7 1 0
BITMAP
78
CC
CC
FC
CC
CC
78
ENDCHAR
STARTCHAR U+03B9
ENCODING 953
SWIDTH 960 0
DWIDTH 8 0
BBX 6 5 1 0
BITMAP
F0
30
30
30
1C
ENDCHAR
STARTCHAR U+03BA
ENCODING 954
SWIDTH 960 0
DWIDTH 8 0
BBX 6 5 1 0
BITMAP
CC
D8
F0
D8
CC
ENDCHAR
STARTCHAR U+03BB
ENCODING 955
SWIDTH 960 0
DWIDTH 8 0
BBX 7 7 1 0
BITMAP
70
18
18
38
78
D8
CE
ENDCHAR
STARTCHAR U+03BC
ENCODING 956
SWIDTH 960 0
DWIDTH 8 0
BBX 7 7 1 -2
BITMAP
CC
CC
CC
CC
F6
C0
C0
ENDCHAR
STARTCHAR U+03BD
ENCODING 957
SWIDTH 960 0
DWIDTH 8 0
BBX 6 5 1 0
BITMAP
CC
CC
C8
50
20
ENDCHAR
STARTCHAR U+03BE
ENCODING 958
SWIDTH 960 0
DWIDTH 8 0
BBX 6 10 1 -2
BITMAP
60
38
60
60
78
C0
C0
78
0C
18
ENDCHAR
STARTCHAR U+03BF
ENCODING 959
SWIDTH 960 0
DWIDTH 8 0
BBX 6 5 1 0
BITMAP
78
CC
CC
CC
78
ENDCHAR
STARTCHAR U+03C0
ENCODING 960
SWIDTH 960 0
DWIDTH 8 0
BBX 7 5 1 0
BITMAP
FE
6C
6C
6C
CE
ENDCHAR
STARTCHAR U+03C1
ENCODING 961
SWIDTH 960 0
DWIDTH 8 0
BBX 6 7 1 -2
BITMAP
78
CC
CC
CC
D8
C0
C0
ENDCHAR
STARTCHAR U+03C2
ENCODING 962
SWIDTH 960 0
DWIDTH 8 0
BBX 6 7 1 -2
BITMAP
78
CC
C0
C0
78
0C
18
ENDCHAR
STARTCHAR U+03C3
ENCODING 963
SWIDTH 960 0
DWIDTH 8 0
BBX 7 5 1 0
BITMAP
7E
C8
CC
CC
78
ENDCHAR
STARTCHAR U+03C4
ENCODING 964
SWIDTH 960 0
DWIDTH 8 0
BBX 6 5 1 0
BITMAP
FC
30
30
30
18
ENDCHAR
STARTCHAR U+03C5
ENCODING 965
SWIDTH 960 0
DWIDTH 8 0
BBX 6 5 1 0
BITMAP
D8
CC
CC
CC
78
ENDCHAR
STARTCHAR U+03C6
ENCODING 966
SWIDTH 960 0
DWIDTH 8 0
BBX 7 7 1 -2
BITMAP
1C
B6
B6
B6
7C
30
30
ENDCHAR
STARTCHAR U+03C7
ENCODING 967
SWIDTH 960 0
DWIDTH 8 0
BBX 6 7 1 -2
BITMAP
CC
6C
38
30
70
D8
CC
ENDCHAR
STARTCHAR U+03C8
ENCODING 968
SWIDTH 960 0
DWIDTH 8 0
BBX 7 7 1 -2
BITMAP
D6
D6
D6
D6
7C
10
10
ENDCHAR
STARTCHAR U+03C9
ENCODING 969
SWIDTH 960 0
DWIDTH 8 0
BBX 7 5 1 0
BITMAP
6C
C6
D6
D6
6C
ENDCHAR
STARTCHAR U+03CA
ENCODING 970
SWIDTH 960 0
DWIDTH 8 0
BBX 6 8 1 0
BITMAP
CC
CC
00
F0
30
30
30
1C
ENDCHAR
STARTCHAR U+03CB
ENCODING 971
SWIDTH 960 0
DWIDTH 8 0
BBX 6 8 1 0
BITMAP
CC
CC
00
D8
CC
CC
CC
78
ENDCHAR
STARTCHAR U+03CC
ENCODING 972
SWIDTH 960 0
DWIDTH 8 0
BBX 6 8 1 0
BITMAP
18
30
00
78
CC
CC
CC
78
ENDCHAR
STARTCHAR U+03CD
ENCODING 973
SWIDTH 960 0
DWIDTH 8 0
BBX 6 8 1 0
BITMAP
18
30
00
D8
CC
CC
CC
78
ENDCHAR
STARTCHAR U+03CE
ENCODING 974
SWIDTH 960 0
DWIDTH 8 0
BBX 7 8 1 0
BITMAP
18
30
00
6C
C6
D6
D6
6C
ENDCHAR
STARTCHAR U+03FC
ENCODING 1020
SWIDTH 960 0
DWIDTH 8 0
BBX 7 7 0 -2
BITMAP
3C
66
66
6C
60
F8
60
ENDCHAR
STARTCHAR U+0400
ENCODING 1024
SWIDTH 960 0
DWIDTH 8 0
BBX 6 10 1 0
BITMAP
60
30
00
FC
C4
C0
F0
C0
C4
FC
ENDCHAR
STARTCHAR U+0401
ENCODING 1025
SWIDTH 960 0
DWIDTH 8 0
BBX 6 10 1 0
BITMAP
CC
CC
00
FC
C4
C0
F0
C0
C4
FC
ENDCHAR
STARTCHAR U+0402
ENCODING 1026
SWIDTH 960 0
DWIDTH 8 0
BBX 7 7 0 0
BITMAP
F8
60
6C
76
66
66
6C
ENDCHAR
STARTCHAR U+0403
ENCODING 1027
SWIDTH 960 0
DWIDTH 8 0
BBX 6 10 1 0
BITMAP
18
30
00
FC
C4
C0
C0
C0
C0
C0
ENDCHAR
STARTCHAR U+0404
ENCODING 1028
SWIDTH 960 0
DWIDTH 8 0
BBX 6 7 1 0
BITMAP
78
CC
C0
F0
C0
CC
78
ENDCHAR
STARTCHAR U+0405
ENCODING 1029
SWIDTH 960 0
DWIDTH 8 0
BBX 6 7 1 0
BITMAP
78
CC
C0
78
0C
CC
78
ENDCHAR
STARTCHAR U+0406
ENCODING 1030
SWIDTH 960 0
DWIDTH 8 0
BBX 6 7 1 0
BITMAP
FC
30
30
30
30
30
FC
ENDCHAR
STARTCHAR U+0407
ENCODING 1031
SWIDTH 960 0
DWIDTH 8 0
BBX 6 10 1 0
BITMAP
CC
CC
00
FC
30
30
30
30
30
FC
ENDCHAR
STARTCHAR U+0408
ENCODING 1032
SWIDTH 960 0
DWIDTH 8 0
BBX 6 7 1 0
BITMAP
7C
18
18
18
18
D8
70
ENDCHAR
STARTCHAR U+0409
ENCODING 1033
SWIDTH 960 0
DWIDTH 8 0
BBX 8 7 0 0
BITMAP
7C
6C
6C
6E
6D
6D
CE
ENDCHAR
STARTCHAR U+040A
ENCODING 1034
SWIDTH 960 0
DWIDTH 8 0
BBX 7 7 1 0
BITMAP
D8
D8
D8
FC
DA
DA
DC
ENDCHAR
STARTCHAR U+040B
ENCODING 1035
SWIDTH 960 0
DWIDTH 8 0
BBX 7 7 0 0
BITMAP
F8
60
6C
76
66
66
66
ENDCHAR
STARTCHAR U+040C
ENCODING 1036
SWIDTH 960 0
DWIDTH 8 0
BBX 6 10 1 0
BITMAP
18
30
00
CC
D8
D8
F0
D8
D8
CC
ENDCHAR
STARTCHAR U+040D
ENCODING 1037
SWIDTH 960 0
DWIDTH 8 0
BBX 6 10 1 0
BITMAP
60
30
00
CC
CC
DC
FC
EC
CC
CC
ENDCHAR
STARTCHAR U+040E
ENCODING 1038
SWIDTH 960 0
DWIDTH 8 0
BBX 6 10 1 0
BITMAP
CC
78
00
CC
CC
CC
4C
28
10
60
ENDCHAR
STARTCHAR U+040F
ENCODING 1039
SWIDTH 960 0
DWIDTH 8 0
BBX 7 9 1 -2
BITMAP
C6
C6
C6
C6
C6
C6
FE
10
10
ENDCHAR
STARTCHAR U+0410
ENCODING 1040
SWIDTH 960 0
DWIDTH 8 0
BBX 6 7 1 0
BITMAP
10
28
4C
FC
CC
CC
CC
ENDCHAR
STARTCHAR U+0411
ENCODING 1041
SWIDTH 960 0
DWIDTH 8 0
BBX 6 7 1 0
BITMAP
F8
C8
C0
F8
CC
CC
F8
ENDCHAR
STARTCHAR U+0412
ENCODING 1042
SWIDTH 960 0
DWIDTH 8 0
BBX 6 7 1 0
BITMAP
F8
CC
CC
F8
CC
CC
F8
ENDCHAR
STARTCHAR U+0413
ENCODING 1043
SWIDTH 960 0
DWIDTH 8 0
BBX 6 7 1 0
BITMAP
FC
C4
C0
C0
C0
C0
C0
ENDCHAR
STARTCHAR U+0414
ENCODING 1044
SWIDTH 960 0
DWIDTH 8 0
BBX 7 9 1 -2
BITMAP
7C
6C
6C
6C
6C
CC
FE
82
82
ENDCHAR
STARTCHAR U+0415
ENCODING 1045
SWIDTH 960 0
DWIDTH 8 0
BBX 6 7 1 0
BITMAP
FC
C4
C0
F0
C0
C4
FC
ENDCHAR
STARTCHAR U+0416
ENCODING 1046
SWIDTH 960 0
DWIDTH 8 0
BBX 7 7 1 0
BITMAP
D6
D6
54
38
54
D6
D6
ENDCHAR
STARTCHAR U+0417
ENCODING 1047
SWIDTH 960 0
DWIDTH 8 0
BBX 6 7 1 0
BITMAP
78
4C
0C
38
0C
CC
78
ENDCHAR
STARTCHAR U+0418
ENCODING 1048
SWIDTH 960 0
DWIDTH 8 0
BBX 6 7 1 0
BITMAP
CC
CC
DC
EC
CC
CC
CC
ENDCHAR
STARTCHAR U+0419
ENCODING 1049
SWIDTH 960 0
DWIDTH 8 0
BBX 6 10 1 0
BITMAP
CC
78
00
CC
CC
DC
EC
CC
CC
CC
ENDCHAR
STARTCHAR U+041A
ENCODING 1050
SWIDTH 960 0
DWIDTH 8 0
BBX 6 7 1 0
BITMAP
CC
D8
D8
F0
D8
D8
CC
ENDCHAR
STARTCHAR U+041B
ENCODING 1051
SWIDTH 960 0
DWIDTH 8 0
BBX 7 7 0 0
BITMAP
7E
66
66
66
66
66
C6
ENDCHAR
STARTCHAR U+041C
ENCODING 1052
SWIDTH 960 0
DWIDTH 8 0
BBX 7 7 1 0
BITMAP
82
C6
EE
D6
C6
C6
C6
ENDCHAR
STARTCHAR U+041D
ENCODING 1053
SWIDTH 960 0
DWIDTH 8 0
BBX 6 7 1 0
BITMAP
CC
CC
CC
FC
CC
CC
CC
ENDCHAR
STARTCHAR U+041E
ENCODING 1054
SWIDTH 960 0
DWIDTH 8 0
BBX 6 7 1 0
BITMAP
78
CC
CC
CC
CC
CC
78
ENDCHAR
STARTCHAR U+041F
ENCODING 1055
SWIDTH 960 0
DWIDTH 8 0
BBX 6 7 1 0
BITMAP
FC
CC
CC
CC
CC
CC
CC
ENDCHAR
STARTCHAR U+0420
ENCODING 1056
SWIDTH 960 0
DWIDTH 8 0
BBX 6 7 1 0
BITMAP
F8
CC
CC
F8
C0
C0
C0
ENDCHAR
STARTCHAR U+0421
ENCODING 1057
SWIDTH 960 0
DWIDTH 8 0
BBX 6 7 1 0
BITMAP
78
CC
C0
C0
C0
CC
78
ENDCHAR
STARTCHAR U+0422
ENCODING 1058
SWIDTH 960 0
DWIDTH 8 0
BBX 6 7 1 0
BITMAP
FC
30
30
30
30
30
30
ENDCHAR
STARTCHAR U+0423
ENCODING 1059
SWIDTH 960 0
DWIDTH 8 0
BBX 6 7 1 0
BITMAP
CC
CC
CC
4C
28
10
60
ENDCHAR
STARTCHAR U+0424
ENCODING 1060
SWIDTH 960 0
DWIDTH 8 0
BBX 7 7 1 0
BITMAP
10
7C
D6
D6
7C
10
10
ENDCHAR
STARTCHAR U+0425
ENCODING 1061
SWIDTH 960 0
DWIDTH 8 0
BBX 6 7 1 0
BITMAP
CC
CC
48
30
48
CC
CC
ENDCHAR
STARTCHAR U+0426
ENCODING 1062
SWIDTH 960 0
DWIDTH 8 0
BBX 7 9 1 -2
BITMAP
CC
CC
CC
CC
CC
CC
FE
02
02
ENDCHAR
STARTCHAR U+0427
ENCODING 1063
SWIDTH 960 0
DWIDTH 8 0
BBX 6 7 1 0
BITMAP
CC
CC
CC
DC
6C
0C
0C
ENDCHAR
STARTCHAR U+0428
ENCODING 1064
SWIDTH 960 0
DWIDTH 8 0
BBX 7 7 1 0
BITMAP
D6
D6
D6
D6
D6
D6
FE
ENDCHAR
STARTCHAR U+0429
ENCODING 1065
SWIDTH 960 0
DWIDTH 8 0
BBX 7 9 1 -2
BITMAP
D4
D4
D4
D4
D4
D4
FE
02
02
ENDCHAR
STARTCHAR U+042A
ENCODING 1066
SWIDTH 960 0
DWIDTH 8 0
BBX 7 7 0 0
BITMAP
F0
30
30
3C
36
36
3C
ENDCHAR
STARTCHAR U+042B
ENCODING 1067
SWIDTH 960 0
DWIDTH 8 0
BBX 6 7 1 0
BITMAP
CC
CC
CC
EC
DC
DC
EC
ENDCHAR
STARTCHAR U+042C
ENCODING 1068
SWIDTH 960 0
DWIDTH 8 0
BBX 6 7 1 0
BITMAP
C0
C0
C0
F8
CC
CC
F8
ENDCHAR
STARTCHAR U+042D
ENCODING 1069
SWIDTH 960 0
DWIDTH 8 0
BBX 6 7 1 0
BITMAP
78
CC
0C
3C
0C
CC
78
ENDCHAR
STARTCHAR U+042E
ENCODING 1070
SWIDTH 960 0
DWIDTH 8 0
BBX 7 7 1 0
BITMAP
CC
D6
D6
F6
D6
D6
CC
ENDCHAR
STARTCHAR U+042F
ENCODING 1071
SWIDTH 960 0
DWIDTH 8 0
BBX 6 7 1 0
BITMAP
7C
CC
CC
7C
6C
6C
CC
ENDCHAR
STARTCHAR U+0430
ENCODING 1072
SWIDTH 960 0
DWIDTH 8 0
BBX 6 5 1 0
BITMAP
78
0C
7C
CC
6C
ENDCHAR
STARTCHAR U+0431
ENCODING 1073
SWIDTH 960 0
DWIDTH 8 0
BBX 6 8 1 0
BITMAP
0C
78
C0
D8
CC
CC
CC
78
ENDCHAR
STARTCHAR U+0432
ENCODING 1074
SWIDTH 960 0
DWIDTH 8 0
BBX 6 5 1 0
BITMAP
F8
CC
F8
CC
F8
ENDCHAR
STARTCHAR U+0433
ENCODING 1075
SWIDTH 960 0
DWIDTH 8 0
BBX 6 5 1 0
BITMAP
FC
C4
C0
C0
C0
ENDCHAR
STARTCHAR U+0434
ENCODING 1076
SWIDTH 960 0
DWIDTH 8 0
BBX 7 6 1 -1
BITMAP
7C
6C
6C
CC
FE
82
ENDCHAR
STARTCHAR U+0435
ENCODING 1077
SWIDTH 960 0
DWIDTH 8 0
BBX 6 5 1 0
BITMAP
78
CC
FC
C0
78
ENDCHAR
STARTCHAR U+0436
ENCODING 1078
SWIDTH 960 0
DWIDTH 8 0
BBX 7 5 1 0
BITMAP
D6
D6
7C
D6
D6
ENDCHAR
STARTCHAR U+0437
ENCODING 1079
SWIDTH 960 0
DWIDTH 8 0
BBX 6 5 1 0
BITMAP
78
4C
18
CC
78
ENDCHAR
STARTCHAR U+0438
ENCODING 1080
SWIDTH 960 0
DWIDTH 8 0
BBX 6 5 1 0
BITMAP
CC
DC
EC
CC
CC
ENDCHAR
STARTCHAR U+0439
ENCODING 1081
SWIDTH 960 0
DWIDTH 8 0
BBX 6 8 1 0
BITMAP
CC
78
00
CC
DC
EC
CC
CC
ENDCHAR
STARTCHAR U+043A
ENCODING 1082
SWIDTH 960 0
DWIDTH 8 0
BBX 6 5 1 0
BITMAP
CC
D8
F0
D8
CC
ENDCHAR
STARTCHAR U+043B
ENCODING 1083
SWIDTH 960 0
DWIDTH 8 0
BBX 7 5 0 0
BITMAP
7E
66
66
66
C6
ENDCHAR
STARTCHAR U+043C
ENCODING 1084
SWIDTH 960 0
DWIDTH 8 0
BBX 6 5 1 0
BITMAP
84
CC
FC
D4
C4
ENDCHAR
STARTCHAR U+043D
ENCODING 1085
SWIDTH 960 0
DWIDTH 8 0
BBX 6 5 1 0
BITMAP
CC
CC
FC
CC
CC
ENDCHAR
STARTCHAR U+043E
ENCODING 1086
SWIDTH 960 0
DWIDTH 8 0
BBX 6 5 1 0
BITMAP
78
CC
CC
CC
78
ENDCHAR
STARTCHAR U+043F
ENCODING 1087
SWIDTH 960 0
DWIDTH 8 0
BBX 6 5 1 0
BITMAP
FC
CC
CC
CC
CC
ENDCHAR
STARTCHAR U+0440
ENCODING 1088
SWIDTH 960 0
DWIDTH 8 0
BBX 6 7 1 -2
BITMAP
D8
EC
CC
CC
D8
C0
C0
ENDCHAR
STARTCHAR U+0441
ENCODING 1089
SWIDTH 960 0
DWIDTH 8 0
BBX 6 5 1 0
BITMAP
78
C8
C0
CC
78
ENDCHAR
STARTCHAR U+0442
ENCODING 1090
SWIDTH 960 0
DWIDTH 8 0
BBX 6 5 1 0
BITMAP
FC
30
30
30
30
ENDCHAR
STARTCHAR U+0443
ENCODING 1091
SWIDTH 960 0
DWIDTH 8 0
BBX 6 7 1 -2
BITMAP
CC
CC
CC
4C
28
10
60
ENDCHAR
STARTCHAR U+0444
ENCODING 1092
SWIDTH 960 0
DWIDTH 8 0
BBX 7 9 1 -2
BITMAP
10
10
7C
D6
D6
D6
7C
10
10
ENDCHAR
STARTCHAR U+0445
ENCODING 1093
SWIDTH 960 0
DWIDTH 8 0
BBX 6 5 1 0
BITMAP
CC
CC
78
CC
CC
ENDCHAR
STARTCHAR U+0446
ENCODING 1094
SWIDTH 960 0
DWIDTH 8 0
BBX 7 6 1 -1
BITMAP
CC
CC
CC
CC
FE
02
ENDCHAR
STARTCHAR U+0447
ENCODING 1095
SWIDTH 960 0
DWIDTH 8 0
BBX 6 5 1 0
BITMAP
CC
CC
DC
6C
0C
ENDCHAR
STARTCHAR U+0448
ENCODING 1096
SWIDTH 960 0
DWIDTH 8 0
BBX 6 5 1 0
BITMAP
D4
D4
D4
D4
FC
ENDCHAR
STARTCHAR U+0449
ENCODING 1097
SWIDTH 960 0
DWIDTH 8 0
BBX 7 6 1 -1
BITMAP
D4
D4
D4
D4
FE
02
ENDCHAR
STARTCHAR U+044A
ENCODING 1098
SWIDTH 960 0
DWIDTH 8 0
BBX 7 5 0 0
BITMAP
F0
30
3C
36
3C
ENDCHAR
STARTCHAR U+044B
ENCODING 1099
SWIDTH 960 0
DWIDTH 8 0
BBX 6 5 1 0
BITMAP
CC
CC
EC
DC
EC
ENDCHAR
STARTCHAR U+044C
ENCODING 1100
SWIDTH 960 0
DWIDTH 8 0
BBX 6 5 1 0
BITMAP
C0
C0
F8
CC
F8
ENDCHAR
STARTCHAR U+044D
ENCODING 1101
SWIDTH 960 0
DWIDTH 8 0
BBX 6 5 1 0
BITMAP
78
4C
1C
CC
78
ENDCHAR
STARTCHAR U+044E
ENCODING 1102
SWIDTH 960 0
DWIDTH 8 0
BBX 7 5 1 0
BITMAP
CC
D6
F6
D6
CC
ENDCHAR
STARTCHAR U+044F
ENCODING 1103
SWIDTH 960 0
DWIDTH 8 0
BBX 6 5 1 0
BITMAP
7C
CC
7C
6C
CC
ENDCHAR
STARTCHAR U+0450
ENCODING 1104
SWIDTH 960 0
DWIDTH 8 0
BBX 6 8 1 0
BITMAP
60
30
00
78
CC
FC
C0
78
ENDCHAR
STARTCHAR U+0451
ENCODING 1105
SWIDTH 960 0
DWIDTH 8 0
BBX 6 8 1 0
BITMAP
CC
CC
00
78
CC
FC
C0
78
ENDCHAR
STARTCHAR U+0452
ENCODING 1106
SWIDTH 960 0
DWIDTH 8 0
BBX 7 10 0 -2
BITMAP
60
F8
60
6C
76
66
66
66
06
0C
ENDCHAR
STARTCHAR U+0453
ENCODING 1107
SWIDTH 960 0
DWIDTH 8 0
BBX 6 8 1 0
BITMAP
18
30
00
FC
C4
C0
C0
C0
ENDCHAR
STARTCHAR U+0454
ENCODING 1108
SWIDTH 960 0
DWIDTH 8 0
BBX 6 5 1 0
BITMAP
78
C8
E0
CC
78
ENDCHAR
STARTCHAR U+0455
ENCODING 1109
SWIDTH 960 0
DWIDTH 8 0
BBX 6 5 1 0
BITMAP
78
C0
78
0C
78
ENDCHAR
STARTCHAR U+0456
ENCODING 1110
SWIDTH 960 0
DWIDTH 8 0
BBX 6 8 1 0
BITMAP
30
30
00
F0
30
30
30
FC
ENDCHAR
STARTCHAR U+0457
ENCODING 1111
SWIDTH 960 0
DWIDTH 8 0
BBX 6 8 1 0
BITMAP
CC
CC
00
F0
30
30
30
FC
ENDCHAR
STARTCHAR U+0458
ENCODING 1112
SWIDTH 960 0
DWIDTH 8 0
BBX 5 10 1 -2
BITMAP
18
18
00
78
18
18
18
18
D8
70
ENDCHAR
STARTCHAR U+0459
ENCODING 1113
SWIDTH 960 0
DWIDTH 8 0
BBX 8 5 0 0
BITMAP
7C
6C
6E
6D
CE
ENDCHAR
STARTCHAR U+045A
ENCODING 1114
SWIDTH 960 0
DWIDTH 8 0
BBX 7 5 1 0
BITMAP
D8
D8
FC
DA
DC
ENDCHAR
STARTCHAR U+045B
ENCODING 1115
SWIDTH 960 0
DWIDTH 8 0
BBX 7 8 0 0
BITMAP
60
F8
60
6C
76
66
66
66
ENDCHAR
STARTCHAR U+045C
ENCODING 1116
SWIDTH 960 0
DWIDTH 8 0
BBX 6 8 1 0
BITMAP
18
30
00
CC
D8
F0
D8
CC
ENDCHAR
STARTCHAR U+045D
ENCODING 1117
SWIDTH 960 0
DWIDTH 8 0
BBX 6 8 1 0
BITMAP
60
30
00
CC
DC
EC
CC
CC
ENDCHAR
STARTCHAR U+045E
ENCODING 1118
SWIDTH 960 0
DWIDTH 8 0
BBX 6 10 1 -2
BITMAP
CC
78
00
CC
CC
CC
4C
28
10
60
ENDCHAR
STARTCHAR U+045F
ENCODING 1119
SWIDTH 960 0
DWIDTH 8 0
BBX 7 7 1 -2
BITMAP
C6
C6
C6
C6
FE
10
10
ENDCHAR
STARTCHAR U+0490
ENCODING 1168
SWIDTH 960 0
DWIDTH 8 0
BBX 6 8 1 0
BITMAP
04
FC
C0
C0
C0
C0
C0
C0
ENDCHAR
STARTCHAR U+0491
ENCODING 1169
SWIDTH 960 0
DWIDTH 8 0
BBX 6 6 1 0
BITMAP
04
FC
C0
C0
C0
C0
ENDCHAR
STARTCHAR U+1DB2
ENCODING 7602
SWIDTH 960 0
DWIDTH 8 0
BBX 5 6 1 2
BITMAP
20
70
A8
A8
70
20
ENDCHAR
STARTCHAR U+1DBF
ENCODING 7615
SWIDTH 960 0
DWIDTH 8 0
BBX 5 5 1 3
BITMAP
70
D8
F8
D8
70
ENDCHAR
STARTCHAR U+1E02
ENCODING 7682
SWIDTH 960 0
DWIDTH 8 0
BBX 6 10 1 0
BITMAP
30
30
00
F8
CC
CC
D8
CC
CC
D8
ENDCHAR
STARTCHAR U+1E03
ENCODING 7683
SWIDTH 960 0
DWIDTH 8 0
BBX 6 8 1 0
BITMAP
18
D8
C0
D8
EC
CC
CC
D8
ENDCHAR
STARTCHAR U+1E04
ENCODING 7684
SWIDTH 960 0
DWIDTH 8 0
BBX 6 9 1 -2
BITMAP
F8
CC
CC
D8
CC
CC
D8
00
30
ENDCHAR
STARTCHAR U+1E0A
ENCODING 7690
SWIDTH 960 0
DWIDTH 8 0
BBX 6 10 1 0
BITMAP
30
30
00
F0
C8
CC
CC
CC
C8
F0
ENDCHAR
STARTCHAR U+1E0B
ENCODING 7691
SWIDTH 960 0
DWIDTH 8 0
BBX 6 8 1 0
BITMAP
60
6C
0C
6C
DC
CC
CC
6C
ENDCHAR
STARTCHAR U+1E0C
ENCODING 7692
SWIDTH 960 0
DWIDTH 8 0
BBX 6 9 1 -2
BITMAP
F0
C8
CC
CC
CC
C8
F0
00
30
ENDCHAR
STARTCHAR U+1E1E
ENCODING 7710
SWIDTH 960 0
DWIDTH 8 0
BBX 6 10 1 0
BITMAP
30
30
00
FC
C4
C0
F0
C0
C0
C0
ENDCHAR
STARTCHAR U+1E1F
ENCODING 7711
SWIDTH 960 0
DWIDTH 8 0
BBX 6 10 1 0
BITMAP
30
30
00
1C
30
FC
30
30
30
30
ENDCHAR
STARTCHAR U+1E22
ENCODING 7714
SWIDTH 960 0
DWIDTH 8 0
BBX 6 10 1 0
BITMAP
30
30
00
CC
CC
CC
FC
CC
CC
CC
ENDCHAR
STARTCHAR U+1E23
ENCODING 7715
SWIDTH 960 0
DWIDTH 8 0
BBX 6 8 1 0
BITMAP
18
D8
C0
D8
EC
CC
CC
CC
ENDCHAR
STARTCHAR U+1E24
ENCODING 7716
SWIDTH 960 0
DWIDTH 8 0
BBX 6 9 1 -2
BITMAP
CC
CC
CC
FC
CC
CC
CC
00
30
ENDCHAR
STARTCHAR U+1E36
ENCODING 7734
SWIDTH 960 0
DWIDTH 8 0
BBX 6 9 1 -2
BITMAP
C0
C0
C0
C0
C0
C4
FC
00
30
ENDCHAR
STARTCHAR U+1E40
ENCODING 7744
SWIDTH 960 0
DWIDTH 8 0
BBX 7 10 1 0
BITMAP
30
30
00
82
C6
EE
D6
C6
C6
C6
ENDCHAR
STARTCHAR U+1E41
ENCODING 7745
SWIDTH 960 0
DWIDTH 8 0
BBX 6 8 1 0
BITMAP
30
30
00
E8
D4
D4
D4
D4
ENDCHAR
STARTCHAR U+1E42
ENCODING 7746
SWIDTH 960 0
DWIDTH 8 0
BBX 7 9 1 -2
BITMAP
82
C6
EE
D6
C6
C6
C6
00
30
ENDCHAR
STARTCHAR U+1E44
ENCODING 7748
SWIDTH 960 0
DWIDTH 8 0
BBX 6 10 1 0
BITMAP
30
30
00
8C
CC
EC
DC
CC
CC
CC
ENDCHAR
STARTCHAR U+1E45
ENCODING 7749
SWIDTH 960 0
DWIDTH 8 0
BBX 6 8 1 0
BITMAP
30
30
00
D8
EC
CC
CC
CC
ENDCHAR
STARTCHAR U+1E46
ENCODING 7750
SWIDTH 960 0
DWIDTH 8 0
BBX 6 9 1 -2
BITMAP
8C
CC
EC
DC
CC
CC
CC
00
30
ENDCHAR
STARTCHAR U+1E56
ENCODING 7766
SWIDTH 960 0
DWIDTH 8 0
BBX 6 10 1 0
BITMAP
30
30
00
F8
CC
CC
D8
C0
C0
C0
ENDCHAR
STARTCHAR U+1E57
ENCODING 7767
SWIDTH 960 0
DWIDTH 8 0
BBX 6 10 1 -2
BITMAP
30
30
00
D8
EC
CC
CC
D8
C0
C0
ENDCHAR
STARTCHAR U+1E58
ENCODING 7768
SWIDTH 960 0
DWIDTH 8 0
BBX 6 10 1 0
BITMAP
30
30
00
F8
CC
CC
D8
C8
CC
CC
ENDCHAR
STARTCHAR U+1E59
ENCODING 7769
SWIDTH 960 0
DWIDTH 8 0
BBX 6 8 1 0
BITMAP
30
30
00
EC
70
60
60
60
ENDCHAR
STARTCHAR U+1E5A
ENCODING 7770
SWIDTH 960 0
DWIDTH 8 0
BBX 6 9 1 -2
BITMAP
F8
CC
CC
D8
C8
CC
CC
00
30
ENDCHAR
STARTCHAR U+1E60
ENCODING 7776
SWIDTH 960 0
DWIDTH 8 0
BBX 6 10 1 0
BITMAP
30
30
00
78
CC
C0
78
0C
CC
78
ENDCHAR
STARTCHAR U+1E61
ENCODING 7777
SWIDTH 960 0
DWIDTH 8 0
BBX 6 8 1 0
BITMAP
30
30
00
78
C0
78
0C
78
ENDCHAR
STARTCHAR U+1E62
ENCODING 7778
SWIDTH 960 0
DWIDTH 8 0
BBX 6 9 1 -2
BITMAP
78
CC
C0
78
0C
CC
78
00
30
ENDCHAR
STARTCHAR U+1E6A
ENCODING 7786
SWIDTH 960 0
DWIDTH 8 0
BBX 6 10 1 0
BITMAP
30
30
00
FC
30
30
30
30
30
30
ENDCHAR
STARTCHAR U+1E6B
ENCODING 7787
SWIDTH 960 0
DWIDTH 8 0
BBX 6 10 1 0
BITMAP
30
30
00
30
30
FC
30
30
30
1C
ENDCHAR
STARTCHAR U+1E6C
ENCODING 7788
SWIDTH 960 0
DWIDTH 8 0
BBX 6 9 1 -2
BITMAP
FC
30
30
30
30
30
30
00
30
ENDCHAR
STARTCHAR U+1E80
ENCODING 7808
SWIDTH 960 0
DWIDTH 8 0
BBX 7 10 1 0
BITMAP
60
30
00
C6
C6
D6
D6
D6
D6
6C
ENDCHAR
STARTCHAR U+1E81
ENCODING 7809
SWIDTH 960 0
DWIDTH 8 0
BBX 6 8 1 0
BITMAP
60
30
00
D4
D4
D4
D4
68
ENDCHAR
STARTCHAR U+1E82
ENCODING 7810
SWIDTH 960 0
DWIDTH 8 0
BBX 7 10 1 0
BITMAP
18
30
00
C6
C6
D6
D6
D6
D6
6C
ENDCHAR
STARTCHAR U+1E83
ENCODING 7811
SWIDTH 960 0
DWIDTH 8 0
BBX 6 8 1 0
BITMAP
18
30
00
D4
D4
D4
D4
68
ENDCHAR
STARTCHAR U+1E84
ENCODING 7812
SWIDTH 960 0
DWIDTH 8 0
BBX 7 10 1 0
BITMAP
C6
C6
00
C6
C6
D6
D6
D6
D6
6C
ENDCHAR
STARTCHAR U+1E85
ENCODING 7813
SWIDTH 960 0
DWIDTH 8 0
BBX 6 8 1 0
BITMAP
CC
CC
00
D4
D4
D4
D4
68
ENDCHAR
STARTCHAR U+1E86
ENCODING 7814
SWIDTH 960 0
DWIDTH 8 0
BBX 7 10 1 0
BITMAP
30
30
00
C6
C6
D6
D6
D6
D6
6C
ENDCHAR
STARTCHAR U+1E8A
ENCODING 7818
SWIDTH 960 0
DWIDTH 8 0
BBX 6 10 1 0
BITMAP
30
30
00
CC
CC
48
30
48
CC
CC
ENDCHAR
STARTCHAR U+1E8B
ENCODING 7819
SWIDTH 960 0
DWIDTH 8 0
BBX 6 8 1 0
BITMAP
30
30
00
CC
CC
78
CC
CC
ENDCHAR
STARTCHAR U+1EA0
ENCODING 7840
SWIDTH 960 0
DWIDTH 8 0
BBX 6 9 1 -2
BITMAP
10
28
4C
FC
CC
CC
CC
00
30
ENDCHAR
STARTCHAR U+1ECA
ENCODING 7882
SWIDTH 960 0
DWIDTH 8 0
BBX 6 9 1 -2
BITMAP
FC
30
30
30
30
30
FC
00
30
ENDCHAR
STARTCHAR U+1ECC
ENCODING 7884
SWIDTH 960 0
DWIDTH 8 0
BBX 6 9 1 -2
BITMAP
78
CC
CC
CC
CC
CC
78
00
30
ENDCHAR
STARTCHAR U+1EF2
ENCODING 7922
SWIDTH 960 0
DWIDTH 8 0
BBX 6 10 1 0
BITMAP
60
30
00
CC
CC
48
30
30
30
30
ENDCHAR
STARTCHAR U+1EF3
ENCODING 7923
SWIDTH 960 0
DWIDTH 8 0
BBX 6 10 1 -2
BITMAP
60
30
00
CC
CC
CC
DC
6C
0C
78
ENDCHAR
STARTCHAR U+2013
ENCODING 8211
SWIDTH 960 0
DWIDTH 8 0
BBX 6 1 1 3
BITMAP
FC
ENDCHAR
STARTCHAR U+2014
ENCODING 8212
SWIDTH 960 0
DWIDTH 8 0
BBX 8 1 0 3
BITMAP
FF
ENDCHAR
STARTCHAR U+2015
ENCODING 8213
SWIDTH 960 0
DWIDTH 8 0
BBX 8 1 0 3
BITMAP
FF
ENDCHAR
STARTCHAR U+2017
ENCODING 8215
SWIDTH 960 0
DWIDTH 8 0
BBX 6 3 1 -2
BITMAP
FC
00
FC
ENDCHAR
STARTCHAR U+2018
ENCODING 8216
SWIDTH 960 0
DWIDTH 8 0
BBX 2 4 3 5
BITMAP
40
80
C0
C0
ENDCHAR
STARTCHAR U+2019
ENCODING 8217
SWIDTH 960 0
DWIDTH 8 0
BBX 2 4 3 5
BITMAP
C0
C0
40
80
ENDCHAR
STARTCHAR U+201A
ENCODING 8218
SWIDTH 960 0
DWIDTH 8 0
BBX 2 4 3 -2
BITMAP
C0
C0
40
80
ENDCHAR
STARTCHAR U+201B
ENCODING 8219
SWIDTH 960 0
DWIDTH 8 0
BBX 2 4 3 5
BITMAP
C0
C0
80
40
ENDCHAR
STARTCHAR U+201C
ENCODING 8220
SWIDTH 960 0
DWIDTH 8 0
BBX 5 4 2 5
BITMAP
48
90
D8
D8
ENDCHAR
STARTCHAR U+201D
ENCODING 8221
SWIDTH 960 0
DWIDTH 8 0
BBX 5 4 1 5
BITMAP
D8
D8
48
90
ENDCHAR
STARTCHAR U+201E
ENCODING 8222
SWIDTH 960 0
DWIDTH 8 0
BBX 5 4 1 -2
BITMAP
D8
D8
48
90
ENDCHAR
STARTCHAR U+2020
ENCODING 8224
SWIDTH 960 0
DWIDTH 8 0
BBX 6 8 1 -1
BITMAP
30
30
FC
30
30
30
30
30
ENDCHAR
STARTCHAR U+2021
ENCODING 8225
SWIDTH 960 0
DWIDTH 8 0
BBX 6 8 1 -1
BITMAP
30
30
FC
30
30
FC
30
30
ENDCHAR
STARTCHAR U+2022
ENCODING 8226
SWIDTH 960 0
DWIDTH 8 0
BBX 4 4 2 1
BITMAP
60
F0
F0
60
ENDCHAR
STARTCHAR U+2026
ENCODING 8230
SWIDTH 960 0
DWIDTH 8 0
BBX 8 2 0 0
BITMAP
DB
DB
ENDCHAR
STARTCHAR U+2030
ENCODING 8240
SWIDTH 960 0
DWIDTH 8 0
BBX 8 7 0 0
BITMAP
C4
CC
18
30
60
DB
9B
ENDCHAR
STARTCHAR U+2032
ENCODING 8242
SWIDTH 960 0
DWIDTH 8 0
BBX 3 3 2 4
BITMAP
60
C0
80
ENDCHAR
STARTCHAR U+2033
ENCODING 8243
SWIDTH 960 0
DWIDTH 8 0
BBX 6 3 1 4
BITMAP
6C
D8
90
ENDCHAR
STARTCHAR U+2039
ENCODING 8249
SWIDTH 960 0
DWIDTH 8 0
BBX 3 5 3 1
BITMAP
20
60
C0
60
20
ENDCHAR
STARTCHAR U+203A
ENCODING 8250
SWIDTH 960 0
DWIDTH 8 0
BBX 3 5 2 1
BITMAP
80
C0
60
C0
80
ENDCHAR
STARTCHAR U+203C
ENCODING 8252
SWIDTH 960 0
DWIDTH 8 0
BBX 6 8 1 0
BITMAP
CC
CC
CC
CC
CC
00
CC
CC
ENDCHAR
STARTCHAR U+203E
ENCODING 8254
SWIDTH 960 0
DWIDTH 8 0
BBX 6 1 1 7
BITMAP
FC
ENDCHAR
STARTCHAR U+203F
ENCODING 8255
SWIDTH 960 0
DWIDTH 8 0
BBX 8 2 0 -2
BITMAP
C3
7E
ENDCHAR
STARTCHAR U+2044
ENCODING 8260
SWIDTH 960 0
DWIDTH 8 0
BBX 6 7 1 0
BITMAP
04
0C
18
30
60
C0
80
ENDCHAR
STARTCHAR U+2045
ENCODING 8261
SWIDTH 960 0
DWIDTH 8 0
BBX 4 9 2 -1
BITMAP
F0
C0
C0
C0
F0
C0
C0
C0
F0
ENDCHAR
STARTCHAR U+2070
ENCODING 8304
SWIDTH 960 0
DWIDTH 8 0
BBX 4 5 1 3
BITMAP
60
B0
B0
B0
60
ENDCHAR
STARTCHAR U+207A
ENCODING 8314
SWIDTH 960 0
DWIDTH 8 0
BBX 6 5 1 3
BITMAP
30
30
FC
30
30
ENDCHAR
STARTCHAR U+207B
ENCODING 8315
SWIDTH 960 0
DWIDTH 8 0
BBX 4 1 1 5
BITMAP
F0
ENDCHAR
STARTCHAR U+207C
ENCODING 8316
SWIDTH 960 0
DWIDTH 8 0
BBX 4 3 2 5
BITMAP
F0
00
F0
ENDCHAR
STARTCHAR U+207E
ENCODING 8318
SWIDTH 960 0
DWIDTH 8 0
BBX 3 5 2 3
BITMAP
C0
60
60
60
C0
ENDCHAR
STARTCHAR U+207F
ENCODING 8319
SWIDTH 960 0
DWIDTH 8 0
BBX 5 4 1 3
BITMAP
F0
D8
D8
D8
ENDCHAR
STARTCHAR U+2080
ENCODING 8320
SWIDTH 960 0
DWIDTH 8 0
BBX 4 5 1 -2
BITMAP
60
B0
B0
B0
60
ENDCHAR
STARTCHAR U+2081
ENCODING 8321
SWIDTH 960 0
DWIDTH 8 0
BBX 4 5 1 -2
BITMAP
20
E0
60
60
F0
ENDCHAR
STARTCHAR U+2082
ENCODING 8322
SWIDTH 960 0
DWIDTH 8 0
BBX 4 5 1 -2
BITMAP
E0
B0
30
60
F0
ENDCHAR
STARTCHAR U+2083
ENCODING 8323
SWIDTH 960 0
DWIDTH 8 0
BBX 4 5 1 -2
BITMAP
E0
30
60
30
E0
ENDCHAR
STARTCHAR U+2084
ENCODING 8324
SWIDTH 960 0
DWIDTH 8 0
BBX 4 5 1 -2
BITMAP
30
70
F0
30
30
ENDCHAR
STARTCHAR U+2085
ENCODING 8325
SWIDTH 960 0
DWIDTH 8 0
BBX 4 5 1 -2
BITMAP
F0
C0
E0
30
E0
ENDCHAR
STARTCHAR U+2086
ENCODING 8326
SWIDTH 960 0
DWIDTH 8 0
BBX 4 5 1 -2
BITMAP
60
C0
E0
D0
60
ENDCHAR
STARTCHAR U+2087
ENCODING 8327
SWIDTH 960 0
DWIDTH 8 0
BBX 4 5 1 -2
BITMAP
F0
B0
30
60
60
ENDCHAR
STARTCHAR U+2088
ENCODING 8328
SWIDTH 960 0
DWIDTH 8 0
BBX 4 5 1 -2
BITMAP
60
D0
60
B0
60
ENDCHAR
STARTCHAR U+2089
ENCODING 8329
SWIDTH 960 0
DWIDTH 8 0
BBX 4 5 1 -2
BITMAP
60
B0
70
30
60
ENDCHAR
STARTCHAR U+208C
ENCODING 8332
SWIDTH 960 0
DWIDTH 8 0
BBX 4 3 2 -2
BITMAP
F0
00
F0
ENDCHAR
STARTCHAR U+2099
ENCODING 8345
SWIDTH 960 0
DWIDTH 8 0
BBX 5 4 1 -2
BITMAP
F0
D8
D8
D8
ENDCHAR
STARTCHAR U+20A3
ENCODING 8355
SWIDTH 960 0
DWIDTH 8 0
BBX 6 7 1 0
BITMAP
FC
64
60
78
60
F0
60
ENDCHAR
STARTCHAR U+20A4
ENCODING 8356
SWIDTH 960 0
DWIDTH 8 0
BBX 6 7 1 0
BITMAP
38
64
F0
60
F0
64
DC
ENDCHAR
STARTCHAR U+20A7
ENCODING 8359
SWIDTH 960 0
DWIDTH 8 0
BBX 7 7 1 0
BITMAP
F0
D8
F0
CC
DE
CC
CE
ENDCHAR
STARTCHAR U+20AC
ENCODING 8364
SWIDTH 960 0
DWIDTH 8 0
BBX 7 7 1 0
BITMAP
3C
62
F8
60
F8
62
3C
ENDCHAR
STARTCHAR U+20B3
ENCODING 8371
SWIDTH 960 0
DWIDTH 8 0
BBX 8 7 0 0
BITMAP
08
14
FF
66
FF
66
66
ENDCHAR
STARTCHAR U+2102
ENCODING 8450
SWIDTH 960 0
DWIDTH 8 0
BBX 6 7 1 0
BITMAP
78
AC
A0
A0
A0
AC
78
ENDCHAR
STARTCHAR U+2105
ENCODING 8453
SWIDTH 960 0
DWIDTH 8 0
BBX 8 9 0 -1
BITMAP
70
D0
C0
70
00
0E
1B
1B
0E
ENDCHAR
STARTCHAR U+2113
ENCODING 8467
SWIDTH 960 0
DWIDTH 8 0
BBX 6 7 1 0
BITMAP
30
68
68
70
60
EC
38
ENDCHAR
STARTCHAR U+2116
ENCODING 8470
SWIDTH 960 0
DWIDTH 8 0
BBX 7 7 1 0
BITMAP
94
DA
BA
94
90
9E
90
ENDCHAR
STARTCHAR U+2122
ENCODING 8482
SWIDTH 960 0
DWIDTH 8 0
BBX 8 4 0 3
BITMAP
F1
5B
55
51
ENDCHAR
STARTCHAR U+2126
ENCODING 8486
SWIDTH 960 0
DWIDTH 8 0
BBX 7 7 1 0
BITMAP
7C
C6
C6
C6
C6
6C
EE
ENDCHAR
STARTCHAR U+212E
ENCODING 8494
SWIDTH 960 0
DWIDTH 8 0
BBX 7 6 1 0
BITMAP
7C
C6
FE
C0
C6
7C
ENDCHAR
STARTCHAR U+215B
ENCODING 8539
SWIDTH 960 0
DWIDTH 8 0
BBX 7 11 1 -2
BITMAP
20
E0
60
60
F0
00
1C
36
1C
36
1C
ENDCHAR
STARTCHAR U+215C
ENCODING 8540
SWIDTH 960 0
DWIDTH 8 0
BBX 7 11 1 -2
BITMAP
E0
30
60
30
E0
00
1C
36
1C
36
1C
ENDCHAR
STARTCHAR U+215D
ENCODING 8541
SWIDTH 960 0
DWIDTH 8 0
BBX 7 11 1 -2
BITMAP
F0
C0
E0
30
E0
00
1C
36
1C
36
1C
ENDCHAR
STARTCHAR U+215E
ENCODING 8542
SWIDTH 960 0
DWIDTH 8 0
BBX 7 11 1 -2
BITMAP
F0
30
60
60
60
00
1C
36
1C
36
1C
ENDCHAR
STARTCHAR U+2190
ENCODING 8592
SWIDTH 960 0
DWIDTH 8 0
BBX 8 5 0 1
BITMAP
30
60
FF
60
30
ENDCHAR
STARTCHAR U+2191
ENCODING 8593
SWIDTH 960 0
DWIDTH 8 0
BBX 5 9 2 -1
BITMAP
20
70
F8
A8
20
20
20
20
20
ENDCHAR
STARTCHAR U+2192
ENCODING 8594
SWIDTH 960 0
DWIDTH 8 0
BBX 8 5 0 1
BITMAP
0C
06
FF
06
0C
ENDCHAR
STARTCHAR U+2193
ENCODING 8595
SWIDTH 960 0
DWIDTH 8 0
BBX 5 9 2 -1
BITMAP
20
20
20
20
20
A8
F8
70
20
ENDCHAR
STARTCHAR U+2194
ENCODING 8596
SWIDTH 960 0
DWIDTH 8 0
BBX 8 5 0 1
BITMAP
24
66
FF
66
24
ENDCHAR
STARTCHAR U+2195
ENCODING 8597
SWIDTH 960 0
DWIDTH 8 0
BBX 5 9 2 -1
BITMAP
20
70
F8
20
20
20
F8
70
20
ENDCHAR
STARTCHAR U+2196
ENCODING 8598
SWIDTH 960 0
DWIDTH 8 0
BBX 7 7 1 0
BITMAP
F0
C0
A0
90
08
04
02
ENDCHAR
STARTCHAR U+2197
ENCODING 8599
SWIDTH 960 0
DWIDTH 8 0
BBX 7 7 1 0
BITMAP
1E
06
0A
12
20
40
80
ENDCHAR
STARTCHAR U+2198
ENCODING 8600
SWIDTH 960 0
DWIDTH 8 0
BBX 7 7 1 0
BITMAP
80
40
20
12
0A
06
1E
ENDCHAR
STARTCHAR U+2199
ENCODING 8601
SWIDTH 960 0
DWIDTH 8 0
BBX 7 7 1 0
BITMAP
02
04
08
90
A0
C0
F0
ENDCHAR
STARTCHAR U+219A
ENCODING 8602
SWIDTH 960 0
DWIDTH 8 0
BBX 8 9 0 -1
BITMAP
08
08
28
68
FF
68
28
08
08
ENDCHAR
STARTCHAR U+219B
ENCODING 8603
SWIDTH 960 0
DWIDTH 8 0
BBX 8 9 0 -1
BITMAP
10
10
14
16
FF
16
14
10
10
ENDCHAR
STARTCHAR U+219C
ENCODING 8604
SWIDTH 960 0
DWIDTH 8 0
BBX 7 3 1 2
BITMAP
E0
CC
B2
ENDCHAR
STARTCHAR U+219D
ENCODING 8605
SWIDTH 960 0
DWIDTH 8 0
BBX 7 3 1 2
BITMAP
0E
66
9A
ENDCHAR
STARTCHAR U+219E
ENCODING 8606
SWIDTH 960 0
DWIDTH 8 0
BBX 8 5 0 1
BITMAP
28
50
FF
50
28
ENDCHAR
STARTCHAR U+219F
ENCODING 8607
SWIDTH 960 0
DWIDTH 8 0
BBX 5 9 2 -1
BITMAP
20
50
A8
70
A8
20
20
20
20
ENDCHAR
STARTCHAR U+21A0
ENCODING 8608
SWIDTH 960 0
DWIDTH 8 0
BBX 8 5 0 1
BITMAP
14
0A
FF
0A
14
ENDCHAR
STARTCHAR U+21A1
ENCODING 8609
SWIDTH 960 0
DWIDTH 8 0
BBX 5 9 2 -1
BITMAP
20
20
20
20
A8
70
A8
50
20
ENDCHAR
STARTCHAR U+21A2
ENCODING 8610
SWIDTH 960 0
DWIDTH 8 0
BBX 8 5 0 1
BITMAP
33
66
FC
66
33
ENDCHAR
STARTCHAR U+21A3
ENCODING 8611
SWIDTH 960 0
DWIDTH 8 0
BBX 8 5 0 1
BITMAP
CC
66
3F
66
CC
ENDCHAR
STARTCHAR U+21A4
ENCODING 8612
SWIDTH 960 0
DWIDTH 8 0
BBX 8 5 0 1
BITMAP
31
61
FF
61
31
ENDCHAR
STARTCHAR U+21A5
ENCODING 8613
SWIDTH 960 0
DWIDTH 8 0
BBX 5 9 2 -1
BITMAP
20
70
F8
A8
20
20
20
20
F8
ENDCHAR
STARTCHAR U+21A6
ENCODING 8614
SWIDTH 960 0
DWIDTH 8 0
BBX 8 5 0 1
BITMAP
8C
86
FF
86
8C
ENDCHAR
STARTCHAR U+21A7
ENCODING 8615
SWIDTH 960 0
DWIDTH 8 0
BBX 5 9 2 -1
BITMAP
F8
20
20
20
20
A8
F8
70
20
ENDCHAR
STARTCHAR U+21A8
ENCODING 8616
SWIDTH 960 0
DWIDTH 8 0
BBX 5 10 2 -2
BITMAP
20
70
F8
20
20
20
F8
70
20
F8
ENDCHAR
STARTCHAR U+21A9
ENCODING 8617
SWIDTH 960 0
DWIDTH 8 0
BBX 8 6 0 1
BITMAP
06
33
63
FE
60
30
ENDCHAR
STARTCHAR U+21AA
ENCODING 8618
SWIDTH 960 0
DWIDTH 8 0
BBX 8 6 0 1
BITMAP
60
CC
C6
7F
06
0C
ENDCHAR
STARTCHAR U+21AB
ENCODING 8619
SWIDTH 960 0
DWIDTH 8 0
BBX 8 7 0 0
BITMAP
02
25
65
FE
64
24
04
ENDCHAR
STARTCHAR U+21AC
ENCODING 8620
SWIDTH 960 0
DWIDTH 8 0
BBX 8 7 0 0
BITMAP
40
A4
A6
7F
26
24
20
ENDCHAR
STARTCHAR U+21AE
ENCODING 8622
SWIDTH 960 0
DWIDTH 8 0
BBX 8 9 0 -1
BITMAP
08
08
2C
6E
FF
6E
2C
08
08
ENDCHAR
STARTCHAR U+21AF
ENCODING 8623
SWIDTH 960 0
DWIDTH 8 0
BBX 6 10 1 -1
BITMAP
80
80
90
B0
D0
90
10
7C
38
10
ENDCHAR
STARTCHAR U+21B0
ENCODING 8624
SWIDTH 960 0
DWIDTH 8 0
BBX 5 8 0 -2
BITMAP
20
60
F0
68
28
08
08
08
ENDCHAR
STARTCHAR U+21B1
ENCODING 8625
SWIDTH 960 0
DWIDTH 8 0
BBX 5 8 3 -2
BITMAP
20
30
78
B0
A0
80
80
80
ENDCHAR
STARTCHAR U+21B2
ENCODING 8626
SWIDTH 960 0
DWIDTH 8 0
BBX 5 9 0 1
BITMAP
08
08
08
08
28
68
F0
60
20
ENDCHAR
STARTCHAR U+21B3
ENCODING 8627
SWIDTH 960 0
DWIDTH 8 0
BBX 5 9 3 1
BITMAP
80
80
80
80
A0
B0
78
30
20
ENDCHAR
STARTCHAR U+21B4
ENCODING 8628
SWIDTH 960 0
DWIDTH 8 0
BBX 7 5 0 -1
BITMAP
F8
08
3E
1C
08
ENDCHAR
STARTCHAR U+21B5
ENCODING 8629
SWIDTH 960 0
DWIDTH 8 0
BBX 5 9 0 1
BITMAP
08
08
08
08
28
68
F8
60
20
ENDCHAR
STARTCHAR U+21B6
ENCODING 8630
SWIDTH 960 0
DWIDTH 8 0
BBX 8 6 0 0
BITMAP
1E
21
A9
F8
70
20
ENDCHAR
STARTCHAR U+21B7
ENCODING 8631
SWIDTH 960 0
DWIDTH 8 0
BBX 8 6 0 0
BITMAP
78
84
95
1F
0E
04
ENDCHAR
STARTCHAR U+21B8
ENCODING 8632
SWIDTH 960 0
DWIDTH 8 0
BBX 7 9 1 0
BITMAP
FE
00
F0
C0
A0
90
08
04
02
ENDCHAR
STARTCHAR U+21B9
ENCODING 8633
SWIDTH 960 0
DWIDTH 8 0
BBX 8 9 0 -1
BITMAP
19
0D
FF
0D
99
B0
FF
B0
98
ENDCHAR
STARTCHAR U+21BA
ENCODING 8634
SWIDTH 960 0
DWIDTH 8 0
BBX 7 8 1 0
BITMAP
1E
18
54
92
82
82
44
38
ENDCHAR
STARTCHAR U+21BB
ENCODING 8635
SWIDTH 960 0
DWIDTH 8 0
BBX 7 8 1 0
BITMAP
F0
30
54
92
82
82
44
38
ENDCHAR
STARTCHAR U+21BC
ENCODING 8636
SWIDTH 960 0
DWIDTH 8 0
BBX 8 3 0 3
BITMAP
30
60
FF
ENDCHAR
STARTCHAR U+21BD
ENCODING 8637
SWIDTH 960 0
DWIDTH 8 0
BBX 8 3 0 1
BITMAP
FF
60
30
ENDCHAR
STARTCHAR U+21BE
ENCODING 8638
SWIDTH 960 0
DWIDTH 8 0
BBX 3 9 4 -1
BITMAP
80
C0
E0
A0
80
80
80
80
80
ENDCHAR
STARTCHAR U+21BF
ENCODING 8639
SWIDTH 960 0
DWIDTH 8 0
BBX 3 9 2 -1
BITMAP
20
60
E0
A0
20
20
20
20
20
ENDCHAR
STARTCHAR U+21C0
ENCODING 8640
SWIDTH 960 0
DWIDTH 8 0
BBX 8 3 0 3
BITMAP
0C
06
FF
ENDCHAR
STARTCHAR U+21C1
ENCODING 8641
SWIDTH 960 0
DWIDTH 8 0
BBX 8 3 0 1
BITMAP
FF
06
0C
ENDCHAR
STARTCHAR U+21C2
ENCODING 8642
SWIDTH 960 0
DWIDTH 8 0
BBX 3 9 4 -1
BITMAP
80
80
80
80
80
A0
E0
C0
80
ENDCHAR
STARTCHAR U+21C3
ENCODING 8643
SWIDTH 960 0
DWIDTH 8 0
BBX 3 9 2 -1
BITMAP
20
20
20
20
20
A0
E0
60
20
ENDCHAR
STARTCHAR U+21C4
ENCODING 8644
SWIDTH 960 0
DWIDTH 8 0
BBX 8 9 0 -1
BITMAP
04
06
FF
06
24
60
FF
60
20
ENDCHAR
STARTCHAR U+21C5
ENCODING 8645
SWIDTH 960 0
DWIDTH 8 0
BBX 8 9 0 -1
BITMAP
24
74
FC
24
24
24
3F
2E
24
ENDCHAR
STARTCHAR U+21C6
ENCODING 8646
SWIDTH 960 0
DWIDTH 8 0
BBX 8 9 0 -1
BITMAP
20
60
FF
60
24
06
FF
06
04
ENDCHAR
STARTCHAR U+21C7
ENCODING 8647
SWIDTH 960 0
DWIDTH 8 0
BBX 8 9 0 -1
BITMAP
30
60
FF
60
30
60
FF
60
30
ENDCHAR
STARTCHAR U+21C8
ENCODING 8648
SWIDTH 960 0
DWIDTH 8 0
BBX 8 9 0 -1
BITMAP
24
7E
FF
A5
24
24
24
24
24
ENDCHAR
STARTCHAR U+21C9
ENCODING 8649
SWIDTH 960 0
DWIDTH 8 0
BBX 8 9 0 -1
BITMAP
0C
06
FF
06
0C
06
FF
06
0C
ENDCHAR
STARTCHAR U+21CA
ENCODING 8650
SWIDTH 960 0
DWIDTH 8 0
BBX 8 9 0 -1
BITMAP
24
24
24
24
24
A5
FF
7E
24
ENDCHAR
STARTCHAR U+21CB
ENCODING 8651
SWIDTH 960 0
DWIDTH 8 0
BBX 8 7 0 0
BITMAP
30
60
FF
00
FF
06
0C
ENDCHAR
STARTCHAR U+21CC
ENCODING 8652
SWIDTH 960 0
DWIDTH 8 0
BBX 8 7 0 0
BITMAP
0C
06
FF
00
FF
60
30
ENDCHAR
STARTCHAR U+21CD
ENCODING 8653
SWIDTH 960 0
DWIDTH 8 0
BBX 8 9 0 -1
BITMAP
08
08
28
7F
C8
7F
28
08
08
ENDCHAR
STARTCHAR U+21CE
ENCODING 8654
SWIDTH 960 0
DWIDTH 8 0
BBX 8 9 0 -1
BITMAP
08
08
2C
7E
CB
7E
2C
08
08
ENDCHAR
STARTCHAR U+21CF
ENCODING 8655
SWIDTH 960 0
DWIDTH 8 0
BBX 8 9 0 -1
BITMAP
10
10
14
FE
13
FE
14
10
10
ENDCHAR
STARTCHAR U+21D0
ENCODING 8656
SWIDTH 960 0
DWIDTH 8 0
BBX 8 5 0 1
BITMAP
20
7F
C0
7F
20
ENDCHAR
STARTCHAR U+21D1
ENCODING 8657
SWIDTH 960 0
DWIDTH 8 0
BBX 5 9 2 -1
BITMAP
20
70
D8
50
50
50
50
50
50
ENDCHAR
STARTCHAR U+21D2
ENCODING 8658
SWIDTH 960 0
DWIDTH 8 0
BBX 8 5 0 1
BITMAP
04
FE
03
FE
04
ENDCHAR
STARTCHAR U+21D3
ENCODING 8659
SWIDTH 960 0
DWIDTH 8 0
BBX 5 9 2 -1
BITMAP
50
50
50
50
50
50
D8
70
20
ENDCHAR
STARTCHAR U+21D4
ENCODING 8660
SWIDTH 960 0
DWIDTH 8 0
BBX 8 5 0 1
BITMAP
24
7E
C3
7E
24
ENDCHAR
STARTCHAR U+21D5
ENCODING 8661
SWIDTH 960 0
DWIDTH 8 0
BBX 5 9 2 -1
BITMAP
20
70
D8
50
50
50
D8
70
20
ENDCHAR
STARTCHAR U+21D6
ENCODING 8662
SWIDTH 960 0
DWIDTH 8 0
BBX 7 7 1 0
BITMAP
F0
A0
D0
A8
14
0A
04
ENDCHAR
STARTCHAR U+21D7
ENCODING 8663
SWIDTH 960 0
DWIDTH 8 0
BBX 7 7 1 0
BITMAP
1E
0A
16
2A
50
A0
40
ENDCHAR
STARTCHAR U+21D8
ENCODING 8664
SWIDTH 960 0
DWIDTH 8 0
BBX 7 7 1 0
BITMAP
40
A0
50
2A
16
0A
1E
ENDCHAR
STARTCHAR U+21D9
ENCODING 8665
SWIDTH 960 0
DWIDTH 8 0
BBX 7 7 1 0
BITMAP
04
0A
14
A8
D0
A0
F0
ENDCHAR
STARTCHAR U+21DA
ENCODING 8666
SWIDTH 960 0
DWIDTH 8 0
BBX 8 7 0 0
BITMAP
08
FC
06
FF
06
FC
08
ENDCHAR
STARTCHAR U+21DB
ENCODING 8667
SWIDTH 960 0
DWIDTH 8 0
BBX 8 7 0 0
BITMAP
10
3F
60
FF
60
3F
10
ENDCHAR
STARTCHAR U+21DC
ENCODING 8668
SWIDTH 960 0
DWIDTH 8 0
BBX 8 5 0 1
BITMAP
20
62
F5
68
20
ENDCHAR
STARTCHAR U+21DD
ENCODING 8669
SWIDTH 960 0
DWIDTH 8 0
BBX 8 5 0 1
BITMAP
04
46
AF
16
04
ENDCHAR
STARTCHAR U+21DE
ENCODING 8670
SWIDTH 960 0
DWIDTH 8 0
BBX 5 9 2 -1
BITMAP
20
70
F8
20
F8
20
F8
20
20
ENDCHAR
STARTCHAR U+21DF
ENCODING 8671
SWIDTH 960 0
DWIDTH 8 0
BBX 5 9 2 -1
BITMAP
20
20
F8
20
F8
20
F8
70
20
ENDCHAR
STARTCHAR U+21E0
ENCODING 8672
SWIDTH 960 0
DWIDTH 8 0
BBX 8 5 0 1
BITMAP
30
60
DB
60
30
ENDCHAR
STARTCHAR U+21E1
ENCODING 8673
SWIDTH 960 0
DWIDTH 8 0
BBX 5 9 2 -1
BITMAP
20
70
F8
A8
20
00
20
00
20
ENDCHAR
STARTCHAR U+21E2
ENCODING 8674
SWIDTH 960 0
DWIDTH 8 0
BBX 8 5 0 1
BITMAP
0C
06
DB
06
0C
ENDCHAR
STARTCHAR U+21E3
ENCODING 8675
SWIDTH 960 0
DWIDTH 8 0
BBX 5 9 2 -1
BITMAP
20
00
20
00
20
A8
F8
70
20
ENDCHAR
STARTCHAR U+21E4
ENCODING 8676
SWIDTH 960 0
DWIDTH 8 0
BBX 8 5 0 1
BITMAP
98
B0
FF
B0
98
ENDCHAR
STARTCHAR U+21E5
ENCODING 8677
SWIDTH 960 0
DWIDTH 8 0
BBX 8 5 0 1
BITMAP
19
0D
FF
0D
19
ENDCHAR
STARTCHAR U+21E6
ENCODING 8678
SWIDTH 960 0
DWIDTH 8 0
BBX 8 7 0 0
BITMAP
10
30
5F
81
5F
30
10
ENDCHAR
STARTCHAR U+21E7
ENCODING 8679
SWIDTH 960 0
DWIDTH 8 0
BBX 7 11 1 -2
BITMAP
10
28
44
EE
28
28
28
28
28
28
38
ENDCHAR
STARTCHAR U+21E8
ENCODING 8680
SWIDTH 960 0
DWIDTH 8 0
BBX 8 7 0 0
BITMAP
08
0C
FA
81
FA
0C
08
ENDCHAR
STARTCHAR U+21E9
ENCODING 8681
SWIDTH 960 0
DWIDTH 8 0
BBX 7 11 1 -2
BITMAP
38
28
28
28
28
28
28
EE
44
28
10
ENDCHAR
STARTCHAR U+21EA
ENCODING 8682
SWIDTH 960 0
DWIDTH 8 0
BBX 7 11 1 -2
BITMAP
10
28
44
EE
28
28
38
00
38
28
38
ENDCHAR
STARTCHAR U+21EB
ENCODING 8683
SWIDTH 960 0
DWIDTH 8 0
BBX 7 11 1 -2
BITMAP
10
28
44
EE
28
28
28
28
6C
44
7C
ENDCHAR
STARTCHAR U+21EC
ENCODING 8684
SWIDTH 960 0
DWIDTH 8 0
BBX 7 11 1 -2
BITMAP
10
28
7C
EE
28
28
28
28
6C
44
7C
ENDCHAR
STARTCHAR U+21ED
ENCODING 8685
SWIDTH 960 0
DWIDTH 8 0
BBX 7 11 1 -2
BITMAP
10
38
54
D6
54
54
54
54
D6
92
FE
ENDCHAR
STARTCHAR U+21EE
ENCODING 8686
SWIDTH 960 0
DWIDTH 8 0
BBX 7 11 1 -2
BITMAP
10
28
54
AA
44
EE
28
28
28
28
38
ENDCHAR
STARTCHAR U+21EF
ENCODING 8687
SWIDTH 960 0
DWIDTH 8 0
BBX 7 11 1 -2
BITMAP
10
28
54
AA
44
EE
28
28
6C
44
7C
ENDCHAR
STARTCHAR U+21F0
ENCODING 8688
SWIDTH 960 0
DWIDTH 8 0
BBX 8 7 0 0
BITMAP
08
EC
BA
81
BA
EC
08
ENDCHAR
STARTCHAR U+21F1
ENCODING 8689
SWIDTH 960 0
DWIDTH 8 0
BBX 8 8 0 0
BITMAP
FF
80
BC
B0
A8
A4
82
81
ENDCHAR
STARTCHAR U+21F2
ENCODING 8690
SWIDTH 960 0
DWIDTH 8 0
BBX 8 8 0 0
BITMAP
81
41
25
15
0D
3D
01
FF
ENDCHAR
STARTCHAR U+21F3
ENCODING 8691
SWIDTH 960 0
DWIDTH 8 0
BBX 7 11 1 -2
BITMAP
10
28
44
EE
28
28
28
EE
44
28
10
ENDCHAR
STARTCHAR U+21F5
ENCODING 8693
SWIDTH 960 0
DWIDTH 8 0
BBX 8 9 0 -1
BITMAP
24
2E
3F
24
24
24
FC
74
24
ENDCHAR
STARTCHAR U+21F6
ENCODING 8694
SWIDTH 960 0
DWIDTH 8 0
BBX 8 9 0 -1
BITMAP
0C
06
FF
06
FF
06
FF
06
0C
ENDCHAR
STARTCHAR U+21F7
ENCODING 8695
SWIDTH 960 0
DWIDTH 8 0
BBX 8 5 0 1
BITMAP
24
64
FF
64
24
ENDCHAR
STARTCHAR U+21F8
ENCODING 8696
SWIDTH 960 0
DWIDTH 8 0
BBX 8 5 0 1
BITMAP
24
26
FF
26
24
ENDCHAR
STARTCHAR U+21FD
ENCODING 8701
SWIDTH 960 0
DWIDTH 8 0
BBX 8 5 0 1
BITMAP
20
60
BF
60
20
ENDCHAR
STARTCHAR U+21FE
ENCODING 8702
SWIDTH 960 0
DWIDTH 8 0
BBX 8 5 0 1
BITMAP
04
06
FD
06
04
ENDCHAR
STARTCHAR U+21FF
ENCODING 8703
SWIDTH 960 0
DWIDTH 8 0
BBX 8 5 0 1
BITMAP
24
66
BD
66
24
ENDCHAR
STARTCHAR U+2202
ENCODING 8706
SWIDTH 960 0
DWIDTH 8 0
BBX 6 7 1 0
BITMAP
38
6C
0C
7C
CC
C8
70
ENDCHAR
STARTCHAR U+2205
ENCODING 8709
SWIDTH 960 0
DWIDTH 8 0
BBX 8 7 0 0
BITMAP
3B
66
CF
DB
F3
66
DC
ENDCHAR
STARTCHAR U+2206
ENCODING 8710
SWIDTH 960 0
DWIDTH 8 0
BBX 8 7 0 0
BITMAP
18
18
34
34
62
62
FF
ENDCHAR
STARTCHAR U+2207
ENCODING 8711
SWIDTH 960 0
DWIDTH 8 0
BBX 8 7 0 0
BITMAP
FF
62
62
34
34
18
18
ENDCHAR
STARTCHAR U+2208
ENCODING 8712
SWIDTH 960 0
DWIDTH 8 0
BBX 6 7 1 0
BITMAP
7C
C0
C0
FC
C0
C0
7C
ENDCHAR
STARTCHAR U+220A
ENCODING 8714
SWIDTH 960 0
DWIDTH 8 0
BBX 6 5 1 1
BITMAP
7C
C0
FC
C0
7C
ENDCHAR
STARTCHAR U+220B
ENCODING 8715
SWIDTH 960 0
DWIDTH 8 0
BBX 6 7 1 0
BITMAP
F8
0C
0C
FC
0C
0C
F8
ENDCHAR
STARTCHAR U+220D
ENCODING 8717
SWIDTH 960 0
DWIDTH 8 0
BBX 6 5 1 1
BITMAP
F8
0C
FC
0C
F8
ENDCHAR
STARTCHAR U+220F
ENCODING 8719
SWIDTH 960 0
DWIDTH 8 0
BBX 6 10 1 -2
BITMAP
FC
CC
CC
CC
CC
CC
CC
CC
CC
CC
ENDCHAR
STARTCHAR U+2210
ENCODING 8720
SWIDTH 960 0
DWIDTH 8 0
BBX 6 10 1 -2
BITMAP
CC
CC
CC
CC
CC
CC
CC
CC
CC
FC
ENDCHAR
STARTCHAR U+2211
ENCODING 8721
SWIDTH 960 0
DWIDTH 8 0
BBX 6 10 1 -2
BITMAP
FC
C4
60
60
30
30
60
60
C4
FC
ENDCHAR
STARTCHAR U+2212
ENCODING 8722
SWIDTH 960 0
DWIDTH 8 0
BBX 6 1 1 3
BITMAP
FC
ENDCHAR
STARTCHAR U+2213
ENCODING 8723
SWIDTH 960 0
DWIDTH 8 0
BBX 6 7 1 0
BITMAP
FC
00
30
30
FC
30
30
ENDCHAR
STARTCHAR U+2214
ENCODING 8724
SWIDTH 960 0
DWIDTH 8 0
BBX 6 8 1 0
BITMAP
30
30
00
30
30
FC
30
30
ENDCHAR
STARTCHAR U+2215
ENCODING 8725
SWIDTH 960 0
DWIDTH 8 0
BBX 6 7 1 0
BITMAP
04
0C
18
30
60
C0
80
ENDCHAR
STARTCHAR U+2216
ENCODING 8726
SWIDTH 960 0
DWIDTH 8 0
BBX 6 7 1 0
BITMAP
80
C0
60
30
18
0C
04
ENDCHAR
STARTCHAR U+2217
ENCODING 8727
SWIDTH 960 0
DWIDTH 8 0
BBX 6 5 1 1
BITMAP
30
B4
78
B4
30
ENDCHAR
STARTCHAR U+2218
ENCODING 8728
SWIDTH 960 0
DWIDTH 8 0
BBX 6 4 1 1
BITMAP
78
CC
CC
78
ENDCHAR
STARTCHAR U+2219
ENCODING 8729
SWIDTH 960 0
DWIDTH 8 0
BBX 4 4 2 1
BITMAP
60
F0
F0
60
ENDCHAR
STARTCHAR U+221A
ENCODING 8730
SWIDTH 960 0
DWIDTH 8 0
BBX 6 8 1 0
BITMAP
1C
18
18
58
F8
38
18
08
ENDCHAR
STARTCHAR U+221B
ENCODING 8731
SWIDTH 960 0
DWIDTH 8 0
BBX 7 10 0 0
BITMAP
C0
20
4E
2C
CC
0C
7C
1C
0C
04
ENDCHAR
STARTCHAR U+221C
ENCODING 8732
SWIDTH 960 0
DWIDTH 8 0
BBX 7 10 0 0
BITMAP
80
A0
EE
2C
2C
0C
7C
1C
0C
04
ENDCHAR
STARTCHAR U+221D
ENCODING 8733
SWIDTH 960 0
DWIDTH 8 0
BBX 7 4 0 1
BITMAP
76
D8
D8
6E
ENDCHAR
STARTCHAR U+221E
ENCODING 8734
SWIDTH 960 0
DWIDTH 8 0
BBX 8 4 0 1
BITMAP
76
DB
DB
6E
ENDCHAR
STARTCHAR U+221F
ENCODING 8735
SWIDTH 960 0
DWIDTH 8 0
BBX 6 5 1 0
BITMAP
C0
C0
C0
C0
FC
ENDCHAR
STARTCHAR U+2220
ENCODING 8736
SWIDTH 960 0
DWIDTH 8 0
BBX 6 6 1 0
BITMAP
04
0C
18
30
60
FC
ENDCHAR
STARTCHAR U+2223
ENCODING 8739
SWIDTH 960 0
DWIDTH 8 0
BBX 2 9 3 -1
BITMAP
C0
C0
C0
C0
C0
C0
C0
C0
C0
ENDCHAR
STARTCHAR U+2225
ENCODING 8741
SWIDTH 960 0
DWIDTH 8 0
BBX 6 9 1 -1
BITMAP
CC
CC
CC
CC
CC
CC
CC
CC
CC
ENDCHAR
STARTCHAR U+2226
ENCODING 8742
SWIDTH 960 0
DWIDTH 8 0
BBX 8 9 0 -1
BITMAP
66
67
66
6E
7E
76
66
E6
66
ENDCHAR
STARTCHAR U+2227
ENCODING 8743
SWIDTH 960 0
DWIDTH 8 0
BBX 6 6 1 0
BITMAP
30
30
68
68
C4
C4
ENDCHAR
STARTCHAR U+2228
ENCODING 8744
SWIDTH 960 0
DWIDTH 8 0
BBX 6 6 1 0
BITMAP
C4
C4
68
68
30
30
ENDCHAR
STARTCHAR U+2229
ENCODING 8745
SWIDTH 960 0
DWIDTH 8 0
BBX 6 6 1 0
BITMAP
78
CC
CC
CC
CC
CC
ENDCHAR
STARTCHAR U+222A
ENCODING 8746
SWIDTH 960 0
DWIDTH 8 0
BBX 6 6 1 0
BITMAP
CC
CC
CC
CC
CC
78
ENDCHAR
STARTCHAR U+222B
ENCODING 8747
SWIDTH 960 0
DWIDTH 8 0
BBX 8 11 0 -2
BITMAP
0E
1B
18
18
18
18
18
18
18
D8
70
ENDCHAR
STARTCHAR U+222C
ENCODING 8748
SWIDTH 960 0
DWIDTH 8 0
BBX 7 11 1 -2
BITMAP
36
6C
6C
6C
6C
6C
6C
6C
6C
6C
D8
ENDCHAR
STARTCHAR U+222D
ENCODING 8749
SWIDTH 960 0
DWIDTH 8 0
BBX 7 11 1 -2
BITMAP
2A
54
54
54
54
54
54
54
54
54
A8
ENDCHAR
STARTCHAR U+222E
ENCODING 8750
SWIDTH 960 0
DWIDTH 8 0
BBX 8 11 0 -2
BITMAP
0E
1B
18
18
7E
DB
7E
18
18
D8
70
ENDCHAR
STARTCHAR U+222F
ENCODING 8751
SWIDTH 960 0
DWIDTH 8 0
BBX 7 11 1 -2
BITMAP
36
6C
6C
6C
7C
EE
7C
6C
6C
6C
D8
ENDCHAR
STARTCHAR U+2230
ENCODING 8752
SWIDTH 960 0
DWIDTH 8 0
BBX 7 11 1 -2
BITMAP
2A
54
54
54
7C
D6
7C
54
54
54
A8
ENDCHAR
STARTCHAR U+2234
ENCODING 8756
SWIDTH 960 0
DWIDTH 8 0
BBX 6 6 1 0
BITMAP
30
30
00
00
CC
CC
ENDCHAR
STARTCHAR U+2235
ENCODING 8757
SWIDTH 960 0
DWIDTH 8 0
BBX 6 6 1 0
BITMAP
CC
CC
00
00
30
30
ENDCHAR
STARTCHAR U+223E
ENCODING 8766
SWIDTH 960 0
DWIDTH 8 0
BBX 8 4 0 1
BITMAP
66
D3
CB
66
ENDCHAR
STARTCHAR U+2248
ENCODING 8776
SWIDTH 960 0
DWIDTH 8 0
BBX 6 5 1 1
BITMAP
6C
D8
00
6C
D8
ENDCHAR
STARTCHAR U+224D
ENCODING 8781
SWIDTH 960 0
DWIDTH 8 0
BBX 6 5 1 1
BITMAP
CC
78
00
78
CC
ENDCHAR
STARTCHAR U+2260
ENCODING 8800
SWIDTH 960 0
DWIDTH 8 0
BBX 6 6 1 0
BITMAP
18
FC
30
30
FC
60
ENDCHAR
STARTCHAR U+2261
ENCODING 8801
SWIDTH 960 0
DWIDTH 8 0
BBX 6 5 1 1
BITMAP
FC
00
FC
00
FC
ENDCHAR
STARTCHAR U+2262
ENCODING 8802
SWIDTH 960 0
DWIDTH 8 0
BBX 6 7 1 0
BITMAP
08
FC
10
FC
20
FC
40
ENDCHAR
STARTCHAR U+2263
ENCODING 8803
SWIDTH 960 0
DWIDTH 8 0
BBX 6 7 1 0
BITMAP
FC
00
FC
00
FC
00
FC
ENDCHAR
STARTCHAR U+2264
ENCODING 8804
SWIDTH 960 0
DWIDTH 8 0
BBX 6 7 1 0
BITMAP
0C
30
C0
30
0C
00
FC
ENDCHAR
STARTCHAR U+2265
ENCODING 8805
SWIDTH 960 0
DWIDTH 8 0
BBX 6 7 1 0
BITMAP
C0
30
0C
30
C0
00
FC
ENDCHAR
STARTCHAR U+2282
ENCODING 8834
SWIDTH 960 0
DWIDTH 8 0
BBX 6 5 1 1
BITMAP
7C
C0
C0
C0
7C
ENDCHAR
STARTCHAR U+2283
ENCODING 8835
SWIDTH 960 0
DWIDTH 8 0
BBX 6 5 1 1
BITMAP
F8
0C
0C
0C
F8
ENDCHAR
STARTCHAR U+2286
ENCODING 8838
SWIDTH 960 0
DWIDTH 8 0
BBX 6 7 1 -1
BITMAP
7C
C0
C0
C0
7C
00
FC
ENDCHAR
STARTCHAR U+2287
ENCODING 8839
SWIDTH 960 0
DWIDTH 8 0
BBX 6 7 1 -1
BITMAP
F8
0C
0C
0C
F8
00
FC
ENDCHAR
STARTCHAR U+228F
ENCODING 8847
SWIDTH 960 0
DWIDTH 8 0
BBX 6 5 1 1
BITMAP
FC
C0
C0
C0
FC
ENDCHAR
STARTCHAR U+2290
ENCODING 8848
SWIDTH 960 0
DWIDTH 8 0
BBX 6 5 1 1
BITMAP
FC
0C
0C
0C
FC
ENDCHAR
STARTCHAR U+2291
ENCODING 8849
SWIDTH 960 0
DWIDTH 8 0
BBX 6 7 1 -1
BITMAP
FC
C0
C0
C0
FC
00
FC
ENDCHAR
STARTCHAR U+2292
ENCODING 8850
SWIDTH 960 0
DWIDTH 8 0
BBX 6 7 1 -1
BITMAP
FC
0C
0C
0C
FC
00
FC
ENDCHAR
STARTCHAR U+2293
ENCODING 8851
SWIDTH 960 0
DWIDTH 8 0
BBX 6 6 1 0
BITMAP
FC
CC
CC
CC
CC
CC
ENDCHAR
STARTCHAR U+2294
ENCODING 8852
SWIDTH 960 0
DWIDTH 8 0
BBX 6 6 1 0
BITMAP
CC
CC
CC
CC
CC
FC
ENDCHAR
STARTCHAR U+2295
ENCODING 8853
SWIDTH 960 0
DWIDTH 8 0
BBX 8 7 0 0
BITMAP
3C
6A
C9
FF
C9
6A
3C
ENDCHAR
STARTCHAR U+2296
ENCODING 8854
SWIDTH 960 0
DWIDTH 8 0
BBX 8 7 0 0
BITMAP
3C
66
C3
FF
C3
66
3C
ENDCHAR
STARTCHAR U+2297
ENCODING 8855
SWIDTH 960 0
DWIDTH 8 0
BBX 8 7 0 0
BITMAP
3C
62
D5
C9
D5
62
3C
ENDCHAR
STARTCHAR U+2298
ENCODING 8856
SWIDTH 960 0
DWIDTH 8 0
BBX 8 7 0 0
BITMAP
3C
66
CF
DB
F3
66
3C
ENDCHAR
STARTCHAR U+2299
ENCODING 8857
SWIDTH 960 0
DWIDTH 8 0
BBX 8 7 0 0
BITMAP
3C
62
C1
C9
C1
62
3C
ENDCHAR
STARTCHAR U+229A
ENCODING 8858
SWIDTH 960 0
DWIDTH 8 0
BBX 8 7 0 0
BITMAP
3C
62
C9
D5
C9
62
3C
ENDCHAR
STARTCHAR U+229B
ENCODING 8859
SWIDTH 960 0
DWIDTH 8 0
BBX 8 8 0 0
BITMAP
3C
62
C9
FF
C9
D5
62
3C
ENDCHAR
STARTCHAR U+229C
ENCODING 8860
SWIDTH 960 0
DWIDTH 8 0
BBX 8 7 0 0
BITMAP
3C
66
DB
C3
DB
66
3C
ENDCHAR
STARTCHAR U+229D
ENCODING 8861
SWIDTH 960 0
DWIDTH 8 0
BBX 8 7 0 0
BITMAP
3C
66
C3
DB
C3
66
3C
ENDCHAR
STARTCHAR U+229E
ENCODING 8862
SWIDTH 960 0
DWIDTH 8 0
BBX 7 7 1 0
BITMAP
FE
92
92
FE
92
92
FE
ENDCHAR
STARTCHAR U+229F
ENCODING 8863
SWIDTH 960 0
DWIDTH 8 0
BBX 8 7 0 0
BITMAP
FF
C3
C3
FF
C3
C3
FF
ENDCHAR
STARTCHAR U+22A0
ENCODING 8864
SWIDTH 960 0
DWIDTH 8 0
BBX 7 7 1 0
BITMAP
FE
C6
AA
92
AA
C6
FE
ENDCHAR
STARTCHAR U+22A1
ENCODING 8865
SWIDTH 960 0
DWIDTH 8 0
BBX 7 7 1 0
BITMAP
FE
82
82
92
82
82
FE
ENDCHAR
STARTCHAR U+22A2
ENCODING 8866
SWIDTH 960 0
DWIDTH 8 0
BBX 6 5 1 1
BITMAP
C0
C0
FC
C0
C0
ENDCHAR
STARTCHAR U+22A3
ENCODING 8867
SWIDTH 960 0
DWIDTH 8 0
BBX 6 5 1 1
BITMAP
0C
0C
FC
0C
0C
ENDCHAR
STARTCHAR U+22A4
ENCODING 8868
SWIDTH 960 0
DWIDTH 8 0
BBX 6 6 1 0
BITMAP
FC
30
30
30
30
30
ENDCHAR
STARTCHAR U+22A5
ENCODING 8869
SWIDTH 960 0
DWIDTH 8 0
BBX 6 6 1 0
BITMAP
30
30
30
30
30
FC
ENDCHAR
STARTCHAR U+22B8
ENCODING 8888
SWIDTH 960 0
DWIDTH 8 0
BBX 8 4 0 1
BITMAP
0E
FB
1B
0E
ENDCHAR
STARTCHAR U+22BB
ENCODING 8891
SWIDTH 960 0
DWIDTH 8 0
BBX 6 6 1 0
BITMAP
C4
C4
68
68
30
FC
ENDCHAR
STARTCHAR U+22C4
ENCODING 8900
SWIDTH 960 0
DWIDTH 8 0
BBX 7 7 1 0
BITMAP
10
38
6C
C6
6C
38
10
ENDCHAR
STARTCHAR U+22C5
ENCODING 8901
SWIDTH 960 0
DWIDTH 8 0
BBX 2 2 3 2
BITMAP
C0
C0
ENDCHAR
STARTCHAR U+22C6
ENCODING 8902
SWIDTH 960 0
DWIDTH 8 0
BBX 6 6 1 1
BITMAP
30
30
FC
78
78
48
ENDCHAR
STARTCHAR U+22C8
ENCODING 8904
SWIDTH 960 0
DWIDTH 8 0
BBX 7 7 1 0
BITMAP
82
C6
AA
92
AA
C6
82
ENDCHAR
STARTCHAR U+22D4
ENCODING 8916
SWIDTH 960 0
DWIDTH 8 0
BBX 7 9 1 -1
BITMAP
10
10
7C
D6
D6
D6
D6
D6
10
ENDCHAR
STARTCHAR U+22D5
ENCODING 8917
SWIDTH 960 0
DWIDTH 8 0
BBX 8 9 0 -1
BITMAP
66
66
66
FF
66
66
FF
66
66
ENDCHAR
STARTCHAR U+22EF
ENCODING 8943
SWIDTH 960 0
DWIDTH 8 0
BBX 8 2 0 2
BITMAP
DB
DB
ENDCHAR
STARTCHAR U+2302
ENCODING 8962
SWIDTH 960 0
DWIDTH 8 0
BBX 7 6 1 0
BITMAP
10
38
6C
C6
C6
FE
ENDCHAR
STARTCHAR U+2305
ENCODING 8965
SWIDTH 960 0
DWIDTH 8 0
BBX 6 6 1 0
BITMAP
FC
30
68
68
C4
C4
ENDCHAR
STARTCHAR U+2308
ENCODING 8968
SWIDTH 960 0
DWIDTH 8 0
BBX 4 9 2 -1
BITMAP
F0
C0
C0
C0
C0
C0
C0
C0
C0
ENDCHAR
STARTCHAR U+2309
ENCODING 8969
SWIDTH 960 0
DWIDTH 8 0
BBX 4 9 2 -1
BITMAP
F0
30
30
30
30
30
30
30
30
ENDCHAR
STARTCHAR U+230A
ENCODING 8970
SWIDTH 960 0
DWIDTH 8 0
BBX 4 9 2 -1
BITMAP
C0
C0
C0
C0
C0
C0
C0
C0
F0
ENDCHAR
STARTCHAR U+230B
ENCODING 8971
SWIDTH 960 0
DWIDTH 8 0
BBX 4 9 2 -1
BITMAP
30
30
30
30
30
30
30
30
F0
ENDCHAR
STARTCHAR U+230C
ENCODING 8972
SWIDTH 960 0
DWIDTH 8 0
BBX 5 5 3 0
BITMAP
38
38
C0
C0
C0
ENDCHAR
STARTCHAR U+230D
ENCODING 8973
SWIDTH 960 0
DWIDTH 8 0
BBX 5 5 0 0
BITMAP
E0
E0
18
18
18
ENDCHAR
STARTCHAR U+230E
ENCODING 8974
SWIDTH 960 0
DWIDTH 8 0
BBX 5 5 3 3
BITMAP
C0
C0
C0
38
38
ENDCHAR
STARTCHAR U+230F
ENCODING 8975
SWIDTH 960 0
DWIDTH 8 0
BBX 5 5 0 3
BITMAP
18
18
18
E0
E0
ENDCHAR
STARTCHAR U+2310
ENCODING 8976
SWIDTH 960 0
DWIDTH 8 0
BBX 6 3 1 1
BITMAP
FC
C0
C0
ENDCHAR
STARTCHAR U+2311
ENCODING 8977
SWIDTH 960 0
DWIDTH 8 0
BBX 8 7 0 0
BITMAP
C3
7E
66
66
66
7E
C3
ENDCHAR
STARTCHAR U+2315
ENCODING 8981
SWIDTH 960 0
DWIDTH 8 0
BBX 7 6 0 -1
BITMAP
3C
66
66
3C
60
C0
ENDCHAR
STARTCHAR U+2317
ENCODING 8983
SWIDTH 960 0
DWIDTH 8 0
BBX 8 8 0 0
BITMAP
24
24
FF
24
24
FF
24
24
ENDCHAR
STARTCHAR U+2318
ENCODING 8984
SWIDTH 960 0
DWIDTH 8 0
BBX 7 7 1 0
BITMAP
44
AA
7C
28
7C
AA
44
ENDCHAR
STARTCHAR U+2319
ENCODING 8985
SWIDTH 960 0
DWIDTH 8 0
BBX 6 3 1 3
BITMAP
C0
C0
FC
ENDCHAR
STARTCHAR U+231C
ENCODING 8988
SWIDTH 960 0
DWIDTH 8 0
BBX 3 3 0 7
BITMAP
E0
80
80
ENDCHAR
STARTCHAR U+231D
ENCODING 8989
SWIDTH 960 0
DWIDTH 8 0
BBX 3 3 5 7
BITMAP
E0
20
20
ENDCHAR
STARTCHAR U+231E
ENCODING 8990
SWIDTH 960 0
DWIDTH 8 0
BBX 3 3 0 -2
BITMAP
80
80
E0
ENDCHAR
STARTCHAR U+231F
ENCODING 8991
SWIDTH 960 0
DWIDTH 8 0
BBX 3 3 5 -2
BITMAP
20
20
E0
ENDCHAR
STARTCHAR U+2320
ENCODING 8992
SWIDTH 960 0
DWIDTH 8 0
BBX 5 11 3 -2
BITMAP
70
D8
C0
C0
C0
C0
C0
C0
C0
C0
C0
ENDCHAR
STARTCHAR U+2321
ENCODING 8993
SWIDTH 960 0
DWIDTH 8 0
BBX 5 12 0 -2
BITMAP
18
18
18
18
18
18
18
18
18
18
D8
70
ENDCHAR
STARTCHAR U+2335
ENCODING 9013
SWIDTH 960 0
DWIDTH 8 0
BBX 8 5 0 1
BITMAP
81
C3
66
3C
18
ENDCHAR
STARTCHAR U+2336
ENCODING 9014
SWIDTH 960 0
DWIDTH 8 0
BBX 6 6 1 0
BITMAP
FC
30
30
30
30
FC
ENDCHAR
STARTCHAR U+2337
ENCODING 9015
SWIDTH 960 0
DWIDTH 8 0
BBX 6 9 1 -1
BITMAP
FC
CC
CC
CC
CC
CC
CC
CC
FC
ENDCHAR
STARTCHAR U+2338
ENCODING 9016
SWIDTH 960 0
DWIDTH 8 0
BBX 8 11 0 -2
BITMAP
FF
C3
C3
C3
FF
C3
C3
FF
C3
C3
FF
ENDCHAR
STARTCHAR U+2339
ENCODING 9017
SWIDTH 960 0
DWIDTH 8 0
BBX 8 11 0 -2
BITMAP
FF
C3
DB
DB
C3
FF
C3
DB
DB
C3
FF
ENDCHAR
STARTCHAR U+233A
ENCODING 9018
SWIDTH 960 0
DWIDTH 8 0
BBX 8 11 0 -2
BITMAP
FF
C3
CB
DD
B6
63
B6
DD
CB
C3
FF
ENDCHAR
STARTCHAR U+233B
ENCODING 9019
SWIDTH 960 0
DWIDTH 8 0
BBX 8 11 0 -2
BITMAP
FF
C3
C3
C3
BD
66
66
BD
C3
C3
FF
ENDCHAR
STARTCHAR U+233C
ENCODING 9020
SWIDTH 960 0
DWIDTH 8 0
BBX 8 11 0 -2
BITMAP
FF
C3
BD
66
C3
C3
C3
66
BD
C3
FF
ENDCHAR
STARTCHAR U+233D
ENCODING 9021
SWIDTH 960 0
DWIDTH 8 0
BBX 8 9 0 -1
BITMAP
18
3C
5A
DB
DB
DB
5A
3C
18
ENDCHAR
STARTCHAR U+233E
ENCODING 9022
SWIDTH 960 0
DWIDTH 8 0
BBX 8 7 0 0
BITMAP
3C
62
C9
D5
C9
62
3C
ENDCHAR
STARTCHAR U+233F
ENCODING 9023
SWIDTH 960 0
DWIDTH 8 0
BBX 8 7 0 0
BITMAP
02
06
0C
FF
30
60
40
ENDCHAR
STARTCHAR U+2340
ENCODING 9024
SWIDTH 960 0
DWIDTH 8 0
BBX 8 7 0 0
BITMAP
40
60
30
FF
0C
06
02
ENDCHAR
STARTCHAR U+2341
ENCODING 9025
SWIDTH 960 0
DWIDTH 8 0
BBX 8 11 0 -2
BITMAP
FF
C3
C3
C7
CF
DB
F3
E3
C3
C3
FF
ENDCHAR
STARTCHAR U+2342
ENCODING 9026
SWIDTH 960 0
DWIDTH 8 0
BBX 8 11 0 -2
BITMAP
FF
C3
C3
E3
F3
DB
CF
C7
C3
C3
FF
ENDCHAR
STARTCHAR U+2343
ENCODING 9027
SWIDTH 960 0
DWIDTH 8 0
BBX 8 11 0 -2
BITMAP
FF
C3
CD
DB
B3
63
B3
DB
CD
C3
FF
ENDCHAR
STARTCHAR U+2344
ENCODING 9028
SWIDTH 960 0
DWIDTH 8 0
BBX 8 11 0 -2
BITMAP
FF
C3
B3
DB
CD
C6
CD
DB
B3
C3
FF
ENDCHAR
STARTCHAR U+2345
ENCODING 9029
SWIDTH 960 0
DWIDTH 8 0
BBX 8 9 0 -1
BITMAP
08
08
28
68
FF
68
28
08
08
ENDCHAR
STARTCHAR U+2346
ENCODING 9030
SWIDTH 960 0
DWIDTH 8 0
BBX 8 9 0 -1
BITMAP
10
10
14
16
FF
16
14
10
10
ENDCHAR
STARTCHAR U+2347
ENCODING 9031
SWIDTH 960 0
DWIDTH 8 0
BBX 8 11 0 -2
BITMAP
FF
C3
C3
B3
63
FF
63
B3
C3
C3
FF
ENDCHAR
STARTCHAR U+2348
ENCODING 9032
SWIDTH 960 0
DWIDTH 8 0
BBX 8 11 0 -2
BITMAP
FF
C3
C3
CD
C6
FF
C6
CD
C3
C3
FF
ENDCHAR
STARTCHAR U+2349
ENCODING 9033
SWIDTH 960 0
DWIDTH 8 0
BBX 8 7 0 0
BITMAP
DC
66
F3
DB
CF
66
3B
ENDCHAR
STARTCHAR U+234A
ENCODING 9034
SWIDTH 960 0
DWIDTH 8 0
BBX 6 8 1 -2
BITMAP
30
30
30
30
30
FC
00
FC
ENDCHAR
STARTCHAR U+234B
ENCODING 9035
SWIDTH 960 0
DWIDTH 8 0
BBX 8 9 0 -1
BITMAP
18
18
18
3C
3C
5A
5A
FF
18
ENDCHAR
STARTCHAR U+234C
ENCODING 9036
SWIDTH 960 0
DWIDTH 8 0
BBX 8 11 0 -2
BITMAP
FF
C3
00
62
62
B5
B5
DB
DB
C3
FF
ENDCHAR
STARTCHAR U+234D
ENCODING 9037
SWIDTH 960 0
DWIDTH 8 0
BBX 8 11 0 -2
BITMAP
FF
C3
DB
DB
B5
B5
62
62
FF
00
FF
ENDCHAR
STARTCHAR U+234E
ENCODING 9038
SWIDTH 960 0
DWIDTH 8 0
BBX 8 8 0 -1
BITMAP
18
18
7E
DB
DB
7E
18
FF
ENDCHAR
STARTCHAR U+234F
ENCODING 9039
SWIDTH 960 0
DWIDTH 8 0
BBX 7 9 1 -1
BITMAP
10
38
7C
10
FE
10
10
10
10
ENDCHAR
STARTCHAR U+2350
ENCODING 9040
SWIDTH 960 0
DWIDTH 8 0
BBX 8 11 0 -2
BITMAP
F7
CB
DD
BE
AA
C9
CB
CB
CB
CB
FF
ENDCHAR
STARTCHAR U+2351
ENCODING 9041
SWIDTH 960 0
DWIDTH 8 0
BBX 6 8 1 0
BITMAP
FC
00
FC
30
30
30
30
30
ENDCHAR
STARTCHAR U+2352
ENCODING 9042
SWIDTH 960 0
DWIDTH 8 0
BBX 8 9 0 -1
BITMAP
18
FF
5A
5A
3C
3C
18
18
18
ENDCHAR
STARTCHAR U+2353
ENCODING 9043
SWIDTH 960 0
DWIDTH 8 0
BBX 8 11 0 -2
BITMAP
FF
C3
C3
DB
DB
B5
B5
62
62
00
FF
ENDCHAR
STARTCHAR U+2354
ENCODING 9044
SWIDTH 960 0
DWIDTH 8 0
BBX 8 11 0 -2
BITMAP
FF
00
FF
62
62
B5
B5
DB
DB
C3
FF
ENDCHAR
STARTCHAR U+2355
ENCODING 9045
SWIDTH 960 0
DWIDTH 8 0
BBX 8 8 0 -1
BITMAP
FF
18
7E
DB
DB
7E
18
18
ENDCHAR
STARTCHAR U+2356
ENCODING 9046
SWIDTH 960 0
DWIDTH 8 0
BBX 7 9 1 -1
BITMAP
10
10
10
10
FE
10
7C
38
10
ENDCHAR
STARTCHAR U+2357
ENCODING 9047
SWIDTH 960 0
DWIDTH 8 0
BBX 8 11 0 -2
BITMAP
FF
CB
CB
CB
CB
C9
AA
BE
DD
CB
F7
ENDCHAR
STARTCHAR U+2358
ENCODING 9048
SWIDTH 960 0
DWIDTH 8 0
BBX 4 11 2 -2
BITMAP
60
60
60
00
00
00
00
00
00
00
F0
ENDCHAR
STARTCHAR U+2359
ENCODING 9049
SWIDTH 960 0
DWIDTH 8 0
BBX 8 9 0 -2
BITMAP
18
18
34
34
62
62
FF
00
FF
ENDCHAR
STARTCHAR U+235A
ENCODING 9050
SWIDTH 960 0
DWIDTH 8 0
BBX 7 9 1 -2
BITMAP
10
38
6C
C6
6C
38
10
00
FE
ENDCHAR
STARTCHAR U+235B
ENCODING 9051
SWIDTH 960 0
DWIDTH 8 0
BBX 6 7 1 -2
BITMAP
78
CC
CC
78
00
00
FC
ENDCHAR
STARTCHAR U+235C
ENCODING 9052
SWIDTH 960 0
DWIDTH 8 0
BBX 8 9 0 -2
BITMAP
3C
66
C3
C3
C3
66
3C
00
FF
ENDCHAR
STARTCHAR U+235D
ENCODING 9053
SWIDTH 960 0
DWIDTH 8 0
BBX 8 7 0 0
BITMAP
7E
C3
DB
E7
E7
DB
C3
ENDCHAR
STARTCHAR U+235E
ENCODING 9054
SWIDTH 960 0
DWIDTH 8 0
BBX 8 11 0 -2
BITMAP
FF
C3
DB
DB
DB
C3
C3
C3
C3
C3
FF
ENDCHAR
STARTCHAR U+235F
ENCODING 9055
SWIDTH 960 0
DWIDTH 8 0
BBX 8 8 0 0
BITMAP
3C
42
99
FF
BD
A5
42
3C
ENDCHAR
STARTCHAR U+2360
ENCODING 9056
SWIDTH 960 0
DWIDTH 8 0
BBX 8 11 0 -2
BITMAP
FF
C3
C3
DB
DB
C3
C3
DB
DB
C3
FF
ENDCHAR
STARTCHAR U+2361
ENCODING 9057
SWIDTH 960 0
DWIDTH 8 0
BBX 6 10 1 0
BITMAP
CC
CC
00
00
FC
30
30
30
30
30
ENDCHAR
STARTCHAR U+2362
ENCODING 9058
SWIDTH 960 0
DWIDTH 8 0
BBX 8 10 0 0
BITMAP
66
66
00
FF
62
62
34
34
18
18
ENDCHAR
STARTCHAR U+2363
ENCODING 9059
SWIDTH 960 0
DWIDTH 8 0
BBX 6 9 1 1
BITMAP
CC
CC
00
30
30
FC
78
78
48
ENDCHAR
STARTCHAR U+2364
ENCODING 9060
SWIDTH 960 0
DWIDTH 8 0
BBX 6 9 1 1
BITMAP
CC
CC
00
00
00
78
CC
CC
78
ENDCHAR
STARTCHAR U+2365
ENCODING 9061
SWIDTH 960 0
DWIDTH 8 0
BBX 8 10 0 0
BITMAP
66
66
00
3C
66
C3
C3
C3
66
3C
ENDCHAR
STARTCHAR U+2366
ENCODING 9062
SWIDTH 960 0
DWIDTH 8 0
BBX 7 9 1 -1
BITMAP
10
10
D6
D6
D6
D6
D6
7C
10
ENDCHAR
STARTCHAR U+2367
ENCODING 9063
SWIDTH 960 0
DWIDTH 8 0
BBX 6 9 1 -1
BITMAP
10
10
7C
D0
D0
D0
7C
10
10
ENDCHAR
STARTCHAR U+2368
ENCODING 9064
SWIDTH 960 0
DWIDTH 8 0
BBX 7 8 1 2
BITMAP
CC
CC
00
00
00
66
D6
CC
ENDCHAR
STARTCHAR U+2369
ENCODING 9065
SWIDTH 960 0
DWIDTH 8 0
BBX 6 10 1 0
BITMAP
CC
CC
00
60
30
18
0C
18
30
60
ENDCHAR
STARTCHAR U+236A
ENCODING 9066
SWIDTH 960 0
DWIDTH 8 0
BBX 4 6 2 -2
BITMAP
F0
00
60
60
20
40
ENDCHAR
STARTCHAR U+236B
ENCODING 9067
SWIDTH 960 0
DWIDTH 8 0
BBX 8 10 0 0
BITMAP
3B
6E
00
FF
62
62
34
34
18
18
ENDCHAR
STARTCHAR U+236C
ENCODING 9068
SWIDTH 960 0
DWIDTH 8 0
BBX 8 7 0 0
BITMAP
3C
66
77
EE
66
66
3C
ENDCHAR
STARTCHAR U+236D
ENCODING 9069
SWIDTH 960 0
DWIDTH 8 0
BBX 8 9 0 -1
BITMAP
18
18
18
7B
DE
18
18
18
18
ENDCHAR
STARTCHAR U+236E
ENCODING 9070
SWIDTH 960 0
DWIDTH 8 0
BBX 4 8 2 -2
BITMAP
60
60
00
00
60
60
20
F0
ENDCHAR
STARTCHAR U+236F
ENCODING 9071
SWIDTH 960 0
DWIDTH 8 0
BBX 8 11 0 -2
BITMAP
FF
C3
C3
CF
FF
DB
DB
FF
F3
C3
FF
ENDCHAR
STARTCHAR U+2370
ENCODING 9072
SWIDTH 960 0
DWIDTH 8 0
BBX 8 11 0 -2
BITMAP
FF
C3
BD
66
8D
DB
C3
DB
DB
C3
FF
ENDCHAR
STARTCHAR U+2371
ENCODING 9073
SWIDTH 960 0
DWIDTH 8 0
BBX 7 9 1 0
BITMAP
76
DC
00
C4
C4
68
68
30
30
ENDCHAR
STARTCHAR U+2372
ENCODING 9074
SWIDTH 960 0
DWIDTH 8 0
BBX 7 9 1 0
BITMAP
76
DC
00
30
30
68
68
C4
C4
ENDCHAR
STARTCHAR U+2373
ENCODING 9075
SWIDTH 960 0
DWIDTH 8 0
BBX 6 5 1 0
BITMAP
F0
30
30
30
1C
ENDCHAR
STARTCHAR U+2374
ENCODING 9076
SWIDTH 960 0
DWIDTH 8 0
BBX 6 7 1 -2
BITMAP
78
CC
CC
CC
D8
C0
C0
ENDCHAR
STARTCHAR U+2375
ENCODING 9077
SWIDTH 960 0
DWIDTH 8 0
BBX 7 5 1 0
BITMAP
6C
C6
D6
D6
6C
ENDCHAR
STARTCHAR U+2376
ENCODING 9078
SWIDTH 960 0
DWIDTH 8 0
BBX 6 7 1 -2
BITMAP
6C
D8
D8
D8
6C
00
FC
ENDCHAR
STARTCHAR U+2377
ENCODING 9079
SWIDTH 960 0
DWIDTH 8 0
BBX 6 7 1 -1
BITMAP
7C
C0
FC
C0
7C
00
FC
ENDCHAR
STARTCHAR U+2378
ENCODING 9080
SWIDTH 960 0
DWIDTH 8 0
BBX 6 7 1 -2
BITMAP
F0
30
30
30
1C
00
FC
ENDCHAR
STARTCHAR U+2379
ENCODING 9081
SWIDTH 960 0
DWIDTH 8 0
BBX 7 7 1 -2
BITMAP
6C
C6
D6
D6
6C
00
FE
ENDCHAR
STARTCHAR U+237A
ENCODING 9082
SWIDTH 960 0
DWIDTH 8 0
BBX 6 5 1 0
BITMAP
6C
D8
D8
D8
6C
ENDCHAR
STARTCHAR U+2385
ENCODING 9093
SWIDTH 960 0
DWIDTH 8 0
BBX 8 9 0 -1
BITMAP
08
EF
CB
CB
CB
CB
CB
EF
08
ENDCHAR
STARTCHAR U+2389
ENCODING 9097
SWIDTH 960 0
DWIDTH 8 0
BBX 8 7 0 0
BITMAP
3C
42
81
E7
99
42
3C
ENDCHAR
STARTCHAR U+238A
ENCODING 9098
SWIDTH 960 0
DWIDTH 8 0
BBX 8 8 0 0
BITMAP
3C
42
FF
A5
A5
99
5A
3C
ENDCHAR
STARTCHAR U+2395
ENCODING 9109
SWIDTH 960 0
DWIDTH 8 0
BBX 8 11 0 -2
BITMAP
FF
C3
C3
C3
C3
C3
C3
C3
C3
C3
FF
ENDCHAR
STARTCHAR U+23B8
ENCODING 9144
SWIDTH 960 0
DWIDTH 8 0
BBX 1 12 0 -2
BITMAP
80
80
80
80
80
80
80
80
80
80
80
80
ENDCHAR
STARTCHAR U+23B9
ENCODING 9145
SWIDTH 960 0
DWIDTH 8 0
BBX 1 12 7 -2
BITMAP
80
80
80
80
80
80
80
80
80
80
80
80
ENDCHAR
STARTCHAR U+24B6
ENCODING 9398
SWIDTH 960 0
DWIDTH 8 0
BBX 8 9 0 -2
BITMAP
08
14
26
7E
66
66
66
00
FF
ENDCHAR
STARTCHAR U+24B7
ENCODING 9399
SWIDTH 960 0
DWIDTH 8 0
BBX 8 9 0 -2
BITMAP
7C
66
66
6C
66
66
6C
00
FF
ENDCHAR
STARTCHAR U+24B8
ENCODING 9400
SWIDTH 960 0
DWIDTH 8 0
BBX 8 9 0 -2
BITMAP
3C
66
60
60
60
66
3C
00
FF
ENDCHAR
STARTCHAR U+24B9
ENCODING 9401
SWIDTH 960 0
DWIDTH 8 0
BBX 8 9 0 -2
BITMAP
78
64
66
66
66
64
78
00
FF
ENDCHAR
STARTCHAR U+24BA
ENCODING 9402
SWIDTH 960 0
DWIDTH 8 0
BBX 8 9 0 -2
BITMAP
7E
62
60
78
60
62
7E
00
FF
ENDCHAR
STARTCHAR U+24BB
ENCODING 9403
SWIDTH 960 0
DWIDTH 8 0
BBX 8 9 0 -2
BITMAP
7E
62
60
78
60
60
60
00
FF
ENDCHAR
STARTCHAR U+24BC
ENCODING 9404
SWIDTH 960 0
DWIDTH 8 0
BBX 8 9 0 -2
BITMAP
3C
66
60
6E
66
66
36
00
FF
ENDCHAR
STARTCHAR U+24BD
ENCODING 9405
SWIDTH 960 0
DWIDTH 8 0
BBX 8 9 0 -2
BITMAP
66
66
66
7E
66
66
66
00
FF
ENDCHAR
STARTCHAR U+24BE
ENCODING 9406
SWIDTH 960 0
DWIDTH 8 0
BBX 8 9 0 -2
BITMAP
7E
18
18
18
18
18
7E
00
FF
ENDCHAR
STARTCHAR U+24BF
ENCODING 9407
SWIDTH 960 0
DWIDTH 8 0
BBX 8 9 0 -2
BITMAP
3E
0C
0C
0C
0C
6C
38
00
FF
ENDCHAR
STARTCHAR U+24C0
ENCODING 9408
SWIDTH 960 0
DWIDTH 8 0
BBX 8 9 0 -2
BITMAP
66
66
64
68
74
66
66
00
FF
ENDCHAR
STARTCHAR U+24C1
ENCODING 9409
SWIDTH 960 0
DWIDTH 8 0
BBX 8 9 0 -2
BITMAP
60
60
60
60
60
62
7E
00
FF
ENDCHAR
STARTCHAR U+24C2
ENCODING 9410
SWIDTH 960 0
DWIDTH 8 0
BBX 8 9 0 -2
BITMAP
41
63
77
6B
63
63
63
00
FF
ENDCHAR
STARTCHAR U+24C3
ENCODING 9411
SWIDTH 960 0
DWIDTH 8 0
BBX 8 9 0 -2
BITMAP
46
66
76
6E
66
66
66
00
FF
ENDCHAR
STARTCHAR U+24C4
ENCODING 9412
SWIDTH 960 0
DWIDTH 8 0
BBX 8 9 0 -2
BITMAP
3C
66
66
66
66
66
3C
00
FF
ENDCHAR
STARTCHAR U+24C5
ENCODING 9413
SWIDTH 960 0
DWIDTH 8 0
BBX 8 9 0 -2
BITMAP
7C
66
66
6C
60
60
60
00
FF
ENDCHAR
STARTCHAR U+24C6
ENCODING 9414
SWIDTH 960 0
DWIDTH 8 0
BBX 8 9 0 -2
BITMAP
3C
66
66
66
64
68
36
00
FF
ENDCHAR
STARTCHAR U+24C7
ENCODING 9415
SWIDTH 960 0
DWIDTH 8 0
BBX 8 9 0 -2
BITMAP
7C
66
66
6C
64
66
66
00
FF
ENDCHAR
STARTCHAR U+24C8
ENCODING 9416
SWIDTH 960 0
DWIDTH 8 0
BBX 8 9 0 -2
BITMAP
3C
66
60
3C
06
66
3C
00
FF
ENDCHAR
STARTCHAR U+24C9
ENCODING 9417
SWIDTH 960 0
DWIDTH 8 0
BBX 8 9 0 -2
BITMAP
7E
18
18
18
18
18
18
00
FF
ENDCHAR
STARTCHAR U+24CA
ENCODING 9418
SWIDTH 960 0
DWIDTH 8 0
BBX 8 9 0 -2
BITMAP
66
66
66
66
66
66
3C
00
FF
ENDCHAR
STARTCHAR U+24CB
ENCODING 9419
SWIDTH 960 0
DWIDTH 8 0
BBX 8 9 0 -2
BITMAP
66
66
66
66
64
28
10
00
FF
ENDCHAR
STARTCHAR U+24CC
ENCODING 9420
SWIDTH 960 0
DWIDTH 8 0
BBX 8 9 0 -2
BITMAP
63
63
6B
6B
6B
6B
36
00
FF
ENDCHAR
STARTCHAR U+24CD
ENCODING 9421
SWIDTH 960 0
DWIDTH 8 0
BBX 8 9 0 -2
BITMAP
66
66
24
18
24
66
66
00
FF
ENDCHAR
STARTCHAR U+24CE
ENCODING 9422
SWIDTH 960 0
DWIDTH 8 0
BBX 8 9 0 -2
BITMAP
66
66
24
18
18
18
18
00
FF
ENDCHAR
STARTCHAR U+24CF
ENCODING 9423
SWIDTH 960 0
DWIDTH 8 0
BBX 8 9 0 -2
BITMAP
7E
46
0C
18
30
62
7E
00
FF
ENDCHAR
STARTCHAR U+24D0
ENCODING 9424
SWIDTH 960 0
DWIDTH 8 0
BBX 8 7 0 -2
BITMAP
3C
06
3E
66
36
00
FF
ENDCHAR
STARTCHAR U+24D1
ENCODING 9425
SWIDTH 960 0
DWIDTH 8 0
BBX 8 9 0 -2
BITMAP
60
60
6C
76
66
66
6C
00
FF
ENDCHAR
STARTCHAR U+24D2
ENCODING 9426
SWIDTH 960 0
DWIDTH 8 0
BBX 8 7 0 -2
BITMAP
3C
64
60
66
3C
00
FF
ENDCHAR
STARTCHAR U+24D3
ENCODING 9427
SWIDTH 960 0
DWIDTH 8 0
BBX 8 9 0 -2
BITMAP
06
06
36
6E
66
66
36
00
FF
ENDCHAR
STARTCHAR U+24D4
ENCODING 9428
SWIDTH 960 0
DWIDTH 8 0
BBX 8 7 0 -2
BITMAP
3C
66
7E
60
3C
00
FF
ENDCHAR
STARTCHAR U+24D5
ENCODING 9429
SWIDTH 960 0
DWIDTH 8 0
BBX 8 9 0 -2
BITMAP
0E
18
7E
18
18
18
18
00
FF
ENDCHAR
STARTCHAR U+24D6
ENCODING 9430
SWIDTH 960 0
DWIDTH 8 0
BBX 8 8 0 -2
BITMAP
06
3C
66
3C
60
3C
06
FF
ENDCHAR
STARTCHAR U+24D7
ENCODING 9431
SWIDTH 960 0
DWIDTH 8 0
BBX 8 9 0 -2
BITMAP
60
60
6C
76
66
66
66
00
FF
ENDCHAR
STARTCHAR U+24D8
ENCODING 9432
SWIDTH 960 0
DWIDTH 8 0
BBX 8 10 0 -2
BITMAP
18
18
00
78
18
18
18
0E
00
FF
ENDCHAR
STARTCHAR U+24D9
ENCODING 9433
SWIDTH 960 0
DWIDTH 8 0
BBX 8 10 0 -2
BITMAP
0C
0C
00
3C
0C
0C
0C
0C
6C
FF
ENDCHAR
STARTCHAR U+24DA
ENCODING 9434
SWIDTH 960 0
DWIDTH 8 0
BBX 8 9 0 -2
BITMAP
60
60
66
66
6C
76
66
00
FF
ENDCHAR
STARTCHAR U+24DB
ENCODING 9435
SWIDTH 960 0
DWIDTH 8 0
BBX 8 9 0 -2
BITMAP
78
18
18
18
18
18
0E
00
FF
ENDCHAR
STARTCHAR U+24DC
ENCODING 9436
SWIDTH 960 0
DWIDTH 8 0
BBX 8 7 0 -2
BITMAP
74
6A
6A
6A
6A
00
FF
ENDCHAR
STARTCHAR U+24DD
ENCODING 9437
SWIDTH 960 0
DWIDTH 8 0
BBX 8 7 0 -2
BITMAP
6C
76
66
66
66
00
FF
ENDCHAR
STARTCHAR U+24DE
ENCODING 9438
SWIDTH 960 0
DWIDTH 8 0
BBX 8 7 0 -2
BITMAP
3C
66
66
66
3C
00
FF
ENDCHAR
STARTCHAR U+24DF
ENCODING 9439
SWIDTH 960 0
DWIDTH 8 0
BBX 8 7 0 -2
BITMAP
6C
76
66
66
6C
60
FF
ENDCHAR
STARTCHAR U+24E0
ENCODING 9440
SWIDTH 960 0
DWIDTH 8 0
BBX 8 7 0 -2
BITMAP
36
6E
66
66
36
06
FF
ENDCHAR
STARTCHAR U+24E1
ENCODING 9441
SWIDTH 960 0
DWIDTH 8 0
BBX 8 7 0 -2
BITMAP
76
38
30
30
30
00
FF
ENDCHAR
STARTCHAR U+24E2
ENCODING 9442
SWIDTH 960 0
DWIDTH 8 0
BBX 8 7 0 -2
BITMAP
3C
60
3C
06
3C
00
FF
ENDCHAR
STARTCHAR U+24E3
ENCODING 9443
SWIDTH 960 0
DWIDTH 8 0
BBX 8 9 0 -2
BITMAP
18
18
7E
18
18
18
0E
00
FF
ENDCHAR
STARTCHAR U+24E4
ENCODING 9444
SWIDTH 960 0
DWIDTH 8 0
BBX 8 7 0 -2
BITMAP
66
66
66
6E
36
00
FF
ENDCHAR
STARTCHAR U+24E5
ENCODING 9445
SWIDTH 960 0
DWIDTH 8 0
BBX 8 7 0 -2
BITMAP
66
66
64
28
10
00
FF
ENDCHAR
STARTCHAR U+24E6
ENCODING 9446
SWIDTH 960 0
DWIDTH 8 0
BBX 8 7 0 -2
BITMAP
6A
6A
6A
6A
34
00
FF
ENDCHAR
STARTCHAR U+24E7
ENCODING 9447
SWIDTH 960 0
DWIDTH 8 0
BBX 8 7 0 -2
BITMAP
66
66
3C
66
66
00
FF
ENDCHAR
STARTCHAR U+24E8
ENCODING 9448
SWIDTH 960 0
DWIDTH 8 0
BBX 8 7 0 -2
BITMAP
66
66
66
6E
36
06
FF
ENDCHAR
STARTCHAR U+24E9
ENCODING 9449
SWIDTH 960 0
DWIDTH 8 0
BBX 8 7 0 -2
BITMAP
7E
4C
18
32
7E
00
FF
ENDCHAR
STARTCHAR U+2500
ENCODING 9472
SWIDTH 960 0
DWIDTH 8 0
BBX 8 1 0 3
BITMAP
FF
ENDCHAR
STARTCHAR U+2501
ENCODING 9473
SWIDTH 960 0
DWIDTH 8 0
BBX 8 2 0 3
BITMAP
FF
FF
ENDCHAR
STARTCHAR U+2502
ENCODING 9474
SWIDTH 960 0
DWIDTH 8 0
BBX 1 12 4 -2
BITMAP
80
80
80
80
80
80
80
80
80
80
80
80
ENDCHAR
STARTCHAR U+2503
ENCODING 9475
SWIDTH 960 0
DWIDTH 8 0
BBX 2 12 3 -2
BITMAP
C0
C0
C0
C0
C0
C0
C0
C0
C0
C0
C0
C0
ENDCHAR
STARTCHAR U+2504
ENCODING 9476
SWIDTH 960 0
DWIDTH 8 0
BBX 8 1 0 3
BITMAP
DB
ENDCHAR
STARTCHAR U+2505
ENCODING 9477
SWIDTH 960 0
DWIDTH 8 0
BBX 8 2 0 3
BITMAP
DB
DB
ENDCHAR
STARTCHAR U+2506
ENCODING 9478
SWIDTH 960 0
DWIDTH 8 0
BBX 1 11 4 -2
BITMAP
80
80
80
00
80
80
80
00
80
80
80
ENDCHAR
STARTCHAR U+2507
ENCODING 9479
SWIDTH 960 0
DWIDTH 8 0
BBX 2 11 3 -2
BITMAP
C0
C0
C0
00
C0
C0
C0
00
C0
C0
C0
ENDCHAR
STARTCHAR U+2508
ENCODING 9480
SWIDTH 960 0
DWIDTH 8 0
BBX 7 1 1 3
BITMAP
AA
ENDCHAR
STARTCHAR U+2509
ENCODING 9481
SWIDTH 960 0
DWIDTH 8 0
BBX 7 2 1 2
BITMAP
AA
AA
ENDCHAR
STARTCHAR U+250A
ENCODING 9482
SWIDTH 960 0
DWIDTH 8 0
BBX 1 11 4 -2
BITMAP
80
80
00
80
80
00
80
80
00
80
80
ENDCHAR
STARTCHAR U+250B
ENCODING 9483
SWIDTH 960 0
DWIDTH 8 0
BBX 2 11 3 -2
BITMAP
C0
C0
00
C0
C0
00
C0
C0
00
C0
C0
ENDCHAR
STARTCHAR U+250C
ENCODING 9484
SWIDTH 960 0
DWIDTH 8 0
BBX 4 6 4 -2
BITMAP
F0
80
80
80
80
80
ENDCHAR
STARTCHAR U+250D
ENCODING 9485
SWIDTH 960 0
DWIDTH 8 0
BBX 4 7 4 -2
BITMAP
F0
F0
80
80
80
80
80
ENDCHAR
STARTCHAR U+250E
ENCODING 9486
SWIDTH 960 0
DWIDTH 8 0
BBX 5 6 3 -2
BITMAP
F8
C0
C0
C0
C0
C0
ENDCHAR
STARTCHAR U+250F
ENCODING 9487
SWIDTH 960 0
DWIDTH 8 0
BBX 5 7 3 -2
BITMAP
F8
F8
C0
C0
C0
C0
C0
ENDCHAR
STARTCHAR U+2510
ENCODING 9488
SWIDTH 960 0
DWIDTH 8 0
BBX 5 6 0 -2
BITMAP
F8
08
08
08
08
08
ENDCHAR
STARTCHAR U+2511
ENCODING 9489
SWIDTH 960 0
DWIDTH 8 0
BBX 5 7 0 -2
BITMAP
F8
F8
08
08
08
08
08
ENDCHAR
STARTCHAR U+2512
ENCODING 9490
SWIDTH 960 0
DWIDTH 8 0
BBX 5 6 0 -2
BITMAP
F8
18
18
18
18
18
ENDCHAR
STARTCHAR U+2513
ENCODING 9491
SWIDTH 960 0
DWIDTH 8 0
BBX 5 7 0 -2
BITMAP
F8
F8
18
18
18
18
18
ENDCHAR
STARTCHAR U+2514
ENCODING 9492
SWIDTH 960 0
DWIDTH 8 0
BBX 4 7 4 3
BITMAP
80
80
80
80
80
80
F0
ENDCHAR
STARTCHAR U+2515
ENCODING 9493
SWIDTH 960 0
DWIDTH 8 0
BBX 4 7 4 3
BITMAP
80
80
80
80
80
F0
F0
ENDCHAR
STARTCHAR U+2516
ENCODING 9494
SWIDTH 960 0
DWIDTH 8 0
BBX 5 7 3 3
BITMAP
C0
C0
C0
C0
C0
C0
F8
ENDCHAR
STARTCHAR U+2517
ENCODING 9495
SWIDTH 960 0
DWIDTH 8 0
BBX 5 7 3 3
BITMAP
C0
C0
C0
C0
C0
F8
F8
ENDCHAR
STARTCHAR U+2518
ENCODING 9496
SWIDTH 960 0
DWIDTH 8 0
BBX 5 7 0 3
BITMAP
08
08
08
08
08
08
F8
ENDCHAR
STARTCHAR U+2519
ENCODING 9497
SWIDTH 960 0
DWIDTH 8 0
BBX 5 7 0 3
BITMAP
08
08
08
08
08
F8
F8
ENDCHAR
STARTCHAR U+251A
ENCODING 9498
SWIDTH 960 0
DWIDTH 8 0
BBX 5 7 0 3
BITMAP
18
18
18
18
18
18
F8
ENDCHAR
STARTCHAR U+251B
ENCODING 9499
SWIDTH 960 0
DWIDTH 8 0
BBX 5 7 0 3
BITMAP
18
18
18
18
18
F8
F8
ENDCHAR
STARTCHAR U+251C
ENCODING 9500
SWIDTH 960 0
DWIDTH 8 0
BBX 4 12 4 -2
BITMAP
80
80
80
80
80
80
F0
80
80
80
80
80
ENDCHAR
STARTCHAR U+251D
ENCODING 9501
SWIDTH 960 0
DWIDTH 8 0
BBX 4 12 4 -2
BITMAP
80
80
80
80
80
F0
F0
80
80
80
80
80
ENDCHAR
STARTCHAR U+251E
ENCODING 9502
SWIDTH 960 0
DWIDTH 8 0
BBX 5 12 3 -2
BITMAP
C0
C0
C0
C0
C0
C0
F8
40
40
40
40
40
ENDCHAR
STARTCHAR U+251F
ENCODING 9503
SWIDTH 960 0
DWIDTH 8 0
BBX 5 12 3 -2
BITMAP
40
40
40
40
40
40
F8
C0
C0
C0
C0
C0
ENDCHAR
STARTCHAR U+2520
ENCODING 9504
SWIDTH 960 0
DWIDTH 8 0
BBX 5 12 3 -2
BITMAP
C0
C0
C0
C0
C0
C0
F8
C0
C0
C0
C0
C0
ENDCHAR
STARTCHAR U+2521
ENCODING 9505
SWIDTH 960 0
DWIDTH 8 0
BBX 5 12 3 -2
BITMAP
C0
C0
C0
C0
C0
F8
F8
40
40
40
40
40
ENDCHAR
STARTCHAR U+2522
ENCODING 9506
SWIDTH 960 0
DWIDTH 8 0
BBX 5 12 3 -2
BITMAP
40
40
40
40
40
F8
F8
C0
C0
C0
C0
C0
ENDCHAR
STARTCHAR U+2523
ENCODING 9507
SWIDTH 960 0
DWIDTH 8 0
BBX 5 12 3 -2
BITMAP
C0
C0
C0
C0
C0
F8
F8
C0
C0
C0
C0
C0
ENDCHAR
STARTCHAR U+2524
ENCODING 9508
SWIDTH 960 0
DWIDTH 8 0
BBX 5 12 0 -2
BITMAP
08
08
08
08
08
08
F8
08
08
08
08
08
ENDCHAR
STARTCHAR U+2525
ENCODING 9509
SWIDTH 960 0
DWIDTH 8 0
BBX 5 12 0 -2
BITMAP
08
08
08
08
08
F8
F8
08
08
08
08
08
ENDCHAR
STARTCHAR U+2526
ENCODING 9510
SWIDTH 960 0
DWIDTH 8 0
BBX 5 12 0 -2
BITMAP
18
18
18
18
18
18
F8
08
08
08
08
08
ENDCHAR
STARTCHAR U+2527
ENCODING 9511
SWIDTH 960 0
DWIDTH 8 0
BBX 5 12 0 -2
BITMAP
08
08
08
08
08
08
F8
18
18
18
18
18
ENDCHAR
STARTCHAR U+2528
ENCODING 9512
SWIDTH 960 0
DWIDTH 8 0
BBX 5 12 0 -2
BITMAP
18
18
18
18
18
18
F8
18
18
18
18
18
ENDCHAR
STARTCHAR U+2529
ENCODING 9513
SWIDTH 960 0
DWIDTH 8 0
BBX 5 12 0 -2
BITMAP
18
18
18
18
18
F8
F8
08
08
08
08
08
ENDCHAR
STARTCHAR U+252A
ENCODING 9514
SWIDTH 960 0
DWIDTH 8 0
BBX 5 12 0 -2
BITMAP
08
08
08
08
08
F8
F8
18
18
18
18
18
ENDCHAR
STARTCHAR U+252B
ENCODING 9515
SWIDTH 960 0
DWIDTH 8 0
BBX 5 12 0 -2
BITMAP
18
18
18
18
18
F8
F8
18
18
18
18
18
ENDCHAR
STARTCHAR U+252C
ENCODING 9516
SWIDTH 960 0
DWIDTH 8 0
BBX 8 6 0 -2
BITMAP
FF
08
08
08
08
08
ENDCHAR
STARTCHAR U+252D
ENCODING 9517
SWIDTH 960 0
DWIDTH 8 0
BBX 8 7 0 -2
BITMAP
F8
FF
08
08
08
08
08
ENDCHAR
STARTCHAR U+252E
ENCODING 9518
SWIDTH 960 0
DWIDTH 8 0
BBX 8 7 0 -2
BITMAP
0F
FF
08
08
08
08
08
ENDCHAR
STARTCHAR U+252F
ENCODING 9519
SWIDTH 960 0
DWIDTH 8 0
BBX 8 7 0 -2
BITMAP
FF
FF
08
08
08
08
08
ENDCHAR
STARTCHAR U+2530
ENCODING 9520
SWIDTH 960 0
DWIDTH 8 0
BBX 8 6 0 -2
BITMAP
FF
18
18
18
18
18
ENDCHAR
STARTCHAR U+2531
ENCODING 9521
SWIDTH 960 0
DWIDTH 8 0
BBX 8 7 0 -2
BITMAP
F8
FF
18
18
18
18
18
ENDCHAR
STARTCHAR U+2532
ENCODING 9522
SWIDTH 960 0
DWIDTH 8 0
BBX 8 7 0 -2
BITMAP
1F
FF
18
18
18
18
18
ENDCHAR
STARTCHAR U+2533
ENCODING 9523
SWIDTH 960 0
DWIDTH 8 0
BBX 8 7 0 -2
BITMAP
FF
FF
18
18
18
18
18
ENDCHAR
STARTCHAR U+2534
ENCODING 9524
SWIDTH 960 0
DWIDTH 8 0
BBX 8 7 0 3
BITMAP
08
08
08
08
08
08
FF
ENDCHAR
STARTCHAR U+2535
ENCODING 9525
SWIDTH 960 0
DWIDTH 8 0
BBX 8 7 0 3
BITMAP
08
08
08
08
08
F8
FF
ENDCHAR
STARTCHAR U+2536
ENCODING 9526
SWIDTH 960 0
DWIDTH 8 0
BBX 8 7 0 3
BITMAP
08
08
08
08
08
0F
FF
ENDCHAR
STARTCHAR U+2537
ENCODING 9527
SWIDTH 960 0
DWIDTH 8 0
BBX 8 7 0 3
BITMAP
08
08
08
08
08
FF
FF
ENDCHAR
STARTCHAR U+2538
ENCODING 9528
SWIDTH 960 0
DWIDTH 8 0
BBX 8 7 0 3
BITMAP
18
18
18
18
18
18
FF
ENDCHAR
STARTCHAR U+2539
ENCODING 9529
SWIDTH 960 0
DWIDTH 8 0
BBX 8 7 0 3
BITMAP
18
18
18
18
18
F8
FF
ENDCHAR
STARTCHAR U+253A
ENCODING 9530
SWIDTH 960 0
DWIDTH 8 0
BBX 8 7 0 3
BITMAP
18
18
18
18
18
1F
FF
ENDCHAR
STARTCHAR U+253B
ENCODING 9531
SWIDTH 960 0
DWIDTH 8 0
BBX 8 7 0 3
BITMAP
18
18
18
18
18
FF
FF
ENDCHAR
STARTCHAR U+253C
ENCODING 9532
SWIDTH 960 0
DWIDTH 8 0
BBX 8 12 0 -2
BITMAP
08
08
08
08
08
08
FF
08
08
08
08
08
ENDCHAR
STARTCHAR U+253D
ENCODING 9533
SWIDTH 960 0
DWIDTH 8 0
BBX 8 12 0 -2
BITMAP
08
08
08
08
08
F8
FF
08
08
08
08
08
ENDCHAR
STARTCHAR U+253E
ENCODING 9534
SWIDTH 960 0
DWIDTH 8 0
BBX 8 12 0 -2
BITMAP
08
08
08
08
08
0F
FF
08
08
08
08
08
ENDCHAR
STARTCHAR U+253F
ENCODING 9535
SWIDTH 960 0
DWIDTH 8 0
BBX 8 12 0 -2
BITMAP
08
08
08
08
08
FF
FF
08
08
08
08
08
ENDCHAR
STARTCHAR U+2540
ENCODING 9536
SWIDTH 960 0
DWIDTH 8 0
BBX 8 12 0 -2
BITMAP
18
18
18
18
18
18
FF
08
08
08
08
08
ENDCHAR
STARTCHAR U+2541
ENCODING 9537
SWIDTH 960 0
DWIDTH 8 0
BBX 8 12 0 -2
BITMAP
08
08
08
08
08
08
FF
18
18
18
18
18
ENDCHAR
STARTCHAR U+2542
ENCODING 9538
SWIDTH 960 0
DWIDTH 8 0
BBX 8 12 0 -2
BITMAP
18
18
18
18
18
18
FF
18
18
18
18
18
ENDCHAR
STARTCHAR U+2543
ENCODING 9539
SWIDTH 960 0
DWIDTH 8 0
BBX 8 12 0 -2
BITMAP
18
18
18
18
18
F8
FF
08
08
08
08
08
ENDCHAR
STARTCHAR U+2544
ENCODING 9540
SWIDTH 960 0
DWIDTH 8 0
BBX 8 12 0 -2
BITMAP
18
18
18
18
18
1F
FF
08
08
08
08
08
ENDCHAR
STARTCHAR U+2545
ENCODING 9541
SWIDTH 960 0
DWIDTH 8 0
BBX 8 12 0 -2
BITMAP
08
08
08
08
08
F8
FF
18
18
18
18
18
ENDCHAR
STARTCHAR U+2546
ENCODING 9542
SWIDTH 960 0
DWIDTH 8 0
BBX 8 12 0 -2
BITMAP
08
08
08
08
08
0F
FF
18
18
18
18
18
ENDCHAR
STARTCHAR U+2547
ENCODING 9543
SWIDTH 960 0
DWIDTH 8 0
BBX 8 12 0 -2
BITMAP
18
18
18
18
18
FF
FF
08
08
08
08
08
ENDCHAR
STARTCHAR U+2548
ENCODING 9544
SWIDTH 960 0
DWIDTH 8 0
BBX 8 12 0 -2
BITMAP
08
08
08
08
08
FF
FF
18
18
18
18
18
ENDCHAR
STARTCHAR U+2549
ENCODING 9545
SWIDTH 960 0
DWIDTH 8 0
BBX 8 12 0 -2
BITMAP
18
18
18
18
18
F8
FF
18
18
18
18
18
ENDCHAR
STARTCHAR U+254A
ENCODING 9546
SWIDTH 960 0
DWIDTH 8 0
BBX 8 12 0 -2
BITMAP
18
18
18
18
18
1F
FF
18
18
18
18
18
ENDCHAR
STARTCHAR U+254B
ENCODING 9547
SWIDTH 960 0
DWIDTH 8 0
BBX 8 12 0 -2
BITMAP
18
18
18
18
18
FF
FF
18
18
18
18
18
ENDCHAR
STARTCHAR U+254C
ENCODING 9548
SWIDTH 960 0
DWIDTH 8 0
BBX 7 1 1 3
BITMAP
EE
ENDCHAR
STARTCHAR U+254D
ENCODING 9549
SWIDTH 960 0
DWIDTH 8 0
BBX 7 2 1 3
BITMAP
EE
EE
ENDCHAR
STARTCHAR U+254E
ENCODING 9550
SWIDTH 960 0
DWIDTH 8 0
BBX 1 10 4 -1
BITMAP
80
80
80
80
00
00
80
80
80
80
ENDCHAR
STARTCHAR U+254F
ENCODING 9551
SWIDTH 960 0
DWIDTH 8 0
BBX 2 10 3 -1
BITMAP
C0
C0
C0
C0
00
00
C0
C0
C0
C0
ENDCHAR
STARTCHAR U+2550
ENCODING 9552
SWIDTH 960 0
DWIDTH 8 0
BBX 8 3 0 2
BITMAP
FF
00
FF
ENDCHAR
STARTCHAR U+2551
ENCODING 9553
SWIDTH 960 0
DWIDTH 8 0
BBX 3 12 3 -2
BITMAP
A0
A0
A0
A0
A0
A0
A0
A0
A0
A0
A0
A0
ENDCHAR
STARTCHAR U+2552
ENCODING 9554
SWIDTH 960 0
DWIDTH 8 0
BBX 4 7 4 -2
BITMAP
F0
80
F0
80
80
80
80
ENDCHAR
STARTCHAR U+2553
ENCODING 9555
SWIDTH 960 0
DWIDTH 8 0
BBX 5 6 3 -2
BITMAP
F8
A0
A0
A0
A0
A0
ENDCHAR
STARTCHAR U+2554
ENCODING 9556
SWIDTH 960 0
DWIDTH 8 0
BBX 5 7 3 -2
BITMAP
F8
80
B8
A0
A0
A0
A0
ENDCHAR
STARTCHAR U+2555
ENCODING 9557
SWIDTH 960 0
DWIDTH 8 0
BBX 5 7 0 -2
BITMAP
F8
08
F8
08
08
08
08
ENDCHAR
STARTCHAR U+2556
ENCODING 9558
SWIDTH 960 0
DWIDTH 8 0
BBX 6 6 0 -2
BITMAP
FC
14
14
14
14
14
ENDCHAR
STARTCHAR U+2557
ENCODING 9559
SWIDTH 960 0
DWIDTH 8 0
BBX 6 7 0 -2
BITMAP
FC
04
F4
14
14
14
14
ENDCHAR
STARTCHAR U+2558
ENCODING 9560
SWIDTH 960 0
DWIDTH 8 0
BBX 4 8 4 2
BITMAP
80
80
80
80
80
F0
80
F0
ENDCHAR
STARTCHAR U+2559
ENCODING 9561
SWIDTH 960 0
DWIDTH 8 0
BBX 5 7 3 3
BITMAP
A0
A0
A0
A0
A0
A0
F8
ENDCHAR
STARTCHAR U+255A
ENCODING 9562
SWIDTH 960 0
DWIDTH 8 0
BBX 5 8 3 2
BITMAP
A0
A0
A0
A0
A0
B8
80
F8
ENDCHAR
STARTCHAR U+255B
ENCODING 9563
SWIDTH 960 0
DWIDTH 8 0
BBX 5 8 0 2
BITMAP
08
08
08
08
08
F8
08
F8
ENDCHAR
STARTCHAR U+255C
ENCODING 9564
SWIDTH 960 0
DWIDTH 8 0
BBX 6 7 0 3
BITMAP
14
14
14
14
14
14
FC
ENDCHAR
STARTCHAR U+255D
ENCODING 9565
SWIDTH 960 0
DWIDTH 8 0
BBX 6 8 0 2
BITMAP
14
14
14
14
14
F4
04
FC
ENDCHAR
STARTCHAR U+255E
ENCODING 9566
SWIDTH 960 0
DWIDTH 8 0
BBX 4 12 4 -2
BITMAP
80
80
80
80
80
F0
80
F0
80
80
80
80
ENDCHAR
STARTCHAR U+255F
ENCODING 9567
SWIDTH 960 0
DWIDTH 8 0
BBX 5 12 3 -2
BITMAP
A0
A0
A0
A0
A0
A0
B8
A0
A0
A0
A0
A0
ENDCHAR
STARTCHAR U+2560
ENCODING 9568
SWIDTH 960 0
DWIDTH 8 0
BBX 5 12 3 -2
BITMAP
A0
A0
A0
A0
A0
B8
80
B8
A0
A0
A0
A0
ENDCHAR
STARTCHAR U+2561
ENCODING 9569
SWIDTH 960 0
DWIDTH 8 0
BBX 5 12 0 -2
BITMAP
08
08
08
08
08
F8
08
F8
08
08
08
08
ENDCHAR
STARTCHAR U+2562
ENCODING 9570
SWIDTH 960 0
DWIDTH 8 0
BBX 6 12 0 -2
BITMAP
14
14
14
14
14
14
F4
14
14
14
14
14
ENDCHAR
STARTCHAR U+2563
ENCODING 9571
SWIDTH 960 0
DWIDTH 8 0
BBX 6 12 0 -2
BITMAP
14
14
14
14
14
F4
04
F4
14
14
14
14
ENDCHAR
STARTCHAR U+2564
ENCODING 9572
SWIDTH 960 0
DWIDTH 8 0
BBX 8 7 0 -2
BITMAP
FF
00
FF
08
08
08
08
ENDCHAR
STARTCHAR U+2565
ENCODING 9573
SWIDTH 960 0
DWIDTH 8 0
BBX 8 6 0 -2
BITMAP
FF
14
14
14
14
14
ENDCHAR
STARTCHAR U+2566
ENCODING 9574
SWIDTH 960 0
DWIDTH 8 0
BBX 8 7 0 -2
BITMAP
FF
00
F7
14
14
14
14
ENDCHAR
STARTCHAR U+2567
ENCODING 9575
SWIDTH 960 0
DWIDTH 8 0
BBX 8 8 0 2
BITMAP
08
08
08
08
08
FF
00
FF
ENDCHAR
STARTCHAR U+2568
ENCODING 9576
SWIDTH 960 0
DWIDTH 8 0
BBX 8 7 0 3
BITMAP
14
14
14
14
14
14
FF
ENDCHAR
STARTCHAR U+2569
ENCODING 9577
SWIDTH 960 0
DWIDTH 8 0
BBX 8 8 0 2
BITMAP
14
14
14
14
14
F7
00
FF
ENDCHAR
STARTCHAR U+256A
ENCODING 9578
SWIDTH 960 0
DWIDTH 8 0
BBX 8 12 0 -2
BITMAP
08
08
08
08
08
FF
08
FF
08
08
08
08
ENDCHAR
STARTCHAR U+256B
ENCODING 9579
SWIDTH 960 0
DWIDTH 8 0
BBX 8 12 0 -2
BITMAP
14
14
14
14
14
14
FF
14
14
14
14
14
ENDCHAR
STARTCHAR U+256C
ENCODING 9580
SWIDTH 960 0
DWIDTH 8 0
BBX 8 12 0 -2
BITMAP
14
14
14
14
14
F7
00
F7
14
14
14
14
ENDCHAR
STARTCHAR U+256D
ENCODING 9581
SWIDTH 960 0
DWIDTH 8 0
BBX 4 6 4 -2
BITMAP
30
40
80
80
80
80
ENDCHAR
STARTCHAR U+256E
ENCODING 9582
SWIDTH 960 0
DWIDTH 8 0
BBX 5 6 0 -2
BITMAP
E0
10
08
08
08
08
ENDCHAR
STARTCHAR U+256F
ENCODING 9583
SWIDTH 960 0
DWIDTH 8 0
BBX 5 7 0 3
BITMAP
08
08
08
08
08
10
E0
ENDCHAR
STARTCHAR U+2570
ENCODING 9584
SWIDTH 960 0
DWIDTH 8 0
BBX 4 7 4 3
BITMAP
80
80
80
80
80
40
30
ENDCHAR
STARTCHAR U+2571
ENCODING 9585
SWIDTH 960 0
DWIDTH 8 0
BBX 8 12 0 -2
BITMAP
01
02
02
04
08
08
10
10
20
40
40
80
ENDCHAR
STARTCHAR U+2572
ENCODING 9586
SWIDTH 960 0
DWIDTH 8 0
BBX 8 12 0 -2
BITMAP
80
40
40
20
10
10
08
08
04
02
02
01
ENDCHAR
STARTCHAR U+2573
ENCODING 9587
SWIDTH 960 0
DWIDTH 8 0
BBX 8 12 0 -2
BITMAP
81
42
42
24
24
18
18
24
24
42
42
81
ENDCHAR
STARTCHAR U+2574
ENCODING 9588
SWIDTH 960 0
DWIDTH 8 0
BBX 4 1 0 3
BITMAP
F0
ENDCHAR
STARTCHAR U+2575
ENCODING 9589
SWIDTH 960 0
DWIDTH 8 0
BBX 1 6 4 4
BITMAP
80
80
80
80
80
80
ENDCHAR
STARTCHAR U+2576
ENCODING 9590
SWIDTH 960 0
DWIDTH 8 0
BBX 4 1 4 3
BITMAP
F0
ENDCHAR
STARTCHAR U+2577
ENCODING 9591
SWIDTH 960 0
DWIDTH 8 0
BBX 1 6 4 -2
BITMAP
80
80
80
80
80
80
ENDCHAR
STARTCHAR U+2578
ENCODING 9592
SWIDTH 960 0
DWIDTH 8 0
BBX 4 2 0 3
BITMAP
F0
F0
ENDCHAR
STARTCHAR U+2579
ENCODING 9593
SWIDTH 960 0
DWIDTH 8 0
BBX 2 6 3 4
BITMAP
C0
C0
C0
C0
C0
C0
ENDCHAR
STARTCHAR U+257A
ENCODING 9594
SWIDTH 960 0
DWIDTH 8 0
BBX 4 2 4 3
BITMAP
F0
F0
ENDCHAR
STARTCHAR U+257B
ENCODING 9595
SWIDTH 960 0
DWIDTH 8 0
BBX 2 6 3 -2
BITMAP
C0
C0
C0
C0
C0
C0
ENDCHAR
STARTCHAR U+257C
ENCODING 9596
SWIDTH 960 0
DWIDTH 8 0
BBX 8 2 0 3
BITMAP
0F
FF
ENDCHAR
STARTCHAR U+257D
ENCODING 9597
SWIDTH 960 0
DWIDTH 8 0
BBX 2 12 3 -2
BITMAP
40
40
40
40
40
40
C0
C0
C0
C0
C0
C0
ENDCHAR
STARTCHAR U+257E
ENCODING 9598
SWIDTH 960 0
DWIDTH 8 0
BBX 8 2 0 3
BITMAP
F0
FF
ENDCHAR
STARTCHAR U+257F
ENCODING 9599
SWIDTH 960 0
DWIDTH 8 0
BBX 2 12 3 -2
BITMAP
C0
C0
C0
C0
C0
C0
40
40
40
40
40
40
ENDCHAR
STARTCHAR U+2580
ENCODING 9600
SWIDTH 960 0
DWIDTH 8 0
BBX 8 6 0 4
BITMAP
FF
FF
FF
FF
FF
FF
ENDCHAR
STARTCHAR U+2581
ENCODING 9601
SWIDTH 960 0
DWIDTH 8 0
BBX 8 2 0 -2
BITMAP
FF
FF
ENDCHAR
STARTCHAR U+2582
ENCODING 9602
SWIDTH 960 0
DWIDTH 8 0
BBX 8 3 0 -2
BITMAP
FF
FF
FF
ENDCHAR
STARTCHAR U+2583
ENCODING 9603
SWIDTH 960 0
DWIDTH 8 0
BBX 8 4 0 -2
BITMAP
FF
FF
FF
FF
ENDCHAR
STARTCHAR U+2584
ENCODING 9604
SWIDTH 960 0
DWIDTH 8 0
BBX 8 6 0 -2
BITMAP
FF
FF
FF
FF
FF
FF
ENDCHAR
STARTCHAR U+2585
ENCODING 9605
SWIDTH 960 0
DWIDTH 8 0
BBX 8 8 0 -2
BITMAP
FF
FF
FF
FF
FF
FF
FF
FF
ENDCHAR
STARTCHAR U+2586
ENCODING 9606
SWIDTH 960 0
DWIDTH 8 0
BBX 8 9 0 -2
BITMAP
FF
FF
FF
FF
FF
FF
FF
FF
FF
ENDCHAR
STARTCHAR U+2587
ENCODING 9607
SWIDTH 960 0
DWIDTH 8 0
BBX 8 10 0 -2
BITMAP
FF
FF
FF
FF
FF
FF
FF
FF
FF
FF
ENDCHAR
STARTCHAR U+2588
ENCODING 9608
SWIDTH 960 0
DWIDTH 8 0
BBX 8 12 0 -2
BITMAP
FF
FF
FF
FF
FF
FF
FF
FF
FF
FF
FF
FF
ENDCHAR
STARTCHAR U+2589
ENCODING 9609
SWIDTH 960 0
DWIDTH 8 0
BBX 7 12 0 -2
BITMAP
FE
FE
FE
FE
FE
FE
FE
FE
FE
FE
FE
FE
ENDCHAR
STARTCHAR U+258A
ENCODING 9610
SWIDTH 960 0
DWIDTH 8 0
BBX 6 12 0 -2
BITMAP
FC
FC
FC
FC
FC
FC
FC
FC
FC
FC
FC
FC
ENDCHAR
STARTCHAR U+258B
ENCODING 9611
SWIDTH 960 0
DWIDTH 8 0
BBX 5 12 0 -2
BITMAP
F8
F8
F8
F8
F8
F8
F8
F8
F8
F8
F8
F8
ENDCHAR
STARTCHAR U+258C
ENCODING 9612
SWIDTH 960 0
DWIDTH 8 0
BBX 4 12 0 -2
BITMAP
F0
F0
F0
F0
F0
F0
F0
F0
F0
F0
F0
F0
ENDCHAR
STARTCHAR U+258D
ENCODING 9613
SWIDTH 960 0
DWIDTH 8 0
BBX 3 12 0 -2
BITMAP
E0
E0
E0
E0
E0
E0
E0
E0
E0
E0
E0
E0
ENDCHAR
STARTCHAR U+258E
ENCODING 9614
SWIDTH 960 0
DWIDTH 8 0
BBX 2 12 0 -2
BITMAP
C0
C0
C0
C0
C0
C0
C0
C0
C0
C0
C0
C0
ENDCHAR
STARTCHAR U+258F
ENCODING 9615
SWIDTH 960 0
DWIDTH 8 0
BBX 1 12 0 -2
BITMAP
80
80
80
80
80
80
80
80
80
80
80
80
ENDCHAR
STARTCHAR U+2590
ENCODING 9616
SWIDTH 960 0
DWIDTH 8 0
BBX 4 12 4 -2
BITMAP
F0
F0
F0
F0
F0
F0
F0
F0
F0
F0
F0
F0
ENDCHAR
STARTCHAR U+2591
ENCODING 9617
SWIDTH 960 0
DWIDTH 8 0
BBX 7 12 1 -2
BITMAP
88
22
88
22
88
22
88
22
88
22
88
22
ENDCHAR
STARTCHAR U+2592
ENCODING 9618
SWIDTH 960 0
DWIDTH 8 0
BBX 8 12 0 -2
BITMAP
AA
55
AA
55
AA
55
AA
55
AA
55
AA
55
ENDCHAR
STARTCHAR U+2593
ENCODING 9619
SWIDTH 960 0
DWIDTH 8 0
BBX 8 12 0 -2
BITMAP
EE
BB
EE
BB
EE
BB
EE
BB
EE
BB
EE
BB
ENDCHAR
STARTCHAR U+2594
ENCODING 9620
SWIDTH 960 0
DWIDTH 8 0
BBX 8 2 0 8
BITMAP
FF
FF
ENDCHAR
STARTCHAR U+2595
ENCODING 9621
SWIDTH 960 0
DWIDTH 8 0
BBX 1 12 7 -2
BITMAP
80
80
80
80
80
80
80
80
80
80
80
80
ENDCHAR
STARTCHAR U+2596
ENCODING 9622
SWIDTH 960 0
DWIDTH 8 0
BBX 4 6 0 -2
BITMAP
F0
F0
F0
F0
F0
F0
ENDCHAR
STARTCHAR U+2597
ENCODING 9623
SWIDTH 960 0
DWIDTH 8 0
BBX 4 6 4 -2
BITMAP
F0
F0
F0
F0
F0
F0
ENDCHAR
STARTCHAR U+2598
ENCODING 9624
SWIDTH 960 0
DWIDTH 8 0
BBX 4 6 0 4
BITMAP
F0
F0
F0
F0
F0
F0
ENDCHAR
STARTCHAR U+2599
ENCODING 9625
SWIDTH 960 0
DWIDTH 8 0
BBX 8 12 0 -2
BITMAP
F0
F0
F0
F0
F0
F0
FF
FF
FF
FF
FF
FF
ENDCHAR
STARTCHAR U+259A
ENCODING 9626
SWIDTH 960 0
DWIDTH 8 0
BBX 8 12 0 -2
BITMAP
F0
F0
F0
F0
F0
F0
0F
0F
0F
0F
0F
0F
ENDCHAR
STARTCHAR U+259B
ENCODING 9627
SWIDTH 960 0
DWIDTH 8 0
BBX 8 12 0 -2
BITMAP
FF
FF
FF
FF
FF
FF
F0
F0
F0
F0
F0
F0
ENDCHAR
STARTCHAR U+259C
ENCODING 9628
SWIDTH 960 0
DWIDTH 8 0
BBX 8 12 0 -2
BITMAP
FF
FF
FF
FF
FF
FF
0F
0F
0F
0F
0F
0F
ENDCHAR
STARTCHAR U+259D
ENCODING 9629
SWIDTH 960 0
DWIDTH 8 0
BBX 4 6 4 4
BITMAP
F0
F0
F0
F0
F0
F0
ENDCHAR
STARTCHAR U+259E
ENCODING 9630
SWIDTH 960 0
DWIDTH 8 0
BBX 8 12 0 -2
BITMAP
0F
0F
0F
0F
0F
0F
F0
F0
F0
F0
F0
F0
ENDCHAR
STARTCHAR U+259F
ENCODING 9631
SWIDTH 960 0
DWIDTH 8 0
BBX 8 12 0 -2
BITMAP
0F
0F
0F
0F
0F
0F
FF
FF
FF
FF
FF
FF
ENDCHAR
STARTCHAR U+25A0
ENCODING 9632
SWIDTH 960 0
DWIDTH 8 0
BBX 8 7 0 0
BITMAP
FF
FF
FF
FF
FF
FF
FF
ENDCHAR
STARTCHAR U+25A1
ENCODING 9633
SWIDTH 960 0
DWIDTH 8 0
BBX 8 7 0 0
BITMAP
FF
C3
C3
C3
C3
C3
FF
ENDCHAR
STARTCHAR U+25A2
ENCODING 9634
SWIDTH 960 0
DWIDTH 8 0
BBX 8 7 0 0
BITMAP
7E
C3
C3
C3
C3
C3
7E
ENDCHAR
STARTCHAR U+25A3
ENCODING 9635
SWIDTH 960 0
DWIDTH 8 0
BBX 8 8 0 0
BITMAP
FF
81
BD
BD
BD
BD
81
FF
ENDCHAR
STARTCHAR U+25A4
ENCODING 9636
SWIDTH 960 0
DWIDTH 8 0
BBX 8 7 0 0
BITMAP
FF
C3
FF
C3
FF
C3
FF
ENDCHAR
STARTCHAR U+25A5
ENCODING 9637
SWIDTH 960 0
DWIDTH 8 0
BBX 7 7 1 0
BITMAP
FE
AA
AA
AA
AA
AA
FE
ENDCHAR
STARTCHAR U+25A6
ENCODING 9638
SWIDTH 960 0
DWIDTH 8 0
BBX 7 7 1 0
BITMAP
FE
AA
FE
AA
FE
AA
FE
ENDCHAR
STARTCHAR U+25A7
ENCODING 9639
SWIDTH 960 0
DWIDTH 8 0
BBX 7 7 1 0
BITMAP
FE
CA
A6
92
CA
A6
FE
ENDCHAR
STARTCHAR U+25A8
ENCODING 9640
SWIDTH 960 0
DWIDTH 8 0
BBX 7 7 1 0
BITMAP
FE
A6
CA
92
A6
CA
FE
ENDCHAR
STARTCHAR U+25A9
ENCODING 9641
SWIDTH 960 0
DWIDTH 8 0
BBX 7 7 1 0
BITMAP
FE
AA
D6
AA
D6
AA
FE
ENDCHAR
STARTCHAR U+25AA
ENCODING 9642
SWIDTH 960 0
DWIDTH 8 0
BBX 4 4 2 2
BITMAP
F0
F0
F0
F0
ENDCHAR
STARTCHAR U+25AB
ENCODING 9643
SWIDTH 960 0
DWIDTH 8 0
BBX 4 4 2 2
BITMAP
F0
90
90
F0
ENDCHAR
STARTCHAR U+25AC
ENCODING 9644
SWIDTH 960 0
DWIDTH 8 0
BBX 8 4 0 2
BITMAP
FF
FF
FF
FF
ENDCHAR
STARTCHAR U+25AD
ENCODING 9645
SWIDTH 960 0
DWIDTH 8 0
BBX 8 4 0 2
BITMAP
FF
C3
C3
FF
ENDCHAR
STARTCHAR U+25AE
ENCODING 9646
SWIDTH 960 0
DWIDTH 8 0
BBX 4 8 2 0
BITMAP
F0
90
90
90
90
90
90
F0
ENDCHAR
STARTCHAR U+25AF
ENCODING 9647
SWIDTH 960 0
DWIDTH 8 0
BBX 4 8 2 0
BITMAP
F0
F0
F0
F0
F0
F0
F0
F0
ENDCHAR
STARTCHAR U+25B0
ENCODING 9648
SWIDTH 960 0
DWIDTH 8 0
BBX 8 4 0 2
BITMAP
1F
3E
7C
F8
ENDCHAR
STARTCHAR U+25B1
ENCODING 9649
SWIDTH 960 0
DWIDTH 8 0
BBX 8 4 0 2
BITMAP
1F
22
44
F8
ENDCHAR
STARTCHAR U+25B2
ENCODING 9650
SWIDTH 960 0
DWIDTH 8 0
BBX 7 7 1 0
BITMAP
10
10
38
38
7C
7C
FE
ENDCHAR
STARTCHAR U+25B3
ENCODING 9651
SWIDTH 960 0
DWIDTH 8 0
BBX 7 7 1 0
BITMAP
10
10
28
28
44
44
FE
ENDCHAR
STARTCHAR U+25B4
ENCODING 9652
SWIDTH 960 0
DWIDTH 8 0
BBX 5 5 2 1
BITMAP
20
20
70
70
F8
ENDCHAR
STARTCHAR U+25B5
ENCODING 9653
SWIDTH 960 0
DWIDTH 8 0
BBX 5 5 2 1
BITMAP
20
20
50
50
F8
ENDCHAR
STARTCHAR U+25B6
ENCODING 9654
SWIDTH 960 0
DWIDTH 8 0
BBX 7 7 1 0
BITMAP
80
E0
F8
FE
F8
E0
80
ENDCHAR
STARTCHAR U+25B7
ENCODING 9655
SWIDTH 960 0
DWIDTH 8 0
BBX 7 7 1 0
BITMAP
80
E0
98
86
98
E0
80
ENDCHAR
STARTCHAR U+25B8
ENCODING 9656
SWIDTH 960 0
DWIDTH 8 0
BBX 5 5 2 1
BITMAP
80
E0
F8
E0
80
ENDCHAR
STARTCHAR U+25B9
ENCODING 9657
SWIDTH 960 0
DWIDTH 8 0
BBX 5 5 2 1
BITMAP
80
E0
98
E0
80
ENDCHAR
STARTCHAR U+25BA
ENCODING 9658
SWIDTH 960 0
DWIDTH 8 0
BBX 7 5 1 1
BITMAP
80
F0
FE
F0
80
ENDCHAR
STARTCHAR U+25BB
ENCODING 9659
SWIDTH 960 0
DWIDTH 8 0
BBX 7 5 1 1
BITMAP
80
F0
8E
F0
80
ENDCHAR
STARTCHAR U+25BC
ENCODING 9660
SWIDTH 960 0
DWIDTH 8 0
BBX 7 7 1 0
BITMAP
FE
7C
7C
38
38
10
10
ENDCHAR
STARTCHAR U+25BD
ENCODING 9661
SWIDTH 960 0
DWIDTH 8 0
BBX 7 7 1 0
BITMAP
FE
44
44
28
28
10
10
ENDCHAR
STARTCHAR U+25BE
ENCODING 9662
SWIDTH 960 0
DWIDTH 8 0
BBX 5 5 2 1
BITMAP
F8
70
70
20
20
ENDCHAR
STARTCHAR U+25BF
ENCODING 9663
SWIDTH 960 0
DWIDTH 8 0
BBX 5 5 2 1
BITMAP
F8
50
50
20
20
ENDCHAR
STARTCHAR U+25C0
ENCODING 9664
SWIDTH 960 0
DWIDTH 8 0
BBX 7 7 1 0
BITMAP
02
0E
3E
FE
3E
0E
02
ENDCHAR
STARTCHAR U+25C1
ENCODING 9665
SWIDTH 960 0
DWIDTH 8 0
BBX 7 7 1 0
BITMAP
02
0E
32
C2
32
0E
02
ENDCHAR
STARTCHAR U+25C2
ENCODING 9666
SWIDTH 960 0
DWIDTH 8 0
BBX 5 5 2 1
BITMAP
08
38
F8
38
08
ENDCHAR
STARTCHAR U+25C3
ENCODING 9667
SWIDTH 960 0
DWIDTH 8 0
BBX 5 5 2 1
BITMAP
08
38
C8
38
08
ENDCHAR
STARTCHAR U+25C4
ENCODING 9668
SWIDTH 960 0
DWIDTH 8 0
BBX 7 5 1 1
BITMAP
02
1E
FE
1E
02
ENDCHAR
STARTCHAR U+25C5
ENCODING 9669
SWIDTH 960 0
DWIDTH 8 0
BBX 7 5 1 1
BITMAP
02
1E
E2
1E
02
ENDCHAR
STARTCHAR U+25C6
ENCODING 9670
SWIDTH 960 0
DWIDTH 8 0
BBX 7 7 1 0
BITMAP
10
38
7C
FE
7C
38
10
ENDCHAR
STARTCHAR U+25C7
ENCODING 9671
SWIDTH 960 0
DWIDTH 8 0
BBX 7 7 1 0
BITMAP
10
28
44
82
44
28
10
ENDCHAR
STARTCHAR U+25C8
ENCODING 9672
SWIDTH 960 0
DWIDTH 8 0
BBX 7 7 1 0
BITMAP
10
28
54
BA
54
28
10
ENDCHAR
STARTCHAR U+25C9
ENCODING 9673
SWIDTH 960 0
DWIDTH 8 0
BBX 8 8 0 0
BITMAP
3C
42
99
BD
BD
99
42
3C
ENDCHAR
STARTCHAR U+25CA
ENCODING 9674
SWIDTH 960 0
DWIDTH 8 0
BBX 6 10 1 -1
BITMAP
30
30
48
48
84
84
48
48
30
30
ENDCHAR
STARTCHAR U+25CB
ENCODING 9675
SWIDTH 960 0
DWIDTH 8 0
BBX 8 7 0 0
BITMAP
3C
66
C3
C3
C3
66
3C
ENDCHAR
STARTCHAR U+25CC
ENCODING 9676
SWIDTH 960 0
DWIDTH 8 0
BBX 7 7 1 0
BITMAP
10
44
00
82
00
44
10
ENDCHAR
STARTCHAR U+25CD
ENCODING 9677
SWIDTH 960 0
DWIDTH 8 0
BBX 8 7 0 0
BITMAP
3C
76
D5
D5
D5
76
3C
ENDCHAR
STARTCHAR U+25CE
ENCODING 9678
SWIDTH 960 0
DWIDTH 8 0
BBX 8 8 0 0
BITMAP
3C
42
99
A5
A5
99
42
3C
ENDCHAR
STARTCHAR U+25CF
ENCODING 9679
SWIDTH 960 0
DWIDTH 8 0
BBX 7 7 1 0
BITMAP
38
7C
FE
FE
FE
7C
38
ENDCHAR
STARTCHAR U+25D0
ENCODING 9680
SWIDTH 960 0
DWIDTH 8 0
BBX 8 7 0 0
BITMAP
3C
72
F1
F1
F1
72
3C
ENDCHAR
STARTCHAR U+25D1
ENCODING 9681
SWIDTH 960 0
DWIDTH 8 0
BBX 8 7 0 0
BITMAP
3C
4E
8F
8F
8F
4E
3C
ENDCHAR
STARTCHAR U+25D2
ENCODING 9682
SWIDTH 960 0
DWIDTH 8 0
BBX 8 8 0 0
BITMAP
3C
42
81
81
FF
FF
7E
3C
ENDCHAR
STARTCHAR U+25D3
ENCODING 9683
SWIDTH 960 0
DWIDTH 8 0
BBX 8 8 0 0
BITMAP
3C
7E
FF
FF
81
81
42
3C
ENDCHAR
STARTCHAR U+25D4
ENCODING 9684
SWIDTH 960 0
DWIDTH 8 0
BBX 8 8 0 0
BITMAP
3C
4E
8F
8F
81
81
42
3C
ENDCHAR
STARTCHAR U+25D5
ENCODING 9685
SWIDTH 960 0
DWIDTH 8 0
BBX 8 8 0 0
BITMAP
3C
4E
8F
8F
FF
FF
7E
3C
ENDCHAR
STARTCHAR U+25D6
ENCODING 9686
SWIDTH 960 0
DWIDTH 8 0
BBX 4 7 2 0
BITMAP
30
70
F0
F0
F0
70
30
ENDCHAR
STARTCHAR U+25D7
ENCODING 9687
SWIDTH 960 0
DWIDTH 8 0
BBX 4 7 2 0
BITMAP
C0
E0
F0
F0
F0
E0
C0
ENDCHAR
STARTCHAR U+25D8
ENCODING 9688
SWIDTH 960 0
DWIDTH 8 0
BBX 8 8 0 0
BITMAP
FF
FF
E7
C3
C3
E7
FF
FF
ENDCHAR
STARTCHAR U+25D9
ENCODING 9689
SWIDTH 960 0
DWIDTH 8 0
BBX 8 8 0 0
BITMAP
FF
E7
DB
BD
BD
DB
E7
FF
ENDCHAR
STARTCHAR U+25DA
ENCODING 9690
SWIDTH 960 0
DWIDTH 8 0
BBX 8 4 0 4
BITMAP
FF
E7
DB
BD
ENDCHAR
STARTCHAR U+25DB
ENCODING 9691
SWIDTH 960 0
DWIDTH 8 0
BBX 8 4 0 0
BITMAP
BD
DB
E7
FF
ENDCHAR
STARTCHAR U+25DC
ENCODING 9692
SWIDTH 960 0
DWIDTH 8 0
BBX 4 4 0 4
BITMAP
30
60
C0
C0
ENDCHAR
STARTCHAR U+25DD
ENCODING 9693
SWIDTH 960 0
DWIDTH 8 0
BBX 4 4 4 4
BITMAP
C0
60
30
30
ENDCHAR
STARTCHAR U+25DE
ENCODING 9694
SWIDTH 960 0
DWIDTH 8 0
BBX 4 4 4 0
BITMAP
30
30
60
C0
ENDCHAR
STARTCHAR U+25DF
ENCODING 9695
SWIDTH 960 0
DWIDTH 8 0
BBX 4 4 0 0
BITMAP
C0
C0
60
30
ENDCHAR
STARTCHAR U+25E0
ENCODING 9696
SWIDTH 960 0
DWIDTH 8 0
BBX 8 4 0 4
BITMAP
3C
66
C3
C3
ENDCHAR
STARTCHAR U+25E1
ENCODING 9697
SWIDTH 960 0
DWIDTH 8 0
BBX 8 4 0 0
BITMAP
C3
C3
66
3C
ENDCHAR
STARTCHAR U+25E2
ENCODING 9698
SWIDTH 960 0
DWIDTH 8 0
BBX 7 7 1 0
BITMAP
02
06
0E
1E
3E
7E
FE
ENDCHAR
STARTCHAR U+25E3
ENCODING 9699
SWIDTH 960 0
DWIDTH 8 0
BBX 7 7 1 0
BITMAP
80
C0
E0
F0
F8
FC
FE
ENDCHAR
STARTCHAR U+25E4
ENCODING 9700
SWIDTH 960 0
DWIDTH 8 0
BBX 7 7 1 0
BITMAP
FE
FC
F8
F0
E0
C0
80
ENDCHAR
STARTCHAR U+25E5
ENCODING 9701
SWIDTH 960 0
DWIDTH 8 0
BBX 7 7 1 0
BITMAP
FE
7E
3E
1E
0E
06
02
ENDCHAR
STARTCHAR U+25E6
ENCODING 9702
SWIDTH 960 0
DWIDTH 8 0
BBX 4 4 2 2
BITMAP
60
90
90
60
ENDCHAR
STARTCHAR U+25E7
ENCODING 9703
SWIDTH 960 0
DWIDTH 8 0
BBX 8 7 0 0
BITMAP
FF
F1
F1
F1
F1
F1
FF
ENDCHAR
STARTCHAR U+25E8
ENCODING 9704
SWIDTH 960 0
DWIDTH 8 0
BBX 8 7 0 0
BITMAP
FF
8F
8F
8F
8F
8F
FF
ENDCHAR
STARTCHAR U+25E9
ENCODING 9705
SWIDTH 960 0
DWIDTH 8 0
BBX 7 7 1 0
BITMAP
FE
FA
F2
E2
C2
82
FE
ENDCHAR
STARTCHAR U+25EA
ENCODING 9706
SWIDTH 960 0
DWIDTH 8 0
BBX 7 7 1 0
BITMAP
FE
82
86
8E
9E
BE
FE
ENDCHAR
STARTCHAR U+25EB
ENCODING 9707
SWIDTH 960 0
DWIDTH 8 0
BBX 7 7 1 0
BITMAP
FE
92
92
92
92
92
FE
ENDCHAR
STARTCHAR U+25EC
ENCODING 9708
SWIDTH 960 0
DWIDTH 8 0
BBX 8 7 0 0
BITMAP
18
18
34
34
6A
62
FF
ENDCHAR
STARTCHAR U+25ED
ENCODING 9709
SWIDTH 960 0
DWIDTH 8 0
BBX 8 7 0 0
BITMAP
18
18
34
34
72
72
FF
ENDCHAR
STARTCHAR U+25EE
ENCODING 9710
SWIDTH 960 0
DWIDTH 8 0
BBX 8 7 0 0
BITMAP
18
18
2C
2C
4E
4E
FF
ENDCHAR
STARTCHAR U+25EF
ENCODING 9711
SWIDTH 960 0
DWIDTH 8 0
BBX 8 8 0 0
BITMAP
3C
42
81
81
81
81
42
3C
ENDCHAR
STARTCHAR U+25F0
ENCODING 9712
SWIDTH 960 0
DWIDTH 8 0
BBX 7 7 1 0
BITMAP
FE
92
92
F2
82
82
FE
ENDCHAR
STARTCHAR U+25F1
ENCODING 9713
SWIDTH 960 0
DWIDTH 8 0
BBX 7 7 1 0
BITMAP
FE
82
82
F2
92
92
FE
ENDCHAR
STARTCHAR U+25F2
ENCODING 9714
SWIDTH 960 0
DWIDTH 8 0
BBX 7 7 1 0
BITMAP
FE
82
82
9E
92
92
FE
ENDCHAR
STARTCHAR U+25F3
ENCODING 9715
SWIDTH 960 0
DWIDTH 8 0
BBX 7 7 1 0
BITMAP
FE
92
92
9E
82
82
FE
ENDCHAR
STARTCHAR U+25F4
ENCODING 9716
SWIDTH 960 0
DWIDTH 8 0
BBX 8 7 0 0
BITMAP
3C
6A
C9
F9
C1
62
3C
ENDCHAR
STARTCHAR U+25F5
ENCODING 9717
SWIDTH 960 0
DWIDTH 8 0
BBX 8 7 0 0
BITMAP
3C
62
C1
F9
C9
6A
3C
ENDCHAR
STARTCHAR U+25F6
ENCODING 9718
SWIDTH 960 0
DWIDTH 8 0
BBX 8 7 0 0
BITMAP
3C
62
C1
CF
C9
6A
3C
ENDCHAR
STARTCHAR U+25F7
ENCODING 9719
SWIDTH 960 0
DWIDTH 8 0
BBX 8 7 0 0
BITMAP
3C
6A
C9
CF
C1
62
3C
ENDCHAR
STARTCHAR U+25F8
ENCODING 9720
SWIDTH 960 0
DWIDTH 8 0
BBX 7 7 1 0
BITMAP
FE
84
88
90
A0
C0
80
ENDCHAR
STARTCHAR U+25F9
ENCODING 9721
SWIDTH 960 0
DWIDTH 8 0
BBX 7 7 1 0
BITMAP
FE
42
22
12
0A
06
02
ENDCHAR
STARTCHAR U+25FA
ENCODING 9722
SWIDTH 960 0
DWIDTH 8 0
BBX 7 7 1 0
BITMAP
80
C0
A0
90
88
84
FE
ENDCHAR
STARTCHAR U+25FB
ENCODING 9723
SWIDTH 960 0
DWIDTH 8 0
BBX 6 6 1 1
BITMAP
FC
84
84
84
84
FC
ENDCHAR
STARTCHAR U+25FC
ENCODING 9724
SWIDTH 960 0
DWIDTH 8 0
BBX 6 6 1 1
BITMAP
FC
FC
FC
FC
FC
FC
ENDCHAR
STARTCHAR U+25FD
ENCODING 9725
SWIDTH 960 0
DWIDTH 8 0
BBX 5 5 2 1
BITMAP
F8
88
88
88
F8
ENDCHAR
STARTCHAR U+25FE
ENCODING 9726
SWIDTH 960 0
DWIDTH 8 0
BBX 5 5 2 1
BITMAP
F8
F8
F8
F8
F8
ENDCHAR
STARTCHAR U+25FF
ENCODING 9727
SWIDTH 960 0
DWIDTH 8 0
BBX 7 7 1 0
BITMAP
02
06
0A
12
22
42
FE
ENDCHAR
STARTCHAR U+2607
ENCODING 9735
SWIDTH 960 0
DWIDTH 8 0
BBX 5 8 2 0
BITMAP
10
20
40
80
48
28
18
78
ENDCHAR
STARTCHAR U+2639
ENCODING 9785
SWIDTH 960 0
DWIDTH 8 0
BBX 8 8 0 0
BITMAP
3C
42
A5
81
99
A5
42
3C
ENDCHAR
STARTCHAR U+263A
ENCODING 9786
SWIDTH 960 0
DWIDTH 8 0
BBX 8 8 0 0
BITMAP
3C
42
A5
81
A5
99
42
3C
ENDCHAR
STARTCHAR U+263B
ENCODING 9787
SWIDTH 960 0
DWIDTH 8 0
BBX 8 8 0 0
BITMAP
3C
7E
DB
FF
DB
E7
7E
3C
ENDCHAR
STARTCHAR U+263C
ENCODING 9788
SWIDTH 960 0
DWIDTH 8 0
BBX 8 8 0 0
BITMAP
08
5A
24
C2
43
24
5A
10
ENDCHAR
STARTCHAR U+2640
ENCODING 9792
SWIDTH 960 0
DWIDTH 8 0
BBX 6 9 1 -1
BITMAP
78
CC
CC
CC
78
30
FC
30
30
ENDCHAR
STARTCHAR U+2641
ENCODING 9793
SWIDTH 960 0
DWIDTH 8 0
BBX 6 9 1 -1
BITMAP
30
30
FC
30
78
CC
CC
CC
78
ENDCHAR
STARTCHAR U+2642
ENCODING 9794
SWIDTH 960 0
DWIDTH 8 0
BBX 8 8 0 0
BITMAP
1F
07
0D
79
CC
CC
CC
78
ENDCHAR
STARTCHAR U+2660
ENCODING 9824
SWIDTH 960 0
DWIDTH 8 0
BBX 7 8 1 0
BITMAP
10
38
7C
FE
FE
6C
10
38
ENDCHAR
STARTCHAR U+2661
ENCODING 9825
SWIDTH 960 0
DWIDTH 8 0
BBX 7 7 1 0
BITMAP
6C
92
82
82
44
28
10
ENDCHAR
STARTCHAR U+2662
ENCODING 9826
SWIDTH 960 0
DWIDTH 8 0
BBX 7 7 1 0
BITMAP
10
28
44
82
44
28
10
ENDCHAR
STARTCHAR U+2663
ENCODING 9827
SWIDTH 960 0
DWIDTH 8 0
BBX 7 8 1 0
BITMAP
38
38
38
D6
FE
D6
10
38
ENDCHAR
STARTCHAR U+2664
ENCODING 9828
SWIDTH 960 0
DWIDTH 8 0
BBX 7 8 1 0
BITMAP
10
28
44
82
92
6C
10
38
ENDCHAR
STARTCHAR U+2665
ENCODING 9829
SWIDTH 960 0
DWIDTH 8 0
BBX 7 7 1 0
BITMAP
6C
FE
FE
FE
7C
38
10
ENDCHAR
STARTCHAR U+2666
ENCODING 9830
SWIDTH 960 0
DWIDTH 8 0
BBX 7 7 1 0
BITMAP
10
38
7C
FE
7C
38
10
ENDCHAR
STARTCHAR U+2667
ENCODING 9831
SWIDTH 960 0
DWIDTH 8 0
BBX 7 8 1 0
BITMAP
38
28
28
C6
AA
D6
10
38
ENDCHAR
STARTCHAR U+2669
ENCODING 9833
SWIDTH 960 0
DWIDTH 8 0
BBX 3 9 2 -1
BITMAP
20
20
20
20
20
20
60
E0
C0
ENDCHAR
STARTCHAR U+266A
ENCODING 9834
SWIDTH 960 0
DWIDTH 8 0
BBX 5 9 2 -1
BITMAP
20
30
30
28
28
20
60
E0
C0
ENDCHAR
STARTCHAR U+266B
ENCODING 9835
SWIDTH 960 0
DWIDTH 8 0
BBX 7 9 1 -1
BITMAP
38
3E
26
22
22
62
E6
CE
0C
ENDCHAR
STARTCHAR U+266C
ENCODING 9836
SWIDTH 960 0
DWIDTH 8 0
BBX 7 9 1 -1
BITMAP
38
26
3A
26
22
62
E6
CE
0C
ENDCHAR
STARTCHAR U+266D
ENCODING 9837
SWIDTH 960 0
DWIDTH 8 0
BBX 5 9 2 -1
BITMAP
80
80
B0
D8
98
90
A0
C0
80
ENDCHAR
STARTCHAR U+2680
ENCODING 9856
SWIDTH 960 0
DWIDTH 8 0
BBX 7 7 1 0
BITMAP
FE
FE
FE
EE
FE
FE
FE
ENDCHAR
STARTCHAR U+2681
ENCODING 9857
SWIDTH 960 0
DWIDTH 8 0
BBX 7 7 1 0
BITMAP
FE
FE
BE
FE
FA
FE
FE
ENDCHAR
STARTCHAR U+2682
ENCODING 9858
SWIDTH 960 0
DWIDTH 8 0
BBX 7 7 1 0
BITMAP
FE
BE
FE
EE
FE
FA
FE
ENDCHAR
STARTCHAR U+2683
ENCODING 9859
SWIDTH 960 0
DWIDTH 8 0
BBX 7 7 1 0
BITMAP
FE
BA
FE
FE
FE
BA
FE
ENDCHAR
STARTCHAR U+2684
ENCODING 9860
SWIDTH 960 0
DWIDTH 8 0
BBX 7 7 1 0
BITMAP
FE
BA
FE
EE
FE
BA
FE
ENDCHAR
STARTCHAR U+2685
ENCODING 9861
SWIDTH 960 0
DWIDTH 8 0
BBX 7 7 1 0
BITMAP
FE
BA
FE
BA
FE
BA
FE
ENDCHAR
STARTCHAR U+2686
ENCODING 9862
SWIDTH 960 0
DWIDTH 8 0
BBX 8 7 0 0
BITMAP
3C
62
C1
C5
C1
62
3C
ENDCHAR
STARTCHAR U+2687
ENCODING 9863
SWIDTH 960 0
DWIDTH 8 0
BBX 8 7 0 0
BITMAP
3C
62
C1
D5
C1
62
3C
ENDCHAR
STARTCHAR U+2688
ENCODING 9864
SWIDTH 960 0
DWIDTH 8 0
BBX 7 7 1 0
BITMAP
38
7C
FE
F6
FE
7C
38
ENDCHAR
STARTCHAR U+2689
ENCODING 9865
SWIDTH 960 0
DWIDTH 8 0
BBX 7 7 1 0
BITMAP
38
7C
FE
D6
FE
7C
38
ENDCHAR
STARTCHAR U+27C3
ENCODING 10179
SWIDTH 960 0
DWIDTH 8 0
BBX 6 5 1 1
BITMAP
7C
C8
D4
C8
7C
ENDCHAR
STARTCHAR U+27C4
ENCODING 10180
SWIDTH 960 0
DWIDTH 8 0
BBX 6 5 1 1
BITMAP
F8
4C
AC
4C
F8
ENDCHAR
STARTCHAR U+27DC
ENCODING 10204
SWIDTH 960 0
DWIDTH 8 0
BBX 8 4 0 1
BITMAP
70
DF
D8
70
ENDCHAR
STARTCHAR U+27E6
ENCODING 10214
SWIDTH 960 0
DWIDTH 8 0
BBX 4 9 2 -1
BITMAP
F0
A0
A0
A0
A0
A0
A0
A0
F0
ENDCHAR
STARTCHAR U+27E7
ENCODING 10215
SWIDTH 960 0
DWIDTH 8 0
BBX 4 9 2 -1
BITMAP
F0
50
50
50
50
50
50
50
F0
ENDCHAR
STARTCHAR U+27E8
ENCODING 10216
SWIDTH 960 0
DWIDTH 8 0
BBX 4 9 2 -1
BITMAP
30
30
60
60
C0
60
60
30
30
ENDCHAR
STARTCHAR U+27E9
ENCODING 10217
SWIDTH 960 0
DWIDTH 8 0
BBX 4 9 2 -1
BITMAP
C0
C0
60
60
30
60
60
C0
C0
ENDCHAR
STARTCHAR U+2800
ENCODING 10240
SWIDTH 960 0
DWIDTH 8 0
BBX 0 0 0 0
BITMAP
ENDCHAR
STARTCHAR U+2801
ENCODING 10241
SWIDTH 960 0
DWIDTH 8 0
BBX 2 2 1 7
BITMAP
C0
C0
ENDCHAR
STARTCHAR U+2802
ENCODING 10242
SWIDTH 960 0
DWIDTH 8 0
BBX 2 2 1 4
BITMAP
C0
C0
ENDCHAR
STARTCHAR U+2803
ENCODING 10243
SWIDTH 960 0
DWIDTH 8 0
BBX 2 5 1 4
BITMAP
C0
C0
00
C0
C0
ENDCHAR
STARTCHAR U+2804
ENCODING 10244
SWIDTH 960 0
DWIDTH 8 0
BBX 2 2 1 1
BITMAP
C0
C0
ENDCHAR
STARTCHAR U+2805
ENCODING 10245
SWIDTH 960 0
DWIDTH 8 0
BBX 2 8 1 1
BITMAP
C0
C0
00
00
00
00
C0
C0
ENDCHAR
STARTCHAR U+2806
ENCODING 10246
SWIDTH 960 0
DWIDTH 8 0
BBX 2 5 1 1
BITMAP
C0
C0
00
C0
C0
ENDCHAR
STARTCHAR U+2807
ENCODING 10247
SWIDTH 960 0
DWIDTH 8 0
BBX 2 8 1 1
BITMAP
C0
C0
00
C0
C0
00
C0
C0
ENDCHAR
STARTCHAR U+2808
ENCODING 10248
SWIDTH 960 0
DWIDTH 8 0
BBX 2 2 5 7
BITMAP
C0
C0
ENDCHAR
STARTCHAR U+2809
ENCODING 10249
SWIDTH 960 0
DWIDTH 8 0
BBX 6 2 1 7
BITMAP
CC
CC
ENDCHAR
STARTCHAR U+280A
ENCODING 10250
SWIDTH 960 0
DWIDTH 8 0
BBX 6 5 1 4
BITMAP
0C
0C
00
C0
C0
ENDCHAR
STARTCHAR U+280B
ENCODING 10251
SWIDTH 960 0
DWIDTH 8 0
BBX 6 5 1 4
BITMAP
CC
CC
00
C0
C0
ENDCHAR
STARTCHAR U+280C
ENCODING 10252
SWIDTH 960 0
DWIDTH 8 0
BBX 6 8 1 1
BITMAP
0C
0C
00
00
00
00
C0
C0
ENDCHAR
STARTCHAR U+280D
ENCODING 10253
SWIDTH 960 0
DWIDTH 8 0
BBX 6 8 1 1
BITMAP
CC
CC
00
00
00
00
C0
C0
ENDCHAR
STARTCHAR U+280E
ENCODING 10254
SWIDTH 960 0
DWIDTH 8 0
BBX 6 8 1 1
BITMAP
0C
0C
00
C0
C0
00
C0
C0
ENDCHAR
STARTCHAR U+280F
ENCODING 10255
SWIDTH 960 0
DWIDTH 8 0
BBX 6 8 1 1
BITMAP
CC
CC
00
C0
C0
00
C0
C0
ENDCHAR
STARTCHAR U+2810
ENCODING 10256
SWIDTH 960 0
DWIDTH 8 0
BBX 2 2 5 4
BITMAP
C0
C0
ENDCHAR
STARTCHAR U+2811
ENCODING 10257
SWIDTH 960 0
DWIDTH 8 0
BBX 6 5 1 4
BITMAP
C0
C0
00
0C
0C
ENDCHAR
STARTCHAR U+2812
ENCODING 10258
SWIDTH 960 0
DWIDTH 8 0
BBX 6 2 1 4
BITMAP
CC
CC
ENDCHAR
STARTCHAR U+2813
ENCODING 10259
SWIDTH 960 0
DWIDTH 8 0
BBX 6 5 1 4
BITMAP
C0
C0
00
CC
CC
ENDCHAR
STARTCHAR U+2814
ENCODING 10260
SWIDTH 960 0
DWIDTH 8 0
BBX 6 5 1 1
BITMAP
0C
0C
00
C0
C0
ENDCHAR
STARTCHAR U+2815
ENCODING 10261
SWIDTH 960 0
DWIDTH 8 0
BBX 6 8 1 1
BITMAP
C0
C0
00
0C
0C
00
C0
C0
ENDCHAR
STARTCHAR U+2816
ENCODING 10262
SWIDTH 960 0
DWIDTH 8 0
BBX 6 5 1 1
BITMAP
CC
CC
00
C0
C0
ENDCHAR
STARTCHAR U+2817
ENCODING 10263
SWIDTH 960 0
DWIDTH 8 0
BBX 6 8 1 1
BITMAP
C0
C0
00
CC
CC
00
C0
C0
ENDCHAR
STARTCHAR U+2818
ENCODING 10264
SWIDTH 960 0
DWIDTH 8 0
BBX 2 5 5 4
BITMAP
C0
C0
00
C0
C0
ENDCHAR
STARTCHAR U+2819
ENCODING 10265
SWIDTH 960 0
DWIDTH 8 0
BBX 6 5 1 4
BITMAP
CC
CC
00
0C
0C
ENDCHAR
STARTCHAR U+281A
ENCODING 10266
SWIDTH 960 0
DWIDTH 8 0
BBX 6 5 1 4
BITMAP
0C
0C
00
CC
CC
ENDCHAR
STARTCHAR U+281B
ENCODING 10267
SWIDTH 960 0
DWIDTH 8 0
BBX 6 5 1 4
BITMAP
CC
CC
00
CC
CC
ENDCHAR
STARTCHAR U+281C
ENCODING 10268
SWIDTH 960 0
DWIDTH 8 0
BBX 6 8 1 1
BITMAP
0C
0C
00
0C
0C
00
C0
C0
ENDCHAR
STARTCHAR U+281D
ENCODING 10269
SWIDTH 960 0
DWIDTH 8 0
BBX 6 8 1 1
BITMAP
CC
CC
00
0C
0C
00
C0
C0
ENDCHAR
STARTCHAR U+281E
ENCODING 10270
SWIDTH 960 0
DWIDTH 8 0
BBX 6 8 1 1
BITMAP
0C
0C
00
CC
CC
00
C0
C0
ENDCHAR
STARTCHAR U+281F
ENCODING 10271
SWIDTH 960 0
DWIDTH 8 0
BBX 6 8 1 1
BITMAP
CC
CC
00
CC
CC
00
C0
C0
ENDCHAR
STARTCHAR U+2820
ENCODING 10272
SWIDTH 960 0
DWIDTH 8 0
BBX 2 2 5 1
BITMAP
C0
C0
ENDCHAR
STARTCHAR U+2821
ENCODING 10273
SWIDTH 960 0
DWIDTH 8 0
BBX 6 8 1 1
BITMAP
C0
C0
00
00
00
00
0C
0C
ENDCHAR
STARTCHAR U+2822
ENCODING 10274
SWIDTH 960 0
DWIDTH 8 0
BBX 6 5 1 1
BITMAP
C0
C0
00
0C
0C
ENDCHAR
STARTCHAR U+2823
ENCODING 10275
SWIDTH 960 0
DWIDTH 8 0
BBX 6 8 1 1
BITMAP
C0
C0
00
C0
C0
00
0C
0C
ENDCHAR
STARTCHAR U+2824
ENCODING 10276
SWIDTH 960 0
DWIDTH 8 0
BBX 6 2 1 1
BITMAP
CC
CC
ENDCHAR
STARTCHAR U+2825
ENCODING 10277
SWIDTH 960 0
DWIDTH 8 0
BBX 6 8 1 1
BITMAP
C0
C0
00
00
00
00
CC
CC
ENDCHAR
STARTCHAR U+2826
ENCODING 10278
SWIDTH 960 0
DWIDTH 8 0
BBX 6 5 1 1
BITMAP
C0
C0
00
CC
CC
ENDCHAR
STARTCHAR U+2827
ENCODING 10279
SWIDTH 960 0
DWIDTH 8 0
BBX 6 8 1 1
BITMAP
C0
C0
00
C0
C0
00
CC
CC
ENDCHAR
STARTCHAR U+2828
ENCODING 10280
SWIDTH 960 0
DWIDTH 8 0
BBX 2 8 5 1
BITMAP
C0
C0
00
00
00
00
C0
C0
ENDCHAR
STARTCHAR U+2829
ENCODING 10281
SWIDTH 960 0
DWIDTH 8 0
BBX 6 8 1 1
BITMAP
CC
CC
00
00
00
00
0C
0C
ENDCHAR
STARTCHAR U+282A
ENCODING 10282
SWIDTH 960 0
DWIDTH 8 0
BBX 6 8 1 1
BITMAP
0C
0C
00
C0
C0
00
0C
0C
ENDCHAR
STARTCHAR U+282B
ENCODING 10283
SWIDTH 960 0
DWIDTH 8 0
BBX 6 8 1 1
BITMAP
CC
CC
00
C0
C0
00
0C
0C
ENDCHAR
STARTCHAR U+282C
ENCODING 10284
SWIDTH 960 0
DWIDTH 8 0
BBX 6 8 1 1
BITMAP
0C
0C
00
00
00
00
CC
CC
ENDCHAR
STARTCHAR U+282D
ENCODING 10285
SWIDTH 960 0
DWIDTH 8 0
BBX 6 8 1 1
BITMAP
CC
CC
00
00
00
00
CC
CC
ENDCHAR
STARTCHAR U+282E
ENCODING 10286
SWIDTH 960 0
DWIDTH 8 0
BBX 6 8 1 1
BITMAP
0C
0C
00
C0
C0
00
CC
CC
ENDCHAR
STARTCHAR U+282F
ENCODING 10287
SWIDTH 960 0
DWIDTH 8 0
BBX 6 8 1 1
BITMAP
CC
CC
00
C0
C0
00
CC
CC
ENDCHAR
STARTCHAR U+2830
ENCODING 10288
SWIDTH 960 0
DWIDTH 8 0
BBX 2 5 5 1
BITMAP
C0
C0
00
C0
C0
ENDCHAR
STARTCHAR U+2831
ENCODING 10289
SWIDTH 960 0
DWIDTH 8 0
BBX 6 8 1 1
BITMAP
C0
C0
00
0C
0C
00
0C
0C
ENDCHAR
STARTCHAR U+2832
ENCODING 10290
SWIDTH 960 0
DWIDTH 8 0
BBX 6 5 1 1
BITMAP
CC
CC
00
0C
0C
ENDCHAR
STARTCHAR U+2833
ENCODING 10291
SWIDTH 960 0
DWIDTH 8 0
BBX 6 8 1 1
BITMAP
C0
C0
00
CC
CC
00
0C
0C
ENDCHAR
STARTCHAR U+2834
ENCODING 10292
SWIDTH 960 0
DWIDTH 8 0
BBX 6 5 1 1
BITMAP
0C
0C
00
CC
CC
ENDCHAR
STARTCHAR U+2835
ENCODING 10293
SWIDTH 960 0
DWIDTH 8 0
BBX 6 8 1 1
BITMAP
C0
C0
00
0C
0C
00
CC
CC
ENDCHAR
STARTCHAR U+2836
ENCODING 10294
SWIDTH 960 0
DWIDTH 8 0
BBX 6 5 1 1
BITMAP
CC
CC
00
CC
CC
ENDCHAR
STARTCHAR U+2837
ENCODING 10295
SWIDTH 960 0
DWIDTH 8 0
BBX 6 8 1 1
BITMAP
C0
C0
00
CC
CC
00
CC
CC
ENDCHAR
STARTCHAR U+2838
ENCODING 10296
SWIDTH 960 0
DWIDTH 8 0
BBX 2 8 5 1
BITMAP
C0
C0
00
C0
C0
00
C0
C0
ENDCHAR
STARTCHAR U+2839
ENCODING 10297
SWIDTH 960 0
DWIDTH 8 0
BBX 6 8 1 1
BITMAP
CC
CC
00
0C
0C
00
0C
0C
ENDCHAR
STARTCHAR U+283A
ENCODING 10298
SWIDTH 960 0
DWIDTH 8 0
BBX 6 8 1 1
BITMAP
0C
0C
00
CC
CC
00
0C
0C
ENDCHAR
STARTCHAR U+283B
ENCODING 10299
SWIDTH 960 0
DWIDTH 8 0
BBX 6 8 1 1
BITMAP
CC
CC
00
CC
CC
00
0C
0C
ENDCHAR
STARTCHAR U+283C
ENCODING 10300
SWIDTH 960 0
DWIDTH 8 0
BBX 6 8 1 1
BITMAP
0C
0C
00
0C
0C
00
CC
CC
ENDCHAR
STARTCHAR U+283D
ENCODING 10301
SWIDTH 960 0
DWIDTH 8 0
BBX 6 8 1 1
BITMAP
CC
CC
00
0C
0C
00
CC
CC
ENDCHAR
STARTCHAR U+283E
ENCODING 10302
SWIDTH 960 0
DWIDTH 8 0
BBX 6 8 1 1
BITMAP
0C
0C
00
CC
CC
00
CC
CC
ENDCHAR
STARTCHAR U+283F
ENCODING 10303
SWIDTH 960 0
DWIDTH 8 0
BBX 6 8 1 1
BITMAP
CC
CC
00
CC
CC
00
CC
CC
ENDCHAR
STARTCHAR U+2840
ENCODING 10304
SWIDTH 960 0
DWIDTH 8 0
BBX 2 2 1 -2
BITMAP
C0
C0
ENDCHAR
STARTCHAR U+2841
ENCODING 10305
SWIDTH 960 0
DWIDTH 8 0
BBX 2 11 1 -2
BITMAP
C0
C0
00
00
00
00
00
00
00
C0
C0
ENDCHAR
STARTCHAR U+2842
ENCODING 10306
SWIDTH 960 0
DWIDTH 8 0
BBX 2 8 1 -2
BITMAP
C0
C0
00
00
00
00
C0
C0
ENDCHAR
STARTCHAR U+2843
ENCODING 10307
SWIDTH 960 0
DWIDTH 8 0
BBX 2 11 1 -2
BITMAP
C0
C0
00
C0
C0
00
00
00
00
C0
C0
ENDCHAR
STARTCHAR U+2844
ENCODING 10308
SWIDTH 960 0
DWIDTH 8 0
BBX 2 5 1 -2
BITMAP
C0
C0
00
C0
C0
ENDCHAR
STARTCHAR U+2845
ENCODING 10309
SWIDTH 960 0
DWIDTH 8 0
BBX 2 11 1 -2
BITMAP
C0
C0
00
00
00
00
C0
C0
00
C0
C0
ENDCHAR
STARTCHAR U+2846
ENCODING 10310
SWIDTH 960 0
DWIDTH 8 0
BBX 2 8 1 -2
BITMAP
C0
C0
00
C0
C0
00
C0
C0
ENDCHAR
STARTCHAR U+2847
ENCODING 10311
SWIDTH 960 0
DWIDTH 8 0
BBX 2 11 1 -2
BITMAP
C0
C0
00
C0
C0
00
C0
C0
00
C0
C0
ENDCHAR
STARTCHAR U+2848
ENCODING 10312
SWIDTH 960 0
DWIDTH 8 0
BBX 6 11 1 -2
BITMAP
0C
0C
00
00
00
00
00
00
00
C0
C0
ENDCHAR
STARTCHAR U+2849
ENCODING 10313
SWIDTH 960 0
DWIDTH 8 0
BBX 6 11 1 -2
BITMAP
CC
CC
00
00
00
00
00
00
00
C0
C0
ENDCHAR
STARTCHAR U+284A
ENCODING 10314
SWIDTH 960 0
DWIDTH 8 0
BBX 6 11 1 -2
BITMAP
0C
0C
00
C0
C0
00
00
00
00
C0
C0
ENDCHAR
STARTCHAR U+284B
ENCODING 10315
SWIDTH 960 0
DWIDTH 8 0
BBX 6 11 1 -2
BITMAP
CC
CC
00
C0
C0
00
00
00
00
C0
C0
ENDCHAR
STARTCHAR U+284C
ENCODING 10316
SWIDTH 960 0
DWIDTH 8 0
BBX 6 11 1 -2
BITMAP
0C
0C
00
00
00
00
C0
C0
00
C0
C0
ENDCHAR
STARTCHAR U+284D
ENCODING 10317
SWIDTH 960 0
DWIDTH 8 0
BBX 6 11 1 -2
BITMAP
CC
CC
00
00
00
00
C0
C0
00
C0
C0
ENDCHAR
STARTCHAR U+284E
ENCODING 10318
SWIDTH 960 0
DWIDTH 8 0
BBX 6 11 1 -2
BITMAP
0C
0C
00
C0
C0
00
C0
C0
00
C0
C0
ENDCHAR
STARTCHAR U+284F
ENCODING 10319
SWIDTH 960 0
DWIDTH 8 0
BBX 6 11 1 -2
BITMAP
CC
CC
00
C0
C0
00
C0
C0
00
C0
C0
ENDCHAR
STARTCHAR U+2850
ENCODING 10320
SWIDTH 960 0
DWIDTH 8 0
BBX 6 8 1 -2
BITMAP
0C
0C
00
00
00
00
C0
C0
ENDCHAR
STARTCHAR U+2851
ENCODING 10321
SWIDTH 960 0
DWIDTH 8 0
BBX 6 11 1 -2
BITMAP
C0
C0
00
0C
0C
00
00
00
00
C0
C0
ENDCHAR
STARTCHAR U+2852
ENCODING 10322
SWIDTH 960 0
DWIDTH 8 0
BBX 6 8 1 -2
BITMAP
CC
CC
00
00
00
00
C0
C0
ENDCHAR
STARTCHAR U+2853
ENCODING 10323
SWIDTH 960 0
DWIDTH 8 0
BBX 6 11 1 -2
BITMAP
C0
C0
00
CC
CC
00
00
00
00
C0
C0
ENDCHAR
STARTCHAR U+2854
ENCODING 10324
SWIDTH 960 0
DWIDTH 8 0
BBX 6 8 1 -2
BITMAP
0C
0C
00
C0
C0
00
C0
C0
ENDCHAR
STARTCHAR U+2855
ENCODING 10325
SWIDTH 960 0
DWIDTH 8 0
BBX 6 11 1 -2
BITMAP
C0
C0
00
0C
0C
00
C0
C0
00
C0
C0
ENDCHAR
STARTCHAR U+2856
ENCODING 10326
SWIDTH 960 0
DWIDTH 8 0
BBX 6 8 1 -2
BITMAP
CC
CC
00
C0
C0
00
C0
C0
ENDCHAR
STARTCHAR U+2857
ENCODING 10327
SWIDTH 960 0
DWIDTH 8 0
BBX 6 11 1 -2
BITMAP
C0
C0
00
CC
CC
00
C0
C0
00
C0
C0
ENDCHAR
STARTCHAR U+2858
ENCODING 10328
SWIDTH 960 0
DWIDTH 8 0
BBX 6 11 1 -2
BITMAP
0C
0C
00
0C
0C
00
00
00
00
C0
C0
ENDCHAR
STARTCHAR U+2859
ENCODING 10329
SWIDTH 960 0
DWIDTH 8 0
BBX 6 11 1 -2
BITMAP
CC
CC
00
0C
0C
00
00
00
00
C0
C0
ENDCHAR
STARTCHAR U+285A
ENCODING 10330
SWIDTH 960 0
DWIDTH 8 0
BBX 6 11 1 -2
BITMAP
0C
0C
00
CC
CC
00
00
00
00
C0
C0
ENDCHAR
STARTCHAR U+285B
ENCODING 10331
SWIDTH 960 0
DWIDTH 8 0
BBX 6 11 1 -2
BITMAP
CC
CC
00
CC
CC
00
00
00
00
C0
C0
ENDCHAR
STARTCHAR U+285C
ENCODING 10332
SWIDTH 960 0
DWIDTH 8 0
BBX 6 11 1 -2
BITMAP
0C
0C
00
0C
0C
00
C0
C0
00
C0
C0
ENDCHAR
STARTCHAR U+285D
ENCODING 10333
SWIDTH 960 0
DWIDTH 8 0
BBX 6 11 1 -2
BITMAP
CC
CC
00
0C
0C
00
C0
C0
00
C0
C0
ENDCHAR
STARTCHAR U+285E
ENCODING 10334
SWIDTH 960 0
DWIDTH 8 0
BBX 6 11 1 -2
BITMAP
0C
0C
00
CC
CC
00
C0
C0
00
C0
C0
ENDCHAR
STARTCHAR U+285F
ENCODING 10335
SWIDTH 960 0
DWIDTH 8 0
BBX 6 11 1 -2
BITMAP
CC
CC
00
CC
CC
00
C0
C0
00
C0
C0
ENDCHAR
STARTCHAR U+2860
ENCODING 10336
SWIDTH 960 0
DWIDTH 8 0
BBX 6 5 1 -2
BITMAP
0C
0C
00
C0
C0
ENDCHAR
STARTCHAR U+2861
ENCODING 10337
SWIDTH 960 0
DWIDTH 8 0
BBX 6 11 1 -2
BITMAP
C0
C0
00
00
00
00
0C
0C
00
C0
C0
ENDCHAR
STARTCHAR U+2862
ENCODING 10338
SWIDTH 960 0
DWIDTH 8 0
BBX 6 8 1 -2
BITMAP
C0
C0
00
0C
0C
00
C0
C0
ENDCHAR
STARTCHAR U+2863
ENCODING 10339
SWIDTH 960 0
DWIDTH 8 0
BBX 6 11 1 -2
BITMAP
C0
C0
00
C0
C0
00
0C
0C
00
C0
C0
ENDCHAR
STARTCHAR U+2864
ENCODING 10340
SWIDTH 960 0
DWIDTH 8 0
BBX 6 5 1 -2
BITMAP
CC
CC
00
C0
C0
ENDCHAR
STARTCHAR U+2865
ENCODING 10341
SWIDTH 960 0
DWIDTH 8 0
BBX 6 11 1 -2
BITMAP
C0
C0
00
00
00
00
CC
CC
00
C0
C0
ENDCHAR
STARTCHAR U+2866
ENCODING 10342
SWIDTH 960 0
DWIDTH 8 0
BBX 6 8 1 -2
BITMAP
C0
C0
00
CC
CC
00
C0
C0
ENDCHAR
STARTCHAR U+2867
ENCODING 10343
SWIDTH 960 0
DWIDTH 8 0
BBX 6 11 1 -2
BITMAP
C0
C0
00
C0
C0
00
CC
CC
00
C0
C0
ENDCHAR
STARTCHAR U+2868
ENCODING 10344
SWIDTH 960 0
DWIDTH 8 0
BBX 6 11 1 -2
BITMAP
0C
0C
00
00
00
00
0C
0C
00
C0
C0
ENDCHAR
STARTCHAR U+2869
ENCODING 10345
SWIDTH 960 0
DWIDTH 8 0
BBX 6 11 1 -2
BITMAP
CC
CC
00
00
00
00
0C
0C
00
C0
C0
ENDCHAR
STARTCHAR U+286A
ENCODING 10346
SWIDTH 960 0
DWIDTH 8 0
BBX 6 11 1 -2
BITMAP
0C
0C
00
C0
C0
00
0C
0C
00
C0
C0
ENDCHAR
STARTCHAR U+286B
ENCODING 10347
SWIDTH 960 0
DWIDTH 8 0
BBX 6 11 1 -2
BITMAP
CC
CC
00
C0
C0
00
0C
0C
00
C0
C0
ENDCHAR
STARTCHAR U+286C
ENCODING 10348
SWIDTH 960 0
DWIDTH 8 0
BBX 6 11 1 -2
BITMAP
0C
0C
00
00
00
00
CC
CC
00
C0
C0
ENDCHAR
STARTCHAR U+286D
ENCODING 10349
SWIDTH 960 0
DWIDTH 8 0
BBX 6 11 1 -2
BITMAP
CC
CC
00
00
00
00
CC
CC
00
C0
C0
ENDCHAR
STARTCHAR U+286E
ENCODING 10350
SWIDTH 960 0
DWIDTH 8 0
BBX 6 11 1 -2
BITMAP
0C
0C
00
C0
C0
00
CC
CC
00
C0
C0
ENDCHAR
STARTCHAR U+286F
ENCODING 10351
SWIDTH 960 0
DWIDTH 8 0
BBX 6 11 1 -2
BITMAP
CC
CC
00
C0
C0
00
CC
CC
00
C0
C0
ENDCHAR
STARTCHAR U+2870
ENCODING 10352
SWIDTH 960 0
DWIDTH 8 0
BBX 6 8 1 -2
BITMAP
0C
0C
00
0C
0C
00
C0
C0
ENDCHAR
STARTCHAR U+2871
ENCODING 10353
SWIDTH 960 0
DWIDTH 8 0
BBX 6 11 1 -2
BITMAP
C0
C0
00
0C
0C
00
0C
0C
00
C0
C0
ENDCHAR
STARTCHAR U+2872
ENCODING 10354
SWIDTH 960 0
DWIDTH 8 0
BBX 6 8 1 -2
BITMAP
CC
CC
00
0C
0C
00
C0
C0
ENDCHAR
STARTCHAR U+2873
ENCODING 10355
SWIDTH 960 0
DWIDTH 8 0
BBX 6 11 1 -2
BITMAP
C0
C0
00
CC
CC
00
0C
0C
00
C0
C0
ENDCHAR
STARTCHAR U+2874
ENCODING 10356
SWIDTH 960 0
DWIDTH 8 0
BBX 6 8 1 -2
BITMAP
0C
0C
00
CC
CC
00
C0
C0
ENDCHAR
STARTCHAR U+2875
ENCODING 10357
SWIDTH 960 0
DWIDTH 8 0
BBX 6 11 1 -2
BITMAP
C0
C0
00
0C
0C
00
CC
CC
00
C0
C0
ENDCHAR
STARTCHAR U+2876
ENCODING 10358
SWIDTH 960 0
DWIDTH 8 0
BBX 6 8 1 -2
BITMAP
CC
CC
00
CC
CC
00
C0
C0
ENDCHAR
STARTCHAR U+2877
ENCODING 10359
SWIDTH 960 0
DWIDTH 8 0
BBX 6 11 1 -2
BITMAP
C0
C0
00
CC
CC
00
CC
CC
00
C0
C0
ENDCHAR
STARTCHAR U+2878
ENCODING 10360
SWIDTH 960 0
DWIDTH 8 0
BBX 6 11 1 -2
BITMAP
0C
0C
00
0C
0C
00
0C
0C
00
C0
C0
ENDCHAR
STARTCHAR U+2879
ENCODING 10361
SWIDTH 960 0
DWIDTH 8 0
BBX 6 11 1 -2
BITMAP
CC
CC
00
0C
0C
00
0C
0C
00
C0
C0
ENDCHAR
STARTCHAR U+287A
ENCODING 10362
SWIDTH 960 0
DWIDTH 8 0
BBX 6 11 1 -2
BITMAP
0C
0C
00
CC
CC
00
0C
0C
00
C0
C0
ENDCHAR
STARTCHAR U+287B
ENCODING 10363
SWIDTH 960 0
DWIDTH 8 0
BBX 6 11 1 -2
BITMAP
CC
CC
00
CC
CC
00
0C
0C
00
C0
C0
ENDCHAR
STARTCHAR U+287C
ENCODING 10364
SWIDTH 960 0
DWIDTH 8 0
BBX 6 11 1 -2
BITMAP
0C
0C
00
0C
0C
00
CC
CC
00
C0
C0
ENDCHAR
STARTCHAR U+287D
ENCODING 10365
SWIDTH 960 0
DWIDTH 8 0
BBX 6 11 1 -2
BITMAP
CC
CC
00
0C
0C
00
CC
CC
00
C0
C0
ENDCHAR
STARTCHAR U+287E
ENCODING 10366
SWIDTH 960 0
DWIDTH 8 0
BBX 6 11 1 -2
BITMAP
0C
0C
00
CC
CC
00
CC
CC
00
C0
C0
ENDCHAR
STARTCHAR U+287F
ENCODING 10367
SWIDTH 960 0
DWIDTH 8 0
BBX 6 11 1 -2
BITMAP
CC
CC
00
CC
CC
00
CC
CC
00
C0
C0
ENDCHAR
STARTCHAR U+2880
ENCODING 10368
SWIDTH 960 0
DWIDTH 8 0
BBX 2 2 5 -2
BITMAP
C0
C0
ENDCHAR
STARTCHAR U+2881
ENCODING 10369
SWIDTH 960 0
DWIDTH 8 0
BBX 6 11 1 -2
BITMAP
C0
C0
00
00
00
00
00
00
00
0C
0C
ENDCHAR
STARTCHAR U+2882
ENCODING 10370
SWIDTH 960 0
DWIDTH 8 0
BBX 6 8 1 -2
BITMAP
C0
C0
00
00
00
00
0C
0C
ENDCHAR
STARTCHAR U+2883
ENCODING 10371
SWIDTH 960 0
DWIDTH 8 0
BBX 6 11 1 -2
BITMAP
C0
C0
00
C0
C0
00
00
00
00
0C
0C
ENDCHAR
STARTCHAR U+2884
ENCODING 10372
SWIDTH 960 0
DWIDTH 8 0
BBX 6 5 1 -2
BITMAP
C0
C0
00
0C
0C
ENDCHAR
STARTCHAR U+2885
ENCODING 10373
SWIDTH 960 0
DWIDTH 8 0
BBX 6 11 1 -2
BITMAP
C0
C0
00
00
00
00
C0
C0
00
0C
0C
ENDCHAR
STARTCHAR U+2886
ENCODING 10374
SWIDTH 960 0
DWIDTH 8 0
BBX 6 8 1 -2
BITMAP
C0
C0
00
C0
C0
00
0C
0C
ENDCHAR
STARTCHAR U+2887
ENCODING 10375
SWIDTH 960 0
DWIDTH 8 0
BBX 6 11 1 -2
BITMAP
C0
C0
00
C0
C0
00
C0
C0
00
0C
0C
ENDCHAR
STARTCHAR U+2888
ENCODING 10376
SWIDTH 960 0
DWIDTH 8 0
BBX 2 11 5 -2
BITMAP
C0
C0
00
00
00
00
00
00
00
C0
C0
ENDCHAR
STARTCHAR U+2889
ENCODING 10377
SWIDTH 960 0
DWIDTH 8 0
BBX 6 11 1 -2
BITMAP
CC
CC
00
00
00
00
00
00
00
0C
0C
ENDCHAR
STARTCHAR U+288A
ENCODING 10378
SWIDTH 960 0
DWIDTH 8 0
BBX 6 11 1 -2
BITMAP
0C
0C
00
C0
C0
00
00
00
00
0C
0C
ENDCHAR
STARTCHAR U+288B
ENCODING 10379
SWIDTH 960 0
DWIDTH 8 0
BBX 6 11 1 -2
BITMAP
CC
CC
00
C0
C0
00
00
00
00
0C
0C
ENDCHAR
STARTCHAR U+288C
ENCODING 10380
SWIDTH 960 0
DWIDTH 8 0
BBX 6 11 1 -2
BITMAP
0C
0C
00
00
00
00
C0
C0
00
0C
0C
ENDCHAR
STARTCHAR U+288D
ENCODING 10381
SWIDTH 960 0
DWIDTH 8 0
BBX 6 11 1 -2
BITMAP
CC
CC
00
00
00
00
C0
C0
00
0C
0C
ENDCHAR
STARTCHAR U+288E
ENCODING 10382
SWIDTH 960 0
DWIDTH 8 0
BBX 6 11 1 -2
BITMAP
0C
0C
00
C0
C0
00
C0
C0
00
0C
0C
ENDCHAR
STARTCHAR U+288F
ENCODING 10383
SWIDTH 960 0
DWIDTH 8 0
BBX 6 11 1 -2
BITMAP
CC
CC
00
C0
C0
00
C0
C0
00
0C
0C
ENDCHAR
STARTCHAR U+2890
ENCODING 10384
SWIDTH 960 0
DWIDTH 8 0
BBX 2 8 5 -2
BITMAP
C0
C0
00
00
00
00
C0
C0
ENDCHAR
STARTCHAR U+2891
ENCODING 10385
SWIDTH 960 0
DWIDTH 8 0
BBX 6 11 1 -2
BITMAP
C0
C0
00
0C
0C
00
00
00
00
0C
0C
ENDCHAR
STARTCHAR U+2892
ENCODING 10386
SWIDTH 960 0
DWIDTH 8 0
BBX 6 8 1 -2
BITMAP
CC
CC
00
00
00
00
0C
0C
ENDCHAR
STARTCHAR U+2893
ENCODING 10387
SWIDTH 960 0
DWIDTH 8 0
BBX 6 11 1 -2
BITMAP
C0
C0
00
CC
CC
00
00
00
00
0C
0C
ENDCHAR
STARTCHAR U+2894
ENCODING 10388
SWIDTH 960 0
DWIDTH 8 0
BBX 6 8 1 -2
BITMAP
0C
0C
00
C0
C0
00
0C
0C
ENDCHAR
STARTCHAR U+2895
ENCODING 10389
SWIDTH 960 0
DWIDTH 8 0
BBX 6 11 1 -2
BITMAP
C0
C0
00
0C
0C
00
C0
C0
00
0C
0C
ENDCHAR
STARTCHAR U+2896
ENCODING 10390
SWIDTH 960 0
DWIDTH 8 0
BBX 6 8 1 -2
BITMAP
CC
CC
00
C0
C0
00
0C
0C
ENDCHAR
STARTCHAR U+2897
ENCODING 10391
SWIDTH 960 0
DWIDTH 8 0
BBX 6 11 1 -2
BITMAP
C0
C0
00
CC
CC
00
C0
C0
00
0C
0C
ENDCHAR
STARTCHAR U+2898
ENCODING 10392
SWIDTH 960 0
DWIDTH 8 0
BBX 2 11 5 -2
BITMAP
C0
C0
00
C0
C0
00
00
00
00
C0
C0
ENDCHAR
STARTCHAR U+2899
ENCODING 10393
SWIDTH 960 0
DWIDTH 8 0
BBX 6 11 1 -2
BITMAP
CC
CC
00
0C
0C
00
00
00
00
0C
0C
ENDCHAR
STARTCHAR U+289A
ENCODING 10394
SWIDTH 960 0
DWIDTH 8 0
BBX 6 11 1 -2
BITMAP
0C
0C
00
CC
CC
00
00
00
00
0C
0C
ENDCHAR
STARTCHAR U+289B
ENCODING 10395
SWIDTH 960 0
DWIDTH 8 0
BBX 6 11 1 -2
BITMAP
CC
CC
00
CC
CC
00
00
00
00
0C
0C
ENDCHAR
STARTCHAR U+289C
ENCODING 10396
SWIDTH 960 0
DWIDTH 8 0
BBX 6 11 1 -2
BITMAP
0C
0C
00
0C
0C
00
C0
C0
00
0C
0C
ENDCHAR
STARTCHAR U+289D
ENCODING 10397
SWIDTH 960 0
DWIDTH 8 0
BBX 6 11 1 -2
BITMAP
CC
CC
00
0C
0C
00
C0
C0
00
0C
0C
ENDCHAR
STARTCHAR U+289E
ENCODING 10398
SWIDTH 960 0
DWIDTH 8 0
BBX 6 11 1 -2
BITMAP
0C
0C
00
CC
CC
00
C0
C0
00
0C
0C
ENDCHAR
STARTCHAR U+289F
ENCODING 10399
SWIDTH 960 0
DWIDTH 8 0
BBX 6 11 1 -2
BITMAP
CC
CC
00
CC
CC
00
C0
C0
00
0C
0C
ENDCHAR
STARTCHAR U+28A0
ENCODING 10400
SWIDTH 960 0
DWIDTH 8 0
BBX 2 5 5 -2
BITMAP
C0
C0
00
C0
C0
ENDCHAR
STARTCHAR U+28A1
ENCODING 10401
SWIDTH 960 0
DWIDTH 8 0
BBX 6 11 1 -2
BITMAP
C0
C0
00
00
00
00
0C
0C
00
0C
0C
ENDCHAR
STARTCHAR U+28A2
ENCODING 10402
SWIDTH 960 0
DWIDTH 8 0
BBX 6 8 1 -2
BITMAP
C0
C0
00
0C
0C
00
0C
0C
ENDCHAR
STARTCHAR U+28A3
ENCODING 10403
SWIDTH 960 0
DWIDTH 8 0
BBX 6 11 1 -2
BITMAP
C0
C0
00
C0
C0
00
0C
0C
00
0C
0C
ENDCHAR
STARTCHAR U+28A4
ENCODING 10404
SWIDTH 960 0
DWIDTH 8 0
BBX 6 5 1 -2
BITMAP
CC
CC
00
0C
0C
ENDCHAR
STARTCHAR U+28A5
ENCODING 10405
SWIDTH 960 0
DWIDTH 8 0
BBX 6 11 1 -2
BITMAP
C0
C0
00
00
00
00
CC
CC
00
0C
0C
ENDCHAR
STARTCHAR U+28A6
ENCODING 10406
SWIDTH 960 0
DWIDTH 8 0
BBX 6 8 1 -2
BITMAP
C0
C0
00
CC
CC
00
0C
0C
ENDCHAR
STARTCHAR U+28A7
ENCODING 10407
SWIDTH 960 0
DWIDTH 8 0
BBX 6 11 1 -2
BITMAP
C0
C0
00
C0
C0
00
CC
CC
00
0C
0C
ENDCHAR
STARTCHAR U+28A8
ENCODING 10408
SWIDTH 960 0
DWIDTH 8 0
BBX 2 11 5 -2
BITMAP
C0
C0
00
00
00
00
C0
C0
00
C0
C0
ENDCHAR
STARTCHAR U+28A9
ENCODING 10409
SWIDTH 960 0
DWIDTH 8 0
BBX 6 11 1 -2
BITMAP
CC
CC
00
00
00
00
0C
0C
00
0C
0C
ENDCHAR
STARTCHAR U+28AA
ENCODING 10410
SWIDTH 960 0
DWIDTH 8 0
BBX 6 11 1 -2
BITMAP
0C
0C
00
C0
C0
00
0C
0C
00
0C
0C
ENDCHAR
STARTCHAR U+28AB
ENCODING 10411
SWIDTH 960 0
DWIDTH 8 0
BBX 6 11 1 -2
BITMAP
CC
CC
00
C0
C0
00
0C
0C
00
0C
0C
ENDCHAR
STARTCHAR U+28AC
ENCODING 10412
SWIDTH 960 0
DWIDTH 8 0
BBX 6 11 1 -2
BITMAP
0C
0C
00
00
00
00
CC
CC
00
0C
0C
ENDCHAR
STARTCHAR U+28AD
ENCODING 10413
SWIDTH 960 0
DWIDTH 8 0
BBX 6 11 1 -2
BITMAP
CC
CC
00
00
00
00
CC
CC
00
0C
0C
ENDCHAR
STARTCHAR U+28AE
ENCODING 10414
SWIDTH 960 0
DWIDTH 8 0
BBX 6 11 1 -2
BITMAP
0C
0C
00
C0
C0
00
CC
CC
00
0C
0C
ENDCHAR
STARTCHAR U+28AF
ENCODING 10415
SWIDTH 960 0
DWIDTH 8 0
BBX 6 11 1 -2
BITMAP
CC
CC
00
C0
C0
00
CC
CC
00
0C
0C
ENDCHAR
STARTCHAR U+28B0
ENCODING 10416
SWIDTH 960 0
DWIDTH 8 0
BBX 2 8 5 -2
BITMAP
C0
C0
00
C0
C0
00
C0
C0
ENDCHAR
STARTCHAR U+28B1
ENCODING 10417
SWIDTH 960 0
DWIDTH 8 0
BBX 6 11 1 -2
BITMAP
C0
C0
00
0C
0C
00
0C
0C
00
0C
0C
ENDCHAR
STARTCHAR U+28B2
ENCODING 10418
SWIDTH 960 0
DWIDTH 8 0
BBX 6 8 1 -2
BITMAP
CC
CC
00
0C
0C
00
0C
0C
ENDCHAR
STARTCHAR U+28B3
ENCODING 10419
SWIDTH 960 0
DWIDTH 8 0
BBX 6 11 1 -2
BITMAP
C0
C0
00
CC
CC
00
0C
0C
00
0C
0C
ENDCHAR
STARTCHAR U+28B4
ENCODING 10420
SWIDTH 960 0
DWIDTH 8 0
BBX 6 8 1 -2
BITMAP
0C
0C
00
CC
CC
00
0C
0C
ENDCHAR
STARTCHAR U+28B5
ENCODING 10421
SWIDTH 960 0
DWIDTH 8 0
BBX 6 11 1 -2
BITMAP
C0
C0
00
0C
0C
00
CC
CC
00
0C
0C
ENDCHAR
STARTCHAR U+28B6
ENCODING 10422
SWIDTH 960 0
DWIDTH 8 0
BBX 6 8 1 -2
BITMAP
CC
CC
00
CC
CC
00
0C
0C
ENDCHAR
STARTCHAR U+28B7
ENCODING 10423
SWIDTH 960 0
DWIDTH 8 0
BBX 6 11 1 -2
BITMAP
C0
C0
00
CC
CC
00
CC
CC
00
0C
0C
ENDCHAR
STARTCHAR U+28B8
ENCODING 10424
SWIDTH 960 0
DWIDTH 8 0
BBX 2 11 5 -2
BITMAP
C0
C0
00
C0
C0
00
C0
C0
00
C0
C0
ENDCHAR
STARTCHAR U+28B9
ENCODING 10425
SWIDTH 960 0
DWIDTH 8 0
BBX 6 11 1 -2
BITMAP
CC
CC
00
0C
0C
00
0C
0C
00
0C
0C
ENDCHAR
STARTCHAR U+28BA
ENCODING 10426
SWIDTH 960 0
DWIDTH 8 0
BBX 6 11 1 -2
BITMAP
0C
0C
00
CC
CC
00
0C
0C
00
0C
0C
ENDCHAR
STARTCHAR U+28BB
ENCODING 10427
SWIDTH 960 0
DWIDTH 8 0
BBX 6 11 1 -2
BITMAP
CC
CC
00
CC
CC
00
0C
0C
00
0C
0C
ENDCHAR
STARTCHAR U+28BC
ENCODING 10428
SWIDTH 960 0
DWIDTH 8 0
BBX 6 11 1 -2
BITMAP
0C
0C
00
0C
0C
00
CC
CC
00
0C
0C
ENDCHAR
STARTCHAR U+28BD
ENCODING 10429
SWIDTH 960 0
DWIDTH 8 0
BBX 6 11 1 -2
BITMAP
CC
CC
00
0C
0C
00
CC
CC
00
0C
0C
ENDCHAR
STARTCHAR U+28BE
ENCODING 10430
SWIDTH 960 0
DWIDTH 8 0
BBX 6 11 1 -2
BITMAP
0C
0C
00
CC
CC
00
CC
CC
00
0C
0C
ENDCHAR
STARTCHAR U+28BF
ENCODING 10431
SWIDTH 960 0
DWIDTH 8 0
BBX 6 11 1 -2
BITMAP
CC
CC
00
CC
CC
00
CC
CC
00
0C
0C
ENDCHAR
STARTCHAR U+28C0
ENCODING 10432
SWIDTH 960 0
DWIDTH 8 0
BBX 6 2 1 -2
BITMAP
CC
CC
ENDCHAR
STARTCHAR U+28C1
ENCODING 10433
SWIDTH 960 0
DWIDTH 8 0
BBX 6 11 1 -2
BITMAP
C0
C0
00
00
00
00
00
00
00
CC
CC
ENDCHAR
STARTCHAR U+28C2
ENCODING 10434
SWIDTH 960 0
DWIDTH 8 0
BBX 6 8 1 -2
BITMAP
C0
C0
00
00
00
00
CC
CC
ENDCHAR
STARTCHAR U+28C3
ENCODING 10435
SWIDTH 960 0
DWIDTH 8 0
BBX 6 11 1 -2
BITMAP
C0
C0
00
C0
C0
00
00
00
00
CC
CC
ENDCHAR
STARTCHAR U+28C4
ENCODING 10436
SWIDTH 960 0
DWIDTH 8 0
BBX 6 5 1 -2
BITMAP
C0
C0
00
CC
CC
ENDCHAR
STARTCHAR U+28C5
ENCODING 10437
SWIDTH 960 0
DWIDTH 8 0
BBX 6 11 1 -2
BITMAP
C0
C0
00
00
00
00
C0
C0
00
CC
CC
ENDCHAR
STARTCHAR U+28C6
ENCODING 10438
SWIDTH 960 0
DWIDTH 8 0
BBX 6 8 1 -2
BITMAP
C0
C0
00
C0
C0
00
CC
CC
ENDCHAR
STARTCHAR U+28C7
ENCODING 10439
SWIDTH 960 0
DWIDTH 8 0
BBX 6 11 1 -2
BITMAP
C0
C0
00
C0
C0
00
C0
C0
00
CC
CC
ENDCHAR
STARTCHAR U+28C8
ENCODING 10440
SWIDTH 960 0
DWIDTH 8 0
BBX 6 11 1 -2
BITMAP
0C
0C
00
00
00
00
00
00
00
CC
CC
ENDCHAR
STARTCHAR U+28C9
ENCODING 10441
SWIDTH 960 0
DWIDTH 8 0
BBX 6 11 1 -2
BITMAP
CC
CC
00
00
00
00
00
00
00
CC
CC
ENDCHAR
STARTCHAR U+28CA
ENCODING 10442
SWIDTH 960 0
DWIDTH 8 0
BBX 6 11 1 -2
BITMAP
0C
0C
00
C0
C0
00
00
00
00
CC
CC
ENDCHAR
STARTCHAR U+28CB
ENCODING 10443
SWIDTH 960 0
DWIDTH 8 0
BBX 6 11 1 -2
BITMAP
CC
CC
00
C0
C0
00
00
00
00
CC
CC
ENDCHAR
STARTCHAR U+28CC
ENCODING 10444
SWIDTH 960 0
DWIDTH 8 0
BBX 6 11 1 -2
BITMAP
0C
0C
00
00
00
00
C0
C0
00
CC
CC
ENDCHAR
STARTCHAR U+28CD
ENCODING 10445
SWIDTH 960 0
DWIDTH 8 0
BBX 6 11 1 -2
BITMAP
CC
CC
00
00
00
00
C0
C0
00
CC
CC
ENDCHAR
STARTCHAR U+28CE
ENCODING 10446
SWIDTH 960 0
DWIDTH 8 0
BBX 6 11 1 -2
BITMAP
0C
0C
00
C0
C0
00
C0
C0
00
CC
CC
ENDCHAR
STARTCHAR U+28CF
ENCODING 10447
SWIDTH 960 0
DWIDTH 8 0
BBX 6 11 1 -2
BITMAP
CC
CC
00
C0
C0
00
C0
C0
00
CC
CC
ENDCHAR
STARTCHAR U+28D0
ENCODING 10448
SWIDTH 960 0
DWIDTH 8 0
BBX 6 8 1 -2
BITMAP
0C
0C
00
00
00
00
CC
CC
ENDCHAR
STARTCHAR U+28D1
ENCODING 10449
SWIDTH 960 0
DWIDTH 8 0
BBX 6 11 1 -2
BITMAP
C0
C0
00
0C
0C
00
00
00
00
CC
CC
ENDCHAR
STARTCHAR U+28D2
ENCODING 10450
SWIDTH 960 0
DWIDTH 8 0
BBX 6 8 1 -2
BITMAP
CC
CC
00
00
00
00
CC
CC
ENDCHAR
STARTCHAR U+28D3
ENCODING 10451
SWIDTH 960 0
DWIDTH 8 0
BBX 6 11 1 -2
BITMAP
C0
C0
00
CC
CC
00
00
00
00
CC
CC
ENDCHAR
STARTCHAR U+28D4
ENCODING 10452
SWIDTH 960 0
DWIDTH 8 0
BBX 6 8 1 -2
BITMAP
0C
0C
00
C0
C0
00
CC
CC
ENDCHAR
STARTCHAR U+28D5
ENCODING 10453
SWIDTH 960 0
DWIDTH 8 0
BBX 6 11 1 -2
BITMAP
C0
C0
00
0C
0C
00
C0
C0
00
CC
CC
ENDCHAR
STARTCHAR U+28D6
ENCODING 10454
SWIDTH 960 0
DWIDTH 8 0
BBX 6 8 1 -2
BITMAP
CC
CC
00
C0
C0
00
CC
CC
ENDCHAR
STARTCHAR U+28D7
ENCODING 10455
SWIDTH 960 0
DWIDTH 8 0
BBX 6 11 1 -2
BITMAP
C0
C0
00
CC
CC
00
C0
C0
00
CC
CC
ENDCHAR
STARTCHAR U+28D8
ENCODING 10456
SWIDTH 960 0
DWIDTH 8 0
BBX 6 11 1 -2
BITMAP
0C
0C
00
0C
0C
00
00
00
00
CC
CC
ENDCHAR
STARTCHAR U+28D9
ENCODING 10457
SWIDTH 960 0
DWIDTH 8 0
BBX 6 11 1 -2
BITMAP
CC
CC
00
0C
0C
00
00
00
00
CC
CC
ENDCHAR
STARTCHAR U+28DA
ENCODING 10458
SWIDTH 960 0
DWIDTH 8 0
BBX 6 11 1 -2
BITMAP
0C
0C
00
CC
CC
00
00
00
00
CC
CC
ENDCHAR
STARTCHAR U+28DB
ENCODING 10459
SWIDTH 960 0
DWIDTH 8 0
BBX 6 11 1 -2
BITMAP
CC
CC
00
CC
CC
00
00
00
00
CC
CC
ENDCHAR
STARTCHAR U+28DC
ENCODING 10460
SWIDTH 960 0
DWIDTH 8 0
BBX 6 11 1 -2
BITMAP
0C
0C
00
0C
0C
00
C0
C0
00
CC
CC
ENDCHAR
STARTCHAR U+28DD
ENCODING 10461
SWIDTH 960 0
DWIDTH 8 0
BBX 6 11 1 -2
BITMAP
CC
CC
00
0C
0C
00
C0
C0
00
CC
CC
ENDCHAR
STARTCHAR U+28DE
ENCODING 10462
SWIDTH 960 0
DWIDTH 8 0
BBX 6 11 1 -2
BITMAP
0C
0C
00
CC
CC
00
C0
C0
00
CC
CC
ENDCHAR
STARTCHAR U+28DF
ENCODING 10463
SWIDTH 960 0
DWIDTH 8 0
BBX 6 11 1 -2
BITMAP
CC
CC
00
CC
CC
00
C0
C0
00
CC
CC
ENDCHAR
STARTCHAR U+28E0
ENCODING 10464
SWIDTH 960 0
DWIDTH 8 0
BBX 6 5 1 -2
BITMAP
0C
0C
00
CC
CC
ENDCHAR
STARTCHAR U+28E1
ENCODING 10465
SWIDTH 960 0
DWIDTH 8 0
BBX 6 11 1 -2
BITMAP
C0
C0
00
00
00
00
0C
0C
00
CC
CC
ENDCHAR
STARTCHAR U+28E2
ENCODING 10466
SWIDTH 960 0
DWIDTH 8 0
BBX 6 8 1 -2
BITMAP
C0
C0
00
0C
0C
00
CC
CC
ENDCHAR
STARTCHAR U+28E3
ENCODING 10467
SWIDTH 960 0
DWIDTH 8 0
BBX 6 11 1 -2
BITMAP
C0
C0
00
C0
C0
00
0C
0C
00
CC
CC
ENDCHAR
STARTCHAR U+28E4
ENCODING 10468
SWIDTH 960 0
DWIDTH 8 0
BBX 6 5 1 -2
BITMAP
CC
CC
00
CC
CC
ENDCHAR
STARTCHAR U+28E5
ENCODING 10469
SWIDTH 960 0
DWIDTH 8 0
BBX 6 11 1 -2
BITMAP
C0
C0
00
00
00
00
CC
CC
00
CC
CC
ENDCHAR
STARTCHAR U+28E6
ENCODING 10470
SWIDTH 960 0
DWIDTH 8 0
BBX 6 8 1 -2
BITMAP
C0
C0
00
CC
CC
00
CC
CC
ENDCHAR
STARTCHAR U+28E7
ENCODING 10471
SWIDTH 960 0
DWIDTH 8 0
BBX 6 11 1 -2
BITMAP
C0
C0
00
C0
C0
00
CC
CC
00
CC
CC
ENDCHAR
STARTCHAR U+28E8
ENCODING 10472
SWIDTH 960 0
DWIDTH 8 0
BBX 6 11 1 -2
BITMAP
0C
0C
00
00
00
00
0C
0C
00
CC
CC
ENDCHAR
STARTCHAR U+28E9
ENCODING 10473
SWIDTH 960 0
DWIDTH 8 0
BBX 6 11 1 -2
BITMAP
CC
CC
00
00
00
00
0C
0C
00
CC
CC
ENDCHAR
STARTCHAR U+28EA
ENCODING 10474
SWIDTH 960 0
DWIDTH 8 0
BBX 6 11 1 -2
BITMAP
0C
0C
00
C0
C0
00
0C
0C
00
CC
CC
ENDCHAR
STARTCHAR U+28EB
ENCODING 10475
SWIDTH 960 0
DWIDTH 8 0
BBX 6 11 1 -2
BITMAP
CC
CC
00
C0
C0
00
0C
0C
00
CC
CC
ENDCHAR
STARTCHAR U+28EC
ENCODING 10476
SWIDTH 960 0
DWIDTH 8 0
BBX 6 11 1 -2
BITMAP
0C
0C
00
00
00
00
CC
CC
00
CC
CC
ENDCHAR
STARTCHAR U+28ED
ENCODING 10477
SWIDTH 960 0
DWIDTH 8 0
BBX 6 11 1 -2
BITMAP
CC
CC
00
00
00
00
CC
CC
00
CC
CC
ENDCHAR
STARTCHAR U+28EE
ENCODING 10478
SWIDTH 960 0
DWIDTH 8 0
BBX 6 11 1 -2
BITMAP
0C
0C
00
C0
C0
00
CC
CC
00
CC
CC
ENDCHAR
STARTCHAR U+28EF
ENCODING 10479
SWIDTH 960 0
DWIDTH 8 0
BBX 6 11 1 -2
BITMAP
CC
CC
00
C0
C0
00
CC
CC
00
CC
CC
ENDCHAR
STARTCHAR U+28F0
ENCODING 10480
SWIDTH 960 0
DWIDTH 8 0
BBX 6 8 1 -2
BITMAP
0C
0C
00
0C
0C
00
CC
CC
ENDCHAR
STARTCHAR U+28F1
ENCODING 10481
SWIDTH 960 0
DWIDTH 8 0
BBX 6 11 1 -2
BITMAP
C0
C0
00
0C
0C
00
0C
0C
00
CC
CC
ENDCHAR
STARTCHAR U+28F2
ENCODING 10482
SWIDTH 960 0
DWIDTH 8 0
BBX 6 8 1 -2
BITMAP
CC
CC
00
0C
0C
00
CC
CC
ENDCHAR
STARTCHAR U+28F3
ENCODING 10483
SWIDTH 960 0
DWIDTH 8 0
BBX 6 11 1 -2
BITMAP
C0
C0
00
CC
CC
00
0C
0C
00
CC
CC
ENDCHAR
STARTCHAR U+28F4
ENCODING 10484
SWIDTH 960 0
DWIDTH 8 0
BBX 6 8 1 -2
BITMAP
0C
0C
00
CC
CC
00
CC
CC
ENDCHAR
STARTCHAR U+28F5
ENCODING 10485
SWIDTH 960 0
DWIDTH 8 0
BBX 6 11 1 -2
BITMAP
C0
C0
00
0C
0C
00
CC
CC
00
CC
CC
ENDCHAR
STARTCHAR U+28F6
ENCODING 10486
SWIDTH 960 0
DWIDTH 8 0
BBX 6 8 1 -2
BITMAP
CC
CC
00
CC
CC
00
CC
CC
ENDCHAR
STARTCHAR U+28F7
ENCODING 10487
SWIDTH 960 0
DWIDTH 8 0
BBX 6 11 1 -2
BITMAP
C0
C0
00
CC
CC
00
CC
CC
00
CC
CC
ENDCHAR
STARTCHAR U+28F8
ENCODING 10488
SWIDTH 960 0
DWIDTH 8 0
BBX 6 11 1 -2
BITMAP
0C
0C
00
0C
0C
00
0C
0C
00
CC
CC
ENDCHAR
STARTCHAR U+28F9
ENCODING 10489
SWIDTH 960 0
DWIDTH 8 0
BBX 6 11 1 -2
BITMAP
CC
CC
00
0C
0C
00
0C
0C
00
CC
CC
ENDCHAR
STARTCHAR U+28FA
ENCODING 10490
SWIDTH 960 0
DWIDTH 8 0
BBX 6 11 1 -2
BITMAP
0C
0C
00
CC
CC
00
0C
0C
00
CC
CC
ENDCHAR
STARTCHAR U+28FB
ENCODING 10491
SWIDTH 960 0
DWIDTH 8 0
BBX 6 11 1 -2
BITMAP
CC
CC
00
CC
CC
00
0C
0C
00
CC
CC
ENDCHAR
STARTCHAR U+28FC
ENCODING 10492
SWIDTH 960 0
DWIDTH 8 0
BBX 6 11 1 -2
BITMAP
0C
0C
00
0C
0C
00
CC
CC
00
CC
CC
ENDCHAR
STARTCHAR U+28FD
ENCODING 10493
SWIDTH 960 0
DWIDTH 8 0
BBX 6 11 1 -2
BITMAP
CC
CC
00
0C
0C
00
CC
CC
00
CC
CC
ENDCHAR
STARTCHAR U+28FE
ENCODING 10494
SWIDTH 960 0
DWIDTH 8 0
BBX 6 11 1 -2
BITMAP
0C
0C
00
CC
CC
00
CC
CC
00
CC
CC
ENDCHAR
STARTCHAR U+28FF
ENCODING 10495
SWIDTH 960 0
DWIDTH 8 0
BBX 6 11 1 -2
BITMAP
CC
CC
00
CC
CC
00
CC
CC
00
CC
CC
ENDCHAR
STARTCHAR U+2919
ENCODING 10521
SWIDTH 960 0
DWIDTH 8 0
BBX 8 5 0 1
BITMAP
03
06
FC
06
03
ENDCHAR
STARTCHAR U+291A
ENCODING 10522
SWIDTH 960 0
DWIDTH 8 0
BBX 8 5 0 1
BITMAP
C0
60
3F
60
C0
ENDCHAR
STARTCHAR U+2938
ENCODING 10552
SWIDTH 960 0
DWIDTH 8 0
BBX 4 7 2 0
BITMAP
20
10
10
90
A0
C0
F0
ENDCHAR
STARTCHAR U+294A
ENCODING 10570
SWIDTH 960 0
DWIDTH 8 0
BBX 8 5 0 1
BITMAP
30
60
FF
06
0C
ENDCHAR
STARTCHAR U+29B7
ENCODING 10679
SWIDTH 960 0
DWIDTH 8 0
BBX 8 7 0 0
BITMAP
3C
62
D5
D5
D5
62
3C
ENDCHAR
STARTCHAR U+29C5
ENCODING 10693
SWIDTH 960 0
DWIDTH 8 0
BBX 8 7 0 0
BITMAP
FF
E3
F3
DB
CF
C7
FF
ENDCHAR
STARTCHAR U+29FB
ENCODING 10747
SWIDTH 960 0
DWIDTH 8 0
BBX 7 5 1 1
BITMAP
54
54
FE
54
54
ENDCHAR
STARTCHAR U+2A2C
ENCODING 10796
SWIDTH 960 0
DWIDTH 8 0
BBX 6 7 1 0
BITMAP
0C
0C
00
FC
00
C0
C0
ENDCHAR
STARTCHAR U+2B1A
ENCODING 11034
SWIDTH 960 0
DWIDTH 8 0
BBX 7 7 1 0
BITMAP
AA
00
82
00
82
00
AA
ENDCHAR
STARTCHAR U+2E2E
ENCODING 11822
SWIDTH 960 0
DWIDTH 8 0
BBX 6 8 1 0
BITMAP
78
CC
C0
60
30
00
30
30
ENDCHAR
STARTCHAR U+A71D
ENCODING 42781
SWIDTH 960 0
DWIDTH 8 0
BBX 4 6 1 3
BITMAP
60
F0
60
60
00
60
ENDCHAR
STARTCHAR U+E0A0
ENCODING 57504
SWIDTH 960 0
DWIDTH 8 0
BBX 6 12 1 -2
BITMAP
C0
C8
DC
C8
C8
98
30
60
C0
C0
C0
C0
ENDCHAR
STARTCHAR U+E0A1
ENCODING 57505
SWIDTH 960 0
DWIDTH 8 0
BBX 6 11 1 -2
BITMAP
C0
C0
C0
C8
F8
00
4C
6C
7C
6C
64
ENDCHAR
STARTCHAR U+E0A2
ENCODING 57506
SWIDTH 960 0
DWIDTH 8 0
BBX 6 8 1 0
BITMAP
78
48
48
FC
CC
EC
FC
78
ENDCHAR
STARTCHAR U+E0A3
ENCODING 57507
SWIDTH 960 0
DWIDTH 8 0
BBX 6 11 1 -2
BITMAP
70
D8
C0
D8
70
00
4C
6C
7C
6C
64
ENDCHAR
STARTCHAR U+E0B0
ENCODING 57520
SWIDTH 960 0
DWIDTH 8 0
BBX 7 12 0 -2
BITMAP
C0
E0
F0
F8
FC
FE
FE
FC
F8
F0
E0
C0
ENDCHAR
STARTCHAR U+E0B1
ENCODING 57521
SWIDTH 960 0
DWIDTH 8 0
BBX 7 12 0 -2
BITMAP
C0
60
30
18
0C
06
06
0C
18
30
60
C0
ENDCHAR
STARTCHAR U+E0B2
ENCODING 57522
SWIDTH 960 0
DWIDTH 8 0
BBX 7 12 1 -2
BITMAP
06
0E
1E
3E
7E
FE
FE
7E
3E
1E
0E
06
ENDCHAR
STARTCHAR U+E0B3
ENCODING 57523
SWIDTH 960 0
DWIDTH 8 0
BBX 7 12 1 -2
BITMAP
06
0C
18
30
60
C0
C0
60
30
18
0C
06
ENDCHAR
STARTCHAR U+E0B4
ENCODING 57524
SWIDTH 960 0
DWIDTH 8 0
BBX 7 12 0 -2
BITMAP
E0
F8
FC
FC
FE
FE
FE
FE
FC
FC
F8
E0
ENDCHAR
STARTCHAR U+E0B5
ENCODING 57525
SWIDTH 960 0
DWIDTH 8 0
BBX 7 12 0 -2
BITMAP
E0
38
0C
0C
06
06
06
06
0C
0C
38
E0
ENDCHAR
STARTCHAR U+E0B6
ENCODING 57526
SWIDTH 960 0
DWIDTH 8 0
BBX 7 12 1 -2
BITMAP
0E
3E
7E
7E
FE
FE
FE
FE
7E
7E
3E
0E
ENDCHAR
STARTCHAR U+E0B7
ENCODING 57527
SWIDTH 960 0
DWIDTH 8 0
BBX 7 12 1 -2
BITMAP
0E
38
60
60
C0
C0
C0
C0
60
60
38
0E
ENDCHAR
STARTCHAR U+E0B8
ENCODING 57528
SWIDTH 960 0
DWIDTH 8 0
BBX 7 12 0 -2
BITMAP
80
C0
C0
E0
E0
F0
F0
F8
F8
FC
FC
FE
ENDCHAR
STARTCHAR U+E0B9
ENCODING 57529
SWIDTH 960 0
DWIDTH 8 0
BBX 8 12 0 -2
BITMAP
C0
60
60
30
30
18
18
0C
0C
06
06
03
ENDCHAR
STARTCHAR U+E0BA
ENCODING 57530
SWIDTH 960 0
DWIDTH 8 0
BBX 7 12 1 -2
BITMAP
02
06
06
0E
0E
1E
1E
3E
3E
7E
7E
FE
ENDCHAR
STARTCHAR U+E0BB
ENCODING 57531
SWIDTH 960 0
DWIDTH 8 0
BBX 8 12 0 -2
BITMAP
03
06
06
0C
0C
18
18
30
30
60
60
C0
ENDCHAR
STARTCHAR U+E0BC
ENCODING 57532
SWIDTH 960 0
DWIDTH 8 0
BBX 7 12 0 -2
BITMAP
FE
FC
FC
F8
F8
F0
F0
E0
E0
C0
C0
80
ENDCHAR
STARTCHAR U+E0BD
ENCODING 57533
SWIDTH 960 0
DWIDTH 8 0
BBX 8 12 0 -2
BITMAP
03
06
06
0C
0C
18
18
30
30
60
60
C0
ENDCHAR
STARTCHAR U+E0BE
ENCODING 57534
SWIDTH 960 0
DWIDTH 8 0
BBX 7 12 1 -2
BITMAP
FE
7E
7E
3E
3E
1E
1E
0E
0E
06
06
02
ENDCHAR
STARTCHAR U+E0BF
ENCODING 57535
SWIDTH 960 0
DWIDTH 8 0
BBX 8 12 0 -2
BITMAP
C0
60
60
30
30
18
18
0C
0C
06
06
03
ENDCHAR
STARTCHAR U+FB01
ENCODING 64257
SWIDTH 960 0
DWIDTH 8 0
BBX 8 7 0 0
BITMAP
36
60
FE
66
66
66
63
ENDCHAR
STARTCHAR U+FB02
ENCODING 64258
SWIDTH 960 0
DWIDTH 8 0
BBX 8 7 0 0
BITMAP
3E
66
F6
66
66
66
63
ENDCHAR
STARTCHAR U+1D53D
ENCODING 120125
SWIDTH 960 0
DWIDTH 8 0
BBX 6 7 1 0
BITMAP
FC
A4
A0
B8
A0
A0
E0
ENDCHAR
STARTCHAR U+1D53E
ENCODING 120126
SWIDTH 960 0
DWIDTH 8 0
BBX 6 7 1 0
BITMAP
78
AC
A0
AC
A4
AC
74
ENDCHAR
STARTCHAR U+1D54A
ENCODING 120138
SWIDTH 960 0
DWIDTH 8 0
BBX 6 7 1 0
BITMAP
78
A4
90
48
24
94
78
ENDCHAR
STARTCHAR U+1D54E
ENCODING 120142
SWIDTH 960 0
DWIDTH 8 0
BBX 7 7 1 0
BITMAP
C2
A2
AA
AA
AA
AA
74
ENDCHAR
STARTCHAR U+1D54F
ENCODING 120143
SWIDTH 960 0
DWIDTH 8 0
BBX 6 7 1 0
BITMAP
EC
A8
50
28
54
D4
DC
ENDCHAR
STARTCHAR U+1D557
ENCODING 120151
SWIDTH 960 0
DWIDTH 8 0
BBX 6 7 1 0
BITMAP
3C
50
50
DC
50
50
70
ENDCHAR
STARTCHAR U+1D558
ENCODING 120152
SWIDTH 960 0
DWIDTH 8 0
BBX 6 8 1 -2
BITMAP
7C
D4
D4
D4
D4
74
14
78
ENDCHAR
STARTCHAR U+1D564
ENCODING 120164
SWIDTH 960 0
DWIDTH 8 0
BBX 6 6 1 0
BITMAP
78
A4
50
28
94
78
ENDCHAR
STARTCHAR U+1D568
ENCODING 120168
SWIDTH 960 0
DWIDTH 8 0
BBX 7 6 1 0
BITMAP
EA
AA
AA
AA
AA
74
ENDCHAR
STARTCHAR U+1D569
ENCODING 120169
SWIDTH 960 0
DWIDTH 8 0
BBX 6 6 1 0
BITMAP
EC
A8
50
28
54
DC
ENDCHAR
STARTCHAR U+1FB00
ENCODING 129792
SWIDTH 960 0
DWIDTH 8 0
BBX 4 4 0 6
BITMAP
F0
F0
F0
F0
ENDCHAR
STARTCHAR U+1FB01
ENCODING 129793
SWIDTH 960 0
DWIDTH 8 0
BBX 4 4 4 6
BITMAP
F0
F0
F0
F0
ENDCHAR
STARTCHAR U+1FB02
ENCODING 129794
SWIDTH 960 0
DWIDTH 8 0
BBX 8 4 0 6
BITMAP
FF
FF
FF
FF
ENDCHAR
STARTCHAR U+1FB03
ENCODING 129795
SWIDTH 960 0
DWIDTH 8 0
BBX 4 4 0 2
BITMAP
F0
F0
F0
F0
ENDCHAR
STARTCHAR U+1FB04
ENCODING 129796
SWIDTH 960 0
DWIDTH 8 0
BBX 4 8 0 2
BITMAP
F0
F0
F0
F0
F0
F0
F0
F0
ENDCHAR
STARTCHAR U+1FB05
ENCODING 129797
SWIDTH 960 0
DWIDTH 8 0
BBX 8 8 0 2
BITMAP
0F
0F
0F
0F
F0
F0
F0
F0
ENDCHAR
STARTCHAR U+1FB06
ENCODING 129798
SWIDTH 960 0
DWIDTH 8 0
BBX 8 8 0 2
BITMAP
FF
FF
FF
FF
F0
F0
F0
F0
ENDCHAR
STARTCHAR U+1FB07
ENCODING 129799
SWIDTH 960 0
DWIDTH 8 0
BBX 4 4 4 2
BITMAP
F0
F0
F0
F0
ENDCHAR
STARTCHAR U+1FB08
ENCODING 129800
SWIDTH 960 0
DWIDTH 8 0
BBX 8 8 0 2
BITMAP
F0
F0
F0
F0
0F
0F
0F
0F
ENDCHAR
STARTCHAR U+1FB09
ENCODING 129801
SWIDTH 960 0
DWIDTH 8 0
BBX 4 8 4 2
BITMAP
F0
F0
F0
F0
F0
F0
F0
F0
ENDCHAR
STARTCHAR U+1FB0A
ENCODING 129802
SWIDTH 960 0
DWIDTH 8 0
BBX 8 8 0 2
BITMAP
FF
FF
FF
FF
0F
0F
0F
0F
ENDCHAR
STARTCHAR U+1FB0B
ENCODING 129803
SWIDTH 960 0
DWIDTH 8 0
BBX 8 4 0 2
BITMAP
FF
FF
FF
FF
ENDCHAR
STARTCHAR U+1FB0C
ENCODING 129804
SWIDTH 960 0
DWIDTH 8 0
BBX 8 8 0 2
BITMAP
F0
F0
F0
F0
FF
FF
FF
FF
ENDCHAR
STARTCHAR U+1FB0D
ENCODING 129805
SWIDTH 960 0
DWIDTH 8 0
BBX 8 8 0 2
BITMAP
0F
0F
0F
0F
FF
FF
FF
FF
ENDCHAR
STARTCHAR U+1FB0E
ENCODING 129806
SWIDTH 960 0
DWIDTH 8 0
BBX 8 8 0 2
BITMAP
FF
FF
FF
FF
FF
FF
FF
FF
ENDCHAR
STARTCHAR U+1FB0F
ENCODING 129807
SWIDTH 960 0
DWIDTH 8 0
BBX 4 4 0 -2
BITMAP
F0
F0
F0
F0
ENDCHAR
STARTCHAR U+1FB10
ENCODING 129808
SWIDTH 960 0
DWIDTH 8 0
BBX 4 12 0 -2
BITMAP
F0
F0
F0
F0
00
00
00
00
F0
F0
F0
F0
ENDCHAR
STARTCHAR U+1FB11
ENCODING 129809
SWIDTH 960 0
DWIDTH 8 0
BBX 8 12 0 -2
BITMAP
0F
0F
0F
0F
00
00
00
00
F0
F0
F0
F0
ENDCHAR
STARTCHAR U+1FB12
ENCODING 129810
SWIDTH 960 0
DWIDTH 8 0
BBX 8 12 0 -2
BITMAP
FF
FF
FF
FF
00
00
00
00
F0
F0
F0
F0
ENDCHAR
STARTCHAR U+1FB13
ENCODING 129811
SWIDTH 960 0
DWIDTH 8 0
BBX 4 8 0 -2
BITMAP
F0
F0
F0
F0
F0
F0
F0
F0
ENDCHAR
STARTCHAR U+1FB14
ENCODING 129812
SWIDTH 960 0
DWIDTH 8 0
BBX 8 12 0 -2
BITMAP
0F
0F
0F
0F
F0
F0
F0
F0
F0
F0
F0
F0
ENDCHAR
STARTCHAR U+1FB15
ENCODING 129813
SWIDTH 960 0
DWIDTH 8 0
BBX 8 12 0 -2
BITMAP
FF
FF
FF
FF
F0
F0
F0
F0
F0
F0
F0
F0
ENDCHAR
STARTCHAR U+1FB16
ENCODING 129814
SWIDTH 960 0
DWIDTH 8 0
BBX 8 8 0 -2
BITMAP
0F
0F
0F
0F
F0
F0
F0
F0
ENDCHAR
STARTCHAR U+1FB17
ENCODING 129815
SWIDTH 960 0
DWIDTH 8 0
BBX 8 12 0 -2
BITMAP
F0
F0
F0
F0
0F
0F
0F
0F
F0
F0
F0
F0
ENDCHAR
STARTCHAR U+1FB18
ENCODING 129816
SWIDTH 960 0
DWIDTH 8 0
BBX 8 12 0 -2
BITMAP
0F
0F
0F
0F
0F
0F
0F
0F
F0
F0
F0
F0
ENDCHAR
STARTCHAR U+1FB19
ENCODING 129817
SWIDTH 960 0
DWIDTH 8 0
BBX 8 12 0 -2
BITMAP
FF
FF
FF
FF
0F
0F
0F
0F
F0
F0
F0
F0
ENDCHAR
STARTCHAR U+1FB1A
ENCODING 129818
SWIDTH 960 0
DWIDTH 8 0
BBX 8 8 0 -2
BITMAP
FF
FF
FF
FF
F0
F0
F0
F0
ENDCHAR
STARTCHAR U+1FB1B
ENCODING 129819
SWIDTH 960 0
DWIDTH 8 0
BBX 8 12 0 -2
BITMAP
F0
F0
F0
F0
FF
FF
FF
FF
F0
F0
F0
F0
ENDCHAR
STARTCHAR U+1FB1C
ENCODING 129820
SWIDTH 960 0
DWIDTH 8 0
BBX 8 12 0 -2
BITMAP
0F
0F
0F
0F
FF
FF
FF
FF
F0
F0
F0
F0
ENDCHAR
STARTCHAR U+1FB1D
ENCODING 129821
SWIDTH 960 0
DWIDTH 8 0
BBX 8 12 0 -2
BITMAP
FF
FF
FF
FF
FF
FF
FF
FF
F0
F0
F0
F0
ENDCHAR
STARTCHAR U+1FB1E
ENCODING 129822
SWIDTH 960 0
DWIDTH 8 0
BBX 4 4 4 -2
BITMAP
F0
F0
F0
F0
ENDCHAR
STARTCHAR U+1FB1F
ENCODING 129823
SWIDTH 960 0
DWIDTH 8 0
BBX 8 12 0 -2
BITMAP
F0
F0
F0
F0
00
00
00
00
0F
0F
0F
0F
ENDCHAR
STARTCHAR U+1FB20
ENCODING 129824
SWIDTH 960 0
DWIDTH 8 0
BBX 4 12 4 -2
BITMAP
F0
F0
F0
F0
00
00
00
00
F0
F0
F0
F0
ENDCHAR
STARTCHAR U+1FB21
ENCODING 129825
SWIDTH 960 0
DWIDTH 8 0
BBX 8 12 0 -2
BITMAP
FF
FF
FF
FF
00
00
00
00
0F
0F
0F
0F
ENDCHAR
STARTCHAR U+1FB22
ENCODING 129826
SWIDTH 960 0
DWIDTH 8 0
BBX 8 8 0 -2
BITMAP
F0
F0
F0
F0
0F
0F
0F
0F
ENDCHAR
STARTCHAR U+1FB23
ENCODING 129827
SWIDTH 960 0
DWIDTH 8 0
BBX 8 12 0 -2
BITMAP
F0
F0
F0
F0
F0
F0
F0
F0
0F
0F
0F
0F
ENDCHAR
STARTCHAR U+1FB24
ENCODING 129828
SWIDTH 960 0
DWIDTH 8 0
BBX 8 12 0 -2
BITMAP
0F
0F
0F
0F
F0
F0
F0
F0
0F
0F
0F
0F
ENDCHAR
STARTCHAR U+1FB25
ENCODING 129829
SWIDTH 960 0
DWIDTH 8 0
BBX 8 12 0 -2
BITMAP
FF
FF
FF
FF
F0
F0
F0
F0
0F
0F
0F
0F
ENDCHAR
STARTCHAR U+1FB26
ENCODING 129830
SWIDTH 960 0
DWIDTH 8 0
BBX 4 8 4 -2
BITMAP
F0
F0
F0
F0
F0
F0
F0
F0
ENDCHAR
STARTCHAR U+1FB27
ENCODING 129831
SWIDTH 960 0
DWIDTH 8 0
BBX 8 12 0 -2
BITMAP
F0
F0
F0
F0
0F
0F
0F
0F
0F
0F
0F
0F
ENDCHAR
STARTCHAR U+1FB28
ENCODING 129832
SWIDTH 960 0
DWIDTH 8 0
BBX 8 12 0 -2
BITMAP
FF
FF
FF
FF
0F
0F
0F
0F
0F
0F
0F
0F
ENDCHAR
STARTCHAR U+1FB29
ENCODING 129833
SWIDTH 960 0
DWIDTH 8 0
BBX 8 8 0 -2
BITMAP
FF
FF
FF
FF
0F
0F
0F
0F
ENDCHAR
STARTCHAR U+1FB2A
ENCODING 129834
SWIDTH 960 0
DWIDTH 8 0
BBX 8 12 0 -2
BITMAP
F0
F0
F0
F0
FF
FF
FF
FF
0F
0F
0F
0F
ENDCHAR
STARTCHAR U+1FB2B
ENCODING 129835
SWIDTH 960 0
DWIDTH 8 0
BBX 8 12 0 -2
BITMAP
0F
0F
0F
0F
FF
FF
FF
FF
0F
0F
0F
0F
ENDCHAR
STARTCHAR U+1FB2C
ENCODING 129836
SWIDTH 960 0
DWIDTH 8 0
BBX 8 12 0 -2
BITMAP
FF
FF
FF
FF
FF
FF
FF
FF
0F
0F
0F
0F
ENDCHAR
STARTCHAR U+1FB2D
ENCODING 129837
SWIDTH 960 0
DWIDTH 8 0
BBX 8 4 0 -2
BITMAP
FF
FF
FF
FF
ENDCHAR
STARTCHAR U+1FB2E
ENCODING 129838
SWIDTH 960 0
DWIDTH 8 0
BBX 8 12 0 -2
BITMAP
F0
F0
F0
F0
00
00
00
00
FF
FF
FF
FF
ENDCHAR
STARTCHAR U+1FB2F
ENCODING 129839
SWIDTH 960 0
DWIDTH 8 0
BBX 8 12 0 -2
BITMAP
0F
0F
0F
0F
00
00
00
00
FF
FF
FF
FF
ENDCHAR
STARTCHAR U+1FB30
ENCODING 129840
SWIDTH 960 0
DWIDTH 8 0
BBX 8 12 0 -2
BITMAP
FF
FF
FF
FF
00
00
00
00
FF
FF
FF
FF
ENDCHAR
STARTCHAR U+1FB31
ENCODING 129841
SWIDTH 960 0
DWIDTH 8 0
BBX 8 8 0 -2
BITMAP
F0
F0
F0
F0
FF
FF
FF
FF
ENDCHAR
STARTCHAR U+1FB32
ENCODING 129842
SWIDTH 960 0
DWIDTH 8 0
BBX 8 12 0 -2
BITMAP
F0
F0
F0
F0
F0
F0
F0
F0
FF
FF
FF
FF
ENDCHAR
STARTCHAR U+1FB33
ENCODING 129843
SWIDTH 960 0
DWIDTH 8 0
BBX 8 12 0 -2
BITMAP
0F
0F
0F
0F
F0
F0
F0
F0
FF
FF
FF
FF
ENDCHAR
STARTCHAR U+1FB34
ENCODING 129844
SWIDTH 960 0
DWIDTH 8 0
BBX 8 12 0 -2
BITMAP
FF
FF
FF
FF
F0
F0
F0
F0
FF
FF
FF
FF
ENDCHAR
STARTCHAR U+1FB35
ENCODING 129845
SWIDTH 960 0
DWIDTH 8 0
BBX 8 8 0 -2
BITMAP
0F
0F
0F
0F
FF
FF
FF
FF
ENDCHAR
STARTCHAR U+1FB36
ENCODING 129846
SWIDTH 960 0
DWIDTH 8 0
BBX 8 12 0 -2
BITMAP
F0
F0
F0
F0
0F
0F
0F
0F
FF
FF
FF
FF
ENDCHAR
STARTCHAR U+1FB37
ENCODING 129847
SWIDTH 960 0
DWIDTH 8 0
BBX 8 12 0 -2
BITMAP
0F
0F
0F
0F
0F
0F
0F
0F
FF
FF
FF
FF
ENDCHAR
STARTCHAR U+1FB38
ENCODING 129848
SWIDTH 960 0
DWIDTH 8 0
BBX 8 12 0 -2
BITMAP
FF
FF
FF
FF
0F
0F
0F
0F
FF
FF
FF
FF
ENDCHAR
STARTCHAR U+1FB39
ENCODING 129849
SWIDTH 960 0
DWIDTH 8 0
BBX 8 8 0 -2
BITMAP
FF
FF
FF
FF
FF
FF
FF
FF
ENDCHAR
STARTCHAR U+1FB3A
ENCODING 129850
SWIDTH 960 0
DWIDTH 8 0
BBX 8 12 0 -2
BITMAP
F0
F0
F0
F0
FF
FF
FF
FF
FF
FF
FF
FF
ENDCHAR
STARTCHAR U+1FB3B
ENCODING 129851
SWIDTH 960 0
DWIDTH 8 0
BBX 8 12 0 -2
BITMAP
0F
0F
0F
0F
FF
FF
FF
FF
FF
FF
FF
FF
ENDCHAR
STARTCHAR U+1FB3C
ENCODING 129852
SWIDTH 960 0
DWIDTH 8 0
BBX 4 4 0 -2
BITMAP
80
C0
E0
F0
ENDCHAR
STARTCHAR U+1FB3D
ENCODING 129853
SWIDTH 960 0
DWIDTH 8 0
BBX 8 4 0 -2
BITMAP
C0
F0
FC
FF
ENDCHAR
STARTCHAR U+1FB3E
ENCODING 129854
SWIDTH 960 0
DWIDTH 8 0
BBX 4 8 0 -2
BITMAP
80
80
C0
C0
E0
E0
F0
F0
ENDCHAR
STARTCHAR U+1FB3F
ENCODING 129855
SWIDTH 960 0
DWIDTH 8 0
BBX 8 8 0 -2
BITMAP
80
C0
E0
F0
F8
FC
FE
FF
ENDCHAR
STARTCHAR U+1FB40
ENCODING 129856
SWIDTH 960 0
DWIDTH 8 0
BBX 4 12 0 -2
BITMAP
80
80
80
C0
C0
C0
E0
E0
E0
F0
F0
F0
ENDCHAR
STARTCHAR U+1FB41
ENCODING 129857
SWIDTH 960 0
DWIDTH 8 0
BBX 8 12 0 -2
BITMAP
0F
1F
3F
7F
FF
FF
FF
FF
FF
FF
FF
FF
ENDCHAR
STARTCHAR U+1FB42
ENCODING 129858
SWIDTH 960 0
DWIDTH 8 0
BBX 8 11 0 -2
BITMAP
03
0F
3F
FF
FF
FF
FF
FF
FF
FF
FF
ENDCHAR
STARTCHAR U+1FB43
ENCODING 129859
SWIDTH 960 0
DWIDTH 8 0
BBX 8 12 0 -2
BITMAP
0F
0F
1F
1F
3F
3F
7F
7F
FF
FF
FF
FF
ENDCHAR
STARTCHAR U+1FB44
ENCODING 129860
SWIDTH 960 0
DWIDTH 8 0
BBX 8 11 0 -2
BITMAP
01
03
07
0F
1F
3F
7F
FF
FF
FF
FF
ENDCHAR
STARTCHAR U+1FB45
ENCODING 129861
SWIDTH 960 0
DWIDTH 8 0
BBX 7 12 1 -2
BITMAP
1E
1E
1E
3E
3E
3E
7E
7E
7E
FE
FE
FE
ENDCHAR
STARTCHAR U+1FB46
ENCODING 129862
SWIDTH 960 0
DWIDTH 8 0
BBX 8 8 0 -2
BITMAP
01
07
1F
7F
FF
FF
FF
FF
ENDCHAR
STARTCHAR U+1FB47
ENCODING 129863
SWIDTH 960 0
DWIDTH 8 0
BBX 4 4 4 -2
BITMAP
10
30
70
F0
ENDCHAR
STARTCHAR U+1FB48
ENCODING 129864
SWIDTH 960 0
DWIDTH 8 0
BBX 8 4 0 -2
BITMAP
03
0F
3F
FF
ENDCHAR
STARTCHAR U+1FB49
ENCODING 129865
SWIDTH 960 0
DWIDTH 8 0
BBX 4 8 4 -2
BITMAP
10
10
30
30
70
70
F0
F0
ENDCHAR
STARTCHAR U+1FB4A
ENCODING 129866
SWIDTH 960 0
DWIDTH 8 0
BBX 8 8 0 -2
BITMAP
01
03
07
0F
1F
3F
7F
FF
ENDCHAR
STARTCHAR U+1FB4B
ENCODING 129867
SWIDTH 960 0
DWIDTH 8 0
BBX 4 12 4 -2
BITMAP
10
10
10
30
30
30
70
70
70
F0
F0
F0
ENDCHAR
STARTCHAR U+1FB4C
ENCODING 129868
SWIDTH 960 0
DWIDTH 8 0
BBX 8 12 0 -2
BITMAP
F0
F8
FC
FE
FF
FF
FF
FF
FF
FF
FF
FF
ENDCHAR
STARTCHAR U+1FB4D
ENCODING 129869
SWIDTH 960 0
DWIDTH 8 0
BBX 8 11 0 -2
BITMAP
C0
F0
FC
FF
FF
FF
FF
FF
FF
FF
FF
ENDCHAR
STARTCHAR U+1FB4E
ENCODING 129870
SWIDTH 960 0
DWIDTH 8 0
BBX 8 12 0 -2
BITMAP
F0
F0
F8
F8
FC
FC
FE
FE
FF
FF
FF
FF
ENDCHAR
STARTCHAR U+1FB4F
ENCODING 129871
SWIDTH 960 0
DWIDTH 8 0
BBX 8 11 0 -2
BITMAP
80
C0
E0
F0
F8
FC
FE
FF
FF
FF
FF
ENDCHAR
STARTCHAR U+1FB50
ENCODING 129872
SWIDTH 960 0
DWIDTH 8 0
BBX 7 12 0 -2
BITMAP
F0
F0
F0
F8
F8
F8
FC
FC
FC
FE
FE
FE
ENDCHAR
STARTCHAR U+1FB51
ENCODING 129873
SWIDTH 960 0
DWIDTH 8 0
BBX 8 8 0 -2
BITMAP
80
E0
F8
FE
FF
FF
FF
FF
ENDCHAR
STARTCHAR U+1FB52
ENCODING 129874
SWIDTH 960 0
DWIDTH 8 0
BBX 8 12 0 -2
BITMAP
FF
FF
FF
FF
FF
FF
FF
FF
7F
3F
1F
0F
ENDCHAR
STARTCHAR U+1FB53
ENCODING 129875
SWIDTH 960 0
DWIDTH 8 0
BBX 8 11 0 -1
BITMAP
FF
FF
FF
FF
FF
FF
FF
FF
3F
0F
03
ENDCHAR
STARTCHAR U+1FB54
ENCODING 129876
SWIDTH 960 0
DWIDTH 8 0
BBX 8 12 0 -2
BITMAP
FF
FF
FF
FF
7F
7F
3F
3F
1F
1F
0F
0F
ENDCHAR
STARTCHAR U+1FB55
ENCODING 129877
SWIDTH 960 0
DWIDTH 8 0
BBX 8 11 0 -1
BITMAP
FF
FF
FF
FF
7F
3F
1F
0F
07
03
01
ENDCHAR
STARTCHAR U+1FB56
ENCODING 129878
SWIDTH 960 0
DWIDTH 8 0
BBX 7 12 1 -2
BITMAP
FE
FE
FE
7E
7E
7E
3E
3E
3E
1E
1E
1E
ENDCHAR
STARTCHAR U+1FB57
ENCODING 129879
SWIDTH 960 0
DWIDTH 8 0
BBX 4 4 0 6
BITMAP
F0
E0
C0
80
ENDCHAR
STARTCHAR U+1FB58
ENCODING 129880
SWIDTH 960 0
DWIDTH 8 0
BBX 8 4 0 6
BITMAP
FF
FC
F0
C0
ENDCHAR
STARTCHAR U+1FB59
ENCODING 129881
SWIDTH 960 0
DWIDTH 8 0
BBX 4 8 0 2
BITMAP
F0
F0
E0
E0
C0
C0
80
80
ENDCHAR
STARTCHAR U+1FB5A
ENCODING 129882
SWIDTH 960 0
DWIDTH 8 0
BBX 8 8 0 2
BITMAP
FF
FE
FC
F8
F0
E0
C0
80
ENDCHAR
STARTCHAR U+1FB5B
ENCODING 129883
SWIDTH 960 0
DWIDTH 8 0
BBX 4 12 0 -2
BITMAP
F0
F0
F0
E0
E0
E0
C0
C0
C0
80
80
80
ENDCHAR
STARTCHAR U+1FB5C
ENCODING 129884
SWIDTH 960 0
DWIDTH 8 0
BBX 8 8 0 2
BITMAP
FF
FF
FF
FF
FE
F8
E0
80
ENDCHAR
STARTCHAR U+1FB5D
ENCODING 129885
SWIDTH 960 0
DWIDTH 8 0
BBX 8 12 0 -2
BITMAP
FF
FF
FF
FF
FF
FF
FF
FF
FE
FC
F8
F0
ENDCHAR
STARTCHAR U+1FB5E
ENCODING 129886
SWIDTH 960 0
DWIDTH 8 0
BBX 8 11 0 -1
BITMAP
FF
FF
FF
FF
FF
FF
FF
FF
FC
F0
C0
ENDCHAR
STARTCHAR U+1FB5F
ENCODING 129887
SWIDTH 960 0
DWIDTH 8 0
BBX 8 12 0 -2
BITMAP
FF
FF
FF
FF
FE
FE
FC
FC
F8
F8
F0
F0
ENDCHAR
STARTCHAR U+1FB60
ENCODING 129888
SWIDTH 960 0
DWIDTH 8 0
BBX 8 11 0 -1
BITMAP
FF
FF
FF
FF
FE
FC
F8
F0
E0
C0
80
ENDCHAR
STARTCHAR U+1FB61
ENCODING 129889
SWIDTH 960 0
DWIDTH 8 0
BBX 7 12 0 -2
BITMAP
FE
FE
FE
FC
FC
FC
F8
F8
F8
F0
F0
F0
ENDCHAR
STARTCHAR U+1FB62
ENCODING 129890
SWIDTH 960 0
DWIDTH 8 0
BBX 4 4 4 6
BITMAP
F0
70
30
10
ENDCHAR
STARTCHAR U+1FB63
ENCODING 129891
SWIDTH 960 0
DWIDTH 8 0
BBX 8 4 0 6
BITMAP
FF
3F
0F
03
ENDCHAR
STARTCHAR U+1FB64
ENCODING 129892
SWIDTH 960 0
DWIDTH 8 0
BBX 4 8 4 2
BITMAP
F0
F0
70
70
30
30
10
10
ENDCHAR
STARTCHAR U+1FB65
ENCODING 129893
SWIDTH 960 0
DWIDTH 8 0
BBX 8 8 0 2
BITMAP
FF
7F
3F
1F
0F
07
03
01
ENDCHAR
STARTCHAR U+1FB66
ENCODING 129894
SWIDTH 960 0
DWIDTH 8 0
BBX 4 12 4 -2
BITMAP
F0
F0
F0
70
70
70
30
30
30
10
10
10
ENDCHAR
STARTCHAR U+1FB67
ENCODING 129895
SWIDTH 960 0
DWIDTH 8 0
BBX 8 8 0 2
BITMAP
FF
FF
FF
FF
7F
1F
07
01
ENDCHAR
STARTCHAR U+1FB68
ENCODING 129896
SWIDTH 960 0
DWIDTH 8 0
BBX 7 12 1 -2
BITMAP
FE
7E
7E
3E
3E
1E
1E
3E
3E
7E
7E
FE
ENDCHAR
STARTCHAR U+1FB69
ENCODING 129897
SWIDTH 960 0
DWIDTH 8 0
BBX 8 11 0 -2
BITMAP
81
81
C3
C3
E7
FF
FF
FF
FF
FF
FF
ENDCHAR
STARTCHAR U+1FB6A
ENCODING 129898
SWIDTH 960 0
DWIDTH 8 0
BBX 7 12 0 -2
BITMAP
FE
FC
FC
F8
F8
F0
F0
F8
F8
FC
FC
FE
ENDCHAR
STARTCHAR U+1FB6B
ENCODING 129899
SWIDTH 960 0
DWIDTH 8 0
BBX 8 11 0 -1
BITMAP
FF
FF
FF
FF
FF
FF
E7
C3
C3
81
81
ENDCHAR
STARTCHAR U+1FB6C
ENCODING 129900
SWIDTH 960 0
DWIDTH 8 0
BBX 4 12 0 -2
BITMAP
80
C0
C0
E0
E0
F0
F0
E0
E0
C0
C0
80
ENDCHAR
STARTCHAR U+1FB6D
ENCODING 129901
SWIDTH 960 0
DWIDTH 8 0
BBX 8 6 0 4
BITMAP
FF
7E
7E
3C
3C
18
ENDCHAR
STARTCHAR U+1FB6E
ENCODING 129902
SWIDTH 960 0
DWIDTH 8 0
BBX 4 12 4 -2
BITMAP
10
30
30
70
70
F0
F0
70
70
30
30
10
ENDCHAR
STARTCHAR U+1FB6F
ENCODING 129903
SWIDTH 960 0
DWIDTH 8 0
BBX 8 6 0 -2
BITMAP
18
3C
3C
7E
7E
FF
ENDCHAR
STARTCHAR U+1FB70
ENCODING 129904
SWIDTH 960 0
DWIDTH 8 0
BBX 1 12 1 -2
BITMAP
80
80
80
80
80
80
80
80
80
80
80
80
ENDCHAR
STARTCHAR U+1FB71
ENCODING 129905
SWIDTH 960 0
DWIDTH 8 0
BBX 1 12 2 -2
BITMAP
80
80
80
80
80
80
80
80
80
80
80
80
ENDCHAR
STARTCHAR U+1FB72
ENCODING 129906
SWIDTH 960 0
DWIDTH 8 0
BBX 1 12 3 -2
BITMAP
80
80
80
80
80
80
80
80
80
80
80
80
ENDCHAR
STARTCHAR U+1FB73
ENCODING 129907
SWIDTH 960 0
DWIDTH 8 0
BBX 1 12 4 -2
BITMAP
80
80
80
80
80
80
80
80
80
80
80
80
ENDCHAR
STARTCHAR U+1FB74
ENCODING 129908
SWIDTH 960 0
DWIDTH 8 0
BBX 1 12 5 -2
BITMAP
80
80
80
80
80
80
80
80
80
80
80
80
ENDCHAR
STARTCHAR U+1FB75
ENCODING 129909
SWIDTH 960 0
DWIDTH 8 0
BBX 1 12 6 -2
BITMAP
80
80
80
80
80
80
80
80
80
80
80
80
ENDCHAR
ENDFONT
